<svg width="100" height="111" viewBox="0 0 100 111" fill="none" xmlns="http://www.w3.org/2000/svg">
<path d="M41.4814 77.4261C41.4441 78.3483 40.6982 78.7909 40.1015 79.2335C39.6167 79.6392 39.5421 79.1228 39.5421 78.7171C37.7147 78.5696 36.7077 80.34 35.1041 80.8564C33.7988 81.299 32.4562 81.5572 31.1136 81.9629C30.7779 82.1473 30.4423 82.3317 30.1066 82.5162C29.8083 82.6637 29.5099 82.8112 29.2115 82.9588C28.2046 84.2497 26.6382 84.1022 25.3329 84.6186C23.3563 85.3931 21.2305 85.8726 19.1794 86.3521C18.5826 86.4997 17.6876 87.2742 17.3892 85.9095C17.24 86.1308 17.0536 86.3152 16.9417 86.5734C16.4942 87.4587 16.1212 88.0857 15.4499 86.6472C15.077 85.8726 14.2565 85.5407 13.3241 86.0571C12.1307 86.721 11.1611 86.3152 10.3406 85.1349C12.0188 84.3604 13.9581 85.0243 15.3753 83.8809C16.4196 83.0326 17.8741 83.5858 18.7318 82.4793C18.7691 82.4424 18.8437 82.4055 18.881 82.4055C20.9322 84.3235 20.9695 81.7785 21.79 80.967C21.3797 81.0039 20.9695 81.0039 20.5592 81.1146C15.1516 82.6268 9.74387 84.2866 4.52266 86.5366C3.25465 87.0898 2.13582 87.8275 1.01699 88.6021C0.233805 89.1184 -0.139139 90.0037 0.0473327 90.852C0.233805 91.7372 1.01699 92.0692 1.98664 92.1798C5.64149 92.5856 9.18446 92.0692 12.7274 91.2946C18.6945 90.0037 24.2887 87.6431 29.7337 84.7292C30.7779 84.176 31.8222 83.6596 33.0902 82.9957C31.8595 85.3563 30.5541 87.3111 29.7337 89.4873C28.2419 93.4339 26.0788 97.0854 24.9227 101.18C24.2514 103.54 22.9834 105.679 23.058 108.224C23.319 108.335 23.4682 108.483 23.5428 108.815C23.692 109.552 23.2072 110.843 23.9903 110.954C24.8854 111.065 26.0415 111.028 26.8993 110.253C27.1231 110.069 27.4587 109.995 27.7198 109.884C28.1673 109.7 28.2792 109.257 28.503 108.888C30.7406 105.052 32.3816 100.848 34.5819 96.9748C36.7077 93.2495 38.6843 89.4504 40.7355 85.7251C42.4884 82.5899 43.6445 79.4179 43.6445 75.7664C43.0478 76.0983 42.4138 76.4672 41.8171 76.7991C41.7052 77.0573 41.5933 77.2417 41.4814 77.4261ZM37.1926 84.3604C36.3348 85.762 35.5516 87.1636 34.7684 88.6021C33.9852 90.0037 33.5377 91.6266 32.5308 92.9175C32.1951 93.6552 31.8222 94.3929 31.4865 95.1306C31.5984 95.3519 31.1509 95.5732 31.4492 95.7945C32.3443 94.8724 32.568 95.8683 33.0902 96.3478C32.6799 96.8272 32.0086 96.4953 31.7103 97.0486C31.4492 97.4912 31.039 97.8231 31.7476 98.192C32.9783 98.819 32.4562 99.5567 31.673 99.9255C30.5169 100.516 29.8828 101.585 29.2115 102.581C28.8759 103.061 28.4657 103.835 28.8759 104.425C29.6964 105.606 28.764 106.306 28.3538 107.155C28.13 107.634 27.6452 108.114 27.1231 108.003C26.6009 107.929 26.9366 107.229 26.7874 106.934C26.0042 105.495 25.3702 106.934 24.587 107.081C24.9973 106.86 23.8785 105.975 25.0719 106.048C25.2956 106.085 25.3702 105.901 25.2956 105.753C24.8108 104.057 25.2956 103.614 26.7874 104.536C26.9739 104.647 27.3841 104.647 27.3841 104.278C27.3841 103.872 27.2722 103.393 26.6755 103.43C25.7059 103.466 25.4448 102.802 25.5194 101.954C25.5567 101.622 25.8178 101.106 26.0042 101.069C26.6009 100.995 26.3399 101.475 26.3399 101.844C26.3399 102.397 26.862 102.618 27.1977 102.471C27.6452 102.286 27.1977 101.807 27.1977 101.512C27.2349 100.516 26.1161 99.9255 26.6755 98.5977C27.1604 97.4174 27.7198 97.1961 28.7267 97.0486C28.6521 97.8231 28.5775 98.487 28.503 99.2616C29.8456 98.5239 30.5541 97.4543 30.8898 96.0896C30.666 95.7576 30.7033 95.4256 30.9271 95.0937C30.9644 94.0978 31.673 93.5445 32.1578 92.8069C31.7849 91.4053 33.0156 90.4832 33.1648 89.2291C32.7918 89.4135 32.4562 89.7455 32.0832 89.7824C31.7103 89.8192 31.1509 90.3356 30.8525 89.6348C30.5914 89.0078 31.1509 88.9709 31.5238 88.7865C32.1205 88.4545 31.7849 87.7906 31.9713 87.3111C32.8291 85.135 34.6565 83.6596 35.7381 81.631C36.1483 80.8564 36.7823 81.5941 37.2298 82.0736C37.9384 81.4465 38.1622 80.34 39.3929 80.0818C39.4675 82.0736 38.013 83.0325 37.1926 84.3604Z" fill="#D7DCE3"/>
<path d="M83.2884 25.235C82.8782 25.1612 82.5052 25.235 82.2069 25.567C80.9389 27.0792 79.1115 27.6325 77.5451 28.5546C76.8738 28.9603 76.1279 28.5915 75.4566 28.8496C75.2701 28.9972 75.0837 29.0341 74.8599 29.0341C73.2562 29.5504 71.8763 30.6201 70.1981 30.9521C69.6387 31.3209 69.1166 31.0258 68.5944 30.8045C67.7367 31.3209 66.8789 31.911 65.7973 31.5791C65.2752 31.6897 64.7531 31.7635 64.231 31.8742C61.2101 32.1323 58.152 32.5012 55.1312 31.8742C54.7209 31.8373 54.3107 31.8373 53.714 31.8004C53.714 31.8373 53.714 31.8373 53.714 31.8742C53.7886 32.0586 53.6021 31.8373 53.4902 31.7635C53.341 31.7635 53.1918 31.7635 53.0427 31.7266C54.0496 31.3947 54.609 31.4315 55.1684 31.5422C55.243 31.4684 55.3176 31.4315 55.4295 31.4684C56.0262 31.0258 56.6975 31.284 57.3315 31.2102C59.3081 30.7676 61.2847 30.6201 63.2986 30.5463C64.1191 30.8045 64.9769 31.0627 65.7973 30.5463C66.8043 29.9931 67.8112 29.6242 68.9301 30.1406C69.1538 29.9562 69.3403 29.7349 69.5641 29.5505C71.205 28.9603 72.7341 28.0751 74.5242 28.112C77.7689 26.9317 80.6778 25.0506 83.8478 23.7596C84.9294 23.317 84.1835 22.1367 84.8175 21.5835C85.004 21.0302 85.1904 20.4769 85.4142 19.9606C84.4445 19.4811 83.5122 19.5548 82.5798 19.9974C80.9389 20.772 79.3725 21.6572 77.657 22.358C75.9787 23.0219 74.2632 23.5014 72.6222 24.3129C68.669 26.2309 64.492 27.3374 60.1659 27.8169C57.518 28.112 54.8701 28.4439 52.3341 29.4398C52.446 30.3988 51.2525 30.6939 51.178 30.657C49.7235 29.7718 48.9403 31.2471 47.8587 31.616C47.001 31.8742 46.628 31.8004 47.0756 30.7676C46.7399 30.8783 46.4043 31.0258 46.0313 31.0627C45.099 31.1734 44.3904 31.8742 44.3904 32.6487C44.3904 33.5339 45.1736 34.0872 46.1432 34.0872C45.8821 33.829 45.5838 33.6077 45.3973 33.3126C45.099 32.87 45.1735 32.3905 45.5092 31.9848C45.733 31.7266 46.0686 31.4315 46.2178 31.911C46.4043 32.5381 47.7096 31.616 47.262 32.8331C47.0756 33.3495 48.3436 34.3823 46.7772 34.4192C48.6792 34.8618 50.5812 35.6732 52.5205 35.3413C54.4226 35.0462 56.3246 35.0462 58.2639 35.0831C64.0072 35.1569 69.3403 33.3864 74.6361 31.284C77.2094 30.2513 79.6336 28.9234 81.8339 27.1899C82.4307 26.7104 82.8409 26.5997 82.8409 27.5956C83.0647 26.821 83.2511 26.0465 83.4749 25.235C83.3257 25.2719 83.3257 25.2719 83.2884 25.235Z" fill="#CCCDD0"/>
<path d="M93.6563 41.3903C93.5444 41.8698 93.7681 42.0911 94.1411 42.423C94.6632 42.8288 94.7751 43.1607 94.0665 43.9353C93.3206 44.8205 92.6866 44.5623 91.978 44.673C91.7542 45.4844 93.2833 46.0008 92.3137 46.9229C92.4256 47.4024 93.0223 47.6606 92.9104 48.2507C92.9104 48.7302 93.0223 49.136 93.4325 49.431C92.7985 49.7261 92.5374 49.3573 92.351 48.8778C92.2391 48.2507 92.0899 47.5868 91.978 46.9598C91.1948 46.5541 91.344 45.7795 91.344 45.0787C90.8592 44.4886 90.5235 43.8246 90.4862 43.0132C90.0387 41.6854 89.5912 40.3944 89.1809 39.0666C87.7637 37.9601 86.1228 37.2961 84.5564 36.4478C84.8175 38.0707 85.6753 39.4723 86.0855 41.0214C87.0552 44.7467 88.7707 48.0294 90.6354 51.3121C92.1645 54.0416 93.9546 56.5497 95.8566 58.984C97.0873 60.5332 98.9148 60.5332 99.5488 58.984C99.9963 57.8775 100.22 56.7341 99.698 55.5538C98.7283 53.4145 98.3554 51.0171 97.3111 48.8778C96.789 47.845 96.3788 46.6647 96.2296 45.5213C96.0058 43.8246 95.5583 42.2755 94.8497 40.7632C94.3649 40.6895 93.8427 40.6895 93.6563 41.3903Z" fill="#D8DCE3"/>
<path d="M40.5117 56.8079C40.1015 56.6603 39.5794 56.9554 39.281 56.4021C39.02 56.2915 38.7216 56.1809 38.4606 56.1071C38.4606 56.0333 38.4606 55.9595 38.4606 55.8858C38.8335 55.8489 39.2064 55.8489 39.5794 55.812C40.8847 55.1112 42.1154 55.9595 43.3834 56.0702C45.6957 56.2915 48.0079 56.8816 50.2829 55.8489C49.8726 55.5538 49.2759 55.3325 49.4251 54.6686C49.5743 54.0416 50.171 54.1522 50.6558 54.0416C51.6628 53.8203 52.5951 53.1195 53.6394 54.226C53.8631 54.4842 54.609 53.7465 55.243 53.8571C55.0566 53.5252 54.5717 53.4145 54.609 52.8982C53.341 52.7137 52.073 53.0826 50.805 53.0457C48.4182 52.9719 46.0313 53.4514 43.6445 53.5252C40.0269 53.6358 36.4094 53.5621 32.7918 53.5621C30.666 53.5621 28.5775 53.894 26.4891 54.1891C25.4821 54.3366 24.8481 54.8161 24.6616 55.8489C24.4752 56.9185 25.0346 57.5456 25.8551 58.0988C28.8386 60.0168 32.0459 60.9389 35.5516 60.7545C35.1787 59.3898 35.1414 58.2832 36.8569 57.8406C37.5655 57.6562 37.9011 57.3243 37.8266 58.3939C37.7893 59.3529 38.6843 58.6152 39.0573 59.0947C38.9081 59.9062 37.8638 60.3856 38.0503 61.3815C38.2741 61.3815 38.4606 61.3815 38.6843 61.3815C39.5794 60.5332 39.9896 59.3898 40.0642 58.2464C40.0642 57.6193 40.288 57.2505 40.5117 56.8079ZM26.3026 57.2505C26.3772 57.6193 25.8923 57.6193 25.6313 57.3243C25.2956 56.9185 24.8481 56.4759 25.0719 55.9227C25.2956 55.4063 25.594 54.853 26.1907 54.6317C26.6382 54.4842 26.7501 54.7424 26.7501 55.2587C26.6382 55.8489 26.1161 56.4022 26.3026 57.2505Z" fill="#D9DDE4"/>
<path d="M60.3524 62.4512C60.3524 61.1602 61.3593 60.275 61.4712 59.0947C61.3966 59.0578 61.2847 59.0578 61.2101 59.0578C59.7557 60.7176 58.3385 62.4512 56.8467 64.0741C55.7279 65.2913 54.4971 66.3978 53.08 67.283C51.4763 68.2789 49.9099 69.4223 48.3436 70.5288C47.4112 71.1927 46.4789 71.8198 45.5465 72.4837C45.5838 72.5206 45.6211 72.5574 45.6584 72.6312C46.3297 72.4468 46.9637 72.5574 47.5604 72.8894C51.439 69.8649 55.8397 67.5781 59.2335 63.779C58.9352 65.8814 58.1893 67.7256 57.4061 69.5698C56.6602 73.0001 55.2803 76.2459 54.9074 79.7499C54.7582 81.0777 54.1615 82.2949 54.348 83.6596C54.6463 83.5489 54.9074 83.4383 55.2057 83.3276C55.6533 81.1515 56.1008 78.9753 56.5483 76.7991C57.2942 75.2131 57.518 73.4795 58.0401 71.8198C58.1893 71.3771 58.3385 70.9345 58.4876 70.4182C58.8233 70.8239 58.6368 71.1927 58.6368 71.5616C58.3758 74.291 58.4876 77.0204 58.9725 79.7499C59.0098 79.8605 59.0471 79.9343 59.0844 80.0449C59.2708 79.9343 59.4573 79.8605 59.6065 79.7499C60.3524 78.9753 59.3454 77.9794 59.9048 77.2048C58.786 75.5082 59.8302 73.664 59.6065 71.8935C59.4946 71.1189 59.3454 70.3813 59.2335 69.6067C58.2266 68.7952 59.1217 68.3895 59.5692 67.8731C59.7184 67.3199 59.8302 66.7297 59.9794 66.1765C60.5388 64.4429 61.1356 62.7462 61.7323 61.0127C61.2847 61.4553 61.061 62.1561 60.3524 62.4512Z" fill="#544D47"/>
<path d="M76.0533 48.8778C76.65 48.8778 76.9857 49.3204 77.3213 49.6892C77.5451 49.9474 77.7316 50.2425 77.4332 50.5376C77.0975 50.8695 76.9484 50.1687 76.4635 50.5376C77.3586 51.8654 77.9926 53.4145 78.1045 55.0374C78.2164 56.6603 78.4029 58.4677 76.5754 59.5004C77.4705 59.316 78.1418 59.1316 77.8061 60.5332C77.5078 61.8241 77.5078 63.1889 77.3586 64.4798C77.284 64.9224 77.7316 65.8076 76.9111 65.7339C76.3517 65.697 75.6431 65.0331 75.9041 64.3323C76.4263 62.8938 75.5685 63.2995 74.8972 63.3364C74.748 63.779 74.9345 64.2954 74.5615 64.6642C74.5242 64.9962 74.5242 65.3281 74.4869 65.6601C74.748 66.3978 74.5615 67.1723 74.5615 67.9469C74.9345 67.0617 75.6058 66.7666 76.389 67.0617C76.6873 67.1723 77.9553 66.9879 76.9484 68.2051C76.65 68.5371 77.1348 69.5698 76.016 69.5698C75.7922 69.5698 75.6431 70.16 75.9414 70.3813C76.2771 70.6026 77.3586 70.3813 76.7246 71.119C76.0906 71.8566 76.3144 73.7746 74.5242 73.1845C74.3378 73.7008 74.114 74.2172 74.4124 74.7336V74.7705C74.4124 74.8074 74.4124 74.8074 74.4497 74.8443C74.5988 75.3975 74.2259 76.0246 74.7853 76.504C75.4939 76.1721 76.0906 75.7664 76.389 74.9549C76.7619 73.8115 77.4705 73.8853 78.2537 74.5123C78.3656 74.5123 78.4774 74.5123 78.5893 74.5123C78.4402 70.455 78.7385 66.4347 78.8877 62.3774C78.9623 60.275 78.6639 58.2095 78.8131 56.1071C78.925 54.2998 78.925 52.3449 78.291 50.5745C78.291 51.0908 78.291 51.6072 78.291 52.1605C78.0672 51.3121 77.6943 50.4638 78.2537 49.6523C78.4774 47.4762 77.0976 45.7426 76.8365 43.714C76.7992 43.9353 76.7246 44.1566 76.6873 44.3779C76.4635 45.8164 76.016 47.2918 76.0533 48.8778Z" fill="#CCCDD0"/>
<path d="M84.2208 34.3454C84.4073 35.0093 84.4445 35.7101 84.5564 36.4109C86.1228 37.2593 87.7638 37.9232 89.1809 39.0297C88.9199 37.1486 88.174 35.3782 88.2859 33.4602C87.2043 30.6939 86.7568 27.7431 86.0482 24.8293C85.9363 24.3867 86.1228 23.4277 85.1531 23.9072C84.5564 24.4235 84.7802 25.3825 84.2581 25.8989C84.4073 26.6735 83.997 27.3374 83.8851 28.0382C83.6614 30.2144 83.6987 32.2799 84.2208 34.3454Z" fill="#DCE0E6"/>
<path d="M73.2935 79.0491C73.2935 78.8278 73.2935 78.6064 73.2935 78.3851C73.1443 78.2745 72.8087 78.127 72.846 78.0901C73.0698 77.4261 73.6292 77.4262 74.1886 77.3893C73.7411 76.6885 74.0021 75.8032 73.6665 75.0656C73.8529 74.0697 74.0767 73.0738 73.6292 72.1148C73.6292 69.828 73.6292 67.5412 73.6665 65.2544C73.6665 65.1437 73.6665 65.0331 73.6665 64.8855C73.6292 64.0741 73.5173 63.2626 73.8529 62.5249C73.107 61.234 74.7107 59.9799 73.8529 58.689C73.8156 58.689 73.8156 58.689 73.7783 58.689C73.5173 58.7259 73.2562 58.8365 73.3681 59.1685C73.5919 59.9062 73.3681 60.0537 72.6968 59.8324C71.9509 59.5742 71.9882 59.6111 71.7645 60.3488C71.6153 60.7914 71.0559 60.6807 70.7575 60.9389C70.7575 61.0496 70.7575 61.1602 70.7575 61.2709C71.6526 61.6766 71.8018 63.0413 72.9952 63.0782C73.2935 63.0782 73.107 63.6315 73.0698 63.9265C73.0325 64.2954 72.9952 64.406 72.5476 64.406C71.578 64.3691 70.944 65.0331 70.7575 65.9921C70.5337 67.0617 71.3169 67.1723 72.0628 67.5781C73.0325 68.0944 72.846 69.4223 72.3239 70.0862C71.6153 70.9714 70.7202 71.5616 71.0931 72.9263C71.1304 73.0738 70.6829 72.8156 70.4592 72.7787C70.6083 74.291 70.944 75.8032 70.7575 77.3524C71.4288 78.3483 72.212 78.9753 73.2935 79.0491Z" fill="#D1D3D6"/>
<path d="M88.6215 32.1323C88.6588 32.4274 88.808 32.7225 88.808 32.9807C89.0691 34.2716 89.1809 35.5995 89.7776 36.7798C91.0084 36.8535 90.0014 37.665 90.1506 38.1076C90.0014 38.8084 90.4117 39.3985 90.5235 40.0256C90.8219 39.8043 91.1202 39.583 91.4186 39.3617C90.7846 38.624 91.0084 37.6281 90.9338 36.7798C90.8219 35.6363 92.3883 35.9683 92.6866 35.0462C92.612 34.3454 92.6493 33.6077 92.4255 32.9807C91.2321 29.8824 89.9641 26.7841 88.6588 23.7227C88.2113 22.69 87.6892 21.6572 86.7941 20.9564C86.6822 22.6162 87.1297 24.2022 87.4654 25.7514C87.9502 27.8907 88.2859 29.9931 88.6215 32.1323Z" fill="#DBDFE6"/>
<path d="M50.6931 87.2742C51.7747 85.8358 52.2222 85.8358 53.341 87.3111C53.6767 86.0939 54.348 84.9874 54.2734 83.6596C54.0869 82.2949 54.6836 81.0777 54.8328 79.7499C55.243 76.2459 56.5856 72.9632 57.3315 69.5698C56.9959 69.7911 56.5856 69.9387 56.3619 70.3813C55.616 72.0411 54.7209 73.6271 54.1988 75.4344C53.714 77.1311 53.3037 78.9015 52.3341 80.4138C52.2595 80.9302 52.5578 81.5941 51.7374 81.7416C51.7747 82.4793 51.439 83.1063 51.0661 83.6965C50.2456 84.9874 49.9472 86.4259 49.8353 87.9381C50.2829 87.9381 50.4694 87.5693 50.6931 87.2742Z" fill="#D8DCE3"/>
<path d="M46.6653 59.2791C45.5465 58.4677 45.9567 58.0251 46.7026 57.4718C46.7026 57.4718 46.7026 57.4349 46.6653 57.4349C44.6141 57.2136 42.5629 57.0292 40.4745 56.8079C40.2507 57.2505 40.0269 57.6193 39.9896 58.2095C39.915 59.3529 39.5048 60.4963 38.6097 61.3446C41.6306 61.6766 44.6141 62.0454 47.6723 61.6766C47.7096 60.6807 47.262 59.7586 46.6653 59.2791Z" fill="#D6DBE2"/>
<path d="M26.6382 73.7746C26.3772 73.1107 26.6009 72.4468 27.0858 71.9304C26.5636 71.5984 26.0788 71.2296 25.5567 70.8976C25.2956 70.9714 25.0719 71.0083 24.8108 71.0821C24.4379 71.1927 24.1768 71.0452 24.1022 70.7132C24.0649 70.5657 24.1768 70.3075 24.2887 70.16C24.4752 69.9387 24.8108 69.8649 24.96 70.0493C25.4821 70.6763 26.1534 70.5657 26.7874 70.6026C26.9366 70.6026 27.1231 70.6395 27.2722 70.6395C27.7944 70.1968 28.4284 70.3075 29.0624 70.3813C28.2792 69.7542 28.2046 68.1682 26.7128 68.6108C25.0719 69.1272 23.6174 68.1682 22.0883 67.9838C21.2678 67.8731 20.1863 67.91 19.3285 68.6477C20.522 68.9797 21.5289 69.8649 22.8715 69.3854C22.4613 70.7132 22.2375 70.2337 21.6035 70.5657C20.4847 71.1558 20.2609 70.4182 19.7388 69.7542C19.9625 70.6395 19.5896 71.5247 20.149 72.2624C21.6408 72.0411 21.8273 73 21.7154 74.2172C22.0137 74.2172 22.3494 74.2172 22.6477 74.2541C23.319 72.5574 24.5125 73.1476 26.0042 73.5533C25.1092 73.9959 24.4752 74.291 23.8785 74.623C24.5497 75.1762 25.4448 74.7336 26.1161 75.2131C26.4891 74.7336 26.8993 74.4754 26.6382 73.7746Z" fill="#D5D7D9"/>
<path d="M60.7999 58.0619C61.322 57.6193 61.4712 57.0292 61.4339 56.3653C60.2405 56.0702 59.1217 56.2177 58.0401 56.8448C55.243 57.1767 52.4087 57.398 49.5743 57.4349C49.5743 57.4718 49.5743 57.5456 49.537 57.5825C49.3878 58.2095 47.7096 57.73 48.53 58.8734C48.9776 59.5004 49.9845 59.7217 50.9169 59.1685C52.2968 58.357 53.0427 58.5783 53.975 59.9799C55.3549 59.648 56.8094 59.8693 58.152 59.3529C58.4504 59.2422 58.7487 59.316 58.9725 59.648C59.1962 59.5373 59.3827 59.4267 59.6065 59.316C59.6438 58.6152 60.3524 58.4677 60.7999 58.0619Z" fill="#E3E6EB"/>
<path d="M38.013 70.8608C37.6401 71.414 37.2671 71.9673 37.379 72.7419C39.0573 72.0779 40.7355 72.373 42.3765 72.8525C43.3088 72.0042 44.4277 72.4837 45.4719 72.4468C46.4043 71.7829 47.3366 71.1558 48.269 70.4919C47.1874 70.7132 47.5231 69.5329 47.0756 69.201C45.9194 70.3813 44.9125 69.7911 43.9428 68.9059C42.3765 68.9059 40.8101 68.9059 39.281 68.9059C40.1388 69.9018 39.915 70.2706 38.013 70.8608Z" fill="#CECFD2"/>
<path d="M25.1838 82.6637C26.1161 83.4752 26.8247 82.1104 27.7198 82.3686C28.3538 81.5572 28.9505 82.7744 29.5845 82.3686C29.8829 81.8891 30.2185 81.4465 30.8152 81.3728C31.8967 80.8564 32.9037 80.1925 34.1344 80.0818C34.5819 80.0449 35.1787 79.8605 35.216 79.1597C34.4328 78.0163 32.941 78.7171 32.0832 77.795C29.6964 78.5696 27.2722 79.3072 24.8854 80.0818C25.6313 80.8564 26.3772 81.631 25.1838 82.6637Z" fill="#D7DBE2"/>
<path d="M78.291 74.4754C77.9553 75.1024 76.8365 75.4344 77.6943 76.3565C77.1348 76.8729 76.9484 76.3565 76.65 76.2827C76.1279 76.1352 75.6804 76.5409 76.016 76.9098C77.3586 78.2376 76.016 79.2335 75.7923 80.3769C76.2025 80.4507 76.6127 80.5244 77.023 80.5982C77.3959 80.2662 76.65 79.8605 77.023 79.4917C77.3213 79.381 77.5078 79.5285 77.6943 79.7867C77.918 80.0818 78.291 80.3031 77.8434 80.7088C76.6873 81.8154 76.8365 82.9219 77.9926 83.9915C77.3586 84.4342 77.1721 83.512 76.7246 83.6965C76.4263 84.1391 76.4263 84.5817 76.7246 85.0243C77.0603 85.0612 77.5078 84.6186 77.7689 85.2456C78.0672 85.8726 77.657 86.1677 77.3213 86.4628C77.0603 86.721 76.9111 87.2742 76.3517 87.0529C75.6058 86.7579 75.4939 86.8316 75.5685 87.5693C75.6058 87.8644 75.755 88.1595 75.8668 88.4176C74.9718 89.2291 74.7853 86.8685 73.8529 87.975C74.2259 89.0816 74.6734 90.0774 76.0533 89.9668C76.0533 89.7824 75.9414 89.4504 76.016 89.3766C77.3959 88.4176 78.0299 86.9054 78.5147 85.3562C78.7385 81.7416 78.7012 78.127 78.552 74.5123C78.5147 74.4754 78.4029 74.4754 78.291 74.4754Z" fill="#CBCDD0"/>
<path d="M45.0244 73.0738C45.0617 72.8894 45.3973 72.7419 45.5838 72.5943C45.5465 72.5574 45.5092 72.5206 45.4719 72.4837C44.4277 72.5206 43.3461 72.0042 42.3765 72.8894C42.5629 73.1845 42.7867 73.4796 42.9732 73.7746C43.1969 74.2172 43.1224 74.291 42.3765 74.5123C42.2646 74.8074 42.1527 75.1025 41.7798 75.1762C39.654 76.6516 37.5655 78.1638 35.1787 79.1597C35.1414 79.8605 34.5446 80.0449 34.0971 80.0818C32.8664 80.2294 31.8595 80.8564 30.7779 81.3728C30.8898 81.5941 31.0017 81.8154 31.1136 82.0367C32.4189 81.631 33.7615 81.3728 35.1041 80.9302C36.7077 80.4138 37.7147 78.6433 39.5421 78.7909C39.7659 78.5696 39.9896 78.3483 40.2134 78.0901C40.4745 77.2786 40.5863 76.2828 41.7798 76.8729C42.3765 76.5409 43.0105 76.1721 43.6072 75.8401C44.5768 74.9549 45.6211 74.1804 46.7772 73.5533C46.3297 73.4796 45.8821 73.4427 45.4346 73.3689C45.2854 73.2951 44.9498 73.4058 45.0244 73.0738Z" fill="#56504B"/>
<path d="M20.1863 72.1886C19.6269 71.4878 19.9998 70.6026 19.7761 69.6805C20.2982 70.3444 20.522 71.0821 21.6408 70.4919C22.2748 70.16 22.4986 70.6395 22.9088 69.3116C21.5662 69.7911 20.5592 68.9059 19.3658 68.5739C20.1863 67.8363 21.2678 67.7994 22.1256 67.91C23.6547 68.0945 25.1092 69.0903 26.7501 68.5371C28.2419 68.0576 28.3165 69.6436 29.0997 70.3075C28.4657 70.2337 27.8317 70.1231 27.3095 70.5657C27.9435 70.8976 28.6148 71.2296 29.2488 71.5616C29.5472 71.6722 29.8828 71.746 30.1812 71.8566C30.2931 71.746 30.405 71.6353 30.4796 71.5247C29.398 70.1231 29.5472 69.7173 31.1136 69.4223C31.5238 69.3485 31.3746 68.9059 31.4119 68.6108C27.4587 68.0945 23.5801 67.0617 19.5523 67.283C18.9929 67.6149 18.5826 68.0576 18.2843 68.6108C19.0675 68.7215 18.5454 69.0534 18.4335 69.3485C18.2097 69.9018 17.9486 70.455 18.6945 70.8608C19.9625 71.4878 19.2539 72.0411 18.6199 72.5574C19.4031 72.6312 19.1421 73.0738 18.9556 73.5164C19.2539 73.6271 19.5896 73.7377 19.888 73.8484C19.9252 73.2214 19.5896 72.5943 20.1863 72.1886Z" fill="#CECFD2"/>
<path d="M86.7568 19.1122C87.2043 17.895 86.7568 16.6041 87.0552 15.4238C87.8383 12.0673 88.5469 8.74776 88.2859 5.28064C88.0621 4.211 87.5027 3.14136 87.9502 1.99795C87.9502 1.8873 87.9129 1.77664 87.9129 1.66599C87.7637 1.4078 87.6519 0.928307 87.5027 0.928307C87.0925 0.854538 86.9433 1.29715 86.8314 1.66599C86.6822 2.21925 86.533 2.8094 86.3839 3.36266C86.4957 4.32165 86.5703 5.28064 86.6822 6.23963C87.4281 8.45269 87.0925 10.6289 86.3839 12.805C85.7499 13.4321 87.0179 13.5058 86.6822 14.0591C85.899 15.3869 85.9736 16.9361 85.7872 18.4114C86.0109 18.1532 86.2347 17.8582 86.6449 17.3418C86.6822 18.1163 86.7195 18.5958 86.7568 19.1122Z" fill="#332E29"/>
<path d="M31.1509 69.3854C29.5845 69.6805 29.4353 70.0862 30.5169 71.4878C32.1578 72.0411 33.9106 71.8198 35.5143 72.5574C36.1856 72.2255 36.745 72.9263 37.4163 72.705C37.2671 71.9673 37.6774 71.3771 38.0503 70.8239C38.0503 70.6026 38.0503 70.3813 38.0503 70.16C37.6774 70.2706 37.2671 70.7501 36.9315 70.2337C36.745 69.9387 36.5585 69.5329 36.4094 69.2747C36.2975 69.2379 36.1856 69.201 36.0364 69.1641C35.9245 69.2747 35.8127 69.6067 35.6635 70.2337C35.6262 70.4919 35.1414 70.2706 35.0668 70.0124C34.5446 68.3895 33.6869 69.5329 32.9783 69.7174C32.6053 69.828 32.4189 70.5657 31.9713 70.1968C31.4492 69.7911 32.2697 69.4961 32.1951 69.0903C32.1578 68.869 32.1205 68.6477 32.0832 68.4633C31.8595 68.4633 31.673 68.4633 31.4492 68.4633C31.4119 68.869 31.5611 69.3116 31.1509 69.3854Z" fill="#D3D5D8"/>
<path d="M76.016 85.0981C76.016 85.3563 76.5381 85.2456 76.7619 84.9505C76.4635 84.5079 76.4635 84.0653 76.7619 83.6227C74.9718 82.8112 74.9718 82.7375 75.9787 81.0777C76.0533 80.9302 75.9041 80.5982 75.8295 80.34C75.1955 80.8195 75.0091 80.8195 75.0464 80.3769C75.1209 79.0122 74.3005 78.9384 73.3308 79.0122C72.212 78.9384 71.4661 78.2745 70.8321 77.3893C70.8321 78.1638 70.7202 78.9753 71.1304 79.6761C71.8018 80.1187 71.6526 81.0039 71.9882 81.631C72.2493 82.1105 71.6526 81.8523 71.4288 81.9629C71.4288 82.3318 71.3915 82.7006 71.7272 82.9588C72.473 83.0326 73.2562 83.0326 73.9648 83.2539C74.8599 83.5858 75.9787 83.6596 76.016 85.0981Z" fill="#D8DADC"/>
<path d="M84.2581 25.9727C84.2581 25.3457 83.8478 25.2719 83.363 25.2719V25.3088C83.1393 26.0833 82.9528 26.8579 82.729 27.6694C81.0508 30.7307 80.2303 34.0872 79.2233 37.4068C79.3725 37.7756 79.5963 37.9969 79.9319 38.1076C80.2303 37.5912 80.6032 37.1117 80.7524 36.5584C81.5356 33.6446 83.0647 31.0258 83.8851 28.112C83.997 27.3743 84.4073 26.7104 84.2581 25.9727Z" fill="#565049"/>
<path d="M34.5819 73.4795C34.5446 73.4058 34.5074 73.2951 34.4701 73.2214C33.0156 73.2951 31.6357 72.8156 30.2185 72.4468C29.8456 72.5943 29.5845 72.2624 29.2861 72.1148C29.2861 72.1148 29.2861 72.1148 29.2488 72.1517L29.2861 72.2255C28.9878 73.0001 28.8013 73.7746 29.771 74.2541C29.1743 74.7705 28.3911 73.5902 27.9062 74.7336C27.8317 74.9549 27.2349 74.4385 27.1231 74.0697C27.0112 73.5902 26.862 72.8525 27.5706 72.7787C28.0181 72.7419 28.3911 72.7419 28.5775 72.2624C28.0554 72.1517 27.5333 72.0411 27.0112 71.9304C26.5264 72.4468 26.3026 73.1476 26.5636 73.7746C26.8247 74.4754 26.4145 74.7336 26.0788 75.1025C28.2419 75.5082 30.3677 76.3196 32.6053 76.0983C31.8595 73.4795 31.8595 73.4795 34.5819 73.4795Z" fill="#CED0D3"/>
<path d="M39.6167 75.4344C40.288 74.291 41.3695 74.4754 42.4138 74.4754C43.1597 74.2541 43.2342 74.1803 43.0105 73.7377C41.4068 73.332 39.8404 74.0328 38.2741 73.8115C37.0434 73.6271 35.85 72.9263 34.5819 73.5164C31.8967 73.5164 31.8967 73.5164 32.7172 76.0983C32.941 76.0983 33.1275 76.0983 33.3512 76.0983C33.6496 75.1393 34.3955 75.3975 35.0668 75.3606C35.0295 75.6188 34.9549 75.877 34.9176 76.0983C35.1414 76.0983 35.3278 76.0983 35.5516 76.0983C35.5516 75.9508 35.7008 75.877 35.8127 75.8401C35.9245 75.7295 36.0737 75.6557 36.1856 75.5819C36.1856 75.5451 36.1856 75.4713 36.1856 75.3606C36.111 75.0656 35.3278 74.9918 35.8499 74.5492C36.2229 74.2541 36.7823 74.3648 37.1553 74.6967C37.6028 75.1024 38.013 75.5082 38.647 75.3975C38.6097 75.4344 38.5351 75.4344 38.4979 75.4713H38.5351C38.5724 75.4713 38.6097 75.4344 38.647 75.3975C38.9454 75.3975 39.2437 75.3975 39.5421 75.3975C39.5421 75.4713 39.6167 75.4344 39.6167 75.4344Z" fill="#D5D7D9"/>
<path d="M85.1531 23.9441C86.1601 23.4646 85.9736 24.4235 86.0482 24.8662C86.7195 27.7431 87.2043 30.6939 88.2859 33.4971C88.7707 33.1282 88.5469 32.6118 88.6215 32.1323C88.2859 29.9931 87.9502 27.8907 87.4654 25.7883C87.0925 24.2391 86.6449 22.6531 86.7941 20.9933C86.6822 20.8827 86.5703 20.7351 86.4584 20.6245C86.3839 21.104 86.4584 21.9523 85.7871 21.8048C85.1158 21.6572 85.7499 21.0302 85.7499 20.5876C85.7499 20.2556 85.7871 19.9237 85.5261 19.7024C85.4888 19.813 85.4515 19.9237 85.4142 19.9974C85.2277 20.5507 85.0413 21.104 84.8175 21.6203C85.004 22.3949 84.5937 23.2433 85.1531 23.9441Z" fill="#56504B"/>
<path d="M88.6215 32.1323C88.6961 32.4274 88.7334 32.6856 88.808 32.9807C88.8453 32.7225 88.6961 32.3905 88.6215 32.1323Z" fill="#56504B"/>
<path d="M62.3663 74.4754C61.7323 75.7664 62.6646 76.8729 62.8884 78.0163C63.0003 78.6802 63.1494 79.381 63.3359 80.0449C63.3359 80.2662 63.3359 80.4875 63.3359 80.7089C64.1191 81.926 63.1867 83.4383 63.9699 84.6555C63.9699 84.7661 63.9699 84.8768 63.9699 84.9874C64.1564 86.0939 64.9769 86.8316 65.3498 87.7906C65.5736 88.307 65.7601 87.9382 65.8346 87.5693C65.7601 84.3235 64.7904 81.2621 63.9326 78.2007C63.597 76.9467 63.5597 75.5451 62.7392 74.4385C62.59 74.4754 62.4781 74.4754 62.3663 74.4754Z" fill="#CACCD0"/>
<path d="M57.4061 84.2866C57.0332 82.4424 56.884 80.5613 56.7721 78.6802C56.7348 78.0532 56.9959 77.3524 56.5111 76.7991C56.0635 78.9753 55.616 81.1515 55.1685 83.3276C55.1312 84.2128 54.6463 84.9874 54.7955 85.9095C55.0939 85.6882 55.3549 85.4669 55.6533 85.2456C55.877 85.0981 56.1008 84.9136 56.3619 85.1718C56.5856 85.3931 56.7348 85.6882 56.5483 86.0202C55.9516 86.9423 56.1008 88.1963 55.2803 89.0816C54.609 89.7824 55.2057 90.0774 55.877 90.1881C56.3992 88.6758 56.9213 87.1267 57.4434 85.6144C57.3688 85.1718 57.3688 84.7292 57.4061 84.2866Z" fill="#D7DCE3"/>
<path d="M71.1677 73C70.8321 71.6353 71.7272 71.0452 72.3985 70.16C72.9206 69.496 73.107 68.1682 72.1374 67.6518C71.3915 67.2461 70.6083 67.1355 70.8321 66.0658C71.0186 65.1437 71.6526 64.4429 72.6222 64.4798C73.0698 64.4798 73.107 64.3691 73.1443 64.0003C73.1816 63.6683 73.3681 63.152 73.0698 63.152C71.839 63.1151 71.6899 61.7504 70.8321 61.3446C70.31 65.1437 70.4964 68.9797 70.5337 72.8156C70.7575 72.8894 71.205 73.1476 71.1677 73Z" fill="#CBCED1"/>
<path d="M91.4186 39.3617C91.1202 39.583 90.8219 39.8043 90.5235 40.0256C90.7473 41.2427 91.5305 42.3124 91.1202 43.6402C91.5305 43.8246 91.7915 44.0459 91.4559 44.5254C91.6424 44.5623 91.8288 44.5992 91.978 44.6361C92.7239 44.5254 93.3206 44.7836 94.0665 43.8984C94.7378 43.087 94.6259 42.7919 94.1411 42.3862C93.7681 42.0911 93.5444 41.8698 93.6563 41.3534C93.8054 40.6895 94.3649 40.6526 94.887 40.6526C94.8497 40.2838 94.9243 39.9149 94.5513 39.6936C93.4698 40.2838 92.3883 40.3206 91.4186 39.3617Z" fill="#DDE2E8"/>
<path d="M48.3809 60.3856C48.7165 60.0168 49.2013 60.0906 49.6862 60.275C51.1034 60.7914 52.5578 60.9389 53.9377 60.0537C53.0054 58.6521 52.2595 58.3939 50.8796 59.2422C49.9845 59.7955 48.9776 59.6111 48.4928 58.9472C47.6723 57.8038 49.3505 58.2832 49.4997 57.6562C49.4997 57.6193 49.4997 57.5456 49.537 57.5087C48.6046 57.3611 47.6723 56.9923 46.7399 57.5087C46.7026 57.5087 46.7026 57.5456 46.7026 57.5456C45.9194 58.0988 45.5465 58.5046 46.6653 59.3529C47.262 59.7955 47.7096 60.7545 47.7096 61.7135C48.0079 61.7135 48.3436 61.7135 48.6419 61.7135C48.53 61.234 47.9333 60.8651 48.3809 60.3856Z" fill="#DDE1E7"/>
<path d="M55.2057 53.8203C55.9516 53.7465 56.511 52.8982 57.4061 53.1563C57.8163 53.1563 58.2266 53.1563 58.6741 53.1563C59.2708 53.267 59.8675 53.4145 60.4643 53.4883C61.5085 53.5621 61.4712 54.3366 61.4712 55.1112C61.695 55.3694 61.9933 55.4063 62.329 55.4063C62.329 55.2219 62.1425 54.9268 62.4036 54.853C63.5597 54.4842 64.7158 54.1891 65.8719 53.8571C66.1703 53.7096 66.4687 53.599 66.767 53.4514C66.8043 53.3776 66.8043 53.267 66.8043 53.1932C66.6178 52.1974 65.8719 52.5293 65.3125 52.5293C61.7323 52.6031 58.1893 52.7506 54.609 52.8613C54.5344 53.3408 55.0193 53.4514 55.2057 53.8203Z" fill="#D5DAE1"/>
<path d="M67.0281 53.1195C66.9535 53.1195 66.8416 53.1563 66.767 53.1563C66.767 53.267 66.767 53.3408 66.7297 53.4145C66.8043 54.2629 66.2449 54.4104 65.6482 54.5579C65.7228 54.2998 65.7601 54.0784 65.8346 53.8203C64.6785 54.1522 63.5224 54.4473 62.3663 54.8161C62.1052 54.8899 62.2917 55.185 62.2917 55.3694C62.6646 55.4432 63.0376 55.3325 63.3359 55.6645C63.858 55.6276 64.1937 55.0374 64.9023 55.185C64.3429 55.7382 63.8207 56.2177 63.3359 56.6603C63.1494 56.8817 62.9257 57.1398 62.7392 57.3611C63.4851 58.5783 62.1052 59.2791 62.1425 60.3488C62.6646 59.9062 63.1494 59.4267 63.6716 58.9841C63.7462 58.5414 63.6343 58.0251 64.3056 57.9882C65.5736 56.6972 66.8416 55.4063 68.1096 54.1522C68.7436 52.7506 67.5875 53.2301 67.0281 53.1195Z" fill="#57504A"/>
<path d="M72.7341 49.2466C73.48 48.6934 74.114 47.9926 74.8972 47.218C74.8972 48.1032 74.8972 48.9884 74.8972 49.8736C75.0837 50.095 75.3074 50.3163 75.4939 50.5376C75.9414 50.095 75.5312 49.3204 76.0533 48.8778C75.9787 47.2918 76.4635 45.8164 76.6873 44.3041C76.2771 44.8943 75.8668 45.4844 75.4566 46.0746C75.382 46.0377 75.3447 46.0377 75.2701 46.0008C75.4193 45.2262 75.6058 44.4148 75.755 43.6402C75.6058 43.6402 75.4193 43.6402 75.2701 43.6402C74.114 45.0049 72.9952 46.3328 72.0255 47.8819C72.8833 47.9926 72.4358 48.8409 72.7341 49.2466Z" fill="#56514A"/>
<path d="M59.1962 69.5698C59.8675 69.7911 60.5388 70.0862 60.6134 70.8976C60.688 71.5616 60.1286 71.7829 59.5692 71.8566C59.7929 73.6271 58.7487 75.4713 59.8675 77.168C59.9421 76.4303 59.9048 75.7664 60.9491 75.6188C61.8069 75.5082 61.1355 74.5123 61.2847 73.9959C61.7696 73.9222 62.1052 74.1435 62.3663 74.4754C62.4781 74.4754 62.59 74.4754 62.7019 74.4754C62.2544 71.9304 60.5388 70.0862 59.4946 67.8731C59.0471 68.3526 58.1893 68.7584 59.1962 69.5698Z" fill="#CECFD2"/>
<path d="M90.9338 36.8166C91.0084 37.665 90.7846 38.624 91.4186 39.3985C92.3883 40.3575 93.4325 40.3206 94.5513 39.7305C93.9919 38.1814 94.0665 36.3003 92.6866 35.12C92.3883 36.0052 90.8219 35.6363 90.9338 36.8166Z" fill="#D7DBE3"/>
<path d="M73.8902 57.73C74.2632 55.812 73.7784 53.7465 74.6361 51.9023C74.1513 51.6072 73.9275 52.6768 73.4427 52.1605C73.3308 52.0498 73.3681 51.7179 73.4427 51.5703C73.6665 51.1277 74.0394 51.1646 74.3378 51.3859C74.4496 51.4597 74.5242 51.6441 74.5615 51.8285C74.5988 51.8285 74.6361 51.8654 74.6734 51.8654C75.121 51.3859 74.8226 50.7958 74.8226 50.2425C74.4869 49.8368 74.1886 49.3573 73.6292 49.3573C73.0325 51.0908 72.3985 52.7875 72.9206 54.7424C73.1816 55.6645 71.7645 55.5538 71.6526 56.4022C71.6526 56.5128 71.205 56.144 71.1677 55.812C70.6456 56.2546 70.9813 56.6972 71.1677 57.1398C72.1747 56.6603 72.9206 57.6931 73.8902 57.73Z" fill="#D1D2D4"/>
<path d="M74.5988 51.8654C74.5988 51.9023 74.5988 51.9023 74.5988 51.8654V51.8654Z" fill="#D1D2D4"/>
<path d="M71.6153 56.3653C71.7645 55.5169 73.1443 55.6276 72.8833 54.7055C72.3612 52.7506 72.9952 51.0539 73.5919 49.3204C74.1886 49.3204 74.4496 49.7999 74.7853 50.2056C74.8226 50.095 74.8599 49.9843 74.8972 49.8736C74.8972 48.9884 74.8972 48.1032 74.8972 47.218C74.114 47.9557 73.48 48.6934 72.7341 49.2466C72.6222 49.431 72.473 49.6523 72.3612 49.8368C72.473 51.9392 71.0186 53.6727 71.1304 55.7751C71.1677 56.1071 71.578 56.4759 71.6153 56.3653Z" fill="#CBCDD0"/>
<path d="M79.2233 37.4068C78.7385 37.7387 78.291 38.1076 78.0299 38.624C77.1348 40.3206 76.2025 41.9804 75.2701 43.6402C75.4193 43.6402 75.6058 43.6402 75.755 43.6402C75.9041 43.4189 76.016 43.1976 76.1652 42.9763C76.3144 42.7181 76.4636 42.3124 76.8365 42.4968C77.1721 42.6443 77.0603 43.0501 77.0603 43.3451C78.7012 42.0173 79.1115 39.9518 79.9692 38.1076C79.6336 37.96 79.3725 37.7387 79.2233 37.4068Z" fill="#58514C"/>
<path d="M35.216 79.1228C37.6028 78.0901 39.6913 76.6147 41.8171 75.1393C41.0712 75.25 40.3253 75.3238 39.5794 75.4344L39.5048 75.4713C38.8708 76.209 38.4606 77.3893 37.3417 77.2048C35.5143 76.8729 33.7988 77.3155 32.0459 77.7581C32.941 78.7171 34.4328 77.9794 35.216 79.1228Z" fill="#D0D5DD"/>
<path d="M39.02 59.0578C38.647 58.5414 37.752 59.2791 37.7893 58.357C37.8266 57.2874 37.4909 57.6193 36.8196 57.8038C35.1041 58.2464 35.1414 59.3529 35.5143 60.7176C36.3348 60.9389 37.1926 61.1602 38.013 61.3815C37.8266 60.3119 38.8708 59.8693 39.02 59.0578Z" fill="#D6DBE2"/>
<path d="M58.1147 59.4267C56.7721 59.943 55.3176 59.6848 53.9377 60.0537C52.5578 60.9389 51.1034 60.7914 49.6862 60.275C49.2013 60.0906 48.7538 60.0168 48.3809 60.3856C47.896 60.8651 48.53 61.234 48.6046 61.6766C52.1103 61.4553 55.5414 60.6807 58.8979 59.7217C58.7114 59.3898 58.4131 59.316 58.1147 59.4267Z" fill="#D6DBE2"/>
<path d="M71.839 60.4225C72.0628 59.6849 72.0255 59.648 72.7714 59.9062C73.4427 60.1275 73.6665 59.9799 73.4427 59.2422C73.3308 58.9103 73.5919 58.7996 73.8529 58.7627H73.8902C73.8902 58.4308 73.8902 58.0988 73.8902 57.7669C72.9206 57.73 72.1747 56.6972 71.1304 57.103C71.0186 58.4308 70.6829 59.6848 70.8321 61.0496C71.1305 60.7545 71.6899 60.8651 71.839 60.4225Z" fill="#CBCDD0"/>
<path d="M31.934 70.3075C32.3816 70.6763 32.568 69.9018 32.941 69.828C33.6496 69.6436 34.5074 68.5002 35.0295 70.1231C35.1041 70.3813 35.5516 70.6026 35.6262 70.3444C35.7754 69.7174 35.8872 69.3854 35.9991 69.2747C36.111 69.1641 36.2229 69.2379 36.3721 69.3854C36.5213 69.6067 36.7077 70.0124 36.8942 70.3444C37.2298 70.8608 37.6401 70.3813 38.013 70.2706C37.379 69.3116 38.3487 69.5329 38.6843 69.2747C38.2368 68.869 37.7147 68.869 37.118 68.869C35.4397 68.869 33.7615 68.7215 32.0832 68.6477C32.1205 68.869 32.1578 69.0903 32.1951 69.2747C32.2324 69.6067 31.4119 69.9018 31.934 70.3075Z" fill="#CECFD2"/>
<path d="M47.8587 31.6529C48.9403 31.3209 49.7235 29.8455 51.178 30.6939C51.2525 30.7307 52.446 30.4357 52.3341 29.4767C50.5439 29.7718 48.6792 29.7718 47.0383 30.8045C46.628 31.8373 47.0383 31.9479 47.8587 31.6529Z" fill="#CACBCF"/>
<path d="M62.6646 57.398C62.8511 57.1767 63.0749 56.9185 63.2613 56.6972C63.1494 56.4022 63.0749 56.1071 62.963 55.812C62.329 55.6645 61.8814 56.0333 61.3966 56.3653C61.4339 57.0292 61.2474 57.5825 60.7626 58.0619C60.3151 58.4677 59.6438 58.5783 59.5319 59.3529C60.054 59.2422 60.6134 59.1685 61.1356 59.0578C61.2474 59.0578 61.322 59.0578 61.3966 59.0947C61.8814 58.5414 61.8814 57.6931 62.6646 57.398Z" fill="#DBDFE5"/>
<path d="M70.5337 51.6072C70.6456 51.0908 70.7948 50.5745 71.4288 50.5745C71.1677 50.0212 71.9882 49.431 71.3915 48.8778C70.6083 49.3942 69.8251 49.9474 69.1911 50.722C69.4149 51.4228 67.1772 52.1974 69.2657 52.8244C69.4522 52.6031 69.676 52.3818 69.8624 52.1605C69.8997 51.681 69.8997 51.2015 69.937 50.5745C70.4592 50.8326 70.1235 51.4597 70.5337 51.6072Z" fill="#57504A"/>
<path d="M47.2247 32.87C47.6723 31.6529 46.3297 32.575 46.1805 31.9479C46.0313 31.5053 45.6957 31.8004 45.4719 32.0217C45.1363 32.4274 45.0617 32.9069 45.36 33.3495C45.5465 33.6446 45.8821 33.8659 46.1059 34.1241C46.2924 34.2347 46.5161 34.3085 46.7026 34.4192C48.3063 34.4561 47.0383 33.3864 47.2247 32.87Z" fill="#CACBCF"/>
<path d="M62.6646 57.398C61.8814 57.6562 61.8814 58.5414 61.4339 59.0947C61.322 60.275 60.3151 61.1602 60.3151 62.4512C61.061 62.1192 61.2474 61.4553 61.6577 61.0127C61.7696 60.7914 61.9187 60.607 62.0306 60.3857C62.0306 59.3529 63.4105 58.6152 62.6646 57.398Z" fill="#25211C"/>
<path d="M86.6822 6.23963C86.6076 7.41993 86.6076 8.63711 86.3839 9.8174C86.1974 10.8502 85.8617 11.8091 86.3466 12.805C87.0925 10.6289 87.4281 8.45269 86.6822 6.23963Z" fill="#5F5954"/>
<path d="M85.7872 20.5876C85.7872 20.9933 85.1531 21.6572 85.8244 21.8048C86.4957 21.9523 86.4212 21.1409 86.4957 20.6245C86.6076 20.1081 86.7195 19.5917 86.7941 19.1122C86.7568 18.6327 86.7195 18.1163 86.6822 17.3049C86.272 17.8213 86.0482 18.1163 85.8244 18.3745C85.3769 18.7434 85.5634 19.2229 85.5634 19.7024C85.8244 19.9237 85.7872 20.2556 85.7872 20.5876Z" fill="#312C28"/>
<path d="M26.0415 73.4427C24.5498 73.0369 23.3936 72.4468 22.685 74.1435C22.9834 74.5861 23.4682 74.4385 23.9157 74.4754C24.5125 74.1803 25.1465 73.8853 26.0415 73.4427Z" fill="#CBCDD0"/>
<path d="M47.0756 69.201C46.1059 68.0945 45.0244 68.5002 43.9428 68.9059C44.9125 69.7911 45.9194 70.4182 47.0756 69.201Z" fill="#CACBCF"/>
<path d="M76.8365 42.4599C76.4636 42.2755 76.3144 42.6812 76.1652 42.9394C76.0533 43.1607 75.9041 43.382 75.755 43.6033C75.6058 44.3779 75.4193 45.1894 75.2701 45.9639C75.3447 46.0008 75.382 46.0008 75.4566 46.0377C75.8668 45.4475 76.2771 44.8574 76.6873 44.2673C76.7246 44.0459 76.7992 43.8246 76.8365 43.6033C76.9111 43.4927 76.9484 43.4189 77.023 43.3083C77.023 43.0132 77.1721 42.6075 76.8365 42.4599Z" fill="#27231F"/>
<path d="M37.1553 74.7336C36.7823 74.3648 36.2229 74.291 35.8499 74.5861C35.3278 75.0287 36.111 75.1024 36.1856 75.3975C36.2229 75.4713 36.2229 75.5451 36.1856 75.6188C36.1483 75.8032 35.9618 75.8032 35.8127 75.877C35.6635 75.9139 35.5516 75.9508 35.5516 76.1352C36.5958 76.209 37.6028 76.0983 38.4979 75.5819C38.5351 75.5451 38.6097 75.5451 38.647 75.5082C38.013 75.5451 37.5655 75.1762 37.1553 74.7336Z" fill="#CED0D3"/>
<path d="M69.1911 50.722C68.408 51.4966 67.3264 51.9392 66.9908 53.1563C67.5502 53.267 68.7063 52.7506 67.9977 54.226C68.5944 53.9678 68.8928 53.3777 69.2657 52.8613C67.2145 52.1974 69.4149 51.3859 69.1911 50.722Z" fill="#59534D"/>
<path d="M38.013 70.1968C38.013 70.4182 38.013 70.6395 38.013 70.8608C39.915 70.2706 40.1388 69.9018 39.281 68.9059C39.0946 69.0166 38.8708 69.0903 38.6843 69.201C38.3487 69.4592 37.379 69.2747 38.013 70.1968Z" fill="#D7D9DB"/>
<path d="M87.5027 0.891423C87.6892 0.928307 87.801 1.37092 87.9129 1.62911C88.2486 0.891423 88.0248 0.338159 87.3535 0.0430858C87.0179 -0.104451 86.6076 0.153738 86.6076 0.411928C86.6449 1.4078 85.8244 2.32991 86.3839 3.32578C86.533 2.77252 86.6449 2.18237 86.8314 1.62911C86.9433 1.26026 87.0925 0.854538 87.5027 0.891423Z" fill="#615C55"/>
<path d="M72.7341 49.2466C72.4358 48.8409 72.8833 47.9926 72.0255 47.8819C71.8018 48.2139 71.578 48.5458 71.3915 48.8778C72.0255 49.431 71.205 50.0212 71.4288 50.5745C71.7272 50.3531 72.0255 50.095 72.3239 49.8736C72.5103 49.6523 72.6222 49.431 72.7341 49.2466Z" fill="#59534D"/>
<path d="M45.5838 72.5943C45.3973 72.7419 45.0617 72.8894 45.0244 73.0738C44.9498 73.4058 45.2854 73.2951 45.4346 73.332C45.8821 73.4058 46.3297 73.4795 46.7772 73.5164C47.001 73.2951 47.2247 73.0738 47.4485 72.8525C46.8891 72.5205 46.2551 72.4099 45.5838 72.5943Z" fill="#1E1A17"/>
<path d="M88.2859 5.24376C88.5469 4.10035 88.3232 3.03071 87.9502 1.96106C87.5027 3.14136 88.0621 4.17412 88.2859 5.24376Z" fill="#5D5752"/>
<path d="M33.3139 76.0983C33.8361 76.0983 34.3582 76.0983 34.8803 76.0983C34.9176 75.8401 34.9922 75.5819 35.0295 75.3606C34.3955 75.3606 33.6123 75.1393 33.3139 76.0983Z" fill="#CED0D3"/>
<path d="M78.3283 52.0867C78.3283 51.5703 78.3283 51.0539 78.3283 50.5007C78.3283 50.1687 78.291 49.8736 78.291 49.5417C77.7316 50.39 78.1045 51.2384 78.3283 52.0867Z" fill="#C1C4C7"/>
<path d="M70.5337 51.6072C70.1235 51.4597 70.4592 50.8326 69.937 50.5745C69.8997 51.2015 69.8997 51.681 69.8624 52.1605C70.2354 52.1236 70.3473 51.8285 70.5337 51.6072Z" fill="#59534D"/>
<path d="M63.597 59.0209C64.0818 58.8734 64.3056 58.5414 64.231 58.0251C63.5597 58.0619 63.6716 58.5783 63.597 59.0209Z" fill="#AEAAA8"/>
<path d="M71.4661 50.5376C70.8321 50.5376 70.6829 51.0908 70.571 51.5703C71.0932 51.4966 71.1677 50.9064 71.4661 50.5376Z" fill="#59534D"/>
<path d="M40.1015 79.2704C40.6609 78.7909 41.4068 78.3851 41.4814 77.463C40.9593 77.3893 40.6609 77.9056 40.2507 78.0901C40.0269 78.3114 39.8032 78.5327 39.5794 78.7909C39.5794 79.1228 39.6167 79.6392 40.1015 79.2704Z" fill="#56514A"/>
<path d="M41.4814 77.4261C41.5933 77.2417 41.7052 77.0204 41.8171 76.836C40.5863 76.2459 40.4745 77.2417 40.2507 78.0532C40.6609 77.8688 40.922 77.3524 41.4814 77.4261Z" fill="#2F2A26"/>
<path d="M75.4939 28.8865C75.3074 28.9234 75.1209 28.9972 74.8972 29.071C75.0837 29.0341 75.3074 29.0341 75.4939 28.8865Z" fill="#57524B"/>
<path d="M84.8548 21.6203C84.2208 22.1736 84.9667 23.3539 83.8851 23.7965C80.7151 25.0875 77.7688 26.9686 74.5615 28.1489C74.1886 28.8497 74.1886 28.8497 75.4939 28.8497C76.1652 28.5915 76.8738 28.9603 77.5824 28.5546C79.186 27.5956 81.0135 27.0792 82.2442 25.567C82.5052 25.235 82.9155 25.1612 83.3257 25.235C83.363 25.235 83.363 25.235 83.4003 25.235C83.8478 25.235 84.2581 25.3088 84.2954 25.9358C84.8548 25.3825 84.5937 24.4604 85.1904 23.9441C84.5937 23.2433 85.004 22.3949 84.8548 21.6203Z" fill="#57524B"/>
<path d="M63.3359 30.5832C61.322 30.657 59.3454 30.8045 57.3688 31.2471C56.7721 31.7635 56.1008 31.4684 55.4668 31.5053C55.3549 31.5053 55.2803 31.5053 55.2057 31.5791C55.2057 31.6897 55.2057 31.8004 55.1684 31.911C58.1893 32.5381 61.2474 32.1692 64.2683 31.911C64.3056 31.1734 63.5224 31.0996 63.3359 30.5832Z" fill="#58524D"/>
<path d="M74.5615 28.1489C72.7714 28.0751 71.205 28.9972 69.6014 29.5873C69.4149 30.2513 70.0116 30.5094 70.2727 30.9521C71.9509 30.657 73.3308 29.5873 74.9345 29.0341C75.121 28.9603 75.3074 28.9234 75.5312 28.8497C74.1513 28.8865 74.1513 28.8865 74.5615 28.1489Z" fill="#58524D"/>
<path d="M68.9301 30.1775C67.8112 29.6611 66.8043 29.9931 65.7973 30.5832C65.7973 30.9152 65.7973 31.284 65.8346 31.616C66.9162 31.9479 67.7739 31.3578 68.6317 30.8414C68.7436 30.5832 68.8182 30.3619 68.9301 30.1775Z" fill="#58524D"/>
<path d="M65.7973 30.5463C64.9769 31.0627 64.1564 30.8045 63.2986 30.5463C63.4851 31.0996 64.2683 31.1365 64.231 31.8373C64.7531 31.7266 65.2752 31.6529 65.7973 31.5422C65.8346 31.2471 65.8346 30.9152 65.7973 30.5463Z" fill="#5A554F"/>
<path d="M69.5641 29.5873C69.3403 29.7718 69.1538 29.9931 68.9301 30.1775C68.8182 30.3988 68.7436 30.5832 68.6317 30.8045C69.1539 31.0627 69.676 31.3209 70.2354 30.9521C69.9743 30.5094 69.4149 30.2513 69.5641 29.5873Z" fill="#5A554F"/>
<path d="M55.2057 31.5791C54.6463 31.5053 54.0869 31.4684 53.08 31.7635C53.2664 31.7635 53.3783 31.8004 53.5275 31.8004C53.6021 31.8004 53.6767 31.8004 53.7513 31.8004C54.348 31.8373 54.7582 31.8742 55.1684 31.8742C55.2057 31.7635 55.2057 31.6897 55.2057 31.5791Z" fill="#6D6764"/>
<path d="M57.3688 31.2102C56.7348 31.284 56.0635 31.0258 55.4668 31.4684C56.1008 31.4684 56.7721 31.7266 57.3688 31.2102Z" fill="#6A6560"/>
<path d="M90.5235 42.9763C90.71 43.1976 90.9338 43.4189 91.1202 43.6402C91.5305 42.3124 90.7473 41.2427 90.5235 40.0256C90.4117 39.3985 90.0014 38.8084 90.1506 38.1076C89.7404 37.7756 89.8895 37.2224 89.7776 36.7798C89.1809 35.5995 89.0691 34.2716 88.808 32.9807C88.7707 32.6856 88.6961 32.4274 88.6215 32.1323C88.5469 32.6118 88.7707 33.1282 88.2859 33.4971C88.2113 35.415 88.9199 37.1855 89.1809 39.0666C89.6285 40.3575 90.076 41.6485 90.5235 42.9763Z" fill="#5B544F"/>
<path d="M91.3813 45.0418C91.3813 45.7426 91.2321 46.5172 92.0153 46.9229C92.1272 46.9229 92.2391 46.886 92.351 46.886C93.3206 45.9639 91.7915 45.4475 92.0153 44.6361C91.8288 44.5992 91.6424 44.5623 91.4932 44.5254C91.4186 44.7099 91.4186 44.8574 91.3813 45.0418Z" fill="#625D57"/>
<path d="M92.0153 46.9229C92.1272 47.5499 92.2764 48.2139 92.3883 48.8409C92.5747 48.6196 92.7612 48.3983 92.9477 48.2139C93.0596 47.6237 92.4628 47.3655 92.351 46.886C92.2391 46.9229 92.1272 46.9229 92.0153 46.9229Z" fill="#777470"/>
<path d="M90.5235 42.9763C90.5608 43.7878 90.8965 44.4517 91.3813 45.0418C91.4186 44.8574 91.4559 44.7099 91.4559 44.5254C91.8288 44.0459 91.5305 43.8246 91.1202 43.6402C90.9338 43.4189 90.71 43.1976 90.5235 42.9763Z" fill="#75706D"/>
<path d="M92.3883 48.8778C92.5747 49.3573 92.8358 49.7261 93.4698 49.431C93.0595 49.0991 92.9477 48.6934 92.9477 48.2507C92.7612 48.4352 92.5747 48.6565 92.3883 48.8778Z" fill="#8A8887"/>
<path d="M53.3037 56.439C53.6394 56.2915 53.6021 55.6276 54.1615 55.7382C54.5344 55.812 54.4599 56.0702 54.348 56.3284C55.5787 56.2915 56.7348 55.2219 58.0028 56.1809C59.0844 55.5907 60.3897 55.7751 61.4339 55.0743C61.4339 54.2998 61.4712 53.5252 60.427 53.4514C59.8302 53.4145 59.2335 53.2301 58.6368 53.1195C58.2266 53.894 57.8163 53.894 57.3688 53.1195C56.511 52.8244 55.9516 53.6727 55.1684 53.7834C54.5717 53.6727 53.8258 54.4104 53.5648 54.1522C52.5578 53.0457 51.6255 53.7465 50.5812 53.9678C50.0591 54.0785 49.4997 53.9678 49.3505 54.5948C49.2013 55.2587 49.798 55.4801 50.2083 55.7751C51.1779 56.439 52.3714 55.7751 53.3037 56.439Z" fill="#DFE4E9"/>
<path d="M58.0028 56.2177C56.7348 55.2587 55.5787 56.2915 54.348 56.3653C54.0123 56.4759 53.714 56.9554 53.3037 56.4759C52.3714 55.7751 51.1779 56.4759 50.2456 55.8489C47.9706 56.8816 45.6584 56.2915 43.3461 56.0702C42.0781 55.9595 40.8474 55.1112 39.5421 55.812C39.4302 56.0333 39.3556 56.2177 39.2437 56.439C39.5421 56.9923 40.0642 56.6972 40.4745 56.8448C42.5257 57.0661 44.5768 57.2874 46.6653 57.4718C46.7026 57.4718 46.7026 57.4718 46.7399 57.4718C47.6723 56.9554 48.6046 57.3243 49.537 57.4718C52.3714 57.4349 55.2057 57.2136 58.0028 56.8817C58.0401 56.6603 58.0028 56.439 58.0028 56.2177Z" fill="#56514A"/>
<path d="M26.1907 54.6317C25.594 54.853 25.2956 55.3694 25.0719 55.9227C24.8481 56.4759 25.2956 56.9554 25.6313 57.3243C25.8923 57.6193 26.3772 57.6193 26.3026 57.2505C26.1161 56.4022 26.6382 55.8489 26.7501 55.2956C26.7501 54.7424 26.6009 54.4842 26.1907 54.6317Z" fill="#D3D8DF"/>
<path d="M39.5794 55.7751C39.2064 55.812 38.8335 55.812 38.4606 55.8489C38.4606 55.9227 38.4606 55.9964 38.4606 56.0702C38.7216 56.1809 39.02 56.2915 39.281 56.3653C39.3929 56.1809 39.4675 55.9964 39.5794 55.7751Z" fill="#67625D"/>
<path d="M56.7348 78.6802C56.8467 80.5613 56.9959 82.4424 57.3688 84.2866C58.2639 82.9219 58.0028 81.1146 58.8979 79.7499C58.4504 77.0204 58.3012 74.3279 58.5622 71.5616C58.3385 71.6353 58.152 71.746 57.9282 71.8198C57.4434 73.4795 57.1823 75.2131 56.4365 76.7991C56.9586 77.3524 56.6975 78.0532 56.7348 78.6802Z" fill="#AFB4BD"/>
<path d="M59.9421 80.3769C60.7999 79.7867 61.695 79.3441 62.7019 80.0449C62.9257 80.0449 63.1122 80.0449 63.3359 80.0449C63.1867 79.381 63.0376 78.6802 62.8884 78.0163C62.6646 76.836 61.7696 75.7664 62.3663 74.4754C62.1052 74.1435 61.7696 73.8853 61.2847 73.9959C61.0983 74.5492 61.8069 75.5082 60.9491 75.6188C59.9048 75.7664 59.9421 76.4303 59.8675 77.168C59.3454 77.9794 60.3151 78.9384 59.5692 79.713C59.6811 79.9343 59.793 80.1556 59.9421 80.3769Z" fill="#D6D8DA"/>
<path d="M60.6134 70.8976C60.5388 70.0862 59.8675 69.7911 59.1962 69.5698C59.3081 70.3444 59.4573 71.0821 59.5692 71.8566C60.0913 71.7829 60.6507 71.5616 60.6134 70.8976Z" fill="#C1C3C6"/>
<path d="M58.5995 71.5616C58.5995 71.2296 58.7487 70.8608 58.4504 70.4182C58.3012 70.9345 58.152 71.3771 58.0028 71.8198C58.1893 71.746 58.3758 71.6353 58.5995 71.5616Z" fill="#868688"/>
<path d="M75.4939 50.5376C75.382 50.8326 75.1209 51.1646 75.1955 51.4228C76.016 54.5948 74.3751 57.73 75.1209 60.8651C75.2701 61.5291 74.8226 62.0823 74.5615 62.6725C74.6734 62.8938 74.7853 63.1151 74.8972 63.3364C75.5685 63.2995 76.4263 62.8938 75.9041 64.3323C75.6431 65.0331 76.3517 65.697 76.9111 65.7339C77.7316 65.8076 77.3213 64.9593 77.3586 64.4798C77.5451 63.152 77.5078 61.7873 77.8061 60.5332C78.1045 59.1316 77.4332 59.3529 76.5754 59.5004C78.4029 58.4677 78.2164 56.6603 78.1045 55.0374C77.9926 53.4145 77.3586 51.8654 76.4635 50.5376C76.9484 50.1687 77.1348 50.8695 77.4332 50.5376C77.7316 50.2425 77.5451 49.9474 77.3213 49.6892C76.9857 49.2835 76.6127 48.8778 76.0533 48.8778C75.5312 49.2835 75.9787 50.0581 75.4939 50.5376Z" fill="#D4D6D9"/>
<path d="M74.1886 71.8566C74.3378 72.2992 74.4497 72.7419 74.5988 73.1845C76.3517 73.7746 76.1652 71.8566 76.7992 71.119C77.4332 70.3813 76.3144 70.6026 76.016 70.3813C75.7177 70.16 75.8295 69.5698 76.0906 69.5698C77.2094 69.5698 76.7246 68.5371 77.023 68.2051C78.0299 66.9879 76.7619 67.1723 76.4635 67.0617C75.6804 66.7666 75.0091 67.0617 74.6361 67.9469C74.3751 69.201 74.9345 70.6026 74.1886 71.8566Z" fill="#D1D3D5"/>
<path d="M74.5242 77.6843C74.4496 78.5696 74.0021 78.7171 73.2935 78.422C73.2935 78.6433 73.2935 78.8646 73.2935 79.0859C74.2632 79.0122 75.0464 79.086 75.0091 80.4507C74.9718 80.8933 75.1582 80.8933 75.7923 80.4138C76.016 79.2704 77.3586 78.2745 76.016 76.9467C75.6804 76.6147 76.1279 76.209 76.65 76.3196C76.9484 76.3934 77.1721 76.9098 77.6943 76.3934C76.7992 75.4713 77.9553 75.1393 78.291 74.5123C77.5078 73.8484 76.8365 73.7746 76.4263 74.9549C76.1652 75.7664 75.5312 76.1721 74.8226 76.5041C74.8972 76.9098 74.8599 77.3155 74.5242 77.6843Z" fill="#D0D3D5"/>
<path d="M73.6665 65.2913C73.6665 67.5781 73.6665 69.8649 73.6292 72.1517C73.8157 72.0411 74.0021 71.9304 74.1513 71.8566C74.8972 70.6026 74.3005 69.2379 74.5242 67.91C74.4869 67.1355 74.6734 66.3609 74.4497 65.6232C74.0394 65.9921 73.9275 65.5126 73.6665 65.2913Z" fill="#57524B"/>
<path d="M73.7038 75.1024C74.0021 75.8401 73.7784 76.6885 74.2259 77.4261C74.3378 77.4999 74.4496 77.5737 74.5615 77.6475C74.8972 77.3155 74.9345 76.8729 74.8972 76.4303C74.3751 75.9877 74.7107 75.3238 74.5615 74.7705C74.2632 74.918 73.9648 75.0287 73.7038 75.1024Z" fill="#6A6560"/>
<path d="M74.1886 71.8566C74.0021 71.9673 73.8156 72.0779 73.6665 72.1517C74.114 73.1476 73.8902 74.1435 73.7038 75.1024C74.0021 74.9918 74.2632 74.8811 74.5615 74.7705C74.5615 74.7336 74.5615 74.7336 74.5242 74.6967V74.6598C74.2259 74.1435 74.4496 73.6271 74.6361 73.1107C74.4869 72.705 74.3378 72.2624 74.1886 71.8566Z" fill="#76726F"/>
<path d="M74.5615 62.6725C74.1513 62.8569 74.3378 63.4102 74.0021 63.8159C73.9648 63.3364 73.9275 62.9675 73.8902 62.5987C73.5546 63.3733 73.6292 64.1847 73.7038 64.9593C74.0021 64.8486 74.0767 64.0003 74.5988 64.6642C74.9718 64.2954 74.7853 63.779 74.9345 63.3364C74.7853 63.1151 74.6734 62.8938 74.5615 62.6725Z" fill="#57524B"/>
<path d="M73.6665 64.9593C73.6665 65.0699 73.6665 65.1806 73.6665 65.3281C73.8902 65.5126 74.0394 66.0289 74.4869 65.6601C74.5242 65.3281 74.5242 64.9962 74.5615 64.6642C74.0394 64.0003 73.9648 64.8486 73.6665 64.9593Z" fill="#57504A"/>
<path d="M74.5615 62.6725C74.8226 62.0823 75.2701 61.5659 75.1209 60.8651C74.3751 57.6931 76.016 54.5579 75.1955 51.4228C75.1209 51.1646 75.382 50.8326 75.4939 50.5376C75.3074 50.3163 75.0837 50.095 74.8972 49.8736C74.8599 49.9843 74.8226 50.095 74.7853 50.2056C74.7853 50.7589 75.0464 51.349 74.6361 51.8285L74.5988 51.8654C73.7411 53.7465 74.2632 55.7751 73.8529 57.6931C73.8529 58.0251 73.8529 58.357 73.8529 58.689C74.6734 59.9799 73.107 61.234 73.8529 62.5249C73.8902 62.8938 73.9275 63.2626 73.9648 63.7421C74.3378 63.4102 74.1513 62.8569 74.5615 62.6725Z" fill="#57504A"/>
<path d="M74.5242 77.6843C74.4124 77.6106 74.3005 77.5368 74.1886 77.463C73.6292 77.463 73.0698 77.4999 72.846 78.1638C72.846 78.2007 73.1444 78.3483 73.2935 78.4589C74.0021 78.6802 74.4869 78.5327 74.5242 77.6843Z" fill="#D8DADC"/>
<path d="M90.1506 38.1076C89.9641 37.665 91.0084 36.8535 89.7776 36.7798C89.9268 37.2224 89.7404 37.7756 90.1506 38.1076Z" fill="#D7DBE3"/>
<path d="M29.2488 71.5616C28.6148 71.2296 27.9435 70.8976 27.3095 70.5657C27.1604 70.5657 26.9739 70.5288 26.8247 70.5288C26.4891 71.0083 25.9669 70.7132 25.5567 70.8608C26.0788 71.1927 26.5636 71.5616 27.0858 71.8935C27.6079 72.0042 28.13 72.1148 28.6521 72.2255C28.8759 72.2255 29.0624 72.1886 29.2861 72.1886L29.2488 72.1148L29.2488 72.0779C29.2488 71.9304 29.2488 71.746 29.2488 71.5616Z" fill="#615C56"/>
<path d="M26.8247 70.5657C26.1907 70.5288 25.4821 70.6395 24.9973 70.0124C24.8481 69.828 24.4752 69.9018 24.326 70.1231C24.2141 70.2706 24.1022 70.5288 24.1395 70.6763C24.2141 71.0083 24.5125 71.1558 24.8481 71.0452C25.1092 70.9714 25.3329 70.9345 25.594 70.8608C25.9669 70.7501 26.4891 71.0452 26.8247 70.5657Z" fill="#CACCCF"/>
<path d="M58.0028 56.2177C58.0028 56.439 58.0401 56.6603 58.0401 56.8816C59.1217 56.2546 60.2405 56.1071 61.4339 56.4021C61.9187 56.0702 62.3663 55.7014 63.0003 55.8489C63.1122 55.812 63.224 55.7751 63.2986 55.7382C63.0376 55.4063 62.6273 55.4801 62.2544 55.4432C61.956 55.4432 61.6577 55.4063 61.3966 55.1481C60.3897 55.812 59.0844 55.5907 58.0028 56.2177Z" fill="#59534E"/>
<path d="M37.379 72.7419C36.745 72.9632 36.1483 72.2624 35.477 72.5943C35.2532 73.0369 34.8803 73.1845 34.4328 73.2214C34.4701 73.332 34.5074 73.4058 34.5447 73.4795C35.8127 72.9263 37.0061 73.5902 38.2368 73.7746C39.8032 73.9959 41.4068 73.2951 42.9732 73.7009C42.7867 73.4058 42.5629 73.1107 42.3765 72.8156C40.7355 72.373 39.0573 72.0779 37.379 72.7419Z" fill="#58524D"/>
<path d="M75.9414 81.1146C74.9345 82.7744 74.9345 82.8481 76.7246 83.6596C77.1721 83.4752 77.3586 84.3973 77.9926 83.9547C76.8738 82.885 76.6873 81.7785 77.8434 80.672C78.291 80.2662 77.918 80.0449 77.6943 79.7499C77.5078 79.5285 77.3213 79.381 77.023 79.4548C76.65 79.8236 77.4332 80.2293 77.023 80.5613C76.5754 80.4875 76.1652 80.4138 75.7923 80.34C75.8668 80.6351 76.0533 80.967 75.9414 81.1146Z" fill="#D4D6D9"/>
<path d="M39.6167 75.4344C40.3626 75.3238 41.1085 75.25 41.8544 75.1393C42.19 75.0656 42.3019 74.7705 42.4511 74.4754C41.3695 74.4754 40.288 74.2541 39.6167 75.4344Z" fill="#BBC0C6"/>
<path d="M35.5143 72.5943C33.9479 71.8566 32.1578 72.0411 30.5169 71.5247C30.405 71.6353 30.2931 71.746 30.2185 71.8566C30.2185 72.0411 30.2185 72.2624 30.2558 72.4468C31.6357 72.7787 33.0156 73.2582 34.5074 73.2214C34.8803 73.1845 35.2905 73 35.5143 72.5943Z" fill="#58514C"/>
<path d="M30.1812 71.8566C29.8828 71.746 29.5472 71.6722 29.2488 71.5616C29.2488 71.746 29.2488 71.9304 29.2488 72.0779C29.2488 72.0779 29.2861 72.0779 29.2861 72.1148C29.5845 72.2624 29.8456 72.5574 30.2185 72.4468C30.2185 72.2255 30.2185 72.0411 30.1812 71.8566Z" fill="#75706D"/>
<path d="M28.6148 72.2255C28.3911 72.6681 28.0181 72.6681 27.6079 72.7419C26.8993 72.8156 27.0485 73.5533 27.1604 74.0328C27.2349 74.4016 27.8317 74.918 27.9435 74.6967C28.3911 73.5902 29.1743 74.7336 29.8083 74.2172C28.8386 73.7377 29.0251 72.9632 29.3234 72.1886C29.0624 72.2255 28.8386 72.2255 28.6148 72.2255Z" fill="#D5D7D9"/>
<path d="M65.6482 54.5948C66.2449 54.4473 66.8043 54.2998 66.7297 53.4514C66.4314 53.599 66.133 53.7096 65.8346 53.8571C65.7601 54.0784 65.6855 54.3366 65.6482 54.5948Z" fill="#231F1B"/>
<path d="M58.6368 53.1563C58.2266 53.1563 57.8163 53.1563 57.3688 53.1563C57.7791 53.9309 58.2266 53.9309 58.6368 53.1563Z" fill="#D9DDE4"/>
<path d="M63.0003 55.812C63.1122 56.1071 63.1867 56.4022 63.2986 56.6972C63.7835 56.2177 64.3056 55.7382 64.865 55.2219C64.1564 55.1112 63.8207 55.6645 63.2986 55.7014C63.224 55.7382 63.1122 55.7751 63.0003 55.812Z" fill="#C7CAD1"/>
<path d="M74.5615 51.7916C74.4869 51.6072 74.4497 51.4228 74.3378 51.349C74.0021 51.1277 73.6292 51.0908 73.4427 51.5334C73.3681 51.7179 73.3681 52.0498 73.4427 52.1236C73.9275 52.64 74.1513 51.6072 74.6361 51.8654C74.5988 51.8654 74.5615 51.8285 74.5615 51.7916Z" fill="#CBCDD0"/>
<path d="M54.1615 55.7751C53.6394 55.6645 53.6394 56.2915 53.3037 56.4759C53.714 56.9554 54.0123 56.4759 54.348 56.3653C54.4599 56.1071 54.4972 55.8489 54.1615 55.7751Z" fill="#838180"/>
</svg>
