<svg width="47" height="71" viewBox="0 0 47 71" fill="none" xmlns="http://www.w3.org/2000/svg">
<path d="M36.7136 15.3756C35.6152 17.4598 34.5171 19.4345 33.6377 21.4081C34.1294 21.6792 34.676 21.8952 35.2232 21.7831C35.4973 21.5082 35.7714 21.2333 35.8815 20.9046C37.748 17.7226 39.4505 14.4867 41.4261 11.4136C42.2493 10.1513 42.8541 8.67136 42.5293 7.03196C42.3672 6.10287 41.9848 5.83128 41.1092 6.05448C40.5071 6.2216 40.0142 6.49758 39.4668 6.71912C38.7003 7.05117 38.5345 7.87252 37.9317 8.36784C36.6168 9.35905 35.9574 10.7846 35.1341 12.1562C33.9813 14.0765 32.8832 16.0513 32.0036 18.1343C32.4396 18.8979 32.8208 19.7165 33.3113 20.5346C34.1914 18.2327 35.673 15.9826 36.7136 15.3756ZM38.0856 13.2354C37.7014 13.8391 37.5904 14.6054 36.7693 14.8831C37.2081 14.3338 37.1005 13.4592 38.0856 13.2354Z" fill="#F7EADA"/>
<path d="M29.3273 16.2332C29.328 15.905 29.3832 15.6312 29.4387 15.248C28.9502 13.4454 28.8996 11.5311 28.9035 9.67125C28.2487 8.90873 28.5789 7.92246 28.362 7.04833C28.1984 6.77565 28.4177 6.55575 28.4182 6.33695C28.9099 6.60799 28.5264 6.88341 28.6351 7.21107C28.9071 7.92082 29.3434 8.57503 29.1775 9.39637C29.339 10.6537 29.5553 11.856 29.6619 13.1683C29.7697 13.9336 29.7681 14.6994 29.8213 15.4102C30.0385 16.1749 29.7633 16.9968 30.1993 17.7605C30.6915 17.8127 30.4717 18.2514 30.7447 18.5235C31.347 18.247 30.9116 17.1552 31.7869 17.1508C31.8444 15.783 31.7926 14.4157 31.4672 13.1045C31.0883 11.1919 30.8188 9.27874 30.2211 7.36722C29.6234 5.45569 29.0805 3.48919 27.9902 1.74424C27.7723 1.30773 27.4996 0.926187 27.1719 0.70903C26.735 0.38302 26.2423 0.549594 25.8042 0.770594C25.4756 0.991043 24.9829 1.15762 25.0912 1.70408C25.2526 2.96139 25.4141 4.21869 25.4662 5.47655C25.7875 8.75698 26.109 11.928 26.4303 15.2084C26.4838 15.8099 26.2633 16.5768 26.8092 17.1211C27.5216 16.5158 28.3429 16.1287 29.3273 16.2332Z" fill="#F7EADA"/>
<path d="M9.87959 56.1529C10.0979 56.3706 10.5351 56.5872 10.4812 56.2045C10.3739 55.2205 11.1394 55.326 11.5229 55.0506C11.4692 54.5586 11.4156 54.0665 11.5807 53.5734C11.5266 53.3002 11.3631 53.0275 11.692 52.6976C12.0743 52.9692 11.9642 53.298 11.9635 53.6262C12.0715 54.282 12.125 54.8835 12.233 55.5393C12.2869 55.922 12.2314 56.3052 11.9573 56.58C12.0119 56.6345 12.0119 56.6345 12.0665 56.6889C12.1756 56.7977 12.2298 57.071 12.3938 57.1249C12.9947 57.5047 12.6114 57.6708 12.2827 57.8912C11.6252 58.4415 12.1708 59.0952 11.9506 59.7527C12.2236 60.0248 12.5515 60.1326 12.9891 60.1304C12.9891 60.1304 12.9891 60.1304 13.044 60.0754C12.4442 59.1485 13.4836 59.0886 13.7582 58.5949C13.9247 57.4454 13.8176 56.3519 13.8199 55.2579C13.9327 53.6163 13.9359 52.0847 13.5016 50.5552C13.23 49.6267 13.1227 48.6426 13.0153 47.6585C12.9092 46.1274 12.42 44.653 11.9853 43.2329C11.492 43.7277 10.8358 43.6216 10.289 43.5149C10.1251 43.4611 9.85281 42.8607 9.68952 42.4786C9.63516 42.3148 9.41659 42.2065 9.36154 42.3709C9.08585 43.4116 8.64986 42.648 8.2673 42.4858C8.21202 42.7596 8.04734 43.0339 8.10147 43.3071C8.3166 45.0565 8.42232 46.8064 8.52805 48.5562C8.63262 50.8532 8.8466 53.1495 9.00576 55.5008C9.38878 55.4442 9.60689 55.7713 9.87959 56.1529ZM10.8312 45.8097C10.6672 45.7558 10.503 45.8113 10.5035 45.5925C10.4493 45.3193 10.7776 45.3176 10.887 45.3171C11.1058 45.316 10.9411 45.5903 11.0502 45.6992C11.2138 45.9718 11.1587 46.1362 10.9395 46.3561L10.8301 46.3567C10.6117 46.139 10.7216 45.9196 10.8312 45.8097ZM11.1484 51.0593C11.0947 50.5673 11.1505 50.0747 11.2062 49.5821C10.9333 49.31 10.8791 49.0368 11.044 48.653C11.0445 48.4342 10.8812 48.0521 11.2642 47.9955C11.4284 47.94 11.428 48.1588 11.3729 48.3232C11.5908 48.7597 11.6993 49.1967 11.5342 49.6899C11.6429 50.0175 11.8064 50.2902 11.8605 50.5634C12.1876 51.1088 13.2263 51.3771 12.6224 52.4195C12.2396 52.3667 12.4052 51.6547 11.858 51.7669C11.2014 51.8796 11.2023 51.442 11.1484 51.0593Z" fill="#F5E5D0"/>
<path d="M22.8088 20.5873C23.1386 19.8198 23.576 19.927 24.1774 20.0881L24.2868 20.0875C24.1251 18.9396 23.2515 18.1782 22.8159 17.1958C22.707 16.9775 22.4887 16.7598 22.5439 16.486C22.107 16.16 21.7795 15.8335 21.7261 15.232C21.2339 15.1798 21.1804 14.5784 20.7979 14.4162C20.7979 14.4162 20.7979 14.4162 20.7431 14.4712C21.0153 15.0715 20.9591 15.7829 21.0671 16.4387C20.1924 16.2243 19.5929 15.188 19.8679 14.4755C20.0878 13.9274 20.4149 14.4728 20.6885 14.4167C20.7433 14.3617 20.7433 14.3617 20.7981 14.3068C20.6892 14.0885 20.5254 13.9252 20.5261 13.597C20.8541 13.7048 21.2373 13.5388 21.2362 14.0858C21.3451 14.304 21.7279 14.3568 21.6724 14.74C22.2183 15.2843 22.6545 15.9385 22.9813 16.5932C23.4728 16.9737 23.7453 17.4646 24.0177 17.9556C24.7281 18.3349 25.384 18.5504 25.9329 17.6724C25.4959 17.3464 25.7705 16.8528 25.443 16.5262C23.9691 15.0567 23.3171 12.9813 21.8435 11.4024C20.861 10.4227 19.8782 9.55243 18.7858 8.7921C18.3489 8.46609 17.8026 8.14062 17.256 7.92456C16.6001 7.70905 15.8886 7.87672 15.6138 8.47981C15.3393 8.97349 14.9003 9.6321 15.5551 10.3946C16.1556 10.9933 16.3723 11.9768 16.9177 12.7399C17.5174 13.6668 18.0076 14.7037 18.6073 15.6306C19.7522 17.43 21.2258 19.0089 22.3159 20.8632C22.4802 20.8077 22.7538 20.7516 22.8088 20.5873Z" fill="#F7EBDD"/>
<path d="M39.9139 28.2143C39.2018 28.7101 38.8172 29.5326 38.2688 30.1917C37.83 30.7409 38.3768 30.8476 38.6497 31.1197C38.9786 30.7899 39.2527 30.515 39.6908 30.294C40.6231 29.1406 41.8825 28.5326 43.0877 27.6513C43.1414 28.1434 42.8675 28.3088 42.6483 28.5287C41.8263 29.244 41.0043 29.9592 40.2368 30.7289C40.0715 31.3314 40.3985 31.8768 40.3974 32.4238C40.3962 32.9708 41.0533 32.6393 41.2169 32.912C42.532 31.8114 43.6287 30.493 44.8345 29.393C46.314 28.1274 46.7 26.6486 46.6491 24.8437C46.5964 23.9141 45.8861 23.5347 45.0104 23.7579C44.2989 23.9256 43.5327 24.1482 42.9302 24.5342C42.054 24.9762 41.0685 25.4187 40.5194 26.4061C40.7366 27.1708 40.5715 27.6639 39.9139 28.2143Z" fill="#F6E9D9"/>
<path d="M19.0425 42.8146C19.3164 42.6491 19.6448 42.5381 20.0822 42.6453C19.7533 42.9752 19.315 43.3056 20.0801 43.6299C20.2987 43.7382 20.5168 44.0653 20.1329 44.5596C19.8586 44.9439 19.201 45.4942 20.0748 46.1462C20.0748 46.1462 20.0748 46.1462 20.1296 46.0912C19.8574 45.4909 20.1315 45.216 20.6237 45.2682C20.9519 45.2666 21.0617 45.0472 21.2808 44.9367C21.0094 43.8988 20.6287 42.8614 20.1932 41.8789C19.6501 40.0218 18.7237 38.3308 17.7974 36.6397C17.6341 36.2576 17.4706 35.9849 17.3073 35.6028C17.1435 35.4396 17.0343 35.3307 16.8158 35.2224C16.5983 34.5671 16.4355 33.9662 16.2729 33.2559C16.1637 33.1471 16.1091 33.0926 16 32.9838C15.7264 33.0398 15.508 32.8221 15.3442 32.6589C15.2342 32.9876 15.0151 33.0981 14.9066 32.6611C14.7977 32.4428 14.7984 32.1146 14.47 32.2256C14.1415 32.3367 14.3046 32.8282 14.0853 33.0481C14.7949 33.7556 13.8642 34.1432 13.8083 34.7452C14.4073 36.0003 15.3351 37.035 15.7699 38.3456C16.1504 39.4924 16.8596 40.4187 17.1852 41.6205C17.3481 42.2214 17.6203 42.8218 18.1664 43.2566C18.6584 43.4183 18.7687 42.9801 19.0425 42.8146Z" fill="#F3E4CE"/>
<path d="M17.532 32.7573C17.5871 32.5929 17.5876 32.3741 17.5332 32.2103C17.1493 32.7045 16.6022 32.7072 16.1094 32.9832C16.0546 33.0382 16.0546 33.0382 16.0546 33.0382C16.1637 33.147 16.2183 33.2015 16.3275 33.3103C16.4369 33.3098 16.6559 33.1993 16.6559 33.1993C17.146 34.2361 17.8004 35.2175 18.4547 36.1988C18.5093 36.2532 18.3997 36.3632 18.3449 36.4181C18.2884 37.2389 19.0533 37.6727 19.3801 38.3275C19.7616 39.0367 19.9242 39.747 20.1962 40.4567C20.3049 40.7844 20.6326 41.0015 20.6865 41.3842C21.4494 42.8026 22.2668 44.2754 22.2085 45.9714C22.5351 46.7356 22.8069 47.5547 22.9693 48.3744C23.0241 48.3194 23.0789 48.2644 23.1337 48.2095C23.5176 47.7152 23.9013 47.3304 24.2853 46.8362C24.2307 46.7817 24.2307 46.7818 24.1761 46.7273C23.9025 46.7834 23.7383 46.8389 23.6844 46.4563C23.5761 45.9098 23.6867 45.3623 23.5784 44.8158C23.2005 42.4656 22.6035 40.2258 21.5141 38.0433C20.5877 36.3522 19.6614 34.6611 18.7348 33.0795C18.6251 33.1894 18.5703 33.2444 18.4061 33.2999C17.5848 33.6869 17.4754 33.6875 17.532 32.7573Z" fill="#F3E2CC"/>
<path d="M12.0108 31.0893C12.3407 30.3218 13.27 30.5906 13.8182 30.0409C14.2023 29.4372 14.6411 28.888 14.7521 28.1217C13.4425 26.5966 11.8038 25.5108 9.94532 24.8637C9.45335 24.7021 8.96116 24.6499 8.57723 25.1441C8.2481 25.5834 8.02838 26.0221 8.35521 26.6768C8.5185 27.0589 8.7912 27.4405 8.89991 27.7681C9.11826 27.9858 9.50082 28.148 9.22651 28.5323C9.82626 29.4592 10.4806 30.4405 11.4641 30.9826C11.6278 31.1459 11.9558 31.2536 12.0108 31.0893Z" fill="#F6E9D8"/>
<path d="M16.5384 63.1211C15.9909 63.3427 15.0588 64.3867 15.1127 64.7693C16.4248 65.0909 17.7383 64.7561 18.9963 64.8045C19.1608 64.6396 19.1612 64.4208 19.1617 64.202C19.2184 63.2718 20.3135 62.7193 21.0782 63.2625C21.2967 63.3708 21.5697 63.6429 21.5144 63.9167C21.4587 64.4093 21.0208 64.5209 20.6922 64.7413C22.5506 65.3884 24.4662 64.8865 26.3806 64.9316C26.3281 63.8925 25.6184 63.185 25.2375 62.257C24.5811 62.2603 23.9254 61.9354 23.269 61.9387C21.7373 61.9463 20.3149 62.0629 18.783 62.18C18.236 62.1827 17.6344 62.131 17.1962 62.4614C17.359 63.0623 16.812 63.0651 16.5384 63.1211Z" fill="#F3E4CE"/>
<path d="M37.9328 33.9131C38.0979 33.4199 38.1534 33.0367 37.5518 32.985C36.3461 34.0851 35.0858 35.1308 33.9895 36.2303C33.1672 37.0549 32.6177 38.2611 31.6317 38.9224C31.2482 39.1979 30.9196 39.4183 30.8093 39.8565C31.2466 39.9637 31.3537 41.0571 32.1757 40.3419C32.2306 40.2869 32.7218 40.7768 32.995 40.9395C33.1592 40.884 33.3234 40.8285 33.3782 40.7735C35.1317 39.3425 36.339 37.4766 38.0378 35.9912C37.6016 35.3369 37.6578 34.6255 37.9328 33.9131Z" fill="#F3E2CC"/>
<path d="M24.9758 56.6241C24.8667 56.5153 24.7029 56.352 24.5937 56.2431C24.321 55.8616 23.9924 56.0821 23.7185 56.2475C23.0066 56.634 22.1853 57.021 21.3647 57.0799C20.8174 57.192 20.4883 57.6313 20.0502 57.8523C19.0645 58.4042 18.0787 58.9562 17.093 59.5081C16.9833 59.6181 16.9285 59.673 16.8189 59.783C16.3797 60.551 15.4489 60.9386 14.9551 61.6522C15.0645 61.6516 15.2285 61.7055 15.2834 61.6505C18.02 60.871 20.7566 60.0914 23.4933 59.3119C23.8217 59.2008 24.2593 59.1987 24.4788 58.8694C24.7531 58.4851 24.9726 58.1558 25.1923 57.7171C25.0836 57.3894 24.7561 57.0628 24.9758 56.6241Z" fill="#F3E4CF"/>
<path d="M17.2606 57.8116C17.259 58.5774 16.4386 58.5268 16.1641 59.0205C16.1088 59.2942 15.8347 59.5691 15.6155 59.789C16.4368 59.402 16.931 58.4696 17.9709 58.1909C17.587 58.6851 17.2579 59.1244 16.9833 59.6181C17.9691 59.0661 18.9003 58.4597 19.9406 57.9622C20.3787 57.7412 20.708 57.1926 21.255 57.1898C22.1305 57.076 22.897 56.744 23.6089 56.3575C23.8827 56.192 24.2114 55.9716 24.4841 56.3531C26.401 55.1948 28.6443 54.91 30.7243 54.2432C32.4759 53.6874 34.336 53.5686 36.0878 52.9034C36.088 52.794 36.0882 52.6846 36.0885 52.5752C35.049 52.6351 33.9548 52.75 32.9695 53.0832C32.2025 53.634 31.2186 53.3108 30.3973 53.6978C30.014 53.8638 29.5214 54.0304 28.9744 54.0331C28.4267 54.3641 27.7698 54.5862 27.0586 54.6445C25.2531 54.8176 23.6105 55.5917 21.9135 56.2019C20.9282 56.535 19.8333 56.9781 18.7927 57.5851C19.0679 56.7632 19.7253 56.3223 20.1094 55.7186C21.1505 54.8929 21.0445 53.2524 22.3041 52.535C22.1949 52.4261 22.0858 52.3173 22.1954 52.2073C22.3601 51.933 22.4151 51.7686 22.3066 51.3316C22.0344 50.7312 21.9789 51.1144 21.8145 51.2793C21.7046 51.4987 21.5947 51.718 21.4849 51.9374C20.8262 53.0347 20.1672 54.2414 19.3448 55.1755C18.6867 55.9446 18.4108 57.0947 17.4253 57.5372C17.2613 57.4833 17.2065 57.5383 17.1515 57.7027C17.2063 57.6477 17.3705 57.5922 17.4253 57.5372C17.3705 57.5922 17.3703 57.7016 17.2606 57.8116Z" fill="#554F48"/>
<path d="M39.9147 53.8689C39.915 53.7595 39.915 53.7595 39.9147 53.8689C39.04 53.6544 38.2728 54.3147 37.8919 53.3867C37.6742 52.8408 38.2758 52.8925 38.4407 52.5087C38.4407 52.5087 38.3861 52.4543 38.3313 52.5093C37.6747 52.622 36.9086 52.7352 36.252 52.8479C34.5002 53.5131 32.6401 53.6318 30.8886 54.1876C28.8086 54.8545 26.5652 55.1392 24.6483 56.2976C24.7575 56.4064 24.9212 56.5697 25.0304 56.6786C25.3598 56.1299 26.1795 56.5087 26.5091 55.8506C26.5091 55.8506 27.0561 55.8479 26.8912 56.2316C26.8361 56.396 26.6717 56.5609 26.9451 56.6143C27.273 56.722 27.1097 56.3399 27.2194 56.23C27.8219 55.844 28.4244 55.4581 29.0815 55.1266C29.2457 55.0711 29.0808 55.4548 29.3544 55.3988C29.464 55.2888 29.7379 55.1233 29.8471 55.2322C30.3929 55.7764 31.05 55.4449 31.5966 55.661C31.9257 55.2218 32.3092 54.9463 32.8562 54.9436C33.075 54.9425 33.3486 54.8864 33.4582 54.7765C34.6087 53.9502 34.8821 54.0035 35.5903 55.3675C35.6446 55.5313 35.8632 55.6396 35.9724 55.7485C37.1756 55.8518 38.2159 55.3543 39.3654 54.9656C39.4755 54.6369 39.2579 54.091 39.9147 53.8689Z" fill="#F2E1CB"/>
<path d="M41.2913 49.5406C40.47 49.9276 39.3767 49.6049 38.8276 50.5923C39.2097 50.9733 39.5927 50.9166 40.0306 50.805C40.5232 50.6385 41.0152 50.8001 41.8904 50.7957C40.9595 51.2927 41.1767 52.0574 40.9567 52.6055C40.8466 52.9343 41.0101 53.207 41.4475 53.3142C41.9943 53.4208 42.6512 53.1987 43.1427 53.5792C43.8546 53.1927 44.4575 52.5879 45.0605 51.9832C45.6087 51.4335 45.8289 50.7759 45.5568 50.0662C45.2851 49.2471 43.5906 48.6538 42.7147 48.9864C42.2216 49.3718 41.6746 49.3746 41.2913 49.5406Z" fill="#F7EADA"/>
<path d="M17.5677 67.8749C17.2936 68.1498 17.0202 68.0965 16.8565 67.9332C16.5835 67.6611 16.201 67.4989 16.2019 67.0613C16.2021 66.9519 16.3118 66.8419 16.4212 66.8414C16.7496 66.7303 16.6938 67.2229 17.0221 67.2213C17.187 66.8375 17.0234 66.5648 16.6957 66.3477C16.5865 66.2388 16.2037 66.1861 16.4778 65.9112C15.548 65.8611 14.5634 65.8661 13.5786 65.9804C12.5389 66.1497 11.4997 66.1003 10.4603 66.1602C10.2961 66.2157 10.1867 66.2162 10.0224 66.2718C10.1314 66.49 9.36488 66.8221 10.0754 67.092C10.2394 67.1459 10.0199 67.4752 9.85592 67.4213C9.41855 67.3141 8.81673 67.3718 8.81833 66.606C8.54494 66.5527 8.43485 66.8814 8.21582 66.9919C8.05114 67.2663 9.1447 67.4796 8.21421 67.7578C8.59585 68.3576 7.8844 68.5252 7.77408 68.9634C8.32086 69.07 8.86832 68.8485 9.30593 68.8463C9.19906 67.6434 10.2912 68.5131 10.6752 68.0189C10.7848 67.909 11.1671 68.1806 11.2224 67.9068C11.6628 66.5917 12.0981 67.6836 12.5352 67.9002C12.7538 68.0085 13.0258 68.7182 13.301 67.8963C13.3561 67.732 13.5201 67.7858 13.5744 67.9497C13.9017 68.3856 14.4487 68.3829 14.9404 68.6539C15.9801 68.4846 17.0184 68.9717 18.1135 68.4192C17.9514 67.4901 17.8968 67.4357 17.5677 67.8749Z" fill="#F2E1C7"/>
<path d="M21.9683 56.1469C23.6105 55.5917 25.2534 54.7082 27.1134 54.5895C27.8246 54.5312 28.4815 54.3091 29.0292 53.9782C29.3049 52.9375 28.6489 52.722 27.8836 52.507C26.6244 53.0056 25.3657 53.2854 24.1609 53.9479C22.8467 54.6109 21.4782 55.1101 20.1642 55.6637C19.7255 56.2129 19.0682 56.6538 18.8475 57.5301C19.9429 56.8682 20.983 56.4801 21.9683 56.1469Z" fill="#F1DDC1"/>
<path d="M24.9948 21.5609C24.6666 21.5626 24.5579 21.2349 24.3941 21.0716C24.1758 20.8539 23.8476 20.8556 23.6285 20.9661C23.3547 21.1315 23.4636 21.3498 23.6271 21.6225C23.8996 22.1134 23.0788 22.2816 23.2418 22.7731C24.0595 24.1365 24.9317 25.5544 25.6399 26.9183C26.1846 28.0096 27.058 28.8804 28.2055 29.4764C27.9894 28.1647 27.1713 27.0201 26.8459 25.7089C26.3567 24.2344 25.5936 22.9254 24.9948 21.5609Z" fill="#F4E3D0"/>
<path d="M30.531 42.1006C30.0941 41.7746 29.6565 41.7768 29.1639 41.9433C28.2329 42.4403 27.7933 43.4271 27.1352 44.1962C26.8063 44.5261 26.696 44.9643 26.1488 45.0764C25.7105 45.4068 25.9825 46.1166 25.4348 46.4475C25.7054 47.8137 25.9788 47.867 27.1293 47.0407C27.6224 46.6553 28.0061 46.2705 28.4446 45.8307C28.1714 45.668 27.8964 46.3805 27.6786 45.9439C27.4605 45.6168 27.8444 45.1226 28.0634 45.0121C28.3373 44.8466 28.884 44.9533 28.9377 45.4453C29.7058 44.3475 30.9108 43.5756 31.6792 42.3683C31.2411 42.5893 30.8588 42.3177 30.531 42.1006Z" fill="#F0DABD"/>
<path d="M9.25237 42.262C9.25259 42.1526 9.47117 42.2609 9.58034 42.3698C9.79845 42.6969 10.0159 43.3522 10.1799 43.4061C10.7266 43.5128 11.3826 43.7283 11.8762 43.1241C11.8232 42.3038 11.4966 41.5397 11.17 40.7755C10.898 40.0658 10.4618 39.4115 9.86108 38.9222C9.15124 38.3241 8.38474 38.6561 8.10951 39.478C7.83405 40.4093 7.83199 41.394 8.10354 42.3225C8.48587 42.5941 8.97668 43.3027 9.25237 42.262Z" fill="#F1E0C7"/>
<path d="M22.0431 46.5739C22.0986 46.1907 21.6064 46.1385 21.6619 45.7553C21.5532 45.4277 21.3897 45.155 21.281 44.8273C21.1166 44.9923 20.9521 45.1572 20.6239 45.1588C20.0769 45.1616 19.9122 45.4359 20.1299 45.9818C20.1845 46.0362 20.1295 46.091 20.1841 46.1455C20.1295 46.091 20.1296 46.0912 20.1296 46.0912C19.2012 45.3848 19.8588 44.8345 20.1877 44.5046C20.5168 44.0654 20.3535 43.6833 20.1349 43.575C19.3698 43.2506 19.8081 42.9202 20.137 42.5903C19.6996 42.4831 19.3164 42.6492 19.0973 42.7597C18.8235 42.9251 18.7132 43.3633 18.2212 43.2017C18.1097 44.1868 18.7097 45.0043 19.0361 45.8779C19.2537 46.4238 19.7452 46.8043 19.6345 47.4612C20.0714 47.7872 20.837 47.8928 20.4523 48.7152C20.8337 49.4244 21.5443 49.6944 22.2 50.0193C22.0929 48.9258 21.8218 47.7784 22.0431 46.5739Z" fill="#F1DFC8"/>
<path d="M34.9796 33.5997C35.6906 33.6508 35.911 32.8839 36.4582 32.7717C37.1704 32.2759 37.8828 31.6706 38.5949 31.1747C38.3768 30.8476 37.83 30.7409 38.214 30.2467C38.7623 29.5875 39.2018 28.7101 39.8591 28.2692C40.5713 27.7733 40.6818 27.2258 40.5192 26.5155C40.2456 26.5716 39.972 26.6276 39.6979 26.9025C37.8346 28.5529 36.3537 30.4748 34.7636 32.2879C34.7626 32.7255 35.1447 33.1065 34.9796 33.5997Z" fill="#F6E6D4"/>
<path d="M29.0292 53.9782C29.5214 54.0304 30.0689 53.8088 30.4521 53.6428C31.2734 53.2558 32.2573 53.5791 33.0243 53.0282C32.6979 52.1546 32.9718 51.8796 34.175 51.983C34.175 51.983 34.1752 51.9831 34.23 51.9281C33.6837 51.6027 33.9034 51.164 34.0135 50.8352C34.1784 50.4515 34.6156 50.6681 34.8341 50.7764C35.599 51.2102 35.8747 50.1695 36.4763 50.2212C36.4219 50.0573 36.3128 49.9485 36.2584 49.7846C35.8756 49.7319 35.4926 49.7885 35 49.9551C33.7408 50.4537 32.4812 51.1711 31.0587 51.2876C31.2225 51.4509 31.4408 51.6686 31.2762 51.943C31.2214 51.9979 31.0026 51.999 30.8931 51.9996C30.6198 51.9463 30.7296 51.7269 30.8941 51.562C29.8001 51.5675 28.9781 52.2827 28.0476 52.5609C28.5943 52.6675 29.3049 52.9375 29.0292 53.9782Z" fill="#EFD7B8"/>
<path d="M40.9019 52.6605C41.1218 52.1124 40.9046 51.3477 41.8356 50.8507C41.015 50.9095 40.523 50.7479 39.9758 50.86C39.5379 50.9716 39.1549 51.0282 38.7728 50.6472C38.4441 50.8677 38.0609 51.0337 37.6774 51.3091C38.06 51.4713 38.3877 51.6885 38.6609 51.8512C38.9345 51.7951 39.2625 51.9029 39.2072 52.1767C39.1519 52.4505 38.8239 52.3427 38.5506 52.2894C38.4957 52.3444 38.3861 52.4543 38.3313 52.5093L38.2765 52.5643C38.1118 52.8386 37.51 52.8963 37.7276 53.4422C38.1086 54.3702 38.9306 53.655 39.8053 53.8694C39.8599 53.9238 39.9147 53.8689 39.9693 53.9233C39.9145 53.9783 39.8599 53.9238 39.8051 53.9788C39.1482 54.2009 39.3659 54.7468 39.1464 55.0761C40.514 55.0146 41.8278 54.5704 42.9782 53.7441C42.4867 53.3636 41.8301 53.4763 41.2831 53.4791C40.9007 53.2075 40.7918 52.9892 40.9019 52.6605Z" fill="#F6E6D4"/>
<path d="M29.0779 30.7848C29.0784 30.566 29.1882 30.3467 29.1887 30.1279C29.1343 29.964 29.1348 29.7452 29.0804 29.5814C28.6967 29.9662 28.6431 29.4742 28.6433 29.3648C28.5357 28.4901 28.0997 27.7265 27.9919 26.9612C27.3369 26.3081 27.2844 25.2691 26.9032 24.4505C26.4131 23.4136 26.0326 22.2668 25.7067 21.1744C25.5434 20.7923 25.3801 20.4103 25.2168 20.0282C25.1076 19.9193 24.9985 19.8105 25.0535 19.6461C24.5622 19.1562 24.3996 18.446 24.018 17.8462C23.7455 17.3552 23.473 16.8643 22.9815 16.4838C22.8724 16.375 22.7084 16.3211 22.5442 16.3766C22.4889 16.6504 22.7072 16.8681 22.8162 17.0864C23.2517 18.0688 24.1799 18.8847 24.287 19.9781C24.8333 20.3036 24.9416 20.8501 25.0498 21.3965C25.6487 22.761 26.4117 24.07 26.7915 25.545C27.117 26.8562 27.9351 28.0008 28.1511 29.3126C28.205 29.6952 28.3135 30.1323 28.4222 30.4599C28.4763 30.7332 28.4756 31.0614 28.694 31.2791C28.8036 31.1691 28.9681 31.0042 29.0779 30.7848Z" fill="#554E47"/>
<path d="M14.1399 33.1025C14.4138 32.937 14.1961 32.3911 14.5245 32.2801C14.853 32.169 14.8523 32.4972 14.9612 32.7155C15.1245 33.0976 15.2342 32.9876 15.3988 32.7133C15.3991 32.6039 15.4541 32.4395 15.5089 32.3845C14.7989 31.8958 15.4555 31.7831 15.7842 31.5626C16.0023 31.8897 15.7284 32.0552 15.6186 32.2746C15.9465 32.3823 16.0004 32.765 16.1094 32.9832C16.6022 32.7072 17.1493 32.7045 17.5332 32.2103C17.5327 32.4291 17.5323 32.6479 17.532 32.7573C17.4754 33.6875 17.53 33.7419 18.4061 33.2999C18.5155 33.2994 18.6251 33.1894 18.7348 33.0795C18.1898 32.0976 17.316 31.4456 16.8805 30.4631C16.4972 30.6292 15.9518 29.8661 15.6764 30.7974C15.6761 30.9068 15.2938 30.6352 15.3488 30.4708C15.4599 29.7044 15.2956 29.76 14.8023 30.2548C14.6927 30.3647 14.4739 30.3658 14.3096 30.4213C14.4734 30.5846 14.6372 30.7479 14.8555 30.9656C14.9647 31.0744 15.1284 31.2377 14.9094 31.3482C14.6356 31.5137 14.5268 31.186 14.3631 31.0228C14.3083 31.0777 14.2535 31.1327 14.2535 31.1327C14.089 31.2976 13.87 31.4081 13.7055 31.5731C12.8838 32.1789 12.9372 32.7803 13.8115 33.2136C13.756 33.5967 13.2642 33.3257 13.1544 33.5451C13.3175 34.0365 13.8092 34.3076 13.9723 34.7991C13.9188 34.1976 14.8495 33.8101 14.1399 33.1025Z" fill="#F1DDC3"/>
<path d="M36.3669 50.2217C35.7653 50.17 35.5444 51.1557 34.7247 50.7769C34.5607 50.7231 34.069 50.452 33.9041 50.8358C33.794 51.1645 33.5743 51.6032 34.1206 51.9287L34.175 51.983L34.0658 51.9837C32.9174 51.8253 32.6433 52.1002 32.9149 53.0288C33.9002 52.6956 34.9944 52.5807 36.0339 52.5208C36.1981 52.4653 36.4171 52.3548 36.5813 52.2993C36.5825 51.7522 37.1848 51.4757 37.1313 50.8743C37.077 50.7104 37.8428 50.7066 38.1714 50.4862C38.7737 50.2096 39.1028 49.7704 39.3774 49.2767C38.2292 49.0089 37.1343 49.452 35.985 49.7313C36.2034 49.949 36.2577 50.1128 36.3669 50.2217Z" fill="#F0DCC3"/>
<path d="M20.8509 67.3115C21.1793 67.2004 21.2885 67.3093 21.5071 67.4176C21.1795 67.091 21.5639 66.378 20.7981 66.3818C20.8532 66.2174 20.8536 65.9986 20.9087 65.8342C20.4165 65.782 19.7594 66.1135 19.5422 65.3488C19.4878 65.185 19.6521 65.1294 19.6523 65.02C19.5429 65.0206 19.5429 65.0206 19.4335 65.0211C18.6654 66.119 17.5179 65.5231 16.5329 65.7468C16.3134 66.0761 16.6416 66.0745 16.7507 66.1833C17.0785 66.4005 17.1872 66.7281 17.0771 67.0569C16.8037 67.0036 16.8594 66.511 16.4762 66.677C16.3668 66.6775 16.2023 66.8425 16.2569 66.8969C16.256 67.3345 16.6383 67.6061 16.9115 67.7688C17.0753 67.9321 17.2938 68.0404 17.6227 67.7106C17.9518 67.2713 18.061 67.3802 18.169 68.036C18.2236 68.0904 18.2782 68.1449 18.2782 68.1449C18.5523 67.87 18.8803 67.9777 19.2085 67.9761C19.7557 67.864 20.2488 67.4786 20.8509 67.3115Z" fill="#F2E3D0"/>
<path d="M26.6563 63.7817C26.7107 63.8359 26.7107 63.8359 26.6563 63.7817C27.2036 63.6695 27.5322 63.5583 27.8606 63.4472C28.0248 63.3917 28.134 63.5006 28.1883 63.6644C28.2427 63.8282 28.0783 63.9931 27.9143 63.9393C27.4223 63.7776 27.2026 64.2163 26.8193 64.3824C26.8739 64.4368 26.8191 64.4918 26.8737 64.5462C27.1471 64.5995 27.3663 64.3796 27.5851 64.3785C27.7484 64.7606 27.3106 64.8722 27.2007 65.0916C27.2553 65.146 27.3099 65.2004 27.2551 65.2554C27.5835 65.1444 27.8028 64.9244 28.0769 64.6496C28.186 64.7584 28.2406 64.8128 28.2406 64.8128C27.8553 65.9635 27.9097 66.1273 29.1124 66.4495C29.4404 66.5572 29.495 66.6117 29.4943 66.9399C29.8777 66.6645 30.261 66.4984 30.6445 66.223C30.0977 66.1163 29.6057 65.9547 29.1688 65.6287C28.7865 65.3571 28.8415 65.1927 29.2796 64.9717C29.3344 64.9168 29.4986 64.8612 29.4986 64.8612C29.1727 63.7689 30.1011 64.4753 30.4298 64.2549C30.4298 64.2549 30.4298 64.2549 30.4846 64.1999C30.5397 64.0355 30.5397 64.0355 30.7034 64.1988C30.9241 63.3225 29.6654 63.6023 29.5578 62.7276C30.0489 63.3269 30.7608 62.9404 31.1975 63.3758C31.2523 63.3208 31.3071 63.2658 31.3071 63.2658C30.9796 62.9393 30.6518 62.7221 30.2145 62.6149C29.5037 62.4544 28.7383 62.2394 27.973 62.0245C27.4794 62.6286 27.0953 63.123 26.6563 63.7817Z" fill="#EED6B9"/>
<path d="M30.6901 18.4691C30.4717 18.2514 30.6369 17.7583 30.1447 17.706C29.7605 18.3097 30.0325 19.0194 30.0862 19.5114C30.1387 20.5505 29.863 21.5912 30.1343 22.6291C30.1343 22.6291 30.1343 22.6291 30.1889 22.6836C30.4632 22.2993 30.6281 21.9156 30.6291 21.4779C30.7405 20.4928 31.3985 19.7237 31.6745 18.5736C32.3272 20.3207 31.23 21.8578 31.7192 23.3323C31.9926 23.3856 31.9932 23.0574 32.2123 22.9469C32.4329 22.0706 32.8175 21.2482 33.3116 20.4252C32.8756 19.6616 32.4944 18.843 32.0038 18.0249C31.5667 17.8083 31.896 17.2596 31.6777 17.0419C30.8571 17.1007 31.2924 18.1926 30.6901 18.4691Z" fill="#F6E9D7"/>
<path d="M35.6908 33.5414C36.0195 33.3209 36.1844 32.9372 36.4037 32.7173C35.8564 32.8295 35.636 33.5964 34.925 33.5452C35.0902 33.0521 34.7629 32.6161 34.6544 32.1791C32.7902 34.2671 31.0352 36.4639 29.4442 38.7146C29.7724 38.7129 30.1554 38.6563 30.4836 38.6547C32.2375 37.0049 33.7184 35.0829 35.6908 33.5414Z" fill="#F1E1C9"/>
<path d="M40.3426 32.4787C40.3437 31.9317 39.9621 31.3319 40.182 30.7838C39.9087 30.7305 39.7983 31.1687 39.5252 31.0059C39.1949 31.9922 38.1004 32.2165 37.5518 32.985C38.208 33.0912 38.0979 33.4199 37.9328 33.9131C37.6578 34.6255 37.6016 35.3369 37.9282 36.1011C39.0242 35.111 40.1203 34.1209 41.1621 32.9669C40.9985 32.6942 40.3414 33.0258 40.3426 32.4787Z" fill="#F5E6D4"/>
<path d="M25.3268 45.7916C25.5449 46.1187 25.2162 46.3392 25.3252 46.5575C25.38 46.5025 25.4348 46.4475 25.4348 46.4475C25.9277 46.1715 25.6557 45.4618 26.1488 45.0764C25.9864 44.2567 26.2612 43.6536 26.9731 43.2671C26.4818 42.7773 27.1389 42.4458 27.1398 42.0082C27.2499 41.6794 27.3054 41.2963 27.3609 40.9131C27.6362 40.0912 28.2942 39.3221 28.0774 38.3385C27.9137 38.1753 27.6949 38.1764 27.5304 38.3413C27.2004 39.2182 26.9798 40.0945 26.5951 40.9169C25.716 42.7811 24.8367 44.7548 24.1761 46.7273C24.2307 46.7818 24.2307 46.7817 24.2853 46.8362C24.6688 46.5607 24.9431 46.1765 25.3268 45.7916Z" fill="#565049"/>
<path d="M11.7776 63.8561L11.6685 63.8567C11.7229 63.9109 11.7229 63.9109 11.7776 63.8561Z" fill="#F1E1C9"/>
<path d="M11.7776 63.8561C11.7228 63.9111 11.6135 64.0211 11.5587 64.076C11.5575 64.623 11.0649 64.7896 10.7905 65.1739C10.8451 65.2283 10.8997 65.2828 10.9543 65.3372C12.3224 65.0568 13.6903 64.8859 15.1673 64.8237C15.1682 64.3861 16.1003 63.3421 16.593 63.1756C16.9214 63.0645 17.4136 63.1167 17.3601 62.5153C16.5943 62.5191 15.8826 62.7962 15.1166 62.9095C14.46 63.0222 13.8029 63.3537 13.2017 63.0832C12.8728 63.413 12.4896 63.5791 12.052 63.5813C11.9424 63.6912 11.8324 63.8012 11.7776 63.8561Z" fill="#F1E1C9"/>
<path d="M11.0722 61.2887C10.744 61.2904 10.5252 61.2915 10.6901 60.9078C10.9101 60.3596 10.9658 59.8671 10.0355 60.0358C11.077 58.9913 10.9704 57.679 9.87867 56.5905C9.66033 56.3728 9.33259 56.1556 9.11424 55.9379C9.05368 58.7279 9.48577 61.3514 10.7933 63.8611C10.8481 63.8061 10.9029 63.7511 10.9578 63.6961C10.686 62.877 11.2894 62.0535 11.0722 61.2887Z" fill="#F1DFC1"/>
<path d="M33.6377 21.4081C32.923 23.1074 32.0444 24.7529 31.6031 26.5055C31.8767 26.4494 32.1503 26.3934 32.3685 26.7205C33.6843 25.2917 34.1806 23.3746 35.2232 21.7831C34.676 21.8952 34.1292 21.7886 33.6377 21.4081Z" fill="#F5E6D4"/>
<path d="M26.7614 65.8594C26.7614 65.8594 26.7068 65.8053 26.7616 65.7504C26.3788 65.6976 25.9964 65.5352 25.6132 65.7012C25.6125 66.0295 25.5024 66.3582 25.5017 66.6864C25.5012 66.9052 25.6648 67.1779 25.3366 67.1795C25.1178 67.1806 24.954 67.0174 24.8451 66.7991C24.7361 66.5809 24.901 66.1971 24.518 66.2537C24.135 66.3104 24.4077 66.6919 24.243 66.9662C24.0235 67.2955 24.5152 67.5666 24.1861 68.0058C23.8049 67.1872 22.7105 67.4115 22.4389 66.483C22.2197 66.7029 22.055 66.9772 21.8357 67.1971C22.0543 67.3054 22.1082 67.688 22.2724 67.6325C23.2033 67.1355 22.8733 68.0124 23.0914 68.3395C23.2008 68.339 23.2556 68.284 23.365 68.2835C23.4205 67.9003 23.4205 67.9003 23.8575 68.2263C24.9512 68.3302 25.9363 68.1065 27.0306 67.9916C26.5943 67.3373 26.8146 66.5703 26.7614 65.8594Z" fill="#F2DFC6"/>
<path d="M13.865 59.7978C13.7017 59.4157 13.9215 58.977 13.7034 58.6499C13.4834 59.198 12.3894 59.2035 12.9891 60.1304L13.0437 60.1848C13.0437 60.1848 13.0437 60.1848 12.9891 60.1304C12.497 60.0782 12.2236 60.0248 11.9506 59.7527C11.8956 59.9171 11.8405 60.0815 11.7853 60.3552C12.1664 61.1738 11.8364 62.0507 11.9988 62.8704C12.3816 62.9232 12.4371 62.54 12.7109 62.3745C12.93 62.264 13.1492 62.0441 13.3125 62.4262C13.5315 62.3157 13.696 62.1508 13.915 62.0403C14.0253 61.6021 14.1354 61.2734 14.2458 60.8352C13.6992 60.6192 13.6453 60.2365 13.865 59.7978Z" fill="#EFDDC1"/>
<path d="M22.3615 51.2766C22.5248 51.6587 22.4149 51.878 22.2502 52.1523C22.4142 52.2062 22.5784 52.1507 22.6335 51.9863C23.3477 50.5058 24.0071 49.0803 24.7213 47.5998C24.3373 48.094 23.8991 48.4244 23.6243 49.0275C23.5142 49.3563 23.1855 49.5767 22.9679 49.0308C22.8041 48.8675 22.695 48.7587 22.9142 48.5388C22.7518 47.7191 22.4801 46.8999 22.1535 46.1358C21.9344 46.2463 21.7707 46.083 21.6069 45.9197C21.4968 46.2485 22.0436 46.3551 21.9881 46.7383C21.7668 47.9428 22.0379 49.0902 22.3089 50.2375C22.4174 50.6746 21.7606 50.8967 21.869 51.3338C22.0337 51.0594 22.144 50.6213 22.3615 51.2766Z" fill="#57504A"/>
<path d="M10.0355 60.0358C10.9658 59.8671 10.9101 60.3596 10.6901 60.9078C10.525 61.4009 10.7438 61.3998 11.0722 61.2887C11.3463 61.0139 11.1284 60.5773 11.4571 60.3569C11.2956 59.0996 11.5169 57.8951 11.7383 56.6905C11.3564 56.2002 11.6857 55.6515 11.5775 55.105C11.1392 55.4354 10.319 55.2754 10.5358 56.259C10.5897 56.6416 10.1525 56.425 9.93418 56.2073C9.66148 55.8257 9.38878 55.4442 8.89659 55.392C8.84131 55.6658 9.05989 55.7741 9.16906 55.8829C9.3874 56.1006 9.71514 56.3178 9.93349 56.5355C10.9706 57.5696 11.077 58.9913 10.0355 60.0358Z" fill="#F0E1C7"/>
<path d="M31.6029 26.6149C30.8889 27.986 30.2295 29.4115 29.8435 30.8904C29.8433 30.9998 29.7339 31.0003 29.6242 31.1103C29.6233 31.5479 29.6226 31.8761 29.6217 32.3137C29.6212 32.5325 29.621 32.6419 29.6206 32.8607C29.9494 32.5309 30.2783 32.201 30.4432 31.8173C31.1031 30.173 31.763 28.5286 32.368 26.9393C32.1501 26.5028 31.8765 26.5588 31.6029 26.6149Z" fill="#F0DFC8"/>
<path d="M35.4263 55.3136C34.7181 53.9496 34.4447 53.8963 33.2942 54.7226C33.1298 54.8875 32.911 54.8886 32.6922 54.8897C32.1452 54.8924 31.7617 55.1679 31.4326 55.6071C31.8693 56.0425 32.7454 55.6005 33.0722 56.2553C34.0022 56.1959 34.9325 56.0272 35.7538 55.6401C35.6992 55.5857 35.4807 55.4774 35.4263 55.3136Z" fill="#EFDABF"/>
<path d="M29.1347 55.8375C28.5868 56.2778 27.9845 56.5543 27.6549 57.2124C27.4352 57.6511 26.7781 57.9826 26.2322 57.4383C25.6861 57.0035 25.5208 57.606 25.1921 57.8265C24.9178 58.2107 24.6983 58.54 24.4786 58.9788C25.8464 58.8078 27.1597 58.5824 28.3645 57.9199C27.9822 57.6484 28.0375 57.3746 28.3115 57.0997C28.4212 56.9898 28.4764 56.716 28.7498 56.7693C29.1872 56.8765 29.0771 57.2053 29.2406 57.4779C29.4049 57.4224 29.5143 57.4219 29.6239 57.3119C30.2821 56.4334 30.0094 56.0519 29.1347 55.8375Z" fill="#F1DCC1"/>
<path d="M30.7544 39.9114C29.9329 40.4079 29.7123 41.2842 29.1639 41.9433C29.6565 41.7768 30.0941 41.7746 30.531 42.1006C30.8588 42.3177 31.2411 42.5893 31.7338 42.4228C32.2815 42.0918 32.5016 41.4343 32.9402 40.9945C32.6672 40.7223 32.1757 40.3419 32.1209 40.3969C31.2989 41.1121 31.1918 40.0186 30.7544 39.9114Z" fill="#F2DEC6"/>
<path d="M29.1668 66.6133C27.9092 66.3461 27.8549 66.1823 28.295 64.9767C28.295 64.9767 28.2404 64.9223 28.1312 64.8134C27.912 65.0333 27.6379 65.3082 27.3095 65.4192C27.1996 65.6386 26.926 65.6947 26.707 65.8052L26.7067 65.9146C26.7599 66.6254 26.5395 67.3923 26.9209 68.1015C27.7966 67.8783 28.6179 67.4913 29.4392 67.1043C29.5493 66.7755 29.5495 66.6661 29.1668 66.6133Z" fill="#EFDABE"/>
<path d="M26.4897 65.0404C26.7631 65.0938 27.0365 65.1471 27.3099 65.2004C27.4198 64.9811 27.803 64.815 27.6943 64.4874C27.4755 64.4885 27.2563 64.7084 26.9829 64.6551C26.8735 64.6556 26.8189 64.6012 26.6549 64.5473C26.7643 64.5467 26.8191 64.4918 26.8737 64.5462C27.2569 64.3802 27.4767 63.9415 27.9686 64.1031C28.1326 64.157 28.2971 63.9921 28.2427 63.8282C28.1883 63.6644 28.0792 63.5555 27.915 63.6111C27.5865 63.7221 27.2581 63.8332 26.7654 63.9997C26.7654 63.9997 26.7106 64.0547 26.656 64.0003L26.7109 63.9453C27.0953 63.2323 27.5338 62.7925 28.0271 62.2977C27.1521 62.1927 26.276 62.6347 25.4558 62.4747C25.7276 63.2938 26.4372 64.0014 26.4897 65.0404Z" fill="#F0DCC1"/>
<path d="M31.4872 55.6616C30.8858 55.5005 30.2287 55.832 29.7377 55.2327C29.6285 55.1239 29.3546 55.2893 29.245 55.3993C29.2994 55.5631 29.2443 55.7275 29.1347 55.8375C30.0094 56.0519 30.3367 56.4878 29.5693 57.2575C30.7732 57.0326 31.9766 57.0266 33.072 56.3647C32.8002 55.5456 31.9238 56.097 31.4872 55.6616Z" fill="#EED6B8"/>
<path d="M13.5749 67.7309C13.5203 67.6764 13.3565 67.5132 13.3015 67.6775C13.0263 68.4994 12.7543 67.7897 12.5357 67.6814C12.0437 67.5197 11.6084 66.4279 11.2229 67.688C11.1676 67.9617 10.7853 67.6902 10.6756 67.8001C10.3465 68.2394 9.19952 67.4246 9.30639 68.6275C11.221 68.5632 13.0811 68.4444 14.9957 68.3801C14.504 68.1091 13.9022 68.1668 13.5749 67.7309Z" fill="#F2DCBD"/>
<path d="M38.2808 50.4856C37.8976 50.6516 37.1864 50.7099 37.2407 50.8737C37.2942 51.4752 36.6919 51.7517 36.6907 52.2987C37.2935 51.8034 37.9494 52.0189 38.6607 51.9606C38.7155 51.9056 38.7703 51.8507 38.7157 51.7962C38.4425 51.6335 38.06 51.4713 37.7322 51.2542C38.1157 50.9787 38.499 50.8127 38.8276 50.5923C39.3221 49.5505 40.5248 49.8726 41.2913 49.5406C41.6746 49.3746 42.2764 49.3168 42.6599 49.0414C41.6209 48.8825 40.5271 48.7786 39.4868 49.2761C39.2123 49.7698 38.8831 50.2091 38.2808 50.4856Z" fill="#F5E4CF"/>
<path d="M7.99748 66.7742C8.05229 66.7193 8.10711 66.6643 8.10734 66.5549C7.99793 66.5554 7.83395 66.5015 7.72455 66.5021C7.28694 66.5043 6.95736 67.1624 6.41104 66.8369C5.97344 66.8391 5.8083 67.3322 5.37046 67.4438C4.82231 67.9936 3.89251 67.9435 3.34412 68.6027C3.17968 68.7676 2.96042 68.9875 2.74138 69.098C2.95973 69.3157 3.28839 69.0953 3.50696 69.2036C4.49158 69.1986 4.87689 68.048 5.80692 67.9886C6.73695 67.9293 7.23075 67.2157 7.99748 66.7742Z" fill="#57504A"/>
<path d="M27.0277 43.3216C28.1795 41.8389 29.277 40.1923 30.5379 38.8185C30.2097 38.8202 29.8267 38.8768 29.4985 38.8784C29.3889 38.9884 29.2792 39.0983 29.1696 39.2083C28.3474 40.0329 27.9073 41.2385 27.1942 42.172C27.2483 42.4453 26.5364 42.8317 27.0277 43.3216Z" fill="#F0DDC2"/>
<path d="M7.61584 66.1744C8.54679 65.6775 9.4236 64.9073 10.5181 64.683C10.5736 64.2998 11.0653 64.5708 11.1752 64.3515C11.1754 64.2421 11.1756 64.1327 11.1759 64.0233C11.1215 63.8594 11.0669 63.805 11.0126 63.6412C10.9578 63.6961 10.9029 63.7511 10.8481 63.8061C9.3142 64.9078 7.45369 65.2453 5.97436 66.4015C5.59088 66.6769 5.26222 66.8974 5.47987 67.4433C5.86289 67.3866 6.02825 66.7841 6.52044 66.8363C6.68535 66.4526 7.17777 66.3954 7.61584 66.1744Z" fill="#EDD9BC"/>
<path d="M13.8182 30.0409C13.8727 30.0953 13.9273 30.1497 13.9273 30.1497C14.0365 30.2586 14.0911 30.313 14.2551 30.3669C14.4193 30.3114 14.6381 30.3103 14.7477 30.2003C15.2411 29.7055 15.4053 29.65 15.2943 30.4164C15.2392 30.5808 15.567 30.7979 15.6218 30.7429C15.8424 29.8666 16.4424 30.6841 16.8259 30.4087C16.2807 29.5362 15.5713 28.7193 14.6975 28.0672C14.6411 28.888 14.1475 29.4922 13.8182 30.0409Z" fill="#ECD3B3"/>
<path d="M14.1912 60.7808C14.8483 60.4493 15.3418 59.8451 15.7806 59.2959C16.2194 58.7467 16.7673 58.3063 17.2606 57.8116C17.2609 57.7022 17.3705 57.5922 17.3707 57.4828C17.2613 57.4833 17.1517 57.5933 17.0969 57.6483C15.8923 58.2013 14.7969 58.8632 13.865 59.7978C13.6453 60.2365 13.6992 60.6192 14.1912 60.7808Z" fill="#F2E3CD"/>
<path d="M25.0535 19.6461C24.9985 19.8105 25.1076 19.9193 25.2168 20.0282C25.5998 19.9716 25.928 19.9699 26.2569 19.64C26.6406 19.2552 27.133 19.1981 27.3505 19.8534C27.8445 19.0304 27.7899 18.976 27.6278 18.0469C27.5195 17.5004 27.2466 17.2283 26.8092 17.1211C26.4799 17.6697 26.9165 18.1051 27.025 18.5422C27.0248 18.6516 27.0248 18.6516 27.0246 18.761C26.2042 18.7104 25.5471 19.0419 25.0535 19.6461Z" fill="#EFDDC7"/>
<path d="M23.5726 21.568C23.4636 21.3498 23.3001 21.0771 23.5739 20.9116C23.8478 20.7461 24.1212 20.7995 24.3395 21.0172C24.5033 21.1805 24.6668 21.4531 24.9402 21.5065C24.8319 20.96 24.7237 20.4136 24.1774 20.0881C24.1774 20.0881 24.1228 20.0337 24.068 20.0886C23.5214 19.8726 23.0292 19.8203 22.6994 20.5878C22.6444 20.7522 22.3708 20.8083 22.1517 20.9188C22.3691 21.5741 22.6962 22.1194 23.0233 22.6648C23.0242 22.2272 23.845 22.059 23.5726 21.568Z" fill="#F0DCC6"/>
<path d="M14.9003 61.7071C15.3395 60.9391 16.3248 60.606 16.7641 59.838C16.2716 59.8951 15.8879 60.28 15.3953 60.4465C15.4506 60.1728 15.5056 60.0084 15.6155 59.789C15.6155 59.789 15.6155 59.789 15.6703 59.7341C15.8895 59.5141 16.1088 59.2942 16.2735 59.0199C16.4934 58.4718 17.3138 58.5224 17.37 57.811C16.8767 58.3058 16.3288 58.7461 15.89 59.2953C15.4512 59.8446 14.9577 60.4487 14.3006 60.7802C14.1903 61.2184 14.0802 61.5472 13.9698 61.9853C14.3522 62.2569 14.5721 61.7088 14.9003 61.7071Z" fill="#5C544D"/>
<path d="M30.7557 65.3472C30.3186 65.1306 30.4835 64.7469 30.4296 64.3643C30.1555 64.6391 29.2819 63.8777 29.4984 64.9706C29.4984 64.9706 29.3342 65.0262 29.2794 65.0811C28.8413 65.3021 28.7863 65.4665 29.1686 65.7381C29.6055 66.0641 30.1523 66.1708 30.6442 66.3324C31.1374 65.947 31.7396 65.6705 31.9052 64.9586C31.6312 65.2334 31.3023 65.5633 30.7557 65.3472Z" fill="#F0DCC4"/>
<path d="M29.3467 33.0262C29.1286 32.6991 29.2933 32.4248 29.5671 32.2593C29.568 31.8217 29.5687 31.4935 29.5696 31.0559C29.5153 30.892 29.6254 30.5633 29.4616 30.4C29.2972 30.5649 29.1875 30.6749 29.0231 30.8398C28.8587 31.0047 28.7488 31.2241 28.5843 31.389C28.6926 31.9355 28.582 32.483 28.4169 32.9762C28.8538 33.3022 28.2511 33.7975 28.5786 34.1241C28.7974 34.123 28.9616 34.0675 29.1256 34.1213C29.2905 33.7376 29.51 33.4083 29.3467 33.0262Z" fill="#1D1917"/>
<path d="M8.15986 67.5939C9.14493 67.3702 7.99679 67.1024 8.16146 66.8281C8.10688 66.7737 8.05206 66.8287 7.99748 66.7742C7.28556 67.1607 6.73695 67.9293 5.86128 68.1525C6.40737 68.5873 7.00827 68.9672 7.71972 68.7995C7.83004 68.3614 8.48691 68.1393 8.15986 67.5939Z" fill="#F0DBBB"/>
<path d="M13.6475 33.1597C12.7732 32.7265 12.7198 32.125 13.5415 31.5192C13.706 31.3543 13.925 31.2438 14.0895 31.0788C13.8163 30.9161 13.981 30.6418 13.9266 30.4779C13.3241 30.8639 12.2849 30.8144 12.3372 31.9628C12.337 32.0722 12.0634 32.1283 12.0085 32.1833C12.3358 32.6192 12.6631 33.0552 13.045 33.5456C13.1003 33.2718 13.592 33.5429 13.6475 33.1597Z" fill="#ECD4B3"/>
<path d="M23.9632 17.9011C24.3996 18.446 24.5074 19.2112 24.9987 19.7011C25.5468 19.1513 26.1493 18.7654 26.9697 18.816C26.97 18.7066 26.97 18.7066 26.9702 18.5972C26.3686 18.5455 26.3702 17.7797 25.8783 17.618C25.3296 18.3866 24.6189 18.2261 23.9632 17.9011Z" fill="#F5E6D4"/>
<path d="M25.3268 45.7916C24.9431 46.1765 24.6688 46.5608 24.2851 46.9456C23.9011 47.4398 23.5174 47.8246 23.1335 48.3189C23.1876 48.5921 23.1326 48.7565 22.9679 49.0308C23.1307 49.6317 23.5142 49.3563 23.6243 49.0275C23.8442 48.4794 24.3373 48.094 24.7213 47.5998C24.6676 47.1078 25.3788 47.0495 25.3252 46.5575C25.2162 46.3392 25.5449 46.1187 25.3268 45.7916Z" fill="#2D2824"/>
<path d="M2.79597 69.1525C3.01524 68.9326 3.17968 68.7676 3.39871 68.6571C2.52281 68.9897 1.75539 69.7594 0.715966 69.8193C0.332947 69.8759 0.441429 70.313 0.604956 70.5857C0.659312 70.7495 0.877658 70.9672 1.09692 70.7473C1.80952 70.0326 2.74001 69.7544 3.61614 69.3124C3.28816 69.2047 3.01432 69.3702 2.79597 69.1525Z" fill="#5F5A54"/>
<path d="M28.132 38.393C28.4075 37.4617 28.6284 36.476 28.9038 35.5447C28.5208 35.6013 28.7405 35.1626 28.6313 35.0537C28.1914 36.1499 27.5876 37.1923 27.6396 38.4501C27.7495 38.2308 27.9683 38.2297 28.132 38.393Z" fill="#5C564F"/>
<path d="M21.6162 67.5264C21.5616 67.472 21.5071 67.4176 21.5071 67.4176C21.2885 67.3093 21.1793 67.2004 20.8509 67.3115C20.2486 67.588 19.7555 67.9734 19.1534 68.1405C19.0438 68.2504 18.9888 68.4148 19.0431 68.5786C19.8637 68.5198 20.6846 68.3516 21.5052 68.2928C21.2325 67.9113 21.4518 67.6913 21.6162 67.5264Z" fill="#F2DDBF"/>
<path d="M31.2509 63.9772C31.4146 64.1405 31.4688 64.4137 31.2495 64.6336C31.0851 64.7986 30.9215 64.5259 30.703 64.4176C30.5392 64.2543 30.4844 64.3093 30.4842 64.4187C30.5381 64.8013 30.3732 65.1851 30.8103 65.4017C31.3568 65.6177 31.6857 65.2879 32.0146 64.958C32.2348 64.3005 31.8529 63.8101 31.3614 63.4297C31.3066 63.4847 31.2518 63.5396 31.2518 63.5396C31.1422 63.6496 31.1417 63.8684 31.2509 63.9772Z" fill="#ECD2B0"/>
<path d="M12.2826 31.9084C12.2303 30.76 13.2695 30.8094 13.872 30.4235C13.8723 30.3141 13.8725 30.2047 13.8727 30.0953C13.8181 30.0409 13.7636 29.9865 13.7636 29.9865C13.2702 30.4812 12.3409 30.2124 11.9563 31.0348C11.9012 31.1992 11.5732 31.0915 11.4095 30.9282C11.0801 31.4768 11.9003 31.6368 11.8994 32.0744C12.1182 32.0733 12.3372 31.9628 12.2826 31.9084Z" fill="#F5E4D0"/>
<path d="M12.6015 62.3751C12.3277 62.5406 12.2722 62.9237 11.8894 62.871C11.6153 63.1458 12.0525 63.3625 11.9972 63.6362C12.4348 63.634 12.8726 63.5224 13.1469 63.1382C13.2568 62.9188 13.64 62.7528 13.2031 62.4268C13.0944 62.0991 12.8754 62.2096 12.6015 62.3751Z" fill="#5E5851"/>
<path d="M22.2724 67.6325C22.0534 67.743 21.9995 67.3604 21.8357 67.1971C21.7261 67.3071 21.835 67.5253 21.5616 67.472C21.3424 67.6919 21.1779 67.8568 21.4509 68.129C21.9428 68.2906 22.4898 68.2878 23.0368 68.2851C22.8733 68.0124 23.2033 67.1355 22.2724 67.6325Z" fill="#F2E3D0"/>
<path d="M28.6392 31.334C28.4208 31.1163 28.4761 30.8426 28.3674 30.5149C27.9827 31.3373 27.8169 32.1587 28.4717 32.9212C28.6369 32.4281 28.7474 31.8805 28.6392 31.334Z" fill="#F0E1CF"/>
<path d="M28.118 45.0665C27.899 45.177 27.515 45.6713 27.7332 45.9984C28.0059 46.3799 28.1714 45.668 28.4992 45.8851C28.6634 45.8296 28.8279 45.6647 28.9921 45.6091C28.884 44.9533 28.3919 44.901 28.118 45.0665Z" fill="#EDD4B0"/>
<path d="M28.7501 56.6599C28.4767 56.6066 28.4214 56.8803 28.3118 56.9903C28.0377 57.2652 27.9824 57.539 28.3647 57.8105C28.6929 57.8089 28.9127 57.3702 29.2409 57.3685C29.0773 57.0959 29.2423 56.7121 28.7501 56.6599Z" fill="#ECD1AD"/>
<path d="M28.9038 35.5447C28.9596 35.0521 29.1247 34.5589 29.1804 34.0664C28.9616 34.0675 28.7974 34.123 28.6334 34.0691C28.6327 34.3973 28.632 34.7255 28.5768 34.9993C28.7405 35.1626 28.5208 35.6013 28.9038 35.5447Z" fill="#35302B"/>
<path d="M19.6891 47.5156C19.6877 48.1721 20.1794 48.4431 20.5069 48.7697C20.7821 47.9478 20.0712 47.8966 19.6891 47.5156Z" fill="#F7EDE1"/>
<path d="M30.784 51.8907C30.948 51.9446 31.1668 51.9435 31.167 51.8341C31.3317 51.5598 31.0585 51.397 30.9496 51.1788C30.8948 51.2338 30.7851 51.3437 30.7303 51.3987C30.6205 51.618 30.456 51.783 30.784 51.8907Z" fill="#E9CDA3"/>
<path d="M19.0988 68.086C18.8252 68.1421 18.4972 68.0344 18.1686 68.2548C18.3869 68.4725 18.6601 68.6353 18.9339 68.4698C18.989 68.3054 18.9892 68.196 19.0988 68.086Z" fill="#F2E1C7"/>
<path d="M8.89991 27.7681C8.62561 28.1524 9.00817 28.3146 9.22651 28.5323C9.50082 28.148 9.11826 27.9858 8.89991 27.7681Z" fill="#FAF4EB"/>
<path d="M23.365 68.2835C23.5293 68.2279 23.6932 68.2818 23.8575 68.2263C23.4751 67.9547 23.4751 67.9547 23.365 68.2835Z" fill="#F2E3D0"/>
<path d="M29.3467 33.0262C29.4563 32.9163 29.5112 32.8613 29.6208 32.7513C29.6212 32.5325 29.6215 32.4231 29.6219 32.2043C29.3479 32.4792 29.238 32.6986 29.3467 33.0262Z" fill="#27221E"/>
<path d="M29.7889 30.836C30.1749 29.3571 30.8343 27.9316 31.5483 26.5605C31.935 24.7534 32.8682 23.1624 33.5829 21.4631C34.5171 19.4345 35.5604 17.5148 36.6588 15.4306C35.6182 16.0375 34.1366 18.2877 33.3113 20.5346C32.7627 21.3031 32.4327 22.18 32.2121 23.0563C31.6077 24.3175 31.0033 25.5786 30.399 26.8398C30.2887 27.2779 30.1784 27.7161 30.0132 28.2092C29.8502 27.7177 29.6871 27.2262 30.0162 26.787C29.7456 25.4208 30.3499 24.1597 30.2433 22.8474C30.2433 22.8474 30.1887 22.793 30.2435 22.738C29.9722 21.7 30.2479 20.6593 30.1954 19.6203C30.1417 19.1283 29.9245 18.3635 30.2539 17.8149C29.8724 17.1057 30.0931 16.2294 29.8759 15.4646C29.7119 15.4108 29.6025 15.4113 29.4385 15.3574C29.4378 15.6856 29.3826 15.9594 29.327 16.3426C29.4885 17.5999 29.5406 18.8578 29.4284 20.1711C29.5353 21.374 29.4779 22.6324 29.4206 23.8908C29.6353 25.859 28.9747 27.8315 29.08 29.8002C29.1343 29.964 29.1339 30.1828 29.1882 30.3467C29.2979 30.2367 29.3527 30.1817 29.4625 29.9624C29.408 29.908 29.5174 29.9074 29.5174 29.9074C29.5722 29.8524 29.627 29.7975 29.6818 29.7425C29.5715 30.1807 29.5164 30.345 29.516 30.5638C29.7343 30.7815 29.6245 31.0009 29.624 31.2197C29.6793 30.9459 29.7887 30.9454 29.7889 30.836Z" fill="#544D47"/>
<path d="M38.0856 13.2354C37.1007 13.3498 37.2081 14.3338 36.7693 14.8831C37.5356 14.6604 37.7014 13.8391 38.0856 13.2354Z" fill="#68625A"/>
<path d="M27.6278 18.0469C27.7899 18.976 27.7899 18.976 27.3505 19.8534C27.6227 20.4537 27.8401 21.109 28.167 21.7638C28.1672 21.6544 28.3316 21.4895 28.2771 21.435C27.7874 20.1794 28.4988 20.0117 29.5383 19.9518C29.5956 18.6934 29.5984 17.3806 29.4369 16.1233C28.4525 16.0188 27.631 16.5152 26.864 17.0661C27.2464 17.3377 27.5195 17.5004 27.6278 18.0469Z" fill="#F4E5D2"/>
<path d="M29.8213 15.4102C29.7681 14.6994 29.7697 13.9336 29.6619 13.1683C29.5005 11.911 29.339 10.6537 29.1775 9.39637C29.0679 9.50632 28.9583 9.61628 28.8486 9.72623C28.9541 11.5855 28.9502 13.4454 29.3839 15.303C29.6027 15.3019 29.7121 15.3014 29.8213 15.4102Z" fill="#5D5750"/>
<path d="M29.1775 9.39637C29.3434 8.57503 28.9071 7.92082 28.6351 7.21107C28.4711 7.15719 28.3617 7.15774 28.2526 7.04889C28.4695 7.92301 28.2487 8.90873 28.7941 9.6718C28.9583 9.61628 29.0679 9.50632 29.1775 9.39637Z" fill="#59534D"/>
<path d="M28.6899 7.15609C28.581 6.93783 28.9647 6.55301 28.473 6.28197C28.4177 6.55575 28.2533 6.72068 28.3074 6.99391C28.4166 7.10276 28.526 7.10222 28.6899 7.15609Z" fill="#837B71"/>
<path d="M12.2279 57.9462C12.174 57.5636 12.1201 57.1809 12.0665 56.6889C12.0119 56.6345 12.0119 56.6345 11.9573 56.58C11.8479 56.5806 11.7933 56.5262 11.6837 56.6361C11.4623 57.8406 11.1862 59.1001 11.4025 60.3025C11.5119 60.3019 11.6213 60.3014 11.7307 60.3008C11.7857 60.1364 11.8408 59.9721 11.896 59.6983C12.116 59.1502 11.6252 58.4415 12.2279 57.9462Z" fill="#575049"/>
<path d="M11.9573 56.58C12.2314 56.3052 12.2869 55.922 12.233 55.5393C12.1795 54.9379 12.0715 54.282 11.9635 53.6262C11.8543 53.5173 11.6903 53.4634 11.5807 53.5734C11.4156 54.0665 11.5241 54.5036 11.5229 55.0506C11.686 55.5421 11.3566 56.0907 11.6837 56.6361C11.7931 56.6356 11.8479 56.5806 11.9573 56.58Z" fill="#575049"/>
<path d="M11.8032 51.8219C12.3504 51.7097 12.1848 52.4216 12.5676 52.4744C13.2261 51.4865 12.1874 51.2182 11.8057 50.6184C11.6408 51.0022 11.6947 51.3848 11.8032 51.8219Z" fill="#F6E8D8"/>
<path d="M11.8032 51.8219C11.6947 51.3848 11.6408 51.0022 11.8057 50.6184C11.697 50.2908 11.5335 50.0181 11.4794 49.7449C11.4248 49.6904 11.3702 49.636 11.2062 49.5821C11.1505 50.0747 11.1495 50.5123 11.1484 51.0593C11.2023 51.442 11.2014 51.8796 11.8032 51.8219Z" fill="#5B554E"/>
<path d="M11.3181 48.3781C11.2085 48.4881 11.0989 48.598 11.044 48.653C10.934 48.9818 10.9333 49.31 11.2062 49.5821C11.2608 49.6365 11.3154 49.691 11.4794 49.7449C11.6445 49.2517 11.5908 48.7597 11.3181 48.3781Z" fill="#58514C"/>
<path d="M12.2279 57.9462C12.5566 57.7257 12.9398 57.5597 12.3389 57.1798C12.2298 57.071 12.1754 56.9072 12.0117 56.7439C12.1201 57.1809 12.174 57.5636 12.2279 57.9462Z" fill="#F0E1C7"/>
<path d="M11.9633 53.7356C11.964 53.4074 12.0195 53.0242 11.6917 52.807C11.4176 53.0819 11.5264 53.4096 11.5805 53.6828C11.7449 53.5179 11.8541 53.6267 11.9633 53.7356Z" fill="#80776D"/>
<path d="M10.9957 45.6447C10.9413 45.4809 11.0512 45.2615 10.8324 45.2626C10.723 45.2632 10.3948 45.2648 10.4489 45.5381C10.4484 45.7569 10.6672 45.7558 10.7766 45.7552C10.886 45.7547 10.9408 45.6997 10.9957 45.6447Z" fill="#A3978A"/>
<path d="M10.8849 46.3017C11.1041 46.0818 11.1592 45.9174 10.9957 45.6447C10.9408 45.6997 10.886 45.7547 10.7766 45.7552C10.7216 45.9196 10.5571 46.0845 10.7209 46.2478C10.7755 46.3022 10.8301 46.3567 10.8849 46.3017Z" fill="#726961"/>
<path d="M11.2642 47.9955C10.8812 48.0521 11.0445 48.4342 11.044 48.653C11.1537 48.5431 11.2633 48.4331 11.3181 48.3781C11.428 48.1588 11.3736 47.995 11.2642 47.9955Z" fill="#898076"/>
<path d="M20.6887 14.3073C20.4151 14.3634 20.0334 13.7636 19.8681 14.3661C19.5931 15.0786 20.2472 16.1694 21.0674 16.3293C20.9593 15.6735 20.9607 15.0171 20.6887 14.3073Z" fill="#F7EDE2"/>
<path d="M21.6715 15.1776C21.7797 15.7241 22.1072 16.0506 22.4893 16.4316C22.6536 16.3761 22.8175 16.43 22.9267 16.5388C22.5999 15.8841 22.2185 15.1749 21.6178 14.6856C21.4534 14.8505 21.5077 15.0143 21.6715 15.1776Z" fill="#625A54"/>
<path d="M21.6178 14.6856C21.6733 14.3024 21.2905 14.2496 21.1816 14.0313C21.0174 14.0869 20.8532 14.1424 20.7435 14.2523C20.6887 14.3073 20.6887 14.3073 20.6339 14.3623C20.6339 14.3623 20.6339 14.3623 20.6885 14.4167C21.0162 14.6339 21.0697 15.2353 21.6167 15.2326C21.5077 15.0143 21.4534 14.8505 21.6178 14.6856Z" fill="#898078"/>
<path d="M21.1816 14.0313C21.1827 13.4843 20.7449 13.5959 20.4715 13.5426C20.4708 13.8708 20.6346 14.0341 20.7435 14.2523C20.8532 14.1424 21.0174 14.0869 21.1816 14.0313Z" fill="#797168"/>
<path d="M27.1898 44.2507C27.8478 43.4816 28.2875 42.4947 29.2185 41.9978C29.7668 41.3386 29.9877 40.3529 30.809 39.9659C30.8648 39.4733 31.3028 39.2523 31.6315 39.0318C32.6175 38.3705 33.167 37.1643 33.9893 36.3397C35.1404 35.1852 36.4007 34.1395 37.5516 33.0944C38.1002 32.3259 39.1947 32.1016 39.5249 31.1153C39.5254 30.8965 40.2914 30.7833 39.6357 30.4584C39.1977 30.6794 38.9236 30.9542 38.5947 31.2841C37.8825 31.78 37.1702 32.3853 36.458 32.8811C36.1839 33.156 35.9645 33.4853 35.7452 33.7052C33.8276 35.1918 32.2372 37.1143 30.5925 38.8729C29.2767 40.3018 28.2341 41.8933 27.0823 43.376C26.4249 43.8169 26.0956 44.3656 26.258 45.1853C26.7506 45.0187 26.8609 44.5805 27.1898 44.2507Z" fill="#554E47"/>
<path d="M39.5252 31.0059C39.7986 31.0593 39.9087 30.7305 40.182 30.7838C41.004 30.0686 41.826 29.3534 42.5935 28.5837C42.8127 28.3638 43.0866 28.1983 43.0329 27.7063C41.8276 28.5875 40.5683 29.1956 39.6359 30.349C40.2917 30.6739 39.5256 30.7871 39.5252 31.0059Z" fill="#655E56"/>
<path d="M20.248 41.824C20.6287 42.8614 21.0643 43.8438 21.3356 44.8817C21.4443 45.2094 21.6078 45.4821 21.7165 45.8097C21.8803 45.973 22.0441 46.1363 22.2631 46.0258C22.3213 44.3298 21.4491 42.912 20.7411 41.4386C20.3037 41.3314 20.3576 41.714 20.248 41.824Z" fill="#565049"/>
<path d="M20.6317 41.4391C20.6324 41.1109 20.3595 40.8388 20.1414 40.5117C19.8694 39.8019 19.6522 39.0372 19.3253 38.3825C18.9985 37.7277 18.2884 37.2389 18.29 36.4731C18.1256 36.6381 17.9614 36.6936 17.7974 36.6397C18.7237 38.3308 19.6501 40.0218 20.1932 41.8789C20.3576 41.714 20.3037 41.3314 20.6317 41.4391Z" fill="#625A53"/>
<path d="M18.3449 36.4181C18.3997 36.3632 18.5093 36.2532 18.4547 36.1988C17.8004 35.2175 17.146 34.2361 16.6559 33.1993C16.6559 33.1993 16.4369 33.3098 16.3275 33.3103C16.5449 33.9656 16.7077 34.5665 16.8704 35.2768C16.98 35.1669 17.1442 35.1114 17.308 35.2746C17.4171 35.3835 17.3621 35.5479 17.307 35.7122C17.4703 36.0943 17.6339 36.367 17.7972 36.7491C18.0162 36.6386 18.1804 36.5831 18.3449 36.4181Z" fill="#5F5952"/>
<path d="M16.1642 32.9282C16.0007 32.6556 16.0013 32.3274 15.6734 32.2196C15.6186 32.2746 15.6186 32.2746 15.5637 32.3296C15.5635 32.439 15.5085 32.6033 15.4536 32.6583C15.6174 32.8216 15.7809 33.0943 16.1094 32.9832C16.1094 32.9832 16.1094 32.9832 16.1642 32.9282Z" fill="#6B635A"/>
<path d="M17.3628 35.2197C17.199 35.0564 17.0348 35.1119 16.9252 35.2219C17.0889 35.3851 17.1981 35.494 17.4167 35.6023C17.4717 35.4379 17.4719 35.3285 17.3628 35.2197Z" fill="#8B8278"/>
<path d="M23.1883 48.2639C23.1335 48.3189 23.0787 48.3739 23.0238 48.4288C23.0238 48.4288 23.0238 48.4288 22.969 48.4838C22.7498 48.7037 22.8589 48.8126 23.0227 48.9758C23.1871 48.8109 23.2424 48.5371 23.1883 48.2639Z" fill="#D9C9B2"/>
<path d="M10.5711 65.5032C10.4614 65.6132 10.4064 65.7775 10.4607 65.9414C11.5002 65.8814 12.5394 65.9309 13.579 65.7616C14.5639 65.6473 15.4937 65.6973 16.4783 65.6924C17.4633 65.4686 18.6108 66.0646 19.3789 64.9667C19.2149 64.9128 19.1603 64.8584 18.9963 64.8045C17.6835 64.8111 16.4248 65.0909 15.1127 64.7693C13.7451 64.8309 12.3226 64.9474 10.8997 65.2828C10.7901 65.3927 10.6805 65.5027 10.5711 65.5032Z" fill="#58524B"/>
<path d="M19.5429 65.0206C19.4881 65.0756 19.3784 65.1855 19.4328 65.3493C19.65 66.1141 20.3071 65.7826 20.7993 65.8348C21.2919 65.6682 21.8392 65.5561 22.3309 65.8271C23.3701 65.8766 24.4648 65.5429 25.5583 65.7562C25.9416 65.5902 26.3242 65.7524 26.707 65.8052C26.926 65.6947 27.1448 65.6936 27.3095 65.4192C27.2549 65.3648 27.2003 65.3104 27.2551 65.2554C26.9817 65.2021 26.7083 65.1487 26.4349 65.0954C24.5205 65.0503 22.605 65.5522 20.7465 64.9052C20.3637 64.8524 19.9807 64.909 19.5429 65.0206Z" fill="#5A524C"/>
<path d="M19.3789 64.9667C19.4883 64.9662 19.4883 64.9662 19.5977 64.9656C19.9807 64.909 20.3637 64.8524 20.8013 64.8502C21.13 64.6297 21.6227 64.4631 21.6236 64.0255C21.6789 63.7518 21.4059 63.4796 21.1874 63.3713C20.4227 62.8282 19.3275 63.3806 19.2709 64.3108C19.2704 64.5297 19.2154 64.694 19.1055 64.9134C19.1055 64.9134 19.2695 64.9673 19.3789 64.9667Z" fill="#F5E8D6"/>
<path d="M25.1375 57.772C25.4662 57.5516 25.577 56.8946 26.1776 57.3839C26.7783 57.8732 27.3806 57.5967 27.6003 57.158C27.9299 56.4999 28.5322 56.2234 29.0801 55.783C29.1897 55.6731 29.2448 55.5087 29.1904 55.3449C28.9168 55.4009 29.0817 55.0172 28.9175 55.0727C28.2604 55.4042 27.6579 55.7902 27.0554 56.1761C26.9457 56.286 27.1093 56.5587 26.7811 56.5604C26.4531 56.4526 26.6721 56.3421 26.7272 56.1777C26.8373 55.849 26.3451 55.7967 26.3451 55.7967C26.0703 56.3998 25.1958 56.076 24.8664 56.6247C24.7561 57.0628 25.0836 57.3894 25.1375 57.772Z" fill="#F4E6D3"/>
<path d="M17.9709 58.1909C16.931 58.4696 16.4368 59.402 15.6155 59.789C15.6155 59.789 15.6155 59.789 15.5606 59.844C15.5056 60.0084 15.3957 60.2277 15.3405 60.5015C15.8331 60.3349 16.2168 59.9501 16.7092 59.8929C16.8189 59.783 16.8737 59.728 16.9833 59.6181C17.3124 59.1788 17.6416 58.7396 17.9709 58.1909Z" fill="#201C18"/>
<path d="M38.2767 52.4548L38.3858 52.4543C38.4406 52.3993 38.5506 52.2894 38.6054 52.2344C38.6056 52.125 38.6058 52.0156 38.6058 52.0156C37.9494 52.0189 37.2387 51.8584 36.6359 52.3537C36.4717 52.4092 36.2527 52.5197 36.0885 52.5752C36.0882 52.6846 36.088 52.794 36.0878 52.9034C36.854 52.6808 37.6201 52.5675 38.2767 52.4548Z" fill="#605A52"/>
<path d="M8.98324 66.2223C9.14837 65.7291 9.47681 65.6181 9.91418 65.7253C9.969 65.6703 10.0238 65.6153 10.0786 65.5604C9.96992 65.2327 10.1344 65.0678 10.4626 65.0661C10.5722 64.9562 10.6272 64.7918 10.5181 64.683C9.36902 64.8528 8.6016 65.6225 7.61584 66.1744C7.67043 66.2289 7.67042 66.2289 7.72501 66.2833C7.88922 66.2278 8.16307 66.0623 8.32683 66.2256C8.49059 66.3889 8.27156 66.4994 8.10711 66.6643C8.05229 66.7193 7.99748 66.7742 7.99725 66.8836C8.10665 66.8831 8.10665 66.8831 8.16123 66.9375C8.38027 66.827 8.43554 66.5532 8.76375 66.5516C8.81879 66.3872 8.92842 66.2773 8.98324 66.2223Z" fill="#5C544D"/>
<path d="M9.42085 66.2201C9.31145 66.2206 9.09264 66.2217 8.98324 66.2223C8.92842 66.2773 8.81879 66.3872 8.76398 66.4422C8.76237 67.208 9.36419 67.1503 9.80156 67.2575C9.96555 67.3114 10.185 66.9821 10.0211 66.9282C9.36534 66.6033 10.1316 66.3806 9.96808 66.1079C9.80432 65.9447 9.63919 66.4378 9.42085 66.2201Z" fill="#EFD9B7"/>
<path d="M10.5711 65.5032C10.4068 65.5587 10.2428 65.5048 10.0786 65.5604C10.0238 65.6153 9.969 65.6703 9.91418 65.7253C9.74973 65.8902 9.58529 66.0552 9.42085 66.2201C9.69401 66.3828 9.80432 65.9447 10.0775 66.1074C10.2417 66.0519 10.3511 66.0513 10.5153 65.9958C10.3516 65.8325 10.4066 65.6681 10.5711 65.5032Z" fill="#746A60"/>
<path d="M38.6054 52.2344C38.8788 52.2877 39.2067 52.3955 39.262 52.1217C39.3173 51.8479 38.9893 51.7402 38.7157 51.7962C38.6609 51.8512 38.6061 51.9062 38.6607 51.9606C38.6058 52.0156 38.6056 52.125 38.6054 52.2344Z" fill="#988E82"/>
<path d="M29.421 23.672C28.7653 23.3471 28.7669 22.5813 28.2754 22.2009C28.1649 22.7484 28.4369 23.4582 27.5615 23.572C27.7782 24.5555 27.9949 25.539 28.1568 26.5775C28.2112 26.7413 28.375 26.9046 28.0465 27.0157C28.2089 27.8354 28.6449 28.599 28.6979 29.4192C28.6976 29.5286 28.7513 30.0207 29.135 29.6358C28.9752 27.6127 29.6903 25.6946 29.421 23.672Z" fill="#EFD9BE"/>
<path d="M27.1819 21.9875C27.1828 21.5499 27.1837 21.1123 27.2392 20.7291C27.5117 21.2201 27.6202 21.6571 27.3456 22.1508C27.2351 22.6984 27.3436 23.1354 27.5615 23.572C28.4369 23.4582 28.1649 22.7484 28.2754 22.2009C28.2211 22.037 28.1665 21.9826 28.1121 21.8188C27.8399 21.2184 27.6225 20.5631 27.2957 19.9083C27.0782 19.253 26.5858 19.3102 26.2021 19.695C25.8732 20.0249 25.545 20.0265 25.162 20.0831C25.3253 20.4652 25.4886 20.8473 25.6519 21.2294C26.3631 21.1711 26.8548 21.4422 27.1819 21.9875Z" fill="#EED5B8"/>
<path d="M28.2117 26.5225C27.9949 25.539 27.7782 24.5555 27.6163 23.517C27.3984 23.0805 27.2353 22.589 27.4005 22.0958C27.3459 22.0414 27.2913 21.987 27.2913 21.987C26.9642 21.4416 26.4177 21.2256 25.8161 21.1739C26.2514 22.2657 26.5225 23.4131 27.0126 24.4499C27.3938 25.2685 27.4465 26.1982 28.1013 26.9607C28.375 26.9046 28.2114 26.6319 28.2117 26.5225Z" fill="#F2E3CD"/>
<path d="M29.5164 30.345C29.5715 30.1807 29.6268 29.9069 29.6823 29.5237C29.6275 29.5787 29.5726 29.6336 29.5178 29.6886L29.463 29.7436C29.2986 29.9085 29.2435 30.0729 29.1887 30.1279C29.1882 30.3467 29.0784 30.566 29.0779 30.7848C29.1875 30.6749 29.352 30.51 29.5164 30.345Z" fill="#27221E"/>
<path d="M15.6188 32.1652C15.7287 31.9458 16.0025 31.7803 15.7844 31.4532C15.4557 31.6737 14.8539 31.7314 15.5092 32.2751C15.6186 32.2746 15.6186 32.2746 15.6188 32.1652Z" fill="#EDD4B3"/>
<path d="M13.9273 30.1497C13.9271 30.2591 13.9269 30.3685 13.9266 30.4779C14.0356 30.6962 13.8709 30.9705 14.0895 31.0788C14.1443 31.0239 14.1991 30.9689 14.1991 30.9689C14.4179 30.9678 14.5273 30.9672 14.7461 30.9661C14.5823 30.8029 14.4186 30.6396 14.2002 30.4219C14.1457 30.3674 14.0365 30.2586 13.9273 30.1497Z" fill="#BBAB9B"/>
<path d="M14.8548 31.2938C15.0739 31.1833 14.8553 31.075 14.8009 30.9112C14.5821 30.9123 14.4727 30.9128 14.2539 30.9139C14.4177 31.0772 14.5264 31.4048 14.8548 31.2938Z" fill="#80766B"/>
<path d="M22.3857 65.7721C21.894 65.5011 21.3467 65.6132 20.8541 65.7798C20.799 65.9442 20.7986 66.163 20.7435 66.3274C21.5093 66.3235 21.1795 67.091 21.4525 67.3631C21.5071 67.4176 21.5616 67.472 21.5616 67.472C21.835 67.5253 21.7261 67.3071 21.8357 67.1971C22.055 66.9772 22.2197 66.7029 22.4389 66.483C22.4394 66.2642 22.4398 66.0454 22.3857 65.7721Z" fill="#F4E8D6"/>
<path d="M31.3043 64.5787C31.4688 64.4138 31.4147 64.1405 31.3057 63.9223C31.1965 63.8134 31.197 63.5946 31.2518 63.5396C30.8151 63.1042 30.1032 63.4907 29.6122 62.8914C29.7197 63.7661 30.9787 63.3769 30.7578 64.3626C30.867 64.4715 31.0853 64.6892 31.3043 64.5787Z" fill="#EFDAC2"/>
<path d="M30.0164 26.6776C30.1256 26.7864 30.2896 26.8403 30.4538 26.7848C31.0582 25.5236 31.6625 24.2625 32.2669 23.0013C32.1027 23.0569 32.102 23.3851 31.7738 23.3867C31.2846 21.9123 32.3818 20.3751 31.7291 18.628C31.3437 19.7786 30.7403 20.6022 30.6836 21.5324C30.6279 22.0249 30.5178 22.3537 30.2435 22.738C30.2435 22.738 30.2435 22.738 30.1887 22.793C30.3502 24.0503 29.7458 25.3114 30.0164 26.6776Z" fill="#F0DCC3"/>
<path d="M11.4025 60.3025C11.0738 60.5229 11.2917 60.9594 11.0176 61.2343C11.2348 61.999 10.6314 62.8226 10.9032 63.6417C10.9575 63.8055 11.0121 63.86 11.0665 64.0238C11.2307 63.9683 11.4495 63.9672 11.6137 63.9117C11.6137 63.9117 11.6685 63.8567 11.7231 63.9111C11.7779 63.8561 11.8875 63.7462 11.9424 63.6912C12.0525 63.3624 11.5605 63.2008 11.8346 62.9259C11.6722 62.1062 12.0022 61.2294 11.6211 60.4108C11.6213 60.3014 11.5119 60.3019 11.4025 60.3025Z" fill="#58504A"/>
<path d="M11.1206 64.297C10.9559 64.5714 10.5736 64.2998 10.4635 64.6285C10.5178 64.7924 10.5176 64.9018 10.408 65.0117C10.5174 65.0112 10.6266 65.12 10.736 65.1195C11.0103 64.7352 11.5029 64.5686 11.5041 64.0216C11.3942 64.241 11.3392 64.4053 11.1206 64.297Z" fill="#746B61"/>
<path d="M10.7357 65.2289C10.6263 65.2294 10.5172 65.1206 10.4078 65.1211C10.0795 65.1228 9.9151 65.2877 10.0238 65.6153C10.188 65.5598 10.352 65.6137 10.5162 65.5582C10.6804 65.5026 10.7353 65.4477 10.8995 65.3922C10.8997 65.2827 10.7903 65.2833 10.7357 65.2289Z" fill="#E5D3B8"/>
<path d="M11.1759 64.0233C11.1756 64.1327 11.1754 64.2421 11.1752 64.3515C11.3937 64.4598 11.4488 64.2954 11.5584 64.1854C11.6132 64.1305 11.7229 64.0205 11.7777 63.9655C11.7777 63.9655 11.7229 64.0205 11.6683 63.9661C11.5043 63.9122 11.3401 63.9677 11.1759 64.0233Z" fill="#D8C2A1"/>
<path d="M22.3857 65.7721C22.3852 65.9909 22.4394 66.2642 22.3841 66.538C22.6557 67.4665 23.7501 67.2422 24.1313 68.0608C24.4056 67.6765 23.9687 67.3505 24.1882 67.0212C24.298 66.8019 24.0802 66.3653 24.4632 66.3087C24.8462 66.2521 24.6813 66.6358 24.7902 66.8541C24.8992 67.0723 25.0629 67.2356 25.2817 67.2345C25.6099 67.2329 25.4464 66.9602 25.4469 66.7414C25.4476 66.4132 25.5031 66.03 25.5583 65.7562C24.5196 65.4879 23.4795 65.876 22.3857 65.7721Z" fill="#F2E3D0"/>
<path d="M7.67042 66.2289C7.61584 66.1744 7.61584 66.1744 7.56125 66.12C7.12319 66.341 6.63076 66.3982 6.41104 66.8369C6.95736 67.1624 7.23213 66.5593 7.72455 66.5021C7.66996 66.4477 7.67019 66.3383 7.67042 66.2289Z" fill="#3A342F"/>
<path d="M8.16193 66.6093C8.27156 66.4994 8.5454 66.3339 8.38165 66.1706C8.21789 66.0073 7.99863 66.2272 7.77982 66.2283C7.77959 66.3377 7.77936 66.4471 7.77913 66.5565C7.88854 66.556 7.99794 66.5554 8.16193 66.6093Z" fill="#302A26"/>
<path d="M28.2754 22.2009C28.7669 22.5813 28.8199 23.4015 29.421 23.672C29.4784 22.4136 29.4809 21.2102 29.4289 19.9523C28.4443 19.9573 27.678 20.1799 28.1677 21.4356C28.2222 21.49 28.0578 21.6549 28.0576 21.7643C28.2213 21.9276 28.2211 22.037 28.2754 22.2009Z" fill="#F5E8D6"/>
<path d="M30.0164 26.6776C29.6873 27.1168 29.8504 27.6083 30.0135 28.0998C30.1238 27.6616 30.2341 27.2235 30.3992 26.7304C30.2896 26.8403 30.1256 26.7864 30.0164 26.6776Z" fill="#DABF9C"/>
<path d="M8.98324 66.2223C9.09264 66.2217 9.31145 66.2206 9.42085 66.2201C9.58529 66.0552 9.74973 65.8902 9.91418 65.7253C9.47681 65.6181 9.14837 65.7291 8.98324 66.2223Z" fill="#2E2824"/>
<path d="M27.2392 20.7291C27.2383 21.1667 27.2374 21.6044 27.1819 21.9875C27.2365 22.042 27.2911 22.0964 27.2911 22.0964C27.6202 21.6571 27.5117 21.2201 27.2392 20.7291Z" fill="#E8CDA6"/>
</svg>
