<svg width="84" height="54" viewBox="0 0 84 54" fill="none" xmlns="http://www.w3.org/2000/svg">
<path d="M30.2236 30.1001C32.0439 30.585 33.3257 31.8482 35.0715 31.9443C32.2457 29.9208 29.1549 28.3129 26.2766 26.39C24.603 25.2542 22.8218 24.2323 21.3168 22.9349C19.5194 21.3892 17.6086 19.9917 15.8316 18.4301C15.7968 18.4275 15.7417 18.4408 15.6924 18.4197C15.436 18.8882 16.2969 19.1095 15.9157 19.5861C20.086 23.3304 24.6984 26.5504 29.496 29.9236C28.4457 30.0887 27.8032 29.518 27.0515 29.6881C27.1843 29.9419 27.5377 30.1426 27.2149 30.4842C26.9531 30.7781 26.7518 31.2333 26.1897 31.017C25.9579 30.9299 25.6415 31.0281 25.3716 31.0601C25.1088 31.772 24.7854 31.1904 24.2859 31.4316C24.7634 30.701 25.0901 31.161 25.3716 31.0601C25.1056 30.7615 24.9845 30.4389 25.1944 30.0365C25.5193 29.9912 25.3813 30.6951 25.7415 30.4434C26.1832 30.1281 25.4208 29.949 25.5985 29.6314C24.183 29.6646 23.2151 30.4804 22.4004 31.5341C22.1996 31.7803 21.8827 32.0875 22.0996 32.3651C22.2816 32.64 22.7137 32.6898 23.059 32.6286C24.5853 32.3599 26.0109 31.7526 27.572 31.4864C29.1187 31.2018 30.5433 31.0125 32.0097 31.5056C31.6633 30.8526 30.796 30.8746 30.2236 30.1001Z" fill="#544D47"/>
<path d="M67.0586 46.7627C66.8814 46.8713 66.6983 47.0144 66.5211 47.123C67.0404 47.0749 67.1176 47.551 67.3548 47.8126C67.4741 47.63 67.5389 47.2516 67.7766 47.3043C68.1128 47.3991 67.9726 47.8067 68.085 48.0764C69.4737 47.1702 70.8978 47.1899 72.3904 47.6328C72.8251 47.7699 73.3359 47.6689 73.7395 47.4727C75.4934 46.6984 77.244 47.1781 78.9315 47.4091C80.3899 47.6404 81.8049 47.8162 83.2873 47.7009C83.5571 47.6689 83.888 47.5892 83.8976 47.2241C83.9158 46.9119 83.617 46.9069 83.3852 46.8199C81.9825 46.3663 80.4856 46.4631 79.0739 46.1656C76.2995 45.5918 73.4418 45.9175 70.6375 45.7246C68.7931 45.5863 67.0773 45.1093 65.2912 44.836C63.9517 44.631 62.7471 43.8439 61.3814 43.6893C61.5511 44.242 62.4875 44.4341 62.0823 45.2573C63.6852 45.6736 65.2881 46.0899 66.891 46.5062C66.9633 46.5988 67.178 46.58 67.0586 46.7627ZM68.8141 46.4937C68.8119 46.1974 69.2381 46.2816 69.5047 46.3713C70.6134 46.0712 71.6424 46.34 72.7491 46.8758C71.5585 47.4485 70.5915 46.7141 69.5963 46.8659C69.2569 46.8927 68.7986 46.8932 68.8141 46.4937Z" fill="#544D47"/>
<path d="M31.39 11.3401C31.4248 11.3428 31.5094 11.1575 31.5067 11.0702C31.4847 10.5808 31.4847 10.5808 32.0383 10.7443C32.4157 10.5984 31.3348 10.2212 32.0859 10.2601C33.2401 10.3118 33.813 9.74509 34.1084 8.73952C34.1582 8.55164 34.3006 8.44039 34.489 8.47194C34.9136 9.18312 33.4232 10.1688 34.7531 10.7388C34.8597 11.0429 34.8003 11.5959 35.4218 11.2593C35.7098 10.9151 35.9282 10.5656 35.9207 10.0948C35.3441 9.85991 35.5834 9.2856 35.593 8.92052C35.6181 8.15597 35.5677 7.42059 35.5377 6.66932C35.2395 6.45534 34.9557 6.25988 34.6575 6.0459C34.3759 6.14672 34.1088 6.26604 33.8068 6.38275C33.7191 6.68971 33.7442 7.0574 33.4102 7.2588C33.4156 7.4334 33.4209 7.60799 33.4118 7.76407C33.4022 8.12916 33.3664 8.54453 33.0382 8.71153C32.6142 8.9236 32.4675 8.44228 32.2244 8.21503C31.8272 8.16782 31.4299 8.12061 31.0123 8.0893C30.9106 8.16877 30.7886 8.26413 30.6868 8.3436C30.6751 8.41239 30.6285 8.47857 30.5675 8.52626C30.5787 8.66645 30.5696 8.82254 30.5809 8.96274C30.7051 9.16366 30.9251 9.31952 30.8433 9.59208C30.7881 9.60537 30.7415 9.67155 30.6719 9.66633C30.1906 9.5954 29.6906 8.9134 29.257 9.49055C28.8699 10.0015 29.3909 10.4586 29.7234 10.8842C29.9547 11.1803 30.1249 11.524 30.3155 11.8518C30.5126 11.9363 30.724 12.0392 30.9007 12.1396C31.1566 11.8801 30.497 11.2035 31.39 11.3401Z" fill="#594E47"/>
<path d="M14.1656 18.8974C13.4691 19.0542 13.6532 18.4932 13.3694 18.2977C13.8662 17.9692 14.2046 18.3604 14.5703 18.2833C14.4375 18.0294 13.9942 17.8394 14.2966 17.5137C14.6194 17.1721 14.8416 17.6243 15.0879 17.7298C15.3835 17.8565 15.5452 18.1473 15.6721 18.4356C15.7069 18.4382 15.762 18.4249 15.8113 18.446C15.6115 17.142 15.7538 15.8985 16.4326 14.7127C16.4186 14.4852 16.2623 14.3689 16.0449 14.3004C16.0305 14.2819 16.0101 14.2978 16.0101 14.2978C16.0332 14.3692 16.0214 14.438 15.9893 14.5226C15.6413 14.4966 15.2992 14.4361 15.1675 14.8965C15.1959 15.1425 15.2039 15.4044 15.2179 15.6319C14.9144 16.3756 13.7831 16.3952 13.7227 17.3662C13.7077 17.5567 13.4411 17.467 13.2933 17.4037C13.198 17.2397 12.9576 17.0998 13.0974 16.9012C13.2371 16.7027 13.3816 16.8877 13.5091 16.9669C13.1594 16.4356 13.3211 15.5942 12.495 15.3754C12.4511 15.5289 12.4184 15.8226 12.3633 15.8359C11.8381 15.9184 12.0281 15.323 11.7792 15.1302C11.6566 15.4345 11.5056 15.4929 11.2219 15.2974C10.8396 15.0597 10.437 14.8379 10.0488 14.6346C9.90374 14.6586 9.7442 14.664 9.59912 14.688C8.90209 15.0538 9.28012 15.8311 8.91342 16.3262C9.59339 16.9869 10.4307 17.3458 11.3146 17.6385C11.736 18.4714 11.736 18.4714 12.5364 18.5314C12.7602 18.3566 12.8876 18.4358 13.0263 18.6552C13.1939 18.9117 12.9647 18.9119 12.8282 18.9888C12.5959 19.1107 12.3721 19.2855 12.1339 19.4418C12.325 19.5607 12.5017 19.661 12.6928 19.7799C12.9857 19.8193 13.2989 19.8427 13.5917 19.8821C13.8444 19.7443 14.0912 19.6409 14.315 19.466C14.777 19.1349 14.4761 18.8336 14.1656 18.8974ZM10.565 15.8404C10.4633 15.9199 10.3792 15.8961 10.3883 15.74C10.4119 15.6025 10.4499 15.4834 10.5082 15.3484C10.5719 15.388 10.6008 15.425 10.6646 15.4646C10.7309 15.5915 10.7074 15.7291 10.565 15.8404Z" fill="#554D47"/>
<path d="M6.58715 7.05901C6.77725 7.59584 7.06317 8.08759 7.38389 8.58196C6.96734 8.13267 6.53902 7.75217 5.86286 7.89307C5.9057 8.15757 5.94855 8.42207 5.93626 8.69985C5.93305 8.82155 5.80511 8.95131 5.7034 9.03077C5.561 9.14203 5.41912 9.04429 5.37306 8.90149C5.26755 8.17939 4.55927 8.40499 4.15666 8.18319C4.17492 9.00325 4.15249 9.85511 5.28052 9.95711C5.44646 9.70827 5.70876 9.20537 5.85228 9.80838C6.0847 10.8187 6.78769 11.5508 7.21765 12.4365C7.58867 12.534 7.78084 12.2349 8.03941 12.0627C8.16199 11.7583 7.95104 11.4464 8.19247 11.1684C7.92957 10.748 7.97987 10.3511 8.34336 9.97776C8.61475 9.31876 9.338 8.90268 9.34866 8.11962C9.30529 8.06411 9.29672 8.01121 9.25335 7.9557C9.03703 7.46917 8.41601 7.59679 8.12688 7.22673C7.98232 7.0417 7.55244 7.28817 7.57382 6.85429C7.4496 6.65337 7.2847 6.48423 7.0411 6.46597C6.82322 6.6064 6.57054 6.74422 6.58715 7.05901Z" fill="#E49B88"/>
<path d="M66.9527 48.5141C67.2547 48.3974 67.2873 48.1037 67.3344 47.8285C66.6213 47.6705 66.2744 48.3587 65.7257 48.5788C65.7166 48.7349 65.6379 48.8858 65.5046 48.841C65.2176 48.7672 65.079 48.5478 65.1523 48.2223C65.1089 48.1668 65.0511 48.0928 65.0077 48.0373C64.845 48.1644 64.6849 48.3788 64.4991 48.4346C63.2946 48.7797 62.7877 49.6824 62.2716 50.7411C61.8868 51.5483 62.3724 52.2118 62.2632 52.9527C62.2102 53.2622 62.1974 53.749 62.5684 53.8465C62.9743 53.9466 63.4213 53.8059 63.6574 53.3533C63.6552 53.057 63.8008 52.8241 63.9957 52.6123C64.4024 51.1621 65.5995 50.3461 66.7039 49.4535C66.2386 48.7741 66.2386 48.7741 66.9527 48.5141Z" fill="#56504B"/>
<path d="M50.8661 34.8009C50.7665 34.0444 49.9559 33.4262 50.1695 32.6932C50.5147 31.4997 50.1725 30.307 50.5322 29.1321C50.2426 28.971 49.9947 29.4924 49.6184 29.2203C49.9733 28.794 50.4551 28.656 50.9599 28.5893C51.233 28.4356 51.0921 27.9199 51.536 27.9009C52.0146 27.8845 52.256 27.6065 52.0916 27.2284C51.9042 26.7789 51.4052 26.8111 50.993 26.9544C49.463 27.5539 48.8104 28.6894 48.9572 30.303C48.9937 30.8109 49.1345 31.3266 48.8663 31.8639C48.8487 31.9671 48.8717 32.0385 48.8599 32.1073C49.042 32.3822 49.2037 32.673 49.3043 33.0115C49.2985 33.0459 49.2926 33.0803 49.2722 33.0962C49.3766 33.1041 49.4666 33.0934 49.5506 33.1171C49.6256 33.2969 49.9789 33.4976 49.6508 33.6646C49.3633 33.7998 49.254 33.4084 49.0891 33.2393C49.0447 33.6017 48.4387 33.5389 48.5362 33.9991C49.1541 35.1254 49.8389 36.1696 51.0119 36.8324C50.9272 35.8855 49.9657 35.3256 49.9105 34.2067C50.2783 34.4258 50.5824 34.6054 50.8661 34.8009Z" fill="#57514B"/>
<path d="M44.058 37.4084C44.2208 37.2812 44.3198 37.1145 44.2507 36.9003C42.9637 36.5947 41.773 36.0351 40.7627 35.2452C39.1415 34.0088 37.2961 33.1562 35.5437 32.1713C35.381 32.2984 36.2323 32.8848 35.2814 32.6742C34.9597 32.5978 34.5854 32.622 34.2519 32.6144C34.7632 33.4366 35.7665 33.5467 36.47 34.0698C38.595 35.6575 41.0578 36.7131 43.4071 37.917C43.4863 37.5571 43.739 37.4193 44.058 37.4084Z" fill="#544F48"/>
<path d="M38.4157 20.3327C38.4591 20.3882 38.5024 20.4437 38.5458 20.4992C38.7193 20.7212 38.8928 20.9433 39.0518 21.1468C39.6011 21.8499 40.1852 22.5556 40.7346 23.2588C40.854 23.0761 41.2598 23.1762 41.2142 22.8244C40.3747 22.1692 40.5197 21.013 39.9618 20.257C39.0773 19.041 38.1173 17.8542 37.1718 16.6859C36.4431 15.7951 35.633 14.9679 35.2994 13.8281C35.1806 13.8018 35.082 13.7595 34.9487 13.7147C34.7357 14.2387 34.4498 13.747 34.1944 13.7975L34.1885 13.8319C34.2694 13.9773 34.3561 14.0883 34.437 14.2338C35.4163 15.8226 36.3956 17.4115 37.3749 19.0004C37.7363 19.463 38.0832 19.9071 38.4157 20.3327Z" fill="#554F48"/>
<path d="M12.5509 18.5499C11.7505 18.4899 11.7505 18.4899 11.3291 17.657C11.4094 18.0114 11.1337 18.0778 10.9046 18.0781C10.2316 18.0973 9.63631 18.3836 9.03243 18.617C8.82043 18.7231 8.62878 18.8132 8.41678 18.9192C8.27974 19.2051 9.146 19.601 8.3451 19.75C7.94465 19.8245 7.25083 20.0686 7.2936 19.2008C7.03823 19.2513 6.78875 19.2675 6.53338 19.318C6.26252 19.768 5.63024 19.7554 5.38829 20.2424C5.72295 20.9643 6.16788 21.6596 7.10314 21.1375C7.68988 20.7983 8.31358 20.7579 8.90569 20.5933C9.17066 20.1777 9.46992 19.9737 9.89824 20.3542C10.8956 20.4987 11.704 19.6883 12.6784 19.7614C12.4872 19.6425 12.3106 19.5422 12.1194 19.4233C11.932 18.9738 12.4775 18.8754 12.5509 18.5499Z" fill="#564F48"/>
<path d="M58.0716 41.5076C56.6624 40.1651 55.2388 38.8042 53.8092 37.4777C52.8659 36.6057 51.9021 35.7495 50.9588 34.8775C51.0456 36.1208 52.0296 36.961 52.3285 38.0982C52.5191 38.4261 52.8724 38.6268 53.1241 38.9069C54.1628 39.9429 55.5039 40.6531 56.3333 41.8824C56.9795 42.1224 57.6171 42.3096 58.0716 41.5076ZM52.4756 37.2383C52.4001 37.2675 52.2872 37.2068 52.2031 37.183C52.1078 37.0191 52.0762 36.8948 52.2331 36.8021C52.2738 36.7703 52.4156 36.868 52.4735 36.942C52.5313 37.016 52.7021 37.1508 52.4756 37.2383Z" fill="#59534D"/>
<path d="M49.2486 39.104C49.2946 39.2468 49.4884 39.453 49.2475 39.522C48.8963 39.6176 48.8567 39.2314 48.657 39.0597C47.5514 38.1058 46.0347 38.0095 44.792 37.3415C44.5528 37.9158 44.2979 37.7573 44.0436 37.3899C43.7186 37.4352 43.4863 37.5571 43.3926 37.8985C45.8066 38.724 48.1564 39.7189 50.4538 40.8144C51.433 41.271 52.3394 41.8442 53.4209 42.0123C53.6216 41.7661 53.7876 41.5173 53.9883 41.271C52.6337 40.1243 50.9382 39.6314 49.2486 39.104ZM51.5759 40.9508C51.3243 40.6706 51.0983 40.5492 51.1599 40.2925C51.1658 40.2581 51.4212 40.2076 51.5197 40.2498C51.8296 40.395 51.5941 40.6386 51.5759 40.9508Z" fill="#554F48"/>
<path d="M29.7785 10.8709C29.446 10.4454 28.9251 9.98823 29.3121 9.47726C29.7457 8.90011 30.2313 9.56361 30.7271 9.65304C30.7619 9.65565 30.8229 9.60797 30.8984 9.5788C30.9803 9.30623 30.7602 9.15038 30.636 8.94946C30.0182 8.95539 29.2521 9.10696 29.7365 7.92396C30.0695 8.14054 30.3533 8.33601 30.6371 8.53147C30.6981 8.48379 30.7099 8.415 30.7564 8.34882C30.5541 8.08977 30.3661 7.84923 30.7468 7.58165C30.7441 7.49435 30.7617 7.39116 30.759 7.30387C30.7184 7.33565 30.6573 7.38333 30.6166 7.41512C29.9822 7.10626 29.2702 7.66254 28.6299 7.38808C28.5448 7.78233 28.48 8.1607 28.3275 8.84602C28.0453 8.02359 27.64 7.71449 27.072 7.53254C26.9349 7.81839 27.3547 8.14599 26.9537 8.42946C26.9361 8.53266 26.9184 8.63584 26.9211 8.72314C27.1813 9.0562 27.4415 9.38925 27.6873 9.7038C28.2136 10.3355 27.4475 10.4871 27.2087 10.8524C27.2521 10.9079 27.2955 10.9634 27.3533 11.0374C27.5214 11.0849 27.6836 11.1667 27.849 11.1269C28.7543 10.9857 28.7592 11.3693 28.4182 12.0231C28.7721 12.0148 29.1404 12.025 29.4943 12.0167C29.4772 11.9109 29.4284 11.6808 29.4632 11.6834C29.7796 11.5852 30.0666 11.659 30.269 11.918C30.3241 11.9047 30.3792 11.8914 30.4258 11.8253C30.1801 11.5107 30.0098 11.167 29.7785 10.8709ZM27.4832 8.93949C27.4747 8.88659 27.5475 8.77011 27.6288 8.70654C27.6899 8.65886 27.7884 8.70108 27.9276 8.71152C27.8692 8.8465 27.8516 8.94969 27.805 9.01587C27.6685 9.09273 27.5293 9.08229 27.4832 8.93949Z" fill="#E7AA99"/>
<path d="M59.3646 42.9109C59.2431 42.7973 59.1044 42.5779 58.9796 42.586C58.0802 42.6927 58.0149 42.1478 58.0571 41.4891C57.6027 42.2911 56.9795 42.1224 56.3247 41.8295C55.5479 41.6319 54.7651 41.4686 53.9883 41.271C53.7876 41.5173 53.6216 41.7661 53.4209 42.0123C54.9499 42.9631 56.7124 43.374 58.3464 44.1236C59.2475 44.5221 60.163 44.9392 61.2128 44.9831C60.4954 44.2325 59.4434 43.8923 58.7784 43.0412C58.9786 43.0039 59.1644 42.9482 59.3646 42.9109Z" fill="#544F48"/>
<path d="M47.7436 30.8042C47.697 29.7382 47.002 29.268 46.0774 29.007C45.2893 28.6692 44.664 28.2043 44.7244 27.2334C44.5477 27.133 44.4701 26.8659 44.1944 26.9323C44.1007 27.2737 43.7554 27.3349 43.5172 27.4912C44.7074 29.3921 45.8832 31.2744 47.46 32.8732C47.4718 32.8045 47.5183 32.7383 47.5301 32.6695C47.6013 32.0477 46.9069 31.3686 47.7436 30.8042Z" fill="#5A544F"/>
<path d="M13.5699 13.5225C13.5206 13.5014 13.4714 13.4803 13.4018 13.4751C13.451 13.4962 13.5003 13.5173 13.5699 13.5225Z" fill="#564F48"/>
<path d="M13.0958 9.3935C13.3785 10.0069 13.1098 10.7532 13.5028 11.3401C13.4322 11.7529 14.307 12.2017 13.3953 12.5862C13.2475 12.5229 13.0997 12.4595 12.9723 12.3803C13.0002 12.8353 13.4114 13.11 13.5758 13.4881C13.8204 13.0884 13.981 12.665 14.6534 12.8548C15.0881 12.9919 15.6599 12.8431 16.041 12.3666C15.7722 10.8484 15.3202 9.4732 13.7382 8.832C13.5085 9.04123 13.3196 9.21867 13.0958 9.3935ZM15.2824 11.8568C15.2562 11.9071 15.1111 11.931 15.0153 11.9761C14.9119 11.5503 14.8027 11.1589 14.6993 10.7331C15.0147 11.0528 15.5565 11.2851 15.2824 11.8568Z" fill="#564F48"/>
<path d="M26.8718 8.70203C26.8895 8.59884 26.9072 8.49565 26.9045 8.40835C26.5302 8.43255 26.1239 8.54143 25.9076 8.05489C26.451 7.66016 26.6587 8.0938 26.9045 8.40835C27.2996 8.15927 26.9001 7.81578 27.0227 7.51143C27.3867 6.92906 26.9685 5.97449 28.0569 5.6903C28.2775 5.63716 27.8786 5.08468 27.8679 4.73549C28.2067 3.78543 28.8754 4.30589 29.4584 4.29735C29.6148 4.41359 29.8289 4.60384 29.9312 4.31538C30.1094 3.78876 29.52 4.04068 29.3813 3.82126C28.2565 3.59756 27.6146 3.95006 27.1998 5.13829C26.8085 6.18893 26.6517 7.41393 25.0595 7.34679C24.9899 7.34157 24.8732 7.61153 24.7597 7.75979C25.2277 8.52648 25.9055 8.89085 26.8718 8.70203Z" fill="#E29582"/>
<path d="M27.304 11.0163C27.2607 10.9608 27.2173 10.9053 27.1595 10.8313C26.5346 10.1574 26.8719 9.83427 27.638 9.68269C27.3778 9.34964 27.1176 9.01658 26.8718 8.70203C25.92 8.90935 25.248 8.51059 24.7453 7.74129C24.6666 7.89216 24.5938 8.00863 24.5151 8.1595C24.8567 8.42898 25.1924 8.73286 25.534 9.00234C25.481 9.31192 24.9916 8.9791 25.0168 9.34679C25.0447 9.80177 25.5817 9.65043 25.8071 9.98087C25.5282 10.169 25.0929 10.2409 25.034 10.5848C25.0367 10.6721 25.0539 10.7779 25.0565 10.8652C25.1315 11.045 25.2734 11.1428 25.4677 11.1399C25.4335 10.9283 25.3847 10.6982 25.6315 10.5948C25.8232 10.5046 25.9345 10.0601 26.2006 10.3588C26.4522 10.6389 26.0288 10.642 25.9501 10.7929C25.8655 10.9781 25.8098 11.2004 25.7253 11.3857C26.0604 11.8985 26.6349 11.8371 27.1654 11.9292C27.1081 11.6462 27.1467 11.3181 27.304 11.0163Z" fill="#E6A08F"/>
<path d="M1.70412 15.8204C2.32141 16.0235 1.91135 16.4631 1.42364 16.6355C1.81664 17.2224 2.27067 17.7616 3.08871 17.7184C3.1674 17.5676 3.22575 17.4326 3.30444 17.2817C3.02336 17.1735 2.76263 17.0495 2.48155 16.9413C2.53185 16.5444 2.95749 16.8376 3.05972 16.5492C2.87448 16.3959 2.61963 16.2375 2.51575 16.0207C2.3396 15.7113 2.14898 15.3835 2.85085 15.4013C3.32358 15.4193 3.81129 15.2469 4.11696 14.7995C3.90816 14.7838 3.71971 14.7523 3.51092 14.7366C3.09273 13.782 2.39831 13.1029 1.5208 12.5667C1.91969 13.1192 1.83355 13.9315 2.45301 14.4308C2.26351 14.8172 1.83199 14.5584 1.53005 14.6752C1.51239 14.7783 1.50061 14.8471 1.48295 14.9503C1.6302 15.2227 0.953518 15.5725 1.70412 15.8204Z" fill="#E5A291"/>
<path d="M6.53927 19.2836C6.35134 19.0431 6.32295 18.7971 6.49478 18.5138C6.57347 18.363 6.63181 18.228 6.7105 18.0771C6.84217 17.6167 6.1055 17.5963 6.25752 17.1199C6.16221 16.956 6.73718 16.6856 6.20662 16.5935C5.82972 16.5304 5.46459 16.3986 5.19849 16.0999C4.99506 16.2588 4.79752 16.3834 4.51324 16.3969C4.24341 16.4289 4.04259 15.5429 3.78834 16.3077C3.58976 16.8502 4.00042 17.3339 4.57486 17.2725C5.47428 17.1657 5.54499 17.8852 5.82234 18.3241C5.93211 18.5065 5.72816 18.8744 5.67518 19.184C5.59917 19.4221 5.68539 19.7422 5.29671 19.7478C5.1602 19.8247 4.90803 19.7535 4.96534 20.0365C5.1131 20.0999 5.28121 20.1473 5.42898 20.2107C5.63024 19.7554 6.24806 19.7495 6.53927 19.2836Z" fill="#E4A08F"/>
<path d="M37.1839 21.1461C37.7583 21.0846 38.0206 20.5817 38.4157 20.3327C38.0688 19.8886 37.7218 19.4445 37.3893 19.0189C37.1907 19.5615 37.9938 19.7088 37.8413 20.3941C37.4108 19.7173 36.6907 20.0117 36.2158 19.6974C36.1018 20.0546 35.8636 20.211 35.5011 20.1664C35.5509 19.9785 35.6152 19.8091 35.6649 19.6212C35.4154 19.6374 35.167 19.2355 34.9079 19.6167C34.8613 19.6829 34.7944 19.765 34.7623 19.8497C34.7559 20.0931 34.7698 20.3205 34.7634 20.5639C34.7458 20.6671 34.7281 20.7703 34.6901 20.8894C35.4664 21.296 36.345 21.4141 37.1973 21.5826C37.1368 21.4212 37.004 21.1674 37.1839 21.1461Z" fill="#5E5852"/>
<path d="M5.24157 19.7611C5.04238 19.3804 4.67137 19.2829 4.30892 19.2383C3.70288 19.1754 3.7066 18.8448 3.92233 18.408C4.18783 17.7834 3.69527 17.5723 3.31889 17.3002C3.2402 17.4511 3.18186 17.5861 3.10317 17.7369C3.24773 17.922 3.42709 18.1096 3.3072 18.5013C2.7054 17.8987 1.91627 17.9789 1.19995 17.9426C0.831615 17.9324 1.02647 17.7206 1.02968 17.5989C1.01522 17.5804 1.00077 17.5619 0.98631 17.5434C0.925281 17.591 0.884595 17.6228 0.823567 17.6705C0.701509 17.7659 0.599795 17.8453 0.477737 17.9407C0.361045 18.2107 0.560749 18.3824 0.705311 18.5674C1.52872 18.6989 2.39281 18.7985 3.02352 19.438C3.59103 19.829 4.24044 19.9473 4.90431 20.0842C4.85289 19.7668 5.10505 19.838 5.24157 19.7611Z" fill="#E6A695"/>
<path d="M14.6475 12.8892C13.9751 12.6994 13.8145 13.1228 13.5699 13.5225C13.5147 13.5358 13.4655 13.5147 13.4018 13.4751C13.2684 13.4302 13.1351 13.3854 13.0018 13.3406C13.3611 14.6391 13.3611 14.6391 14.4988 14.376C15.0941 14.0897 14.8805 14.8227 15.1675 14.8965C15.2992 14.4361 15.6413 14.4966 15.9893 14.5226C16.0214 14.438 16.0128 14.3851 16.0101 14.2978C15.9817 14.0518 15.7879 13.8456 15.8147 13.5863C15.6069 13.1527 16.5909 12.8607 16.0004 12.3984C15.654 12.8775 15.0822 13.0263 14.6475 12.8892Z" fill="#645953"/>
<path d="M38.8912 21.5702C38.7964 21.1973 38.2691 20.9836 38.5806 20.5018C38.5372 20.4463 38.4939 20.3908 38.4505 20.3353C38.0351 20.6002 37.7931 21.0872 37.2187 21.1487C37.0388 21.17 37.1716 21.4239 37.2176 21.5667C38.4164 22.3882 39.7896 23.0137 40.4648 24.423C40.8343 25.1475 41.4511 25.5595 42.0619 26.006C40.792 24.674 40.1874 22.8519 38.8912 21.5702Z" fill="#58514C"/>
<path d="M1.15948 13.2364C1.40627 13.133 1.26171 12.948 1.18086 12.8025C1.04219 12.5831 1.10642 12.4137 1.29539 12.2363C1.1942 12.1068 0.799112 12.3559 0.919008 11.9642C1.0009 11.6916 1.18987 11.5142 1.46775 11.7441C2.25211 12.4126 3.14936 12.0095 4.02842 11.9187L4.04877 11.9028C3.31262 11.6734 2.75151 11.0391 1.89279 11.114C1.76805 11.1221 1.58548 11.0561 1.548 10.9662C1.44412 10.7494 1.65612 10.6434 1.80709 10.585C2.21343 10.4761 2.48966 10.2007 2.80926 9.98083C1.15015 9.99577 0.0623675 11.2032 0.607457 12.446C0.641735 12.6576 0.641214 12.8666 0.730634 13.0649C0.791142 13.2262 0.988163 13.3107 1.15948 13.2364Z" fill="#E5A291"/>
<path d="M9.74194 5.10078C10.2071 4.64793 10.531 3.88835 11.3919 4.10968C11.3978 4.07528 11.4181 4.05939 11.424 4.02499C10.2124 2.55803 10.0646 2.49469 9.0967 3.31048C8.62293 3.71043 8.23001 4.2558 8.20221 4.93306C8.71243 5.041 9.3409 4.25201 9.74194 5.10078Z" fill="#E0927E"/>
<path d="M1.56245 10.9847C1.59994 11.0746 1.7825 11.1406 1.90724 11.1325C2.76597 11.0576 3.32708 11.6919 4.06322 11.9213C4.06322 11.9213 4.07768 11.9398 4.09802 11.9239C4.24042 11.8126 4.39139 11.7543 4.57396 11.8202C4.81166 11.8729 5.11577 12.0525 5.22337 11.9386C5.47337 11.7135 5.31167 11.4227 5.17299 11.2032C5.02575 10.9309 4.81748 10.7062 4.62954 10.4657C4.59154 10.5848 4.55033 10.8256 4.51553 10.823C4.23126 10.8365 4.21464 10.5217 4.04385 10.387C3.64392 10.2524 3.27879 10.1206 2.87886 9.98605C2.55926 10.2059 2.26268 10.4973 1.87669 10.5902C1.65612 10.6434 1.44412 10.7494 1.56245 10.9847Z" fill="#E1917C"/>
<path d="M34.203 13.8504C34.1885 13.8319 34.1885 13.8319 34.1741 13.8134C33.9572 13.5359 33.7345 13.2927 33.5177 13.0152C33.1493 13.005 33.0631 12.6849 32.8693 12.4788C32.7472 12.5742 32.6455 12.6536 32.5235 12.749C32.4764 13.0242 32.3543 13.1195 32.1401 12.9293C31.8971 12.702 31.6395 12.4563 32.0175 12.1014C31.6609 12.0224 31.5994 12.2791 31.419 12.5094C30.9709 13.068 31.26 12.3059 31.0801 12.3272C30.8413 12.6925 30.4649 12.4204 30.1716 12.5901C30.3938 13.0422 31.3023 12.7794 31.2017 13.5731C31.4416 13.922 32.0133 13.7733 32.2066 14.1884C32.9577 14.2273 33.7089 14.2662 34.46 14.3052C34.3706 14.1068 34.2838 13.9958 34.203 13.8504Z" fill="#6B655F"/>
<path d="M4.59474 10.4631C4.77515 10.2328 5.27359 10.4095 5.2864 9.92272C4.15838 9.82071 4.1808 8.96886 4.16254 8.14879C4.16843 8.11439 4.20912 8.08261 4.215 8.04821C4.41299 6.58244 4.41299 6.58244 5.87135 6.81373C6.14169 6.57271 6.57426 6.41354 6.3028 5.94029C4.9922 5.77233 4.30963 6.15663 3.65658 7.50118C3.14324 8.64719 3.68348 9.50639 4.41538 10.2755C4.47321 10.3495 4.51658 10.405 4.59474 10.4631Z" fill="#E0927F"/>
<path d="M31.1931 13.5202C30.3746 13.7723 30.109 13.2647 29.951 12.6432C29.6716 13.0403 29.3841 13.1755 29.1447 12.6176C28.846 12.6126 28.4723 12.4278 28.2742 12.7613C28.0762 13.0948 28.3219 13.4094 28.5388 13.6869C28.8627 14.0596 29.2246 14.3132 29.7728 14.3021C30.585 14.2933 31.3768 14.3004 32.1777 14.1514C31.9844 13.7363 31.4126 13.885 31.1931 13.5202Z" fill="#5C564F"/>
<path d="M35.3018 32.6583C36.2526 32.869 35.3869 32.264 35.5641 32.1554C35.4163 32.0921 35.2541 32.0102 35.1063 31.9469C33.3605 31.8508 32.0787 30.5876 30.2584 30.1027C30.8163 30.8588 31.6836 30.8367 32.0301 31.4898C32.8503 31.7429 33.4344 32.4486 34.2926 32.5826C34.6058 32.6061 34.9597 32.5978 35.3018 32.6583Z" fill="#2B2622"/>
<path d="M49.0543 33.2367C49.095 33.2049 49.1561 33.1572 49.1967 33.1254L49.2315 33.128C49.2374 33.0936 49.2578 33.0777 49.2637 33.0433C49.163 32.7048 49.0013 32.414 48.8192 32.1391C48.6083 31.8271 48.3914 31.5496 48.2212 31.2058C48.0445 31.1055 47.8212 31.0713 47.7377 30.8386C46.901 31.403 47.5954 32.0821 47.5039 32.7198C47.4921 32.7886 47.4659 32.8388 47.4338 32.9235C47.7721 33.3147 47.9885 33.8012 48.4955 34.0309C48.4039 33.5363 49.0158 33.5647 49.0543 33.2367Z" fill="#605B55"/>
<path d="M61.3958 43.7078C61.0569 43.5256 60.7528 43.346 60.4139 43.1638C59.9755 43.3574 59.7329 42.9211 59.3849 42.8951C59.1847 42.9323 58.9845 42.9695 58.7987 43.0253C59.484 43.8605 60.5157 44.2166 61.2332 44.9672C61.5142 45.0753 61.8157 45.1676 62.1112 45.2943C62.502 44.4526 61.5656 44.2605 61.3958 43.7078Z" fill="#211D1A"/>
<path d="M43.7456 25.4355C43.676 25.4303 43.6412 25.4276 43.5716 25.4224C43.2349 25.5365 42.8704 26.3279 42.4811 25.4103C42.2273 24.8339 42.4596 24.712 42.8633 24.5158C42.7996 24.4762 42.7562 24.4207 42.7476 24.3678C42.6962 24.0504 42.5431 23.8124 42.1865 23.7334C41.4815 23.8373 41.8058 22.8688 41.2346 22.8085C41.2801 23.1603 40.8743 23.0602 40.7549 23.2429C41.5537 23.9298 41.7134 25.0566 42.4453 25.8257C42.5668 25.9393 42.3259 26.0084 42.2097 26.0693C42.2906 26.2147 42.3511 26.376 42.5716 26.3229C43.0417 26.2536 43.5085 26.3061 43.9443 26.0252C43.9041 25.848 43.9801 25.6098 43.7456 25.4355Z" fill="#58524D"/>
<path d="M42.4394 25.8601C41.7219 25.1095 41.5827 23.9669 40.749 23.2773C40.1997 22.5741 39.6156 21.8684 39.0662 21.1653C39.0079 21.3003 38.9495 21.4352 38.8708 21.5861C40.1815 22.8863 40.792 24.674 42.0271 26.0034C42.0705 26.0589 42.1342 26.0985 42.1835 26.1196C42.2997 26.0586 42.5609 25.9737 42.4394 25.8601Z" fill="#25211C"/>
<path d="M12.9212 8.45719C12.8778 8.40168 12.8345 8.34617 12.8055 8.30917C12.336 8.16944 11.9789 8.29944 11.8414 8.79428C11.6166 9.38709 11.4174 9.00635 11.3686 8.77625C11.2508 8.33194 11.0426 8.10729 10.5666 8.21095C11.0351 8.76866 10.2974 9.16623 10.3194 9.65562C10.8826 9.45398 11.3842 9.50902 11.8736 9.84184C12.1145 9.77281 12.2944 9.75146 12.388 9.4101C12.5957 8.71149 12.8848 9.08155 13.1509 9.38021C13.3602 9.18688 13.5637 9.02794 13.773 8.83461C13.7644 8.78171 13.721 8.7262 13.6921 8.68919C13.3088 8.86948 12.94 9.06827 12.9212 8.45719Z" fill="#D2725E"/>
<path d="M25.7867 9.99677C25.5613 9.66632 25.0244 9.81767 24.9965 9.36268C24.9916 8.9791 25.4606 9.32781 25.5136 9.01824C25.172 8.74876 24.8508 8.46338 24.4948 8.1754C23.9401 8.42993 23.8925 8.9141 23.9493 9.40609C24.0259 10.0912 24.4773 10.5431 25.0303 10.9155C24.9987 10.7912 24.996 10.7039 25.0078 10.6351C25.0726 10.2568 25.5282 10.169 25.7867 9.99677Z" fill="#E29785"/>
<path d="M29.9515 4.29949C29.8493 4.58795 29.6292 4.43209 29.4788 4.28146C28.9606 5.04388 29.8664 4.69375 29.9847 4.92907C30.1502 4.88922 30.2953 4.86526 30.4607 4.8254C30.5624 4.74594 30.6641 4.66647 30.7717 4.5526C30.7347 4.25371 30.7529 3.94153 30.9248 3.65829C31.0211 3.40423 31.0971 3.16606 31.2079 2.9305C31.0168 2.81165 30.8257 2.69281 30.6549 2.55807C30.3294 2.81236 30.066 2.601 29.7849 2.49283C29.4214 2.86621 29.9884 3.46614 29.4075 3.77096C29.5259 4.00629 30.1094 3.78876 29.9515 4.29949Z" fill="#E7AA99"/>
<path d="M25.7415 30.4434C25.3813 30.6951 25.5338 30.0097 25.1944 30.0365C24.9845 30.4389 25.1056 30.7615 25.3716 31.0601C25.6559 31.0466 25.9579 30.9299 26.1897 31.017C26.7722 31.2174 26.9387 30.7596 27.2149 30.4842C27.5377 30.1426 27.1843 29.9419 27.0515 29.6881C26.5585 29.6859 26.113 29.1996 25.5841 29.6129C25.4208 29.949 26.1629 30.144 25.7415 30.4434Z" fill="#655E59"/>
<path d="M2.46746 14.4493C1.88281 13.9526 1.96895 13.1403 1.53526 12.5853C1.44852 12.4742 1.36179 12.3632 1.27505 12.2522C1.10642 12.4137 1.02184 12.599 1.16052 12.8184C1.24137 12.9639 1.38593 13.1489 1.13913 13.2523C0.96782 13.3266 0.756343 13.2236 0.695835 13.0623C0.620871 12.8825 0.606936 12.655 0.572658 12.4434C0.13212 13.4729 0.276161 13.8669 1.48936 14.7069C1.83199 14.5584 2.26351 14.8172 2.46746 14.4493Z" fill="#E29582"/>
<path d="M8.07763 7.20562C8.36675 7.57568 8.98777 7.44806 9.20409 7.93459C9.26512 7.88691 9.30581 7.85512 9.36684 7.80744C9.25439 7.53773 9.1564 7.28651 9.04396 7.01679C8.44432 6.71054 8.51548 6.08879 8.62681 5.64424C8.73225 5.23409 9.12898 5.49029 9.35759 5.69904C9.47697 5.51638 9.58188 5.31522 9.7216 5.11667C9.32055 4.2679 8.69208 5.05689 8.18187 4.94895C7.91689 5.36456 7.84036 5.81172 7.88269 6.28521C8.08508 6.54425 8.52249 6.76866 8.07763 7.20562Z" fill="#E6A08F"/>
<path d="M11.424 4.02499L11.3919 4.10968C11.6537 4.94801 12.444 5.5821 12.2733 6.5796C12.3745 6.70912 12.435 6.87043 12.3504 7.0557C12.9211 7.32495 12.5716 7.92582 12.7707 8.30656C12.8141 8.36207 12.8575 8.41758 12.8864 8.45458C13.0491 8.32743 13.2119 8.20028 13.395 8.05724C12.9789 7.39896 13.0099 6.60001 12.7593 5.90187C12.535 5.15344 12.4241 4.25676 11.424 4.02499Z" fill="#DF9280"/>
<path d="M50.8661 34.8009C50.562 34.6213 50.2783 34.4258 49.896 34.1882C49.9309 35.323 50.9128 35.867 50.9974 36.8139C51.4547 37.2314 51.7636 37.7946 52.3285 38.0982C52.0152 36.9425 51.0108 36.1182 50.9588 34.8775L50.8661 34.8009Z" fill="#2C2723"/>
<path d="M31.4045 12.4909C31.5849 12.2606 31.6465 12.0039 32.003 12.0829C32.2204 12.1514 32.4233 12.2015 32.6755 12.2727C32.6829 11.6113 32.5421 11.0956 32.0238 10.7258C31.4702 10.5623 31.4906 10.5464 31.4922 11.0517C31.4949 11.139 31.4103 11.3243 31.3755 11.3216C30.4622 11.2009 31.1421 11.8616 30.9414 12.1078C30.9848 12.1633 31.0078 12.2347 31.0512 12.2902C31.2252 12.3033 30.9506 13.0839 31.4045 12.4909Z" fill="#5F544C"/>
<path d="M30.6142 2.58986C30.8122 2.25633 30.1575 1.96336 30.5729 1.69839C30.8925 1.47848 31.1179 1.80893 31.3058 2.04947C31.4429 1.76362 31.5799 1.47777 31.7169 1.19193C31.4648 1.12076 31.355 0.938338 31.3122 0.673839C30.9128 0.330346 30.6944 0.679768 30.4733 0.941894C30.0777 1.39996 29.9428 1.9821 29.7297 2.50611C30.0312 2.59839 30.2887 2.84415 30.6142 2.58986Z" fill="#E7A594"/>
<path d="M35.558 6.65342C35.6229 7.4073 35.6529 8.15858 35.6133 8.90463C35.6037 9.26971 35.3645 9.84402 35.9411 10.0789C36.8666 8.78958 36.1733 7.69244 35.6394 6.58985L35.558 6.65342Z" fill="#E2A797"/>
<path d="M33.5325 2.42547C33.0646 2.79102 32.3466 2.24945 31.9419 2.86361C32.1507 2.87926 32.3392 2.91082 32.5335 2.90797C33.4699 3.10012 33.5304 4.39367 34.5337 4.50374C33.9726 3.86942 34.1867 2.92743 33.7011 2.26392C33.6545 2.33011 33.5935 2.37779 33.5325 2.42547Z" fill="#E39E8D"/>
<path d="M14.5703 18.2833C14.2046 18.3604 13.8662 17.9692 13.3694 18.2977C13.6532 18.4932 13.4691 19.0542 14.1656 18.8974C14.4761 18.8336 14.7625 19.1164 14.3005 19.4475C14.0623 19.6039 13.8299 19.7258 13.5773 19.8636C14.3225 19.9369 14.9997 19.378 15.7621 19.5571C15.5896 18.9171 14.6817 18.971 14.5703 18.2833Z" fill="#5A554F"/>
<path d="M32.5479 2.92647C32.8312 3.33093 33.2509 3.65853 33.2611 4.21671C33.4373 4.52604 33.8458 4.71344 33.7489 5.17649C34.3726 5.13617 34.6328 5.46923 34.6779 6.03001C34.7796 5.95054 34.9016 5.85518 35.0033 5.77571C34.8245 5.37908 35.0638 4.80477 34.5279 4.53814C33.5449 4.41217 33.4843 3.11862 32.5479 2.92647Z" fill="#DE8F7D"/>
<path d="M15.6924 18.4197C15.5452 18.1473 15.4038 17.8406 15.1083 17.7139C14.862 17.6084 14.6194 17.1721 14.317 17.4978C13.9942 17.8394 14.4578 18.0136 14.5906 18.2674C14.702 18.9551 15.61 18.9012 15.7824 19.5412C15.8258 19.5968 15.875 19.6179 15.9505 19.5887C16.2969 19.1095 15.4156 18.9041 15.6924 18.4197Z" fill="#211D19"/>
<path d="M65.7257 48.5788C66.2744 48.3587 66.6358 47.689 67.3344 47.8285C67.0972 47.5669 67.0201 47.0908 66.5008 47.1389C65.9954 47.4146 65.3514 47.4708 65.0077 48.0373C65.0511 48.0928 65.1089 48.1668 65.1523 48.2223C65.3638 48.3252 65.5346 48.46 65.7257 48.5788Z" fill="#645D57"/>
<path d="M33.7307 20.6258C33.2575 20.8168 33.1943 20.5682 33.1429 20.2508C32.7279 20.3068 32.2028 20.3893 32.3436 20.9051C32.4528 21.2965 32.8935 21.3992 33.4186 21.3166C33.8887 21.2474 34.1831 20.6598 34.7105 20.8735C34.7281 20.7703 34.7458 20.6671 34.7838 20.548C34.3903 20.1702 34.0327 20.5091 33.7307 20.6258Z" fill="#5A554F"/>
<path d="M31.7169 1.19193C32.459 1.38692 32.7963 2.19608 33.5325 2.42547C33.5935 2.37779 33.6545 2.33011 33.6952 2.29832C33.3691 1.62936 32.9354 1.07427 32.2052 0.810478C31.9878 0.741922 31.7704 0.673366 31.5531 0.604809C31.4776 0.633986 31.4021 0.663164 31.347 0.676449C31.3754 0.922445 31.4851 1.10487 31.7169 1.19193Z" fill="#E49A87"/>
<path d="M27.7794 11.1217C27.6344 11.1456 27.4577 11.0453 27.2837 11.0322C27.1263 11.334 27.1081 11.6462 27.1595 11.9636C27.53 12.27 27.9214 12.3516 28.3486 12.0179C28.704 11.3826 28.6847 10.9805 27.7794 11.1217Z" fill="#E49987"/>
<path d="M67.7563 47.3201C67.5041 47.249 67.4538 47.6458 67.3344 47.8285C67.2873 48.1037 67.275 48.3815 66.9527 48.5141C66.2182 48.79 66.2386 48.7741 66.7039 49.4535C67.1054 48.961 67.4057 48.339 68.0647 48.0923C67.9667 47.8411 68.1128 47.3991 67.7563 47.3201Z" fill="#645D57"/>
<path d="M58.9941 42.6045C59.1188 42.5964 59.2431 42.7973 59.3791 42.9294C59.7474 42.9396 59.9899 43.3759 60.408 43.1982C59.507 42.7997 59.1065 41.7419 58.086 41.5261C58.0293 42.1663 58.0947 42.7112 58.9941 42.6045Z" fill="#59534D"/>
<path d="M44.1944 26.9323C44.1023 26.6467 44.0305 26.3452 43.9384 26.0596C43.5171 26.359 43.0358 26.288 42.5657 26.3573C42.8897 26.73 43.1788 27.1 43.5027 27.4727C43.7554 27.3349 44.1007 27.2737 44.1944 26.9323Z" fill="#655F5A"/>
<path d="M1.42364 16.6355C1.91135 16.4631 2.32141 16.0235 1.70412 15.8204C0.953518 15.5725 1.6302 15.2227 1.49741 14.9688C1.19763 15.3818 0.527359 15.4883 0.427285 16.0731C0.531682 16.0809 0.63608 16.0887 0.740477 16.0966C0.989437 16.2894 1.2036 16.4797 1.42364 16.6355Z" fill="#E8AC9D"/>
<path d="M42.4608 25.4262C42.85 26.3438 43.2146 25.5524 43.5513 25.4383C43.6064 25.425 43.6616 25.4118 43.7253 25.4514C43.4854 25.1024 43.3735 24.6237 42.8429 24.5317C42.4596 24.712 42.2273 24.8339 42.4608 25.4262Z" fill="#665F59"/>
<path d="M6.3028 5.94029C6.28834 5.92178 6.28834 5.92178 6.3028 5.94029C5.9703 5.51472 5.47186 5.33799 5.02432 5.68765C4.39958 6.14595 3.29405 6.32434 3.65658 7.50118C4.30963 6.15663 4.97775 5.75383 6.3028 5.94029Z" fill="#E59D8A"/>
<path d="M34.0937 12.3267C33.9716 12.4221 33.8495 12.5175 33.7419 12.6313C34.0808 12.8135 34.3849 12.9931 34.7238 13.1753C34.878 12.9952 34.4524 12.702 34.8587 12.5931C35.1751 12.4949 35.1425 12.7886 35.203 12.9499C35.2721 13.1641 35.2539 13.4763 35.6286 13.2431C35.8909 12.7402 35.1082 12.577 35.3095 12.1218C35.1762 12.077 35.0632 12.0162 34.9154 11.9529C34.6713 12.1436 34.5396 12.6041 34.0937 12.3267Z" fill="#5E5752"/>
<path d="M33.7307 20.6258C34.0327 20.5091 34.4047 20.1887 34.7634 20.5639C34.7698 20.3205 34.7559 20.0931 34.7623 19.8497C34.6435 19.8233 34.5391 19.8155 34.4202 19.7892C33.9646 19.8769 33.5235 19.9832 33.137 20.2852C33.1739 20.5841 33.2575 20.8168 33.7307 20.6258Z" fill="#655F5A"/>
<path d="M46.0774 29.007C45.7572 28.3037 45.5532 27.5394 44.7244 27.2334C44.6784 28.2228 45.2893 28.6692 46.0774 29.007Z" fill="#67615B"/>
<path d="M34.7735 10.7229C34.2472 11.2234 34.0519 11.6443 34.901 11.9344C35.0343 11.9792 35.1472 12.0399 35.295 12.1033C35.6205 11.849 35.4095 11.537 35.4422 11.2434C34.8206 11.58 34.8945 11.0455 34.7735 10.7229Z" fill="#665952"/>
<path d="M29.951 12.6432C30.109 13.2647 30.3542 13.7882 31.1931 13.5202C31.2937 12.7265 30.3852 12.9893 30.163 12.5372C30.0816 12.6007 30.0265 12.614 29.951 12.6432Z" fill="#655E59"/>
<path d="M35.1826 12.9658C35.1221 12.8045 35.1548 12.5108 34.8384 12.609C34.432 12.7179 34.8721 13.0296 34.7035 13.1912C34.7929 13.3895 34.8679 13.5693 34.9777 13.7517C35.0965 13.7781 35.195 13.8203 35.3283 13.8651C35.4332 13.6639 35.7004 13.5446 35.6083 13.259C35.2335 13.4922 35.2721 13.1641 35.1826 12.9658Z" fill="#665952"/>
<path d="M6.28834 5.92178C6.5598 6.39504 6.12724 6.55421 5.87135 6.81373C5.91472 6.86924 5.95809 6.92474 6.00146 6.98025C6.21025 6.99591 6.3987 7.02746 6.6075 7.04312C6.59088 6.72833 6.85802 6.60901 7.01219 6.42896C6.79803 6.23871 6.65667 5.93199 6.28834 5.92178Z" fill="#E59D8A"/>
<path d="M49.6184 29.2203C49.9947 29.4924 50.2426 28.971 50.5322 29.1321C50.6719 28.9335 50.8058 28.7694 50.9455 28.5708C50.4551 28.656 49.9733 28.794 49.6184 29.2203Z" fill="#625B55"/>
<path d="M26.2006 10.3588C25.92 10.0416 25.8087 10.4861 25.6315 10.5948C25.3992 10.7167 25.4335 10.9283 25.4677 11.1399C25.5604 11.2165 25.6674 11.3117 25.7397 11.4042C25.8098 11.2004 25.88 10.9966 25.9645 10.8114C26.0084 10.6579 26.4522 10.6389 26.2006 10.3588Z" fill="#E0927F"/>
<path d="M8.07763 7.20562C8.50215 6.78455 8.06474 6.56014 7.88269 6.28521C7.76332 6.46787 7.64394 6.65052 7.53902 6.85168C7.50318 7.26705 7.93307 7.02058 8.07763 7.20562Z" fill="#E8AB9A"/>
<path d="M12.9212 8.45719C12.9544 9.08677 13.3088 8.86948 13.6515 8.72098C13.6027 8.49088 13.6295 8.2316 13.4298 8.05985C13.2467 8.20289 13.0839 8.33004 12.9212 8.45719Z" fill="#EBB5A7"/>
<path d="M44.058 37.4084C44.3124 37.7758 44.5672 37.9343 44.8065 37.36C44.6881 37.1247 44.5639 36.9238 44.2711 36.8844C44.3054 37.096 44.2267 37.2468 44.058 37.4084Z" fill="#615C55"/>
<path d="M8.90569 20.5933C9.3083 20.8151 9.60167 20.6455 9.89824 20.3542C9.46992 19.9737 9.17066 20.1777 8.90569 20.5933Z" fill="#DEA494"/>
<path d="M34.6779 6.03001C34.9761 6.24398 35.2598 6.43945 35.558 6.65342L35.6394 6.58985C35.4226 6.3123 35.2202 6.05326 35.0033 5.77571C34.9016 5.85518 34.7999 5.93465 34.6779 6.03001Z" fill="#D1715B"/>
<path d="M36.2158 19.6974C36.0509 19.5282 35.8887 19.4464 35.6649 19.6212C35.6152 19.8091 35.5509 19.9785 35.5011 20.1664C35.8636 20.211 36.0874 20.0361 36.2158 19.6974Z" fill="#655F5A"/>
<path d="M29.3936 11.6782C29.3733 11.6941 29.4279 11.8898 29.4247 12.0115C29.6854 12.1355 29.9638 12.1564 30.1994 11.9128C29.997 11.6537 29.71 11.58 29.3936 11.6782Z" fill="#E1907D"/>
<path d="M31.9803 0.271043C31.6992 0.16287 31.6377 0.419543 31.5386 0.586306C31.756 0.654861 31.9733 0.723419 32.1907 0.791975C32.1505 0.614773 32.2469 0.36071 31.9803 0.271043Z" fill="#E7A594"/>
<path d="M49.2475 39.522C49.4884 39.453 49.2946 39.2468 49.2486 39.104C49.0398 39.0884 48.8658 39.0753 48.657 39.0597C48.8567 39.2314 48.9108 39.6361 49.2475 39.522Z" fill="#635D57"/>
<path d="M34.7479 19.8312C34.7944 19.765 34.8613 19.6829 34.8935 19.5982C34.7371 19.482 34.6188 19.2467 34.3923 19.3342C34.1252 19.4535 34.38 19.612 34.4116 19.7363C34.5101 19.7785 34.629 19.8048 34.7479 19.8312Z" fill="#918E8A"/>
<path d="M29.951 12.6432C29.6871 12.6408 29.4231 12.6384 29.1447 12.6176C29.3841 13.1755 29.6716 13.0403 29.951 12.6432Z" fill="#655E59"/>
<path d="M63.6777 53.3374C64.3014 53.2971 64.1022 52.9164 64.016 52.5964C63.8211 52.8082 63.6755 53.0411 63.6777 53.3374Z" fill="#77736D"/>
<path d="M4.46039 10.8362C4.49519 10.8389 4.5364 10.5981 4.5744 10.479C4.51658 10.405 4.47321 10.3495 4.39504 10.2914C4.26441 10.3338 4.09899 10.3737 3.96836 10.4161C4.1595 10.535 4.17611 10.8498 4.46039 10.8362Z" fill="#E49B88"/>
<path d="M24.2859 31.4316C24.7854 31.1904 25.1233 31.7905 25.3716 31.0601C25.0697 31.1768 24.7431 30.7169 24.2859 31.4316Z" fill="#655F5A"/>
<path d="M72.7694 46.86C71.6424 46.34 70.6482 46.0738 69.525 46.3554C69.4405 46.5406 69.501 46.702 69.6022 46.8315C70.6119 46.6982 71.5788 47.4326 72.7694 46.86Z" fill="#1F1B17"/>
<path d="M69.6166 46.85C69.501 46.702 69.4549 46.5592 69.5395 46.3739C69.2729 46.2842 68.8467 46.2 68.8489 46.4963C68.7986 46.8932 69.2569 46.8927 69.6166 46.85Z" fill="#37312C"/>
<path d="M33.726 6.23734C33.954 5.52284 33.348 5.45997 32.9598 5.25667C33.1092 5.82529 32.8298 6.22239 32.2874 6.19914C31.7944 6.19701 31.8628 5.48796 31.4602 5.26616C31.5272 5.18408 31.5652 5.065 31.6262 5.01732C31.8237 4.89278 32.108 4.87926 32.1771 5.09346C32.3586 5.57739 32.6081 5.56126 32.9454 5.23817C33.1589 4.50517 33.4539 4.84083 33.7141 5.17388C33.811 4.71083 33.4025 4.52343 33.2263 4.2141C32.6321 4.08244 31.9843 4.46934 31.4371 4.06251C31.2798 4.36425 31.1861 4.70561 30.7166 4.56589C30.6149 4.64536 30.5131 4.72482 30.4055 4.83869C30.4628 5.12169 30.3868 5.35986 30.1572 5.56909C30.2659 6.16949 30.3891 6.78839 30.4978 7.38879C30.5385 7.357 30.5995 7.30932 30.6402 7.27754C30.6927 7.17696 30.7248 7.09227 30.7772 6.99169C30.9897 6.67666 30.9276 6.01008 31.5652 6.19724C32.0348 6.33697 32.1119 6.81307 31.9861 7.23911C31.8662 7.63076 31.938 7.93227 32.1896 8.21242C32.4327 8.43968 32.5794 8.92099 33.0034 8.70892C33.3316 8.54192 33.3674 8.12655 33.377 7.76147C33.3717 7.58688 33.3663 7.41229 33.3754 7.25619C33.2517 6.84628 32.757 6.33887 33.726 6.23734Z" fill="#D77D67"/>
<path d="M33.7665 12.0758C34.0337 11.9564 34.1408 12.0516 34.0937 12.3267C34.5396 12.6041 34.6713 12.1436 34.9154 11.9529C34.0663 11.6628 34.2676 11.2075 34.7879 10.7414C33.458 10.1714 34.9484 9.18573 34.5238 8.47455C34.3354 8.443 34.193 8.55426 34.1432 8.74214C33.8478 9.7477 33.2749 10.3144 32.1207 10.2627C31.3696 10.2238 32.4505 10.601 32.0731 10.7469C32.5913 11.1167 32.7322 11.6324 32.7247 12.2938C32.4726 12.2226 32.2552 12.154 32.0523 12.104C32.2258 12.326 32.3992 12.5481 32.5727 12.7701C32.6948 12.6747 32.7965 12.5953 32.9185 12.4999C33.1568 12.3436 33.4646 12.1925 33.7665 12.0758Z" fill="#675249"/>
<path d="M32.0557 7.24433C32.1815 6.81828 32.1247 6.32629 31.6348 6.20246C30.9972 6.01529 31.0593 6.68188 30.8468 6.99691C30.7799 7.07899 30.7419 7.19807 30.7098 7.28275C30.7125 7.37005 30.6948 7.47324 30.6975 7.56054C30.8073 7.74296 30.9374 7.90949 31.0471 8.09191C31.4444 8.13912 31.8416 8.18632 32.2592 8.21764C32.0076 7.93748 31.9358 7.63598 32.0557 7.24433Z" fill="#D16F5B"/>
<path d="M34.6779 6.03001C34.6328 5.46923 34.3582 5.11766 33.7489 5.17649C33.4684 4.85933 33.1937 4.50778 32.9801 5.24078C33.3828 5.46258 33.9743 5.50694 33.7463 6.22145C33.7752 6.25845 33.8186 6.31396 33.8475 6.35097C34.1291 6.25015 34.4107 6.14933 34.6779 6.03001Z" fill="#D1715B"/>
<path d="M29.7017 7.92135C29.2173 9.10436 29.9834 8.95277 30.6012 8.94684C30.59 8.80665 30.5991 8.65056 30.5878 8.51036C30.3185 8.3334 30.0203 8.11943 29.7017 7.92135Z" fill="#E4A18F"/>
<path d="M33.726 6.23734C32.7366 6.35476 33.2372 6.82777 33.4102 7.2588C33.7442 7.0574 33.7191 6.68971 33.8068 6.38275C33.7983 6.32985 33.7694 6.29285 33.726 6.23734Z" fill="#D57B67"/>
<path d="M30.6975 7.56054C30.3313 7.84663 30.5193 8.08716 30.7072 8.3277C30.8089 8.24824 30.931 8.15287 31.0327 8.07341C30.9374 7.90949 30.8073 7.74296 30.6975 7.56054Z" fill="#E9B7AA"/>
<path d="M11.8263 14.855C10.8197 13.7344 10.516 12.2135 9.72735 10.9525C9.18234 10.8419 8.66035 10.8028 8.1491 11.1128C7.90767 11.3909 8.13308 11.7213 7.99604 12.0072C8.12615 12.1737 8.25626 12.3402 8.37191 12.4882C8.89389 12.5274 9.34896 12.6486 9.49837 13.2172C9.89293 13.1771 10.2875 13.137 9.88869 13.7168C9.96045 14.0183 10.0178 14.3013 10.0692 14.6187C10.4718 14.8405 10.8599 15.0438 11.2422 15.2815C11.5115 15.4585 11.6625 15.4001 11.7995 15.1143C11.8113 15.0455 11.8086 14.9582 11.8263 14.855Z" fill="#D7806C"/>
<path d="M14.5191 14.3601C13.367 14.6047 13.367 14.6047 13.0222 13.3247C13.1555 13.3695 13.2888 13.4144 13.4221 13.4592C13.4714 13.4803 13.5206 13.5014 13.5902 13.5066C13.4114 13.11 13.0146 12.8538 12.9868 12.3988C12.6912 12.2721 12.3984 12.2328 12.4755 12.7089C12.5243 12.939 12.7266 13.198 12.3696 13.328C12.0125 13.458 12.0745 12.9923 11.8572 12.9238C11.5906 12.8341 11.7286 12.1303 11.2608 12.4958C10.9556 12.7342 11.3175 12.9878 11.4418 13.1888C11.7882 13.8418 12.5527 14.3172 12.4345 15.2141C12.4778 15.2696 12.5212 15.3252 12.5501 15.3622C13.3559 15.5968 13.2146 16.4223 13.5642 16.9537C13.4855 17.1045 13.4272 17.2395 13.3485 17.3904C13.4963 17.4537 13.7629 17.5434 13.7779 17.3529C13.8383 16.382 14.9695 16.3623 15.273 15.6186C14.5744 15.4791 14.2708 15.0905 14.5191 14.3601ZM13.093 15.1764C13.1256 14.8827 13.3457 15.0386 13.4468 15.1681C13.525 15.2262 13.5422 15.332 13.5941 15.4404C13.3446 15.4566 13.0576 15.3828 13.093 15.1764Z" fill="#5C5049"/>
<path d="M8.86685 16.3924C8.49852 16.3822 7.89888 16.0759 8.23622 16.8851C8.48414 17.4959 7.5424 17.1292 7.67467 17.592C8.02534 17.7054 8.37013 17.8532 8.74703 17.9163C9.26313 17.9898 9.08541 18.3075 9.03832 18.5826C9.6422 18.3492 10.2375 18.0629 10.9105 18.0437C11.1599 18.0275 11.4153 17.977 11.335 17.6226C10.4307 17.3458 9.61373 16.971 8.93377 16.3103C8.92788 16.3447 8.86685 16.3924 8.86685 16.3924Z" fill="#D98471"/>
<path d="M9.04286 14.4372C8.51766 14.5198 7.94054 14.4939 7.7532 15.1766C7.86885 15.3247 7.99896 15.4912 8.09426 15.6551C8.45939 15.787 8.69658 16.0487 8.8524 16.3739L8.91342 16.3262C9.28012 15.8311 8.90209 15.0538 9.59912 14.688C9.4369 14.6061 9.23988 14.5217 9.04286 14.4372Z" fill="#66544C"/>
<path d="M14.5191 14.3601C14.2563 15.072 14.5599 15.4606 15.2527 15.6345C15.2243 15.3885 15.2162 15.1266 15.2023 14.8991C14.9009 14.8068 15.0941 14.0897 14.5191 14.3601Z" fill="#78736E"/>
<path d="M9.90314 13.7353C9.70508 14.0688 9.06744 13.8817 9.04286 14.4372C9.23988 14.5217 9.4369 14.6061 9.63392 14.6906C9.779 14.6666 9.93854 14.6612 10.0836 14.6372C10.0119 14.3357 9.95456 14.0527 9.90314 13.7353Z" fill="#D88A79"/>
<path d="M12.1339 19.4418C12.3721 19.2855 12.59 19.1451 12.8282 18.9888C12.9647 18.9119 13.2083 18.9302 13.0263 18.6552C12.9021 18.4543 12.7602 18.3566 12.5364 18.5314C12.4775 18.8754 11.932 18.9738 12.1339 19.4418Z" fill="#6A635E"/>
<path d="M12.4141 15.23C12.1357 15.2092 12.2037 14.7091 11.8263 14.855C11.8289 14.9423 11.8113 15.0455 11.8284 15.1513C12.0774 15.3441 11.8729 15.921 12.4126 15.857C12.4677 15.8437 12.5148 15.5685 12.5442 15.3966C12.4864 15.3225 12.4575 15.2855 12.4141 15.23Z" fill="#211D19"/>
<path d="M10.3883 15.74C10.3648 15.8776 10.4836 15.904 10.565 15.8404C10.6871 15.745 10.7251 15.6259 10.6442 15.4805C10.595 15.4594 10.5516 15.4039 10.4879 15.3643C10.4702 15.4675 10.4119 15.6025 10.3883 15.74Z" fill="#6C564E"/>
<path d="M13.1322 16.9038C12.9924 17.1024 13.2125 17.2582 13.3281 17.4063C13.4068 17.2554 13.4652 17.1204 13.5439 16.9696C13.4164 16.8903 13.2719 16.7053 13.1322 16.9038Z" fill="#69645E"/>
<path d="M9.72735 10.9525C9.56349 10.3654 9.54151 9.87599 10.2846 9.65301C10.2481 9.14512 11.0003 8.76605 10.5318 8.20835C10.4451 8.09733 10.3584 7.98631 10.2716 7.87529C9.9611 7.9391 9.63025 8.01881 9.31974 8.08262C9.30909 8.86568 8.55104 9.27915 8.31445 9.94075C8.36855 10.3454 8.31825 10.7423 8.16356 11.1314C8.65447 10.8372 9.18234 10.8419 9.72735 10.9525Z" fill="#D06B54"/>
<path d="M4.45354 12.4209C4.91718 12.595 5.16458 13.4148 5.89104 12.877C5.9087 12.7739 5.92636 12.6707 5.94402 12.5675C5.39953 12.2479 5.61525 11.8112 5.84543 11.393C5.77479 11.8058 6.66459 12.0641 5.94402 12.5675C6.28023 12.6624 6.61645 12.7572 6.97301 12.8362C6.95319 12.6431 7.04634 12.5108 7.18874 12.3995C6.75878 11.5137 6.07024 10.8002 5.82337 9.77137C5.67985 9.16836 5.41755 9.67126 5.2516 9.92011C5.25913 10.391 4.76069 10.2143 4.55995 10.4605C4.74788 10.701 4.95615 10.9257 5.10339 11.198C5.24207 11.4174 5.41823 11.7268 5.15377 11.9334C5.05205 12.0129 4.72761 11.8492 4.50436 11.815C4.71263 12.0397 4.67731 12.246 4.45354 12.4209Z" fill="#E5A392"/>
<path d="M5.95847 12.586C5.97882 12.5701 5.97882 12.5701 5.95847 12.586V12.586Z" fill="#E5A392"/>
<path d="M5.37895 8.86709C5.40466 9.02579 5.55243 9.08913 5.70928 8.99638C5.811 8.91691 5.93894 8.78715 5.94214 8.66546C5.95444 8.38767 5.89125 8.13907 5.86874 7.85868C5.64333 7.52823 5.67597 7.23455 5.987 6.96175C5.94363 6.90624 5.90026 6.85073 5.85689 6.79522C4.39853 6.56393 4.39853 6.56393 4.20055 8.02971C4.19466 8.0641 4.17432 8.08 4.14809 8.13029C4.56516 8.37059 5.27343 8.145 5.37895 8.86709Z" fill="#E6A08F"/>
<path d="M5.86286 7.89307C6.51867 7.76806 6.96734 8.13267 7.38389 8.58196C7.06317 8.08759 6.79759 7.57994 6.58715 7.05901C6.37836 7.04336 6.18991 7.01181 5.98111 6.99615C5.69042 7.25306 5.63744 7.56263 5.86286 7.89307Z" fill="#E7A999"/>
<path d="M6.98747 12.8547C7.40185 13.0078 7.81303 13.2825 8.30074 13.11C8.33606 12.9036 8.35104 12.7131 8.40082 12.5252C8.27071 12.3587 8.14061 12.1922 8.02496 12.0442C7.76639 12.2164 7.57421 12.5155 7.20319 12.418C7.06079 12.5293 6.95319 12.6431 6.98747 12.8547Z" fill="#E9B1A2"/>
<path d="M10.2716 7.87529C10.3326 7.82761 10.3937 7.77993 10.4344 7.74814C10.2668 7.49171 10.0264 7.35175 9.75119 7.20918C9.63181 7.39184 9.4921 7.59039 9.37272 7.77305C9.31169 7.82073 9.27101 7.85251 9.20998 7.9002C9.25335 7.9557 9.28226 7.99271 9.30529 8.06411C9.63025 8.01881 9.94076 7.95499 10.2716 7.87529Z" fill="#D2725E"/>
<path d="M8.31445 9.94075C7.95096 10.3141 7.90066 10.711 8.16356 11.1314C8.29791 10.7582 8.36855 10.3454 8.31445 9.94075Z" fill="#D7806C"/>
<path d="M65.1726 48.2064C65.0645 48.5292 65.2235 48.7328 65.5249 48.8251C65.6582 48.8699 65.7369 48.719 65.746 48.5629C65.5346 48.46 65.3638 48.3252 65.1726 48.2064Z" fill="#726C67"/>
<path d="M49.1823 33.1069C49.1416 33.1387 49.0806 33.1864 49.0399 33.2182C49.2048 33.3873 49.3285 33.7972 49.6015 33.6435C49.9297 33.4765 49.5763 33.2758 49.5014 33.096C49.4114 33.1067 49.3215 33.1173 49.1823 33.1069C49.2171 33.1095 49.2171 33.1095 49.1823 33.1069Z" fill="#726D69"/>
<path d="M34.7238 13.1753C34.3849 12.9931 34.0808 12.8135 33.7419 12.6313C33.6836 12.7663 33.5905 12.8987 33.5321 13.0337C33.749 13.3112 33.9717 13.5544 34.1885 13.8319C34.2089 13.816 34.2233 13.8345 34.2233 13.8345C34.4787 13.784 34.7646 14.2757 34.9777 13.7517C34.8882 13.5534 34.7988 13.3551 34.7238 13.1753Z" fill="#26211E"/>
<path d="M38.5458 20.4992C38.2343 20.981 38.7761 21.2132 38.8564 21.5676C38.9147 21.4326 38.9731 21.2977 39.0518 21.1468C38.8928 20.9433 38.7193 20.7212 38.5458 20.4992Z" fill="#332E29"/>
<path d="M8.74703 17.9163C8.38459 17.8717 8.02534 17.7054 7.67467 17.592C7.57027 17.5842 7.46587 17.5763 7.38182 17.5526C7.02794 17.5609 6.7731 17.4025 6.53002 17.1752C6.42563 17.1674 6.34157 17.1437 6.23717 17.1358C6.10551 17.5963 6.84217 17.6167 6.69016 18.093C6.98942 17.889 7.27958 17.8411 7.51088 18.1371C7.55425 18.1926 7.55962 18.3672 7.53339 18.4175C7.2047 18.7935 6.84545 18.6272 6.49478 18.5138C6.32295 18.7971 6.35134 19.0431 6.53927 19.2836C6.79463 19.2331 7.04412 19.217 7.29948 19.1664C7.648 18.9835 8.03399 18.8905 8.42267 18.8848C8.63467 18.7788 8.82632 18.6887 9.03832 18.5826C9.08541 18.3075 9.26313 17.9898 8.74703 17.9163Z" fill="#E4A493"/>
<path d="M7.27914 19.1823C7.23637 20.0501 7.93019 19.806 8.33064 19.7315C9.15188 19.5666 8.28563 19.1707 8.40232 18.9007C8.0281 18.9249 7.648 18.9835 7.27914 19.1823Z" fill="#61554D"/>
<path d="M52.2186 36.7836C52.0618 36.8763 52.1078 37.0191 52.1887 37.1645C52.2727 37.1883 52.3857 37.249 52.4612 37.2198C52.6876 37.1323 52.5372 36.9816 52.4649 36.8891C52.4215 36.8336 52.2738 36.7703 52.2186 36.7836Z" fill="#615C55"/>
<path d="M51.1599 40.2925C51.078 40.5651 51.3387 40.6891 51.5759 40.9508C51.5941 40.6386 51.85 40.3791 51.5197 40.2498C51.4212 40.2076 51.1513 40.2396 51.1599 40.2925Z" fill="#69635D"/>
<path d="M30.2123 5.5558C29.8665 5.82599 29.8098 6.46625 29.1748 6.36638C28.9746 6.40362 28.8675 6.30849 28.7519 6.16047C28.5715 6.39081 28.3911 6.62115 28.1903 6.86738C28.056 7.24053 28.4098 7.23222 28.5806 7.36696C29.221 7.64143 29.933 7.08515 30.5674 7.39401C30.4442 6.77511 30.3355 6.17471 30.2123 5.5558Z" fill="#E5A492"/>
<path d="M28.1903 6.86738C28.0051 6.71414 27.8814 6.30422 27.6046 6.78862C27.4531 7.05597 27.3016 7.32331 27.0227 7.51143C27.556 7.69077 27.9961 8.00247 28.2783 8.82491C28.4104 8.15548 28.4955 7.76122 28.5806 7.36696C28.4098 7.23222 28.056 7.24053 28.1903 6.86738Z" fill="#EBB5A7"/>
<path d="M27.1595 10.8313C27.3779 10.4819 28.1643 10.3144 27.638 9.68269C26.8516 9.85017 26.5346 10.1574 27.1595 10.8313Z" fill="#E0937F"/>
<path d="M27.594 8.70393C27.533 8.75161 27.4399 8.88398 27.4484 8.93688C27.509 9.09819 27.654 9.07423 27.7557 8.99476C27.8168 8.94708 27.8344 8.84389 27.8783 8.6904C27.7739 8.68258 27.6695 8.67475 27.594 8.70393Z" fill="#E6A08F"/>
<path d="M9.72735 10.9525C10.516 12.2135 10.8197 13.7344 11.8263 14.855C12.2037 14.7091 12.1502 15.2277 12.4141 15.23C12.5324 14.3331 11.7823 13.8762 11.4214 13.2046C11.3031 12.9693 10.9208 12.7316 11.2404 12.5117C11.7228 12.1647 11.5847 12.8685 11.8368 12.9397C12.0542 13.0082 12.0125 13.458 12.3492 13.3439C12.7063 13.2139 12.4895 12.9364 12.4552 12.7248C12.378 12.2487 12.6564 12.2695 12.9664 12.4147C13.1142 12.4781 13.262 12.5414 13.3894 12.6206C13.4397 12.2238 13.2694 11.88 13.0933 11.5707C12.8507 11.1344 12.5327 10.7274 12.0493 11.4924C11.8185 10.9874 12.0631 10.5877 12.0583 10.2041C11.9716 10.0931 11.8993 10.0005 11.8125 9.88952C11.3376 9.5752 10.8215 9.50166 10.2584 9.7033C9.54151 9.87599 9.5576 10.3998 9.72735 10.9525Z" fill="#554E47"/>
<path d="M12.0642 10.1697C12.8035 10.2774 12.7372 11.2827 13.4969 11.3745C13.1243 10.7717 13.393 10.0254 13.0899 9.42789C12.8238 9.12923 12.5347 8.75917 12.327 9.45778C12.2392 9.76474 12.0535 9.82049 11.8125 9.88952C11.9255 9.95024 11.9978 10.0428 12.0642 10.1697Z" fill="#D17965"/>
<path d="M12.0642 10.1697C12.0835 10.5718 11.8388 10.9715 12.0552 11.458C12.5386 10.693 12.8421 11.0815 13.0991 11.5363C13.2753 11.8456 13.4456 12.1894 13.3953 12.5862C14.3214 12.2202 13.4322 11.7529 13.5028 11.3401C12.7576 11.2668 12.7891 10.2589 12.0642 10.1697Z" fill="#5C5049"/>
<path d="M15.2824 11.8568C15.5565 11.2851 15.0147 11.0528 14.6993 10.7331C14.8027 11.1589 14.9119 11.5503 15.0153 11.9761C15.1111 11.931 15.2706 11.9256 15.2824 11.8568Z" fill="#655D57"/>
<path d="M27.6046 6.78862C27.8814 6.30422 28.0051 6.71414 28.1903 6.86738C28.3707 6.63704 28.5511 6.4067 28.7519 6.16047C29.0393 4.89301 28.9584 4.74759 27.8882 4.7196C27.8642 5.06618 28.2834 5.60277 28.0773 5.67441C27.0237 5.9612 27.4071 6.91316 27.0431 7.49553C27.3016 7.32331 27.4531 7.05597 27.6046 6.78862Z" fill="#E8AC9B"/>
<path d="M28.7315 6.17636C28.8327 6.30588 28.9746 6.40362 29.1545 6.38227C29.2332 6.2314 29.2915 6.09642 29.3702 5.94555C29.3916 5.51168 29.8793 5.33922 29.9644 4.94496C29.8316 4.69114 28.9402 5.05977 29.4584 4.29735C28.8958 4.29 28.2067 3.78543 27.8679 4.73549C28.9381 4.76349 29.0393 4.89301 28.7315 6.17636Z" fill="#E49E8B"/>
<path d="M26.9045 8.40835C26.5302 8.43255 26.1239 8.54143 25.9076 8.05489C26.451 7.66016 26.6587 8.0938 26.9045 8.40835Z" fill="#DF8872"/>
<path d="M4.70482 15.1745C4.53991 15.0054 4.42158 14.77 4.11696 14.7995C3.81129 15.2469 3.32358 15.4193 2.85085 15.4013C2.16933 15.3676 2.3396 15.7113 2.51575 16.0207C2.65443 16.2401 2.89482 16.38 3.05972 16.5492C2.95749 16.8376 2.53185 16.5444 2.48155 16.9413C2.76263 17.0495 3.02336 17.1735 3.30444 17.2817C3.68082 17.5538 4.15303 17.7808 3.90787 18.3895C4.16004 18.4607 4.39186 18.5478 4.64402 18.6189C4.5546 18.4206 4.22747 18.1696 4.51496 18.0344C5.06369 17.8143 4.92562 18.5181 5.2356 18.6633C5.36571 18.8298 5.49582 18.9963 5.61147 19.1444C5.6789 18.8533 5.8684 18.4669 5.75863 18.2844C5.46683 17.8271 5.39611 17.1076 4.51115 17.2328C3.95116 17.3128 3.5405 16.8291 3.72463 16.2681C3.99334 15.5218 4.1797 16.3893 4.44953 16.3573C4.71935 16.3253 4.91689 16.2007 5.13478 16.0603C4.9265 15.8356 4.70966 15.5581 4.70482 15.1745Z" fill="#E8AC9B"/>
<path d="M4.11956 13.7545C4.07619 13.699 4.03282 13.6435 3.98946 13.588C3.79832 13.4691 3.42358 13.7023 3.39839 13.3346C3.35927 12.7394 4.05205 12.9133 4.30525 12.5665C4.36628 12.5188 4.42731 12.4712 4.468 12.4394C4.69177 12.2645 4.72709 12.0582 4.55362 11.8361C4.37105 11.7702 4.22008 11.8285 4.07768 11.9398C4.05734 11.9557 4.04288 11.9372 4.02254 11.9531C3.15792 12.0624 2.24622 12.447 1.46186 11.7785C1.16953 11.5301 0.995015 11.726 0.913122 11.9986C0.772883 12.4062 1.18831 12.1412 1.2895 12.2707C1.37624 12.3817 1.46298 12.4927 1.54972 12.6038C2.42722 13.1399 3.12164 13.819 3.53983 14.7736C3.93491 14.5245 3.97075 14.1092 4.11956 13.7545Z" fill="#E8AE9E"/>
<path d="M4.70482 15.1745C4.82419 14.9918 4.92911 14.7907 5.06883 14.5921C4.68067 14.3888 4.31286 14.1696 4.1399 13.7386C3.9911 14.0933 3.96971 14.5271 3.54571 14.7392C3.75451 14.7549 3.94296 14.7864 4.15175 14.8021C4.42158 14.77 4.53991 15.0054 4.70482 15.1745Z" fill="#E5A392"/>
<path d="M7.38182 17.5526C7.48622 17.5605 7.59061 17.5683 7.67467 17.592C7.56274 17.1133 8.49859 17.5144 8.23622 16.8851C7.88443 16.0574 8.51886 16.3663 8.86685 16.3924C8.69658 16.0487 8.4594 15.787 8.10872 15.6736C7.95134 15.9754 7.80842 16.2956 7.45991 16.4785C7.1269 16.2619 7.14239 15.8624 7.03584 15.5583C6.9523 15.3256 6.6514 15.0243 6.98546 14.8229C7.31952 14.6216 7.53904 14.9864 7.76766 15.1951C7.95499 14.5124 8.53212 14.5383 9.05731 14.4557C9.0819 13.9002 9.71954 14.0873 9.9176 13.7538C10.3164 13.174 9.94219 13.1982 9.52728 13.2542C9.0594 13.6198 8.55887 14.279 8.3152 13.1285C7.81303 13.2825 7.41631 13.0263 7.00193 12.8732C6.66571 12.7784 6.32949 12.6835 5.97293 12.6045C5.95527 12.7077 5.93761 12.8109 5.91995 12.914C5.79364 13.5491 4.71703 13.7645 5.0774 14.645C4.95802 14.8277 4.8531 15.0289 4.71339 15.2274C4.71823 15.611 4.93507 15.8885 5.16637 16.1846C5.43247 16.4832 5.78315 16.5966 6.1745 16.6782C6.71952 16.7888 6.13009 17.0407 6.2254 17.2046C6.3298 17.2125 6.41385 17.2362 6.51825 17.244C6.86356 17.1828 7.48562 16.6372 7.38182 17.5526Z" fill="#D67863"/>
<path d="M5.22972 18.6977C5.02092 18.682 4.83247 18.6505 4.62368 18.6348C4.37151 18.5636 4.13969 18.4766 3.88753 18.4054C3.67181 18.8421 3.65362 19.1543 4.27412 19.2357C4.63657 19.2803 5.02204 19.3963 5.20677 19.7585C5.59545 19.7528 5.50923 19.4328 5.58524 19.1947C5.48993 19.0307 5.35982 18.8642 5.22972 18.6977Z" fill="#EAB3A5"/>
<path d="M7.51304 18.4334C7.55962 18.3672 7.54837 18.227 7.49054 18.153C7.24478 17.8385 6.96908 17.9049 6.66982 18.1089C6.59113 18.2598 6.53278 18.3948 6.45409 18.5456C6.82511 18.6431 7.2047 18.7935 7.51304 18.4334Z" fill="#E9B2A4"/>
<path d="M9.46095 6.12485C9.92026 5.7064 10.4915 5.76665 11.0515 5.68671C11.6955 5.63049 11.8075 6.1092 11.9804 6.54022C12.0848 6.54805 12.1892 6.55588 12.2936 6.56371C12.4643 5.5662 11.6741 4.93212 11.4122 4.09379C10.5369 3.85396 10.2275 4.63203 9.76229 5.08488C9.64291 5.26754 9.538 5.4687 9.39828 5.66725C9.40364 5.84185 9.43524 5.96615 9.46095 6.12485Z" fill="#D4735F"/>
<path d="M33.7419 12.6313C33.864 12.536 33.9861 12.4406 34.0937 12.3267C34.1408 12.0516 34.0337 11.9564 33.7665 12.0758C33.4587 12.2269 33.1712 12.3621 32.8489 12.4947C33.0428 12.7008 33.1434 13.0394 33.4973 13.031C33.5905 12.8987 33.6691 12.7478 33.7419 12.6313Z" fill="#665952"/>
<path d="M31.9971 12.1173C31.6192 12.4722 31.8912 12.7364 32.1198 12.9452C32.334 13.1354 32.4705 13.0586 32.5031 12.7649C32.3296 12.5428 32.1562 12.3208 31.9971 12.1173Z" fill="#5F544C"/>
<path d="M11.9804 6.54022C11.4574 6.91906 11.0645 7.46443 10.4344 7.74814C10.3733 7.79582 10.3123 7.8435 10.2716 7.87529C10.3584 7.98631 10.4451 8.09733 10.5318 8.20835C11.0078 8.10468 11.216 8.32933 11.3338 8.77364C11.397 9.02224 11.5818 9.38448 11.8066 8.79167C11.0516 7.9512 12.3344 7.66417 12.3707 7.03981C12.4553 6.85454 12.3889 6.72763 12.2936 6.56371C12.1689 6.57177 12.0848 6.54805 11.9804 6.54022Z" fill="#DC8674"/>
<path d="M11.8066 8.79167C11.9645 8.28094 12.3012 8.16683 12.7707 8.30656C12.5571 7.90732 12.9415 7.30905 12.3504 7.0557C12.3488 7.68267 11.0516 7.9512 11.8066 8.79167Z" fill="#D67966"/>
<path d="M31.4719 4.06512C32.0395 4.45606 32.6872 4.06916 33.2611 4.21671C33.2306 3.67443 32.8312 3.33093 32.5479 2.92647C32.3392 2.91081 32.1507 2.87926 31.9564 2.88211C31.7936 3.00926 31.6164 3.11791 31.4537 3.24505C31.2706 3.3881 31.0875 3.53114 30.9189 3.69269C30.7818 3.97854 30.7289 4.2881 30.7658 4.587C31.2006 4.72411 31.3146 4.36686 31.4719 4.06512Z" fill="#D4735F"/>
<path d="M31.3503 2.81925C31.3075 2.55475 31.5286 2.29262 31.3058 2.04947C31.0976 1.82482 30.8925 1.47848 30.5729 1.69839C30.1778 1.94746 30.8267 2.27483 30.6142 2.58986C30.8053 2.7087 30.9964 2.82755 31.1672 2.96229C31.2283 2.91461 31.2893 2.86693 31.3503 2.81925Z" fill="#EBB6A8"/>
<path d="M29.3906 5.92966C29.6288 5.77333 29.8413 5.4583 30.192 5.57169L30.2268 5.5743C30.4564 5.36508 30.5324 5.12691 30.4751 4.84391C30.3097 4.88376 30.1646 4.90772 29.9992 4.94757C29.8996 5.32333 29.4119 5.49578 29.3906 5.92966Z" fill="#E5A492"/>
<path d="M31.4537 3.24505C31.4221 3.12075 31.376 2.97795 31.3648 2.83775C31.3038 2.88543 31.2631 2.91722 31.1876 2.9464C31.0912 3.20046 31.0152 3.43863 30.9044 3.67418C31.0875 3.53114 31.2706 3.3881 31.4537 3.24505Z" fill="#D77D67"/>
<path d="M9.17779 6.85264C9.25379 6.61447 9.3646 6.37891 9.4406 6.14074C9.41489 5.98204 9.40364 5.84185 9.37793 5.68315C9.14932 5.4744 8.73814 5.1997 8.64715 5.62835C8.53583 6.0729 8.46466 6.69465 9.0643 7.0009C9.09053 6.95061 9.15156 6.90293 9.17779 6.85264Z" fill="#E8AB9A"/>
<path d="M9.76564 7.22768C9.57451 7.10883 9.38338 6.98999 9.21259 6.85525C9.15156 6.90293 9.12533 6.95322 9.0643 7.0009C9.17674 7.27062 9.27473 7.52183 9.38718 7.79155C9.4921 7.59039 9.61147 7.40773 9.76564 7.22768Z" fill="#D16B57"/>
<path d="M31.3503 2.81925C31.3819 2.94355 31.428 3.08635 31.4392 3.22655C31.602 3.0994 31.7792 2.99076 31.9419 2.86361C32.3525 2.21505 33.0501 2.77252 33.5325 2.42547C32.7963 2.19607 32.4938 1.38953 31.7169 1.19193C31.5799 1.47777 31.4429 1.76362 31.3058 2.04947C31.5286 2.29262 31.3219 2.57325 31.3503 2.81925Z" fill="#E7A999"/>
<path d="M32.2119 5.09607C32.1428 4.88186 31.8585 4.89539 31.661 5.01993C31.6 5.06761 31.5475 5.16819 31.495 5.26877C31.8977 5.49057 31.8292 6.19962 32.3222 6.20175C32.8646 6.225 33.144 5.8279 32.9946 5.25928C32.6429 5.56387 32.3934 5.58 32.2119 5.09607Z" fill="#DC8D7C"/>
<path d="M8.30074 13.11C8.54441 14.2605 9.04494 13.6013 9.51283 13.2357C9.36342 12.6671 8.90835 12.5459 8.38636 12.5067C8.35104 12.7131 8.31572 12.9195 8.30074 13.11Z" fill="#D26E57"/>
<path d="M13.5796 15.4219C13.5277 15.3135 13.5106 15.2077 13.4324 15.1496C13.3109 15.036 13.1111 14.8642 13.0785 15.1579C13.0576 15.3828 13.3446 15.4566 13.5796 15.4219Z" fill="#736058"/>
<path d="M6.98546 14.8229C6.6514 15.0243 6.96676 15.3441 7.03584 15.5583C7.14239 15.8624 7.1269 16.2619 7.45991 16.4785C7.80842 16.2956 7.93689 15.9569 8.10872 15.6736C7.99307 15.5256 7.86297 15.3591 7.76766 15.1951C7.53904 14.9864 7.33986 14.6057 6.98546 14.8229Z" fill="#DB8775"/>
<path d="M4.45354 12.4209C4.39251 12.4685 4.33148 12.5162 4.2908 12.548C4.19713 12.8894 4.10346 13.2307 3.98946 13.588C4.03282 13.6435 4.07619 13.699 4.11956 13.7545C4.29252 14.1855 4.66033 14.4047 5.04848 14.608C4.70258 13.746 5.76473 13.5121 5.89104 12.877C5.17903 13.4333 4.93164 12.6135 4.45354 12.4209Z" fill="#E49987"/>
<path d="M5.96436 12.5516C6.66459 12.0641 5.78067 11.7714 5.86577 11.3771C5.6297 11.8297 5.39952 12.2479 5.96436 12.5516C5.97881 12.5701 5.95847 12.586 5.96436 12.5516Z" fill="#E9AE9F"/>
<path d="M11.9804 6.54022C11.7871 6.12509 11.6607 5.62788 11.0515 5.68671C11.3144 6.10706 11.2207 6.44842 10.7823 6.64199C10.1666 6.94421 9.78755 6.58482 9.48129 6.10896C9.40528 6.34712 9.29448 6.58268 9.21847 6.82085C9.40961 6.9397 9.60074 7.05854 9.77153 7.19328C10.0526 7.30146 10.3075 7.45992 10.4547 7.73225C11.0441 7.48032 11.4574 6.91906 11.9804 6.54022Z" fill="#D67B66"/>
<path d="M6.53002 17.1752C6.75275 17.4184 7.02794 17.5609 7.38182 17.5526C7.48562 16.6372 6.86356 17.1828 6.53002 17.1752Z" fill="#E4A08F"/>
<path d="M29.3906 5.92966C29.3119 6.08053 29.2535 6.21551 29.1748 6.36638C29.8098 6.46625 29.8461 5.84189 30.192 5.57169C29.821 5.4742 29.6288 5.77333 29.3906 5.92966Z" fill="#E9B1A2"/>
<path d="M5.22972 18.6977C4.91973 18.5525 5.06369 17.8143 4.50907 18.0688C4.20713 18.1855 4.52837 18.4709 4.63813 18.6533C4.84693 18.669 5.04127 18.6661 5.22972 18.6977Z" fill="#E6A695"/>
<path d="M4.2908 12.548C4.07239 12.8974 3.37961 12.7236 3.38394 13.3161C3.40912 13.6838 3.78387 13.4506 3.975 13.5695C4.10347 13.2307 4.19713 12.8894 4.2908 12.548Z" fill="#E5A392"/>
<path d="M10.7619 6.65788C11.2004 6.46431 11.2999 6.08856 11.0312 5.7026C10.4915 5.76665 9.92026 5.7064 9.4406 6.14074C9.76721 6.60071 10.1666 6.94421 10.7619 6.65788Z" fill="#D98270"/>
</svg>
