<svg width="60" height="113" viewBox="0 0 60 113" fill="none" xmlns="http://www.w3.org/2000/svg">
<path d="M24.4945 39.5953C24.2565 39.4381 24.6894 39.0143 25.0591 38.936C25.5293 38.795 25.8045 39.2349 25.8102 39.6904C25.8533 40.4286 25.8648 41.3396 26.4468 42.0468C26.5844 42.2668 26.7908 42.5967 27.1606 42.5184C27.4301 42.5029 27.324 42.1102 27.3555 41.9374C27.3497 41.4819 27.5131 41.0737 28.052 41.0426C28.4218 40.9643 28.8289 41.1688 28.9234 40.6505C28.9177 40.195 28.674 39.5823 28.2354 39.5506C27.3897 39.3145 27.1775 38.529 26.564 37.9946C25.9506 37.4602 25.9763 36.8319 26.4091 36.4082C26.9423 35.9216 27.4182 36.236 27.7622 36.786C28.175 37.4459 28.4875 38.1686 29.0465 37.0538C29.2786 36.7555 29.3217 37.4938 29.6599 37.5882C30.067 37.7927 30.5429 38.1071 30.8754 37.7461C31.2079 37.3851 31.5031 36.7413 31.0587 36.2541C29.9636 34.9498 30.8035 34.7304 31.7437 34.4483C31.9071 34.04 31.5373 34.1183 31.3997 33.8984C30.7232 33.7094 30.1528 33.9133 29.6511 34.2271C29.4505 34.3526 29.3501 34.4153 29.1495 34.5409C29.5366 35.829 28.5218 35.5457 27.8825 35.6395C26.5552 34.6334 27.5155 33.2676 27.028 32.0422C26.7901 31.885 26.4519 31.7905 26.2512 31.916C26.2685 33.2825 25.4716 34.2401 24.7436 35.3076C24.1474 36.1397 23.1268 35.4008 22.3873 35.5574C24.1301 34.7732 25.2595 33.4546 26.32 32.026C25.1676 31.5227 25.4828 29.7952 24.2301 29.3546C22.9143 29.2595 21.567 29.3371 20.6726 27.9073C20.5034 27.8601 20.3343 27.8128 20.2655 27.7028C19.288 27.7022 18.5054 27.1206 17.5909 26.7744C17.6539 26.4289 17.9549 26.2407 18.018 25.8952C17.9492 25.7852 18.0495 25.7224 17.9807 25.6124L17.9119 25.5024C17.7112 25.6279 17.6109 25.6907 17.4102 25.8162C17.3472 26.1617 17.0777 26.1773 16.9086 26.13C14.9793 25.5005 13.3453 24.2273 11.9434 22.6557C11.9434 22.6557 12.0753 22.4202 12.2071 22.1847C12.339 21.9492 12.3705 21.7764 12.5712 21.6509C11.9577 21.1165 12.078 19.97 11.2639 19.5611C10.7249 19.5922 10.4182 19.325 10.0742 18.775C9.67287 19.0261 9.37189 19.2143 8.97058 19.4654C8.92753 18.7272 9.92504 17.6441 8.23948 17.6273C8.07035 17.58 8.03306 17.2973 8.23371 17.1718C8.56622 16.8107 8.99905 16.3869 8.48589 15.7898C8.04154 15.3026 7.40229 15.3964 6.86914 15.883C6.47631 14.1393 8.3998 14.3133 8.75806 13.324L8.78958 13.1513C6.72847 12.7573 5.12324 13.7615 4.09422 15.0173C3.06519 16.2732 2.06769 17.3563 0.763445 18.1721C0.161487 18.5487 -0.102214 19.0197 0.58008 19.6641C2.08227 21.1729 3.01979 23.341 4.98633 24.2533C5.15546 24.3005 5.80046 24.6621 5.39916 24.9132C4.19524 25.6663 5.27884 26.0597 5.72319 26.5469C6.16754 27.0341 6.71222 27.4585 7.2569 27.8829C8.10832 28.5745 8.2517 29.25 7.55518 30.1448C6.52615 31.4007 6.17365 32.8454 6.83595 34.5736C7.84803 37.3071 10.0583 38.8321 12.0679 40.4825C12.3746 40.7498 12.8762 40.4359 13.2518 40.8131C14.0402 41.8503 15.2556 42.0081 16.3019 42.1187C19.0711 42.5289 21.7714 42.8291 24.3169 41.5428C24.3742 40.7418 25.8218 40.6014 24.4945 39.5953ZM20.1113 36.8282C19.0765 37.6285 17.9871 36.7797 16.6398 36.8573C18.0129 36.1514 18.9962 36.6075 19.9737 36.6082C20.6702 35.7134 21.4155 36.0123 22.4303 36.2956C21.7338 37.1905 20.8136 36.3888 20.1113 36.8282Z" fill="#CFDCE3"/>
<path d="M6.83185 15.6002C7.43381 15.2237 7.90392 15.0826 8.4486 15.507C8.96176 16.1042 8.52894 16.528 8.19644 16.889C7.99578 17.0146 8.10187 17.4073 8.2022 17.3445C9.78743 17.4241 8.95906 18.5544 8.9333 19.1826C9.3346 18.9316 9.73591 18.6806 10.0369 18.4923C10.808 18.1629 10.851 18.9012 11.2266 19.2784C12.4047 19.1535 12.5281 20.9127 13.7751 20.8978C13.4799 21.5415 12.9037 21.2899 12.5339 21.3682C12.402 21.6037 12.3705 21.7764 12.1699 21.9019C12.4078 22.0592 12.5769 22.1064 12.8149 22.2636C13.3738 21.1488 13.7608 22.437 14.1994 22.4687C14.7384 22.4376 15.0451 22.7048 15.3891 23.2548C16.0656 23.4437 16.1029 23.7264 15.6701 24.1502C16.1517 24.9201 17.1923 24.5753 17.5421 25.5807C17.7427 25.4552 17.8431 25.3924 18.0437 25.2669C18.8836 25.0476 19.3653 25.8175 20.0103 26.1792C20.38 26.1009 20.7871 26.3053 20.9935 26.6353C21.1311 26.8552 21.2687 27.0752 21.4064 27.2952C21.1369 27.3107 21.0366 27.3735 20.7671 27.389C21.6616 28.8189 23.0089 28.7412 24.3246 28.8363C24.2558 28.7263 24.2874 28.5536 24.2874 28.5536C23.9749 27.8309 23.261 27.3592 23.3183 26.5582C22.7936 25.0501 22.7764 23.6836 23.8742 22.5378C24.006 22.3023 24.2697 21.8312 24.1006 21.784C23.381 20.8569 23.7823 20.6058 24.5219 20.4492C24.8917 20.3709 25.1927 20.1827 25.0551 19.9627C24.4931 18.1718 26.4366 17.2621 26.1125 15.6284C25.6997 14.9685 25.6251 14.403 25.6509 13.7747C25.6509 13.7747 25.5821 13.6648 25.6824 13.602C25.2208 11.7483 25.3669 9.97361 24.6358 8.13549C24.6358 8.13549 24.6358 8.13549 24.5354 8.19825C23.4634 8.71587 22.4859 8.71524 21.6602 7.39537C21.5599 7.45813 21.428 7.69364 21.428 7.69364C20.1753 7.25305 19.6794 8.02235 19.2524 8.90163C18.9371 10.6291 19.4991 12.42 19.7228 14.1165C20.0096 15.4674 20.4654 16.8656 19.875 18.1531C17.5644 16.6909 15.4545 15.1032 13.2128 13.751C11.8539 12.9177 10.3948 12.1471 8.74653 12.4131L8.71501 12.5858C8.29371 13.9206 6.37021 13.7466 6.83185 15.6002ZM22.7414 15.5948C23.0655 17.2285 22.0049 18.6571 20.6203 18.452C20.7979 16.5045 20.7979 16.5045 22.7414 15.5948Z" fill="#D1DFE3"/>
<path d="M33.5682 10.8114C32.8917 10.6224 32.2898 10.999 31.7193 11.2028C31.3438 10.8256 31.5444 10.7001 31.7451 10.5746C32.0776 10.2136 32.0403 9.93082 31.6647 9.55362C31.358 9.28641 31.0885 9.30194 30.8564 9.60021C30.5554 9.78849 30.0853 9.92955 29.7155 10.0078C30.2717 11.3432 30.997 12.7259 30.6445 14.1706C30.6818 14.4534 30.6503 14.6261 30.7879 14.8461C31.1319 15.3961 30.9686 15.8043 30.5673 16.0554C30.7364 16.1026 31.0747 16.197 31.2438 16.2443C31.3126 16.3543 31.3184 16.8097 31.3184 16.8097C30.0399 16.9974 31.8918 19.5116 29.8307 19.1176C29.7935 18.8349 29.6874 18.4422 29.5498 18.2222C29.243 17.955 29.908 17.2329 28.9993 17.3423C28.6295 17.4206 28.4919 17.2006 28.4862 16.7451C28.6438 15.8813 28.3943 14.8131 27.9127 14.0432C27.7062 13.7132 27.6002 13.3205 27.9011 13.1322C28.3024 12.8812 28.4401 13.1012 28.7153 13.5411C29.0278 14.2638 29.604 14.5155 30.312 14.5317C30.0999 13.7462 29.8562 13.1335 29.644 12.348C28.999 11.9864 28.2852 11.5147 27.5398 11.2158C26.7945 10.9169 27.0897 10.2731 27.1527 9.92765C27.21 9.12666 27.0351 8.62394 26.3213 8.15228C26.3213 8.15228 26.3213 8.15228 26.221 8.21505C25.4299 9.62811 25.9231 11.309 25.8085 12.911C25.8143 13.3665 25.7512 13.712 25.757 14.1675C25.7312 14.7957 25.8746 15.4712 26.2186 16.0211C26.4423 17.7176 24.5992 18.5645 25.1611 20.3554C25.2988 20.5754 24.8974 20.8264 24.628 20.842C23.8884 20.9985 23.4871 21.2496 24.2067 22.1767C24.2755 22.2867 23.943 22.6478 23.9803 22.9305C25.4537 22.1618 26.7952 21.6287 28.3289 22.9647C28.6356 23.2319 29.2434 23.3109 29.682 23.3425C30.0517 23.2643 30.4215 23.186 30.691 23.1704C30.8916 23.0449 31.4678 23.2966 31.2241 22.6839C30.43 21.1913 31.5078 21.1291 32.4165 21.0198C32.6172 20.8942 32.7175 20.8315 32.9182 20.706C33.1073 19.6695 33.4944 20.9576 33.8957 20.7066C33.8841 19.7956 34.1794 19.1519 35.1884 18.9797C35.3145 18.2887 36.0483 17.6767 35.4606 16.514C36.5757 16.7346 37.4901 17.0807 38.4361 17.2541C39.8895 17.5692 40.0959 17.8992 39.5055 19.1867C39.838 18.8257 40.5833 19.1246 40.7094 18.4336C40.7094 18.4336 40.7094 18.4336 40.8097 18.3708C40.6721 18.1508 40.7037 17.9781 40.6664 17.6954C40.5976 17.5854 40.6979 17.5226 40.6291 17.4126C40.5976 17.5854 40.566 17.7581 40.4657 17.8209C39.9841 17.051 40.3423 16.0617 39.3906 15.4328C38.9147 15.1184 39.2099 14.4746 39.7804 14.2708C40.5515 13.9414 41.3914 13.7221 42.0621 13.4555C41.9618 13.5183 42.0306 13.6283 41.9303 13.691C42.0306 13.6283 42.1309 13.5655 42.2312 13.5028C42.6268 12.7962 43.5297 12.2314 43.4494 11.2104L43.3491 11.2732C42.9105 11.2415 42.5665 10.6915 42.0333 11.1781C41.331 11.6174 40.8809 10.6747 40.1986 10.0303C40.8379 9.9365 41.3883 10.8164 41.5459 9.95267C41.7093 9.54441 41.7723 9.19891 41.3968 8.82171C40.9839 8.16178 40.6199 8.69556 40.1498 8.83661C40.0495 8.89937 39.8803 8.85214 39.7112 8.80491C39.4102 8.99319 39.1781 9.29147 38.9459 9.58974C38.1175 10.7201 37.4268 12.0704 36.2601 13.1062C35.0389 12.4929 33.9553 12.0995 33.5682 10.8114ZM27.2761 11.6869C27.2761 11.6869 27.5456 11.6713 27.6144 11.7813C27.6832 11.8913 27.8208 12.1113 27.689 12.3468C27.5198 12.2996 27.4195 12.3623 27.3507 12.2523C27.1128 12.0951 27.1443 11.9224 27.2761 11.6869Z" fill="#CEDBE2"/>
<path d="M25.5554 43.5226C25.6242 43.6326 25.6242 43.6326 25.5554 43.5226C25.8621 43.7898 26.0312 43.837 26.2692 43.9943C27.9032 45.2675 29.5057 46.7136 31.5668 47.1075C33.1894 47.4698 34.7315 46.8112 36.3168 46.8907C36.5862 46.8752 36.8184 46.5769 37.1194 46.3886C37.1509 46.2159 37.1509 46.2159 37.1824 46.0431C37.1021 45.0222 39.1317 45.5889 38.5124 44.599C37.962 43.7191 38.326 43.1853 38.1826 42.5098C38.0393 41.8344 38.0277 40.9234 37.5834 40.4362C37.0702 39.839 36.2246 39.6029 35.5223 40.0422C35.8894 42.4141 34.9979 43.89 33.1433 43.8259C33.3066 43.4177 33.7767 43.2766 33.5015 42.8367C32.9368 43.496 32.8938 42.7577 32.6874 42.4278C32.5498 42.2078 32.5813 42.035 32.7819 41.9095C33.4212 41.8157 33.4269 42.2712 33.533 42.6639C34.6939 41.1726 34.7339 39.0051 33.5327 37.308C33.2575 36.8681 32.9134 36.3181 32.8389 35.7526C32.2942 35.3282 32.2511 34.59 31.8756 34.2128C31.0357 34.4321 30.0955 34.7143 31.1906 36.0186C31.635 36.5058 31.2709 37.0396 31.0072 37.5106C30.6747 37.8716 30.1989 37.5572 29.7918 37.3527C29.5539 37.1955 29.4105 36.52 29.1783 36.8183C28.4503 37.8859 28.2381 37.1004 27.8941 36.5505C27.6188 36.1105 27.0742 35.6861 26.541 36.1726C26.1082 36.5964 25.9821 37.2874 26.6959 37.7591C27.2406 38.1835 27.5216 39.079 28.3672 39.3151C28.7055 39.4096 29.0495 39.9595 29.0553 40.415C29.0295 41.0432 28.6224 40.8388 28.1839 40.8071C27.6449 40.8382 27.5504 41.3564 27.4873 41.7019C27.4558 41.8747 27.5619 42.2674 27.2924 42.2829C26.9227 42.3612 26.7162 42.0312 26.5786 41.8113C25.9967 41.1041 26.0539 40.3031 25.9421 39.4549C25.9363 38.9994 25.7299 38.6694 25.191 38.7005C24.8212 38.7788 24.4572 39.3126 24.6263 39.3598C25.9536 40.3659 24.506 40.5063 24.3426 40.9146C24.7812 40.9463 24.9561 41.449 25.1625 41.7789C26.6159 42.094 25.3805 43.0199 25.5554 43.5226Z" fill="#CCDAE1"/>
<path d="M39.9648 28.8464C39.896 28.7365 39.7956 28.7992 39.7268 28.6892C39.7956 28.7992 39.7956 28.7992 39.9648 28.8464Z" fill="#C3D3DA"/>
<path d="M42.8204 36.0889C43.0898 36.0734 43.3535 35.6024 43.5857 35.3041C42.396 34.518 40.8911 35.4594 39.8648 34.2651C40.9311 33.292 42.479 33.0888 43.9209 32.4929C44.4168 31.7236 45.3628 31.897 45.8386 32.2114C46.8907 32.7775 47.2232 32.4165 47.4496 31.6627C47.3808 31.5527 47.4811 31.49 47.5127 31.3172C47.1686 30.7673 47.5699 30.5162 47.7333 30.108C47.6272 29.7152 48.2292 29.3387 47.716 28.7415C47.352 29.2753 47.1629 30.3118 46.1108 29.7457C45.5346 29.494 45.159 29.1168 45.4543 28.473C44.9096 28.0486 44.8581 29.3051 44.1443 28.8334C44.4395 28.1897 45.2106 27.8603 45.781 27.6565C46.3514 27.4527 46.2569 27.971 45.9559 28.1592C46.6009 28.5209 47.1398 28.4898 46.5894 27.6099C46.3142 27.17 46.2081 26.7772 46.3399 26.5417C46.4718 26.3062 46.7727 26.1179 47.1425 26.0396C46.1908 25.4108 45.1875 26.0384 44.9238 26.5094C44.3334 27.7969 43.2928 28.1418 42.0459 28.1567C42.0516 28.6122 41.7507 28.8005 41.3436 28.596C40.9108 29.0198 40.4034 28.8781 39.7956 28.7992C39.3628 29.223 38.8554 29.0813 38.6117 28.4686C38.4799 28.7041 38.2477 29.0024 37.9094 28.9079C37.4451 29.5045 37.0811 30.0383 38.1647 30.4316C38.4026 30.5888 38.7409 30.6833 38.7466 31.1388C38.589 32.0025 38.2623 32.8191 38.4429 33.7773C38.4802 34.06 38.1792 34.2483 37.9413 34.0911C37.7034 33.9339 37.2648 33.9021 37.3278 33.5567C37.4224 33.0384 37.1472 32.5984 36.8404 32.3312C35.6134 31.2624 36.1035 30.0376 36.2239 28.8911C35.8168 28.6867 35.5416 28.2467 35.0399 28.5605C33.9994 28.9054 34.1828 27.4134 33.575 27.3345C33.4747 27.3973 33.4747 27.3973 33.3744 27.46C33.7299 28.9209 33.3402 30.083 32.1362 30.8361C32.205 30.9461 32.205 30.9461 32.1735 31.1188C33.4205 31.1039 33.9794 29.9891 35.083 29.2988C35.0888 29.7543 35.0945 30.2098 35.0315 30.5552C34.9742 31.3562 34.9857 32.2672 33.733 31.8266C33.3947 31.7322 33.1626 32.0304 33.1683 32.4859C33.6872 33.5386 34.8339 33.5865 35.6853 34.2781C35.7599 34.8436 35.7341 35.4718 34.983 34.7174C34.2377 34.4185 33.5239 33.9469 32.7528 34.2762C32.9592 34.6062 33.1656 34.9361 33.372 35.2661C33.954 35.9733 34.4356 36.7432 35.0176 37.4503C35.3186 37.2621 35.5192 37.1365 35.8202 36.9483C36.0524 36.65 35.4704 35.9428 36.0409 35.739C36.6113 35.5352 36.6543 36.2734 36.9611 36.5406C37.8067 36.7768 39.154 36.6991 38.2999 38.4577C38.1365 38.8659 38.7127 39.1176 39.0195 39.3848C39.0279 37.3901 39.1283 37.3274 40.7881 37.9724C41.3643 38.2241 41.9347 38.0202 42.4736 37.9892C41.7541 37.062 40.9342 36.1977 42.8204 36.0889ZM43.4965 30.922C44.3107 31.3309 45.013 30.8915 45.7583 31.1904C45.959 31.0649 46.2915 30.7039 46.5667 31.1438C46.6355 31.2538 46.604 31.4266 46.5036 31.4893C46.1023 31.7404 45.8959 31.4104 45.6895 31.0804C45.4946 31.6615 45.056 31.6298 44.6174 31.5981C43.7402 31.5347 42.8631 31.4713 41.8856 31.4706C41.9371 30.2142 42.8515 30.5603 43.4965 30.922Z" fill="#C3D3DA"/>
<path d="M21.5626 5.00793C21.7317 5.05516 21.6687 5.40066 21.6371 5.57341C21.2043 5.9972 20.9921 5.21175 20.6224 5.29004C20.1322 6.51482 20.7142 7.22198 21.5972 7.74087C22.4228 9.06074 23.4003 9.06137 24.4724 8.54375C24.4724 8.54375 24.4724 8.54375 24.5727 8.48099C25.3381 7.69617 24.8507 6.47076 25.2777 5.59147C25.3408 5.24597 25.2662 4.68049 25.8051 4.64943C26.1434 4.74389 26.1491 5.19938 26.4559 5.46658C26.4559 5.46658 26.4559 5.46658 26.5247 5.57657L26.625 5.51381C26.9633 5.60826 27.5337 5.40446 27.3073 6.15822C27.1439 6.56648 26.6108 7.05303 27.2873 7.24194C28.133 7.47809 29.0847 8.10696 29.7812 7.21214C30.2141 6.78835 30.2713 5.98736 29.6579 5.45295C28.9756 4.80855 29.4084 4.38475 29.7467 4.47921C31.438 4.95149 30.9506 3.72608 30.9391 2.8151C27.3097 -1.64786 21.7744 0.437511 20.3356 3.93911C20.9749 3.84528 20.7542 5.05453 21.5626 5.00793Z" fill="#D8E2E8"/>
<path d="M35.6623 77.7534C35.863 77.6279 36.0636 77.5023 36.3646 77.3141C35.0143 74.486 34.3032 71.5642 33.2223 68.7206C32.56 66.9925 31.6282 65.2799 31.1666 63.4262C30.8053 61.5098 30.1745 59.6089 29.2427 57.8963C28.7669 57.5819 28.6608 57.1892 28.7553 56.6709C27.8551 54.7856 28.2649 52.5398 27.3646 50.6545C26.3583 48.3764 26.2607 45.989 25.6242 43.6326L25.5554 43.5226C25.2801 43.0826 26.6159 42.094 25.0995 42.1244C24.6782 43.4592 24.3945 45.014 24.9507 46.3494C26.1377 49.5856 26.8545 52.963 27.6717 56.2776C28.5262 59.8749 29.6817 63.2839 31.0063 66.7402C32.1932 69.9765 33.2111 73.1655 34.5987 76.2763C35.1749 76.528 35.2868 77.3762 35.6623 77.7534Z" fill="#544D48"/>
<path d="M29.7094 4.19647C29.3711 4.10201 28.838 4.58856 29.6206 5.17021C30.1653 5.59463 30.108 6.39563 29.744 6.92941C29.0474 7.82422 28.0269 7.08536 27.25 6.95921C26.5735 6.77029 27.1066 6.28373 27.27 5.87547C27.5652 5.2317 26.926 5.32553 26.5877 5.23107L26.4874 5.29383C25.8224 6.0159 25.3953 6.89518 26.284 7.86955C26.9979 8.34121 27.1727 8.84392 27.1155 9.64491C27.1212 10.1004 26.8575 10.5714 27.5025 10.9331C28.2479 11.232 28.9617 11.7036 29.6067 12.0653C30.3405 11.4532 29.1135 10.3844 29.8473 9.77233C30.2171 9.69403 30.6872 9.55299 30.9882 9.3647C31.2892 9.17642 31.5902 8.98813 31.7966 9.3181C32.1721 9.6953 32.2094 9.97804 31.8769 10.3391C31.6763 10.4646 31.5444 10.7001 31.8512 10.9673C32.4216 10.7635 32.992 10.5597 33.7001 10.5759C34.1702 10.4348 34.7091 10.4037 34.904 9.82272C34.2617 7.01086 32.447 4.77938 30.9333 2.35961C30.9133 3.44334 31.4007 4.66876 29.7094 4.19647Z" fill="#D3DEE4"/>
<path d="M45.6278 7.55222C45.7969 7.59945 45.5332 8.07048 45.1634 8.14877C44.2547 8.25813 43.6528 8.63469 44.0714 9.75011C44.4096 9.84457 44.6045 9.26357 45.0804 9.578C44.9543 10.269 44.4211 10.7556 45.0031 11.4627C45.4675 10.8662 46.1497 11.5106 46.6887 11.4795C47.11 10.1447 48.1736 11.6218 48.8759 11.1825C49.1768 10.9942 49.7215 11.4187 50.2232 11.1048C50.3865 10.6966 50.719 10.3356 50.7133 9.88007C50.7648 8.62359 51.424 7.44603 50.0279 6.32997C48.1875 4.72673 45.7566 4.41103 43.5494 5.79176C44.1629 6.32618 44.3808 7.56713 45.6278 7.55222ZM44.6587 5.55689C45.0285 5.4786 45.3295 5.29032 45.5359 5.62029C45.6047 5.73027 45.5732 5.90302 45.5417 6.07577C45.1404 6.32681 44.8021 6.23235 44.4954 5.96515C44.4266 5.85516 44.4581 5.68241 44.6587 5.55689Z" fill="#BECED8"/>
<path d="M56.0629 107.687C55.2861 107.561 54.942 107.011 54.5292 106.351C54.0906 106.32 53.7208 106.398 53.2822 106.366C52.5799 106.805 51.5021 106.868 51.5194 108.234C51.5567 108.517 50.7168 108.736 50.2467 108.877C50.0775 108.83 49.8023 108.39 50.066 107.919C50.3985 107.558 49.5529 107.322 49.5471 106.866C50.2436 105.971 50.5419 108.233 51.1008 107.119C51.4963 106.412 50.5504 106.239 50.2436 105.971C49.8681 105.594 49.4668 105.845 49.1658 106.034C48.1568 106.206 47.5606 107.038 46.6891 107.43C45.7174 107.885 44.7057 110.507 44.9551 111.575C45.1358 112.533 45.8065 112.267 46.0387 111.969C46.9989 110.603 48.9597 111.06 50.026 110.086C50.1264 110.024 50.1952 110.134 50.2955 110.071C51.981 110.088 53.5605 109.712 55.0712 109.226C55.9111 109.006 56.4185 109.148 56.9947 109.4L57.2956 109.212C57.3529 108.411 56.4757 108.347 56.0629 107.687ZM47.8588 109.3C47.5521 109.033 47.4087 108.357 47.7785 108.279C48.5496 107.949 48.9997 108.892 49.6074 108.971C49.1058 109.285 48.4723 109.834 47.8588 109.3Z" fill="#554F48"/>
<path d="M53.0994 27.9754C53.1052 28.4309 53.1425 28.7136 52.7785 29.2474C52.6036 28.7447 52.4602 28.0692 52.185 27.6292C52.0158 27.582 51.947 27.472 51.7779 27.4248C51.6776 27.4876 51.6776 27.4876 51.5772 27.5503C50.875 27.9896 50.1296 27.6907 49.6653 28.2873C50.21 28.7117 51.0241 29.1206 49.7141 29.481C49.0748 29.5748 48.8542 30.7841 47.8021 30.218C47.6388 30.6262 47.2374 30.8773 47.5815 31.4272C47.7994 32.6682 48.0116 33.4536 48.281 33.4381C49.1897 33.3287 50.2045 33.6121 51.1763 33.1572C51.1017 32.5918 50.0869 32.3084 50.4509 31.7746C50.6831 31.4763 51.2851 31.0998 51.7237 31.1315C52.3314 31.2104 51.8355 31.9797 52.1423 32.2469C52.8015 31.0693 54.2061 30.1907 54.0827 28.4315C53.8763 28.1015 53.4692 27.8971 53.0994 27.9754Z" fill="#B8CAD2"/>
<path d="M47.5184 31.7727C47.5499 31.6 47.5499 31.6 47.5815 31.4272C47.4811 31.49 47.4496 31.6627 47.5184 31.7727Z" fill="#B8CAD2"/>
<path d="M48.9108 19.2713C47.8099 17.5115 47.5577 18.8935 47.1622 19.6C47.4689 19.8672 48.1397 19.6007 48.0136 20.2917C47.8875 20.9827 47.3113 20.731 47.0046 20.4638C46.5287 20.1493 46.1532 19.7721 45.5512 20.1487C45.62 20.2587 45.5885 20.4315 45.6573 20.5414C45.8637 20.8714 46.4026 20.8403 46.4084 21.2958C46.3769 21.4686 46.5518 21.9713 46.3826 21.9241C45.0984 21.6562 46.0559 22.7406 46.0559 22.7406C46.6378 23.4478 46.7954 22.584 47.0964 22.3957C47.1968 22.333 47.2971 22.2702 47.2971 22.2702C47.3286 22.0974 47.4605 21.8619 47.6296 21.9092C47.9679 22.0036 47.9736 22.4591 47.8418 22.6946C46.807 23.495 48.6044 24.36 47.9079 25.2548C48.077 25.302 48.1458 25.412 48.3149 25.4593C49.5619 25.4444 50.012 26.387 50.2615 27.4552C50.6313 27.3769 51.0383 27.5814 51.1329 27.0631C51.3278 26.4821 50.7889 26.5132 50.3818 26.3087C49.9059 25.9943 49.7998 25.6016 49.8944 25.0833C49.9202 24.4551 50.2957 24.8323 50.634 24.9267C51.2417 25.0057 51.2044 24.7229 50.9292 24.283C50.7916 24.063 50.4848 23.7958 50.2469 23.6386C49.8713 23.2614 49.3267 22.8369 49.7595 22.4132C50.2238 21.8166 50.3042 22.8376 50.7428 22.8693C51.081 22.9637 51.1125 22.791 51.2444 22.5555C51.0753 22.5082 51.1068 22.3355 51.1068 22.3355C50.7255 21.5028 49.3036 21.015 50.3011 19.9319C49.7307 20.1357 49.0484 19.4913 48.9108 19.2713Z" fill="#B7C9D0"/>
<path d="M44.308 33.7811C44.3022 33.3256 44.5659 32.8545 43.8206 32.5556C42.4102 32.9788 40.9311 33.292 39.7645 34.3278C40.7908 35.5222 42.2957 34.5808 43.4854 35.3669C43.1529 35.7279 42.9895 36.1362 42.72 36.1517C40.765 36.1504 41.6537 37.1248 42.2042 38.0047C44.0216 37.786 46.0512 38.3527 47.6879 37.1758C46.6301 36.1542 45.641 35.2426 44.6835 34.1583C44.5144 34.111 44.4456 34.001 44.308 33.7811Z" fill="#BACDD5"/>
<path d="M48.0846 97.8342C46.8776 95.6816 45.2693 93.7801 43.7613 91.8158C42.2161 89.5688 41.2728 86.9452 39.6961 84.871C39.5012 85.452 39.2317 85.4675 38.7874 84.9803C38.624 85.3886 38.8619 85.5458 38.9995 85.7658C40.5505 88.4683 42.1331 90.9981 43.6841 93.7006C44.8538 95.5704 45.9231 97.503 47.626 98.8862C47.7578 98.6507 47.99 98.3524 48.1906 98.2269C48.1218 98.1169 48.1534 97.9442 48.0846 97.8342Z" fill="#55504A"/>
<path d="M49.7649 17.5128C49.9913 16.759 49.3778 16.2246 49.4036 15.5963C48.8159 14.4337 47.8068 14.6058 46.8981 14.7152C46.0898 14.7618 46.1528 14.4163 46.2474 13.898C46.1098 13.678 45.9033 13.3481 45.7657 13.1281C44.9489 15.1694 45.1983 16.2376 46.97 17.7308C47.5835 18.2653 47.1134 18.4063 46.8124 18.5946C46.7809 18.7673 46.7493 18.9401 46.7493 18.9401C46.887 19.1601 46.6548 19.4583 47.0934 19.49C47.4889 18.7835 47.7411 17.4015 48.842 19.1613C48.9796 19.3813 49.5616 20.0885 50.1635 19.7119C50.3957 19.4136 50.6279 19.1154 50.9604 18.7543C50.8227 18.5344 50.6163 18.2044 50.4787 17.9844C50.1777 18.1727 49.6703 18.031 49.7649 17.5128Z" fill="#B1C5CC"/>
<path d="M38.73 40.4841C38.4606 40.4996 38.687 39.7459 38.8188 39.5103C38.5121 39.2431 37.9359 38.9915 38.0992 38.5832C38.9219 36.9974 37.6749 37.0123 36.7604 36.6661C37.1045 37.2161 36.7031 37.4671 36.4022 37.6554C36.471 37.7654 36.5713 37.7026 36.6401 37.8126C37.0472 38.0171 37.4858 38.0488 37.46 38.677C37.397 39.0225 37.2336 39.4308 36.9957 39.2736C36.5886 39.0691 36.0439 38.6447 35.7687 38.2047C35.6311 37.9848 36.2015 37.7809 36.4022 37.6554C36.1642 37.4982 35.8575 37.231 35.7199 37.011C35.4189 37.1993 35.2182 37.3248 34.9173 37.5131C34.559 38.5024 35.4104 39.194 35.5223 40.0422C36.2246 39.6029 37.1706 39.7763 37.5834 40.4362C38.0277 40.9234 37.9705 41.7244 38.1826 42.5098C38.326 43.1853 37.962 43.7191 38.5124 44.599C39.1317 45.5889 37.1021 45.0222 37.1824 46.0431C37.2512 46.1531 37.1509 46.2159 37.1194 46.3886C38.7992 45.95 39.7279 44.7569 40.1119 43.1394C39.5614 42.2594 40.3525 40.8464 38.73 40.4841Z" fill="#C8D7DF"/>
<path d="M41.0585 8.72725C41.3337 9.16721 41.2707 9.51271 41.2076 9.85821C40.9812 10.612 40.4308 9.73206 39.8604 9.93588C40.5426 10.5803 41.0616 11.6329 41.695 11.0836C42.3973 10.6443 42.5722 11.147 43.0108 11.1787L43.1111 11.116C43.6816 10.9121 43.9453 10.4411 44.0714 9.75011C43.6528 8.63469 44.2547 8.25813 45.1634 8.14877C45.5332 8.07048 45.8284 7.4267 45.6278 7.55222C44.2805 7.62989 44.0625 6.38894 43.5494 5.79176C42.076 6.56042 40.5711 7.50184 39.3729 8.71046C39.4733 8.6477 39.6424 8.69493 39.8115 8.74215C40.1813 8.66386 40.5453 8.13008 41.0585 8.72725Z" fill="#C7D6DE"/>
<path d="M55.7504 106.965C55.6816 106.855 55.7131 106.682 55.7446 106.509C56.3839 106.415 56.4642 107.436 57.2038 107.28C57.0662 107.06 56.7594 106.792 56.9228 106.384C53.7608 104.23 51.5963 100.993 48.5347 98.7769C48.3655 98.7296 48.3283 98.4469 48.1906 98.2269C48.0588 98.4624 47.8266 98.7607 47.626 98.8862C48.9963 100.631 50.1975 102.328 51.9692 103.821C52.8894 104.622 54.0418 105.126 54.5292 106.351C54.8732 106.901 55.2861 107.561 56.0629 107.687C55.9253 107.467 55.7877 107.247 55.7504 106.965Z" fill="#57504A"/>
<path d="M51.6233 31.1942C51.1848 31.1625 50.514 31.4291 50.3506 31.8374C49.9866 32.3712 51.0014 32.6545 51.076 33.22C50.173 33.7849 49.1897 33.3287 48.1807 33.5008C48.0116 33.4536 47.7679 32.8409 47.4811 31.49C47.4496 31.6627 47.4496 31.6627 47.4181 31.8355C47.1917 32.5892 46.8592 32.9503 45.8071 32.3842C45.2309 32.1325 44.3853 31.8963 43.8894 32.6656C44.5659 32.8546 44.371 33.4356 44.3768 33.891C45.2855 33.7817 46.1569 33.3896 47.0026 33.6257C48.0174 33.9091 47.6649 35.3539 48.1465 36.1238C48.3529 36.4538 48.5593 36.7837 48.6969 37.0037C48.9979 36.8154 49.2989 36.6271 49.7002 36.3761C49.5626 36.1561 49.3935 36.1089 49.3562 35.8262C49.1813 35.3234 48.2783 35.8883 48.4044 35.1973C48.499 34.679 49.0379 34.648 49.5768 34.6169C50.3852 34.5703 51.0932 34.5865 51.9704 34.6499C52.5351 33.9906 52.9306 33.284 52.2111 32.3569C51.7352 32.0425 52.3314 31.2104 51.6233 31.1942Z" fill="#C0D1D8"/>
<path d="M44.6835 34.1583C44.5144 34.111 44.4456 34.001 44.308 33.7811C44.4456 34.001 44.6147 34.0483 44.6835 34.1583Z" fill="#C0D1D8"/>
<path d="M51.6315 23.8436C51.4251 23.5137 51.2502 23.011 51.0437 22.681C50.8431 22.8065 50.8804 23.0893 50.5421 22.9948C50.2038 22.9003 50.1235 21.8794 49.5588 22.5387C49.126 22.9625 49.6707 23.3869 50.0462 23.7641C50.1839 23.9841 50.4906 24.2513 50.7285 24.4085C51.0038 24.8485 51.041 25.1312 50.4333 25.0523C50.1639 25.0678 49.7883 24.6906 49.6937 25.2088C49.5992 25.7271 49.7053 26.1198 50.1811 26.4343C50.5882 26.6387 51.1271 26.6076 50.9322 27.1887C50.8692 27.5342 50.4306 27.5025 50.0608 27.5808C49.4589 27.9573 48.3122 27.9095 48.5302 29.1504C49.244 29.6221 49.2324 28.7111 49.7026 28.57C50.0981 27.8635 51.0126 28.2096 51.6145 27.8331C51.7149 27.7703 51.8152 27.7075 51.8152 27.7075C51.9843 27.7548 52.1534 27.802 52.2223 27.912C52.4287 28.242 52.6408 29.0274 52.8157 29.5301C53.1798 28.9963 53.1425 28.7136 53.1367 28.2581C51.8352 26.6238 51.8982 26.2783 53.5723 25.3841C53.2282 24.8342 53.0849 24.1587 52.4083 23.9698C52.3453 24.3153 51.9755 24.3936 51.6315 23.8436Z" fill="#B2C5CD"/>
<path d="M48.9074 11.0098C48.2051 11.4491 47.1415 9.97199 46.7202 11.3068C46.789 11.4168 46.8578 11.5267 46.8578 11.5267C47.9299 11.0091 48.3542 12.58 49.3633 12.4079C48.8674 13.1772 48.9677 13.1145 49.5812 13.6489C50.0571 13.9633 49.5927 14.5598 50.0371 15.047C50.3381 14.8588 50.6763 14.9532 50.6821 15.4087C50.7567 15.9742 50.7309 16.6024 50.6363 17.1207C51.5135 17.1841 51.5708 16.3831 51.4962 15.8176C51.4847 14.9066 51.9863 14.5928 52.6944 14.609C52.7201 13.9807 52.2558 14.5773 52.0551 14.7028C51.6853 14.7811 51.2152 14.9221 51.0088 14.5922C50.7336 14.1522 50.897 13.744 51.2983 13.4929C51.863 12.8336 52.4964 12.2843 52.9608 11.6878C52.1409 10.8234 51.0746 11.7965 50.292 11.2148C49.8218 11.3559 49.108 10.8842 48.9074 11.0098Z" fill="#B1C5CC"/>
<path d="M39.3571 74.0648C39.4402 72.6355 40.6729 74.1599 40.9308 73.2333C41.2118 74.1288 40.3031 74.2381 40.478 74.7409C40.5841 75.1336 40.6586 75.6991 41.2606 75.3225C41.7822 73.925 42.2035 72.5902 42.7252 71.1927C42.513 70.4072 41.9741 70.4383 41.504 70.5793C40.965 70.6104 40.8274 70.3904 40.621 70.0605C38.9727 70.3264 38.5772 71.0329 38.7436 73.5303C38.8812 73.7503 38.8555 74.3786 39.3571 74.0648Z" fill="#565049"/>
<path d="M51.2295 13.3829C50.897 13.744 50.6648 14.0422 50.94 14.4822C51.1464 14.8122 51.6853 14.7811 51.9863 14.5928C52.3561 14.5145 52.6513 13.8707 52.9323 14.7662C53.0699 14.9862 53.2075 15.2061 53.477 15.1906C53.434 14.4524 53.6661 14.1541 54.3799 14.6258C54.5806 14.5003 54.6436 14.1547 54.6063 13.872C54.2623 13.3221 53.9871 12.8821 54.6206 12.3328C54.0759 11.9084 53.5312 11.4839 52.892 11.5778C52.3273 12.2371 51.6938 12.7864 51.2295 13.3829ZM51.5677 13.4774C51.7684 13.3519 52.0694 13.1636 52.1755 13.5563C52.2443 13.6663 52.0809 14.0746 51.8802 14.2001C51.7484 14.4356 51.5793 14.3884 51.4417 14.1684C51.4044 13.8856 51.4359 13.7129 51.5677 13.4774Z" fill="#B9CBD3"/>
<path d="M21.365 8.03914C21.365 8.03914 21.4968 7.80363 21.5972 7.74087C20.6454 7.11199 20.0634 6.40483 20.6224 5.29004C20.9606 5.3845 21.2043 5.9972 21.6371 5.57341C21.8378 5.44789 21.7317 5.05516 21.5626 5.00793C20.7857 4.88178 20.906 3.73529 20.198 3.71913C18.7677 5.22602 19.0287 7.20519 19.2208 9.07437C19.7167 8.30509 20.1438 7.4258 21.365 8.03914Z" fill="#CEDBE2"/>
<path d="M57.2038 107.28C56.533 107.546 56.4842 106.352 55.7446 106.509C55.7131 106.682 55.6816 106.855 55.7504 106.965C55.888 107.185 56.0256 107.405 56.0629 107.687C57.0404 107.688 57.5536 108.285 58.0667 108.882L58.5684 108.568C58.0925 108.254 57.78 107.531 57.2038 107.28Z" fill="#554F48"/>
<path d="M46.9338 33.5158C46.1884 33.2168 45.2167 33.6717 44.308 33.7811C44.3768 33.891 44.6147 34.0483 44.6835 34.1583C45.7414 35.1799 46.7304 36.0915 47.6879 37.1758C47.9574 37.1603 48.3271 37.082 48.5278 36.9565C48.3214 36.6265 48.115 36.2965 47.9774 36.0766C47.4957 35.3066 47.8482 33.8619 46.9338 33.5158Z" fill="#CBD8DF"/>
<path d="M38.6867 79.6872C38.466 80.8965 39.1683 80.4571 39.7072 80.4261C39.6269 79.4051 39.9164 78.3059 40.1055 77.2694C39.5293 77.0177 38.7897 77.1743 38.7782 76.2633C38.5775 76.3888 38.3081 76.4043 38.0702 76.2471C38.0129 77.0481 37.9556 77.8491 37.8295 78.5401C38.4057 78.7918 38.8128 78.9962 38.6867 79.6872Z" fill="#6E6762"/>
<path d="M38.8188 39.5103C38.6555 39.9186 38.4606 40.4996 38.73 40.4841C40.3525 40.8464 39.5614 42.2594 40.1119 43.1394C40.4329 41.8673 40.5847 40.5481 40.0285 39.2127C39.6472 38.38 40.2864 38.2862 40.6877 38.0351C39.0279 37.3901 38.8273 37.5156 38.8188 39.5103Z" fill="#BECED8"/>
<path d="M53.477 15.1906C53.2075 15.2061 53.0699 14.9862 52.9323 14.7662C52.2243 14.75 51.7226 15.0638 51.7342 15.9748C51.7084 16.6031 51.6511 17.404 50.7739 17.3406C50.7109 17.6861 50.6794 17.8589 50.6163 18.2044C50.7539 18.4244 50.9604 18.7543 51.098 18.9743C52.0955 17.8912 52.9554 16.5881 53.8841 15.3951C53.7149 15.3478 53.6461 15.2378 53.477 15.1906Z" fill="#AABFC6"/>
<path d="M38.3657 80.9592C38.039 81.7758 38.4833 82.2629 38.8274 82.8129C39.0711 83.4256 38.8446 84.1794 39.59 84.4783C39.4036 83.0646 39.3863 81.6981 39.6384 80.3161C39.1999 80.2844 38.3972 80.7865 38.6179 79.5772C38.744 78.8862 38.3369 78.6818 37.7607 78.4301C37.4282 78.7911 38.1793 79.5455 37.3394 79.7649C37.477 79.9849 37.6146 80.2048 37.7522 80.4248C38.122 80.3465 38.6294 80.4882 38.3657 80.9592Z" fill="#625D56"/>
<path d="M51.2699 107.166C50.6107 108.343 50.4128 106.019 49.7162 106.914C49.5529 107.322 50.3985 107.558 50.1663 107.856C49.9026 108.327 50.2467 108.877 50.347 108.814C50.7856 108.846 51.5567 108.517 51.5194 108.234C51.5021 106.868 52.5799 106.805 53.2822 106.366C52.2932 105.455 51.2899 106.082 50.2436 105.971C50.6192 106.349 51.5652 106.522 51.2699 107.166Z" fill="#655E59"/>
<path d="M40.478 74.7409C40.4034 74.1754 41.143 74.0188 40.9308 73.2333C40.5726 74.2226 39.3398 72.6983 39.3571 74.0648C39.3314 74.693 40.4207 75.5419 38.9731 75.6823C38.8412 75.9178 38.8097 76.0905 38.6091 76.2161C38.6206 77.127 39.429 77.0804 39.9364 77.2221C40.3377 76.9711 40.4007 76.6256 40.2946 76.2329C40.458 75.8246 39.9448 75.2274 40.478 74.7409Z" fill="#655F5A"/>
<path d="M53.0994 27.9754C53.4692 27.8971 53.8763 28.1015 54.0827 28.4315C54.4725 27.2695 54.0539 26.1541 53.6353 25.0386C51.7606 26.0583 51.6976 26.4038 53.0994 27.9754Z" fill="#AAC1C9"/>
<path d="M38.1451 82.1685C37.9387 81.8385 37.6634 81.3986 37.6577 80.9431C36.9439 80.4714 35.9606 80.0153 35.9118 78.8216C36.551 78.7277 36.895 79.2777 37.1703 79.7177C37.1587 78.8067 36.4765 78.1623 36.3646 77.3141C36.1639 77.4396 35.9633 77.5651 35.6623 77.7534C35.6996 78.0361 35.6366 78.3816 35.4044 78.6799C35.7284 80.3136 36.7547 81.5079 37.6807 82.765C37.8126 82.5295 37.9444 82.294 38.1451 82.1685Z" fill="#5C564F"/>
<path d="M48.3041 35.26C48.178 35.951 48.9806 35.449 49.2558 35.8889C49.3935 36.1089 49.4623 36.2189 49.5999 36.4389C50.5401 36.1568 51.0675 35.2147 51.8013 34.6026C50.9929 34.6492 50.2161 34.5231 49.4077 34.5697C49.0379 34.648 48.3987 34.7418 48.3041 35.26Z" fill="#B6CAD3"/>
<path d="M33.5682 10.8114C33.855 12.1623 34.9701 12.3829 35.9219 13.0118C35.3714 12.1319 35.5921 10.9226 34.7722 10.0582C34.6776 10.5765 34.1387 10.6075 33.5682 10.8114Z" fill="#C3D3DC"/>
<path d="M39.6961 84.871C39.6273 84.761 39.5585 84.651 39.5585 84.651C38.7443 84.2421 38.9707 83.4884 38.7958 82.9856C38.3572 82.9539 38.2512 82.5612 38.1135 82.3412C37.9817 82.5767 37.9502 82.7495 37.7495 82.875C37.8614 83.7232 38.2742 84.3832 38.7558 85.1531C39.2317 85.4675 39.6015 85.3892 39.6961 84.871Z" fill="#24201C"/>
<path d="M41.504 70.5793C41.9426 70.611 42.5818 70.5172 42.7252 71.1927C42.9258 71.0672 43.1265 70.9416 43.0892 70.6589C42.7021 69.3707 42.1947 69.229 40.7213 69.9977C40.7271 70.4532 40.965 70.6104 41.504 70.5793Z" fill="#79736F"/>
<path d="M39.0734 75.6195C40.4522 75.3691 39.3629 74.5203 39.4574 74.002C38.9558 74.3158 38.95 73.8603 38.7436 73.5303C38.4111 73.8914 37.9783 74.3152 38.2908 75.0379C38.6606 74.9596 38.867 75.2895 39.0734 75.6195Z" fill="#746E69"/>
<path d="M35.9806 78.9316C36.0294 80.1253 36.9439 80.4714 37.7265 81.0531C37.758 80.8803 37.8583 80.8175 37.7895 80.7076C37.6519 80.4876 37.5143 80.2676 37.3767 80.0476C37.3079 79.9376 37.3079 79.9376 37.2391 79.8276C36.895 79.2777 36.6198 78.8377 35.9806 78.9316Z" fill="#544D48"/>
<path d="M57.2038 107.28C57.78 107.531 58.0925 108.254 58.6687 108.506L59.07 108.255C58.488 107.547 57.7369 106.793 56.9228 106.384C56.7594 106.792 57.0662 107.06 57.2038 107.28Z" fill="#2F2A26"/>
<path d="M51.6315 23.8436C51.9755 24.3936 52.3453 24.3153 52.371 23.6871C51.9267 23.1999 51.4823 22.7127 51.1068 22.3355C51.0753 22.5082 51.0753 22.5082 51.0437 22.681C51.2502 23.011 51.4251 23.5137 51.6315 23.8436Z" fill="#A7BCC4"/>
<path d="M39.0734 75.6195C38.867 75.2895 38.6606 74.9596 38.2908 75.0379C38.2278 75.3834 38.1332 75.9016 38.0702 76.2471C38.3081 76.4043 38.5775 76.3888 38.7782 76.2633C38.8097 76.0905 38.9416 75.855 39.0734 75.6195Z" fill="#5A534D"/>
<path d="M35.6623 77.7534C35.218 77.2662 35.1749 76.528 34.4984 76.339C34.7106 77.1245 34.9227 77.91 35.5047 78.6171C35.6366 78.3816 35.7684 78.1461 35.6623 77.7534Z" fill="#312D29"/>
<path d="M54.6063 13.872C54.7009 13.3538 55.0334 12.9927 54.6206 12.3328C54.0874 12.8193 54.2623 13.3221 54.6063 13.872Z" fill="#ACC1CA"/>
<path d="M40.478 74.7409C39.876 75.1174 40.458 75.8246 40.4638 76.2801C40.6271 75.8718 41.3037 76.0607 41.2606 75.3225C40.5583 75.7618 40.6529 75.2436 40.478 74.7409Z" fill="#77716D"/>
<path d="M53.477 15.1906C53.6461 15.2378 53.7149 15.3478 53.8153 15.2851C53.9471 15.0496 54.1793 14.7513 54.3799 14.6258C53.6661 14.1541 53.434 14.4524 53.477 15.1906Z" fill="#B1C5CC"/>
<path d="M29.2427 57.8963C29.3373 57.3781 29.0306 57.1109 28.7553 56.6709C28.6608 57.1892 28.7669 57.5819 29.2427 57.8963Z" fill="#797570"/>
<path d="M31.1445 32.3747C30.8378 32.1075 30.5998 31.9503 30.3619 31.793C29.3529 31.9651 28.2435 32.2 27.1284 31.9794C27.7161 33.1421 26.7559 34.5079 27.9829 35.5767C28.5533 35.3729 28.8485 34.7291 29.2498 34.4781C29.4505 34.3526 29.5508 34.2898 29.7514 34.1643C30.147 33.4578 30.3046 32.594 31.1445 32.3747Z" fill="#C8D6DD"/>
<path d="M32.5836 34.229C33.3547 33.8996 34.1689 34.3085 34.8139 34.6702C35.0145 34.5447 35.3155 34.3564 35.5162 34.2309C34.7336 33.6492 33.5869 33.6013 32.9992 32.4387C32.5233 32.1243 31.9471 31.8726 31.4024 31.4482C30.895 31.3065 30.7317 31.7147 30.2616 31.8558C30.4995 32.013 30.7374 32.1702 31.0442 32.4374C30.2043 32.6568 29.9779 33.4105 29.6511 34.2271C30.1528 33.9133 30.7232 33.7094 31.3997 33.8984C32.102 33.459 32.3084 33.789 32.5836 34.229Z" fill="#CCDAE1"/>
<path d="M30.3619 31.793C30.7317 31.7147 30.9954 31.2437 31.5028 31.3854C31.7034 31.2599 31.9041 31.1344 32.1047 31.0088C32.0359 30.8989 32.0359 30.8989 32.0674 30.7261C31.8983 30.6789 31.798 30.7416 31.6288 30.6944C31.5285 30.7572 31.5285 30.7572 31.3594 30.7099C31.0899 30.7255 30.9208 30.6782 30.6513 30.6938C30.25 30.9448 29.886 31.4786 29.3098 31.2269C28.7336 30.9752 28.1574 30.7236 27.4809 30.5347C25.9387 31.1933 25.4513 29.9679 24.7632 28.868C24.5941 28.8208 24.425 28.7736 24.3562 28.6636C24.2874 28.5536 24.2874 28.5536 24.2186 28.4436C24.1182 28.5064 24.1182 28.5064 24.0179 28.5691C24.0867 28.6791 24.0552 28.8519 24.0552 28.8519C25.3079 29.2924 24.9927 31.0199 26.1451 31.5233C26.4146 31.5078 26.684 31.4922 26.922 31.6494C28.2435 32.2 29.3529 31.9651 30.3619 31.793Z" fill="#79848F"/>
<path d="M15.5698 24.213C14.3859 23.8824 13.5029 23.3635 12.7145 22.3264C12.4766 22.1691 12.3075 22.1219 12.0695 21.9647C12.038 22.1374 11.8058 22.4357 11.8058 22.4357C13.2077 24.0073 14.8417 25.2805 16.771 25.91C16.9401 25.9573 17.2096 25.9417 17.2726 25.5962C17.1608 24.748 16.0514 24.9829 15.5698 24.213Z" fill="#F9FBFB"/>
<path d="M26.3515 31.8533C25.3598 33.3918 24.0613 34.6632 22.4188 35.3847C23.2587 35.1653 24.1789 35.9669 24.7751 35.1349C25.572 34.1773 26.3688 33.2197 26.3515 31.8533Z" fill="#FAFCFC"/>
<path d="M20.0218 27.0901C19.8842 26.8702 19.7466 26.6502 19.8784 26.4147C19.2334 26.053 18.7518 25.2831 17.9119 25.5024C17.9807 25.6124 17.9807 25.6124 17.9807 25.6124C18.0495 25.7224 18.0495 25.7224 18.018 25.8952C17.9549 26.2407 17.4848 26.3817 17.5909 26.7744C18.5054 27.1206 19.288 27.7022 20.2655 27.7028C20.2282 27.4201 20.0906 27.2001 20.0218 27.0901Z" fill="#F2F6F8"/>
<path d="M13.6748 20.9605C12.4278 20.9754 12.3732 19.3262 11.1263 19.3411C11.9404 19.75 11.8201 20.8965 12.4335 21.4309C12.8033 21.3526 13.3795 21.6043 13.6748 20.9605Z" fill="#FAFCFC"/>
<path d="M16.6398 36.8573C18.1563 36.8269 19.2456 37.6757 20.1113 36.8282C20.0425 36.7182 20.0425 36.7182 19.9737 36.6082C18.9962 36.6075 17.9126 36.2142 16.6398 36.8573Z" fill="#F5F9FA"/>
<path d="M19.9737 36.6082C20.0425 36.7182 20.0425 36.7182 20.1113 36.8282C20.8136 36.3888 21.7338 37.1905 22.4303 36.2956C21.4155 36.0123 20.6702 35.7134 19.9737 36.6082Z" fill="#F8FBFC"/>
<path d="M33.2029 35.2189C32.9965 34.8889 32.7901 34.5589 32.5836 34.229C32.3772 33.899 32.102 33.459 31.6004 33.7728C31.738 33.9928 32.1078 33.9145 31.9444 34.3228C32.3888 34.81 32.4318 35.5482 32.9077 35.8626C32.9392 35.6899 33.071 35.4544 33.2029 35.2189Z" fill="#EDF4F6"/>
<path d="M27.9829 35.5767C28.6221 35.4829 29.6369 35.7663 29.2498 34.4781C28.9173 34.8391 28.5533 35.3729 27.9829 35.5767Z" fill="#CCDAE1"/>
<path d="M21.3748 27.468C21.2372 27.248 21.0996 27.028 20.962 26.808C20.6925 26.8236 20.3228 26.9018 20.1221 27.0274C20.2597 27.2474 20.3285 27.3573 20.4661 27.5773C20.6353 27.6245 20.8044 27.6718 20.8732 27.7818C20.9047 27.609 21.1742 27.5935 21.3748 27.468Z" fill="#FBFDFD"/>
<path d="M10.1057 18.6023C10.3809 19.0422 10.6561 19.4822 11.2954 19.3883C10.851 18.9012 10.7077 18.2257 10.1057 18.6023Z" fill="#FCFDFD"/>
<path d="M24.3562 28.6636C24.425 28.7736 24.425 28.7736 24.4938 28.8836C24.5883 28.3653 24.3074 27.4699 25.3537 27.5805C25.8811 26.6384 27.065 26.969 27.9049 26.7497C29.3152 26.3265 28.5268 25.2894 28.2201 25.0222C26.824 23.9061 28.0022 23.7812 28.6041 23.4047C28.8048 23.2792 29.1746 23.2009 29.3752 23.0753C28.8678 22.9337 28.3289 22.9647 28.0222 22.6975C26.4884 21.3615 25.0781 21.7846 23.6735 22.6633C22.5757 23.8091 22.593 25.1756 23.1177 26.6838C23.5993 27.4537 24.0121 28.1136 24.3562 28.6636ZM26.3024 25.3037C25.9899 24.581 26.0529 24.2355 26.523 24.0944C26.6233 24.0317 26.8613 24.1889 26.8298 24.3616C26.9358 24.7543 26.5661 24.8326 26.3024 25.3037Z" fill="#5C6674"/>
<path d="M20.6203 18.452C20.7979 16.5045 20.7979 16.5045 22.7414 15.5948C23.0655 17.2285 22.0049 18.6571 20.6203 18.452Z" fill="#D8E3E8"/>
<path d="M15.5698 24.213C16.0026 23.7892 15.9653 23.5064 15.2888 23.3175C14.618 23.5841 14.4747 22.9086 14.0991 22.5314C13.5917 22.3898 13.1731 21.2743 12.7145 22.3264C13.5029 23.3635 14.4547 23.9924 15.5698 24.213Z" fill="#CFDCE3"/>
<path d="M24.3562 28.6636C23.9433 28.0036 23.5993 27.4537 23.1865 26.7938C23.1292 27.5947 23.843 28.0664 24.1555 28.7891C24.2558 28.7263 24.2558 28.7263 24.3562 28.6636Z" fill="#728089"/>
<path d="M20.0218 27.0901C20.2912 27.0746 20.661 26.9963 20.8617 26.8708C20.6553 26.5408 20.2482 26.3364 19.8784 26.4147C19.8469 26.5874 19.8154 26.7602 20.0218 27.0901Z" fill="#E1EBEF"/>
<path d="M15.2888 23.3175C15.0136 22.8776 14.7384 22.4376 14.0991 22.5314C14.4747 22.9086 14.618 23.5841 15.2888 23.3175Z" fill="#E4ECF0"/>
<path d="M39.1672 19.0923C39.3364 19.1395 39.4052 19.2495 39.5055 19.1867C39.9126 19.3912 40.3884 19.7056 40.8958 19.8473C41.3029 20.0517 41.6412 20.1462 41.5466 20.6644C41.4205 21.3554 40.9762 20.8682 40.7067 20.8838C40.0675 20.9776 39.6231 20.4904 39.3794 19.8777C38.9839 20.5842 39.7665 21.1659 39.9098 21.8414C39.9471 22.1241 40.0847 22.3441 39.9529 22.5796C39.7207 22.8779 39.4828 22.7206 39.3452 22.5007C38.7317 21.9662 38.0924 22.0601 37.6596 22.4839C37.1265 22.9704 37.5393 23.6303 37.8833 24.1803C38.6029 25.1074 38.064 25.1385 37.4247 25.2323C37.055 25.3106 36.7855 25.3261 36.4157 25.4044C36.0144 25.6555 35.3752 25.7493 35.6189 26.362C35.9314 27.0847 36.3269 26.3782 36.6967 26.2999C37.0665 26.2216 37.3732 26.4888 37.7803 26.6933C38.1874 26.8977 38.4253 27.0549 38.4826 26.2539C38.5399 25.4529 39.6923 25.9563 40.2685 26.208C40.4376 26.2552 40.4749 26.5379 40.7128 26.6951C41.1887 27.0096 42.298 26.7747 41.9771 28.0467C42.1462 28.0939 42.1462 28.0939 42.3153 28.1412C42.6105 27.4974 43.5823 27.0425 42.255 26.0365C41.5412 25.5648 42.315 22.7853 43.3813 21.8122C43.6135 21.5139 43.9832 21.4356 43.8772 21.0429C43.7023 20.5402 43.4643 20.383 42.9942 20.524C42.6244 20.6023 42.4553 20.5551 42.4495 20.0996C42.4753 19.4713 42.6014 18.7803 43.1718 18.5765C43.6419 18.4355 43.6477 18.891 43.685 19.1737C43.7968 20.0219 44.3042 20.1636 44.9062 19.787C45.3075 19.536 45.7088 19.285 46.3165 19.3639C46.1101 19.0339 45.9352 18.5312 45.8291 18.1385C45.4851 17.5885 45.8118 16.772 44.7655 16.6614C44.4961 16.6769 44.6852 15.6404 44.7798 15.1222C44.9058 14.4312 44.7309 13.9284 44.0229 13.9123C44.0229 13.9123 44.1232 13.8495 44.0544 13.7395C43.9541 13.8023 43.785 13.7551 43.6846 13.8178C42.6241 15.2464 41.6639 16.6123 40.6721 18.1508C40.6721 18.1508 40.6721 18.1508 40.5718 18.2136C40.2451 19.0301 39.4309 18.6212 39.1672 19.0923Z" fill="#C3D3DA"/>
<path d="M30.8974 23.5004C32.1444 23.4855 33.0961 24.1144 33.3141 25.3553C33.4574 26.0308 33.5005 26.769 33.6438 27.4445C34.3204 27.6334 34.0682 29.0154 35.1088 28.6705C34.9023 28.3406 34.2946 28.2616 34.6586 27.7279C34.9223 27.2568 35.2664 27.8068 35.6046 27.9012C36.6567 28.4673 37.7976 28.0597 38.8497 28.6258C39.0934 29.2385 39.6007 29.3802 40.0336 28.9564C39.9648 28.8464 39.8644 28.9092 39.7956 28.7992C39.5577 28.642 39.5892 28.4692 39.8902 28.281C39.5835 28.0138 39.2452 27.9193 39.678 27.4955C39.8787 27.37 40.1109 27.0717 40.3488 27.2289C40.8247 27.5434 40.5925 27.8416 40.4291 28.2499C40.7043 28.6899 41.2375 28.2033 41.4124 28.706C41.8195 28.9105 42.1204 28.7222 42.1147 28.2667C41.9455 28.2195 41.9455 28.2195 41.7764 28.1722C42.1977 26.8375 40.988 27.1351 40.5122 26.8207C40.343 26.7734 40.2369 26.3807 40.0678 26.3335C39.3913 26.1446 38.3392 25.5785 38.2819 26.3794C38.2246 27.1804 37.9867 27.0232 37.5796 26.8188C37.2414 26.7243 36.9346 26.4571 36.496 26.4254C36.1263 26.5037 35.7307 27.2102 35.4182 26.4875C35.1745 25.8748 35.8453 25.6083 36.2151 25.53C36.516 25.3417 36.7855 25.3262 37.2241 25.3578C37.8633 25.264 38.4022 25.233 37.6827 24.3058C37.2383 23.8186 36.9946 23.2059 37.459 22.6094C37.8918 22.1856 38.4622 21.9818 39.1445 22.6262C39.3825 22.7834 39.6204 22.9406 39.7522 22.7051C39.8841 22.4696 39.7465 22.2496 39.7092 21.9669C39.4655 21.3542 38.7517 20.8825 39.1787 20.0032C38.1697 20.1753 37.5735 21.0074 36.6333 21.2895C37.459 22.6094 36.4242 23.4097 35.9971 24.289C35.4697 25.2311 34.7874 24.5867 34.2112 24.335C32.9585 23.8944 31.7515 21.7418 32.0095 20.8153C31.1008 20.9247 30.0229 20.9868 30.8171 22.4794C31.1611 23.0294 30.4846 22.8405 30.2839 22.966C30.691 23.1704 30.7598 23.2804 30.8974 23.5004Z" fill="#CAD8DF"/>
<path d="M31.6976 30.8044C31.5973 30.8672 31.5285 30.7572 31.4282 30.8199C31.497 30.9299 31.5973 30.8672 31.6976 30.8044Z" fill="#57606F"/>
<path d="M28.6729 23.5147C28.071 23.8912 26.8928 24.0161 28.2889 25.1322C28.5956 25.3994 29.384 26.4365 27.9737 26.8597C27.1338 27.079 25.9499 26.7484 25.4225 27.6905C25.4913 27.8005 25.5601 27.9105 25.5601 27.9105C25.9299 27.8322 26.2997 27.7539 26.701 27.5028C27.7846 27.8962 27.2887 28.6655 27.1626 29.3565C28.0398 29.4199 28.0398 29.4199 27.65 30.5819C28.2262 30.8336 28.8024 31.0852 29.4789 31.2741C29.949 31.1331 30.2443 30.4893 30.8205 30.741C31.0899 30.7255 31.2591 30.7727 31.5285 30.7572C31.861 30.3961 32.3999 30.3651 32.526 29.6741C31.7176 29.7207 30.4076 30.0811 31.1614 28.3853C30.6856 28.0708 30.31 27.6936 30.1351 27.1909C29.9602 26.6882 29.9545 26.2327 29.7796 25.73C29.7423 25.4472 29.6362 25.0545 30.006 24.9762C30.3758 24.8979 30.9147 24.8669 30.8574 25.6679C31.0696 26.4533 32.8555 26.4074 31.8264 27.6632C32.4026 27.9149 32.2078 28.4959 32.483 28.9358C33.3917 28.8265 33.1422 27.7583 33.575 27.3345C33.0934 26.5646 33.0131 25.5436 31.6343 25.794C32.669 24.9937 33.1334 24.3971 31.5424 23.8621C31.3733 23.8148 31.2672 23.4221 31.0292 23.2649C30.9604 23.1549 30.8228 22.9349 30.6537 22.8877C30.2839 22.966 29.9141 23.0443 29.6447 23.0598C29.2434 23.3109 28.8736 23.3891 28.6729 23.5147Z" fill="#57606F"/>
<path d="M34.4807 24.3194C35.0569 24.5711 35.808 25.3255 36.2666 24.2735C36.6936 23.3942 37.7284 22.5938 36.9028 21.274C35.9568 21.1006 36.4211 20.504 36.5157 19.9858C36.4469 19.8758 36.3781 19.7658 36.3093 19.6558C35.4951 19.2469 34.6122 18.7281 34.3285 20.2828C34.1394 21.3193 33.3568 20.7377 32.7806 20.486C32.5799 20.6115 32.4796 20.6743 32.2789 20.7998C31.9207 21.7891 33.228 23.8789 34.4807 24.3194Z" fill="#C2D3DB"/>
<path d="M30.2432 14.4217C29.5352 14.4055 29.0593 14.0911 28.6465 13.4311C28.4401 13.1012 28.2336 12.7712 27.8323 13.0223C27.5314 13.2105 27.6374 13.6033 27.8439 13.9332C28.3255 14.7032 28.575 15.7713 28.4173 16.6351C28.3543 16.9806 28.5607 17.3106 28.9305 17.2323C29.8392 17.1229 29.1742 17.845 29.481 18.1122C29.7504 18.0967 30.2205 17.9556 30.4269 18.2856C30.6018 18.7883 30.0629 18.8194 29.7619 19.0076C31.8918 19.5116 30.0399 16.9974 31.2495 16.6998C31.2495 16.6998 31.2438 16.2443 31.175 16.1343C30.937 15.9771 30.7679 15.9298 30.4985 15.9454C30.2663 16.2436 30.0341 16.5419 29.9911 15.8037C29.8477 15.1282 29.9422 14.61 30.8194 14.6734C30.7506 14.5634 30.7133 14.2806 30.6445 14.1706C30.5442 14.2334 30.3436 14.3589 30.2432 14.4217Z" fill="#D3DEE4"/>
<path d="M35.928 18.8231C36.8251 17.8028 37.9087 18.1962 38.8032 19.626C38.9351 19.3905 38.9666 19.2178 39.1672 19.0923C39.7577 17.8047 39.4824 17.3648 38.0979 17.1597C37.1519 16.9863 36.3062 16.7501 35.1223 16.4195C35.8103 17.5194 35.0765 18.1315 34.8501 18.8853C35.2572 19.0897 35.627 19.0114 35.928 18.8231Z" fill="#D3DEE4"/>
<path d="M41.6235 13.4238C40.8524 13.7532 40.0125 13.9725 39.3418 14.2391C38.7713 14.4429 38.5764 15.0239 38.952 15.4011C39.9037 16.03 39.6143 17.1292 40.0271 17.7892C40.0586 17.6164 40.0902 17.4437 40.1905 17.3809C40.6806 16.1561 41.0704 14.9941 41.5605 13.7693C41.592 13.5966 41.592 13.5966 41.6235 13.4238Z" fill="#C3D4DC"/>
<path d="M30.2432 14.4217C30.4439 14.2962 30.5442 14.2334 30.7449 14.1079C31.0286 12.5531 30.372 11.2805 29.8158 9.94508C29.1508 10.6671 30.309 11.626 29.5752 12.2381C29.7185 12.9135 29.9307 13.699 30.2432 14.4217Z" fill="#F9FBFB"/>
<path d="M34.2282 20.3456C34.5119 18.7908 35.2945 19.3725 36.2089 19.7186C36.3723 19.3103 36.0656 19.0431 35.928 18.8231C35.627 19.0114 35.1884 18.9797 34.8816 18.7125C33.8726 18.8846 33.5774 19.5284 33.5889 20.4394C33.2564 20.8004 32.8005 19.4023 32.6114 20.4388C33.2564 20.8004 34.039 21.3821 34.2282 20.3456Z" fill="#CAD8DF"/>
<path d="M30.0599 15.9137C30.2032 16.5891 30.3351 16.3536 30.5673 16.0554C30.9686 15.8043 31.0631 15.2861 30.7879 14.8461C30.0111 14.72 29.9165 15.2382 30.0599 15.9137Z" fill="#F9FBFB"/>
<path d="M30.4269 18.2856C30.3209 17.8928 29.9195 18.1439 29.481 18.1122C29.5182 18.3949 29.6243 18.7877 29.7619 19.0076C30.0629 18.8194 30.6018 18.7883 30.4269 18.2856Z" fill="#FBFDFD"/>
<path d="M27.5829 11.9541C27.5141 11.8441 27.3449 11.7968 27.2446 11.8596C27.044 11.9851 27.0812 12.2679 27.3192 12.4251C27.388 12.5351 27.5571 12.5823 27.6574 12.5195C27.8896 12.2213 27.752 12.0013 27.5829 11.9541Z" fill="#D3DEE4"/>
<path d="M34.9173 37.5131C34.3353 36.8059 33.8537 36.036 33.2717 35.3289C33.1399 35.5644 33.1083 35.7371 32.9077 35.8626C32.9822 36.4281 33.2575 36.8681 33.6015 37.418C34.8715 39.2251 34.8315 41.3925 33.6018 42.7739C33.9459 43.3238 33.3754 43.5277 33.2436 43.7632C34.9979 43.89 35.8894 42.4141 35.6226 39.9795C35.4104 39.194 34.559 38.5024 34.9173 37.5131Z" fill="#FDFFFF"/>
<path d="M33.6018 42.7739C33.5961 42.3184 33.4212 41.8157 32.8507 42.0195C32.5813 42.035 32.6186 42.3178 32.7562 42.5378C32.8938 42.7577 32.9368 43.496 33.6018 42.7739C33.5015 42.8367 33.5015 42.8367 33.6018 42.7739Z" fill="#FBFCFC"/>
<path d="M46.1159 19.4894C45.577 19.5205 45.276 19.7088 44.7055 19.9126C44.1036 20.2891 43.5962 20.1474 43.4843 19.2992C43.3782 18.9065 43.3725 18.451 42.9712 18.7021C42.4007 18.9059 42.2746 19.5969 42.2489 20.2251C42.1543 20.7434 42.4238 20.7278 42.7936 20.6495C43.2637 20.5085 43.5704 20.7757 43.6765 21.1684C43.7826 21.5611 43.4816 21.7494 43.1806 21.9377C42.1143 22.9108 41.3405 25.6903 42.0543 26.162C43.3816 27.1681 42.3411 27.5129 42.1147 28.2667C43.3616 28.2518 44.3019 27.9697 44.9926 26.6194C45.2563 26.1484 46.1908 25.4108 47.2113 26.1496C47.412 26.0241 47.5438 25.7886 47.4062 25.5686C46.6178 24.5315 46.569 23.3378 47.0276 22.2857C46.9273 22.3485 46.827 22.4113 46.827 22.4113C46.526 22.5995 46.3684 23.4633 45.7864 22.7561C45.7864 22.7561 44.7601 21.5618 46.1132 21.9396C46.3826 21.9241 46.1074 21.4841 46.1389 21.3114C46.1332 20.8559 45.6946 20.8242 45.3878 20.557C45.319 20.447 45.2502 20.337 45.2817 20.1642C45.8837 19.7877 46.2592 20.1649 46.7351 20.4793C47.1422 20.6838 47.6181 20.9982 47.7441 20.3072C47.8702 19.6162 47.1995 19.8828 46.8927 19.6156C46.4541 19.5839 46.6863 19.2856 46.5487 19.0656C46.6175 19.1756 46.3165 19.3639 46.1159 19.4894ZM44.1754 23.3048C44.2815 23.6975 44.3188 23.9803 44.0866 24.2785C43.7168 24.3568 43.4789 24.1996 43.3728 23.8069C43.3355 23.5242 43.2983 23.2414 43.5992 23.0531C43.9002 22.8648 44.0693 22.9121 44.1754 23.3048ZM43.9521 26.9643C43.8202 27.1998 43.6511 27.1525 43.4132 26.9953C43.2755 26.7753 43.3071 26.6026 43.5077 26.4771C43.7084 26.3515 43.909 26.226 44.1154 26.556C44.2846 26.6032 44.1527 26.8387 43.9521 26.9643Z" fill="#BCCDD5"/>
<path d="M47.5066 25.5059C47.6442 25.7258 47.5123 25.9613 47.3117 26.0869C46.9419 26.1652 46.6409 26.3534 46.5091 26.589C46.3772 26.8245 46.4833 27.2172 46.7585 27.6572C47.309 28.5371 46.77 28.5681 46.125 28.2065C45.9244 28.332 45.8241 28.3947 45.6234 28.5203C45.3282 29.164 45.7037 29.5412 46.2799 29.7929C47.2632 30.249 47.5211 29.3225 47.8852 28.7887C48.3983 29.3859 47.7964 29.7625 47.9024 30.1552C48.8542 30.7841 49.0748 29.5748 49.8144 29.4182C51.1244 29.0578 50.3103 28.649 49.7656 28.2245C49.2955 28.3656 49.307 29.2766 48.5932 28.8049C48.5444 27.6112 49.5907 27.7218 50.1239 27.2353C49.8744 26.1671 49.5246 25.1616 48.1773 25.2393C48.077 25.302 47.9394 25.0821 47.7702 25.0348C48.3664 24.2028 46.569 23.3378 47.7042 22.4746C47.9048 22.3491 47.899 21.8936 47.492 21.6892C47.254 21.532 47.1222 21.7675 47.1595 22.0502C46.569 23.3378 46.6494 24.3587 47.5066 25.5059Z" fill="#C0D0D7"/>
<path d="M36.2927 29.0011C36.1724 30.1476 35.6822 31.3724 36.9092 32.4412C37.216 32.7084 37.4912 33.1484 37.3966 33.6666C37.3336 34.0121 37.7406 34.2166 38.0101 34.2011C38.3484 34.2955 38.5805 33.9972 38.5117 33.8873C38.3311 32.929 38.6578 32.1125 38.8154 31.2488C38.8785 30.9033 38.4714 30.6988 38.2335 30.5416C37.2502 30.0855 37.4451 29.5045 37.9782 29.0179C37.3647 28.4835 36.8689 29.2528 36.2927 29.0011Z" fill="#CCD9E0"/>
<path d="M31.5028 31.3854C31.9786 31.6998 32.5548 31.9515 33.0995 32.3759C33.0937 31.9204 33.4951 31.6694 33.6642 31.7166C34.8481 32.0472 34.9054 31.2462 34.9627 30.4453C35.0257 30.0998 34.9196 29.707 35.0142 29.1888C34.0109 29.8164 33.452 30.9312 32.1047 31.0088C31.9729 31.2444 31.7722 31.3699 31.5028 31.3854Z" fill="#C8D6DD"/>
<path d="M33.3744 27.46C33.0104 27.9938 33.2598 29.062 32.2823 29.0614C31.9068 28.6842 32.1017 28.1032 31.6258 27.7887C31.4939 28.0242 31.2618 28.3225 31.0611 28.448C30.3073 30.1438 31.7176 29.7207 32.4257 29.7368C32.2996 30.4278 31.7607 30.4589 31.4282 30.8199C31.5285 30.7572 31.5973 30.8672 31.6976 30.8044C31.8668 30.8516 31.9671 30.7889 32.1362 30.8361C33.409 30.193 33.7299 28.9209 33.3744 27.46Z" fill="#5C6674"/>
<path d="M33.2452 25.2453C33.0273 24.0044 32.0756 23.3755 30.8286 23.3904C30.9662 23.6104 31.0723 24.0031 31.3417 23.9876C32.9327 24.5226 32.4684 25.1192 31.4336 25.9195C32.8124 25.6691 32.8928 26.6901 33.3744 27.46C33.4747 27.3973 33.4747 27.3973 33.575 27.3345C33.4317 26.659 33.3886 25.9208 33.2452 25.2453Z" fill="#5C6674"/>
<path d="M35.5358 27.7912C35.2979 27.634 34.9223 27.2568 34.5898 27.6179C34.3261 28.0889 34.9023 28.3406 35.0399 28.5605C35.5416 28.2467 35.8168 28.6867 36.2239 28.8911C36.8001 29.1428 37.2959 28.3735 37.9094 28.9079C38.2477 29.0024 38.4799 28.7041 38.6117 28.4686C37.7288 27.9497 36.5191 28.2474 35.5358 27.7912Z" fill="#F9FBFB"/>
<path d="M45.6895 31.0804C44.9442 30.7815 44.2419 31.2209 43.4277 30.812C42.7827 30.4503 41.8683 30.1042 41.8168 31.3607C42.6939 31.4241 43.6714 31.4247 44.5486 31.4881C45.1248 31.7398 45.4946 31.6615 45.6895 31.0804Z" fill="#FAFBFC"/>
<path d="M36.4022 37.6554C36.8035 37.4044 37.1045 37.2161 36.7604 36.6661C36.4537 36.3989 36.4106 35.6607 35.8402 35.8645C35.2698 36.0683 35.8832 36.6028 35.6195 37.0738C35.8575 37.231 36.1642 37.4982 36.4022 37.6554Z" fill="#CFDCE2"/>
<path d="M45.9932 28.442C46.2254 28.1437 46.3887 27.7354 45.8183 27.9393C45.2479 28.1431 44.5771 28.4096 44.1815 29.1162C44.8954 29.5878 44.9154 28.5041 45.4916 28.7558C45.6922 28.6303 45.7925 28.5675 45.9932 28.442Z" fill="#F5F9FA"/>
<path d="M40.5294 28.1871C40.26 28.2027 40.0909 28.1554 39.8214 28.171C39.5204 28.3593 39.4889 28.532 39.7268 28.6892C39.7956 28.7992 39.7956 28.7992 39.9648 28.8464C40.5037 28.8154 41.0799 29.067 41.5127 28.6433C41.269 28.0306 40.6355 28.5799 40.5294 28.1871Z" fill="#EBF1F4"/>
<path d="M46.5036 31.4893C46.604 31.4266 46.5667 31.1438 46.5667 31.1438C46.2915 30.7039 45.959 31.0649 45.7583 31.1904C45.8959 31.4104 46.1023 31.7404 46.5036 31.4893Z" fill="#F7FAFB"/>
<path d="M34.8139 34.6702C35.0145 34.5447 35.3155 34.3564 35.5162 34.2309C35.5907 34.7963 35.5965 35.2518 34.8139 34.6702Z" fill="#C8D6DD"/>
<path d="M45.7657 13.1281C45.9033 13.3481 46.1098 13.678 46.2474 13.898C47.5574 13.5376 46.3619 12.296 46.8263 11.6995C46.7575 11.5895 46.6887 11.4795 46.6887 11.4795C46.1497 11.5106 45.4675 10.8662 45.0031 11.4627C44.8397 11.871 44.7452 12.3892 44.5818 12.7975C44.8255 13.4102 45.3587 12.9236 45.7657 13.1281Z" fill="#C2D3DB"/>
<path d="M45.6105 6.18577C45.642 6.01301 45.6735 5.84026 45.6047 5.73027C45.298 5.46307 44.9282 5.54135 44.7275 5.66687C44.5269 5.7924 44.4954 5.96515 44.633 6.18513C44.8709 6.34235 45.1404 6.32682 45.6105 6.18577Z" fill="#C7D6DE"/>
<path d="M47.7097 108.169C47.4087 108.357 47.4833 108.923 47.79 109.19C48.4723 109.834 49.037 109.175 49.5386 108.861C48.9309 108.782 48.4808 107.839 47.7097 108.169Z" fill="#615C55"/>
<path d="M56.0629 107.687C56.4757 108.347 57.3529 108.411 57.6654 109.133L58.0667 108.882C57.5536 108.285 56.9716 107.578 56.0629 107.687Z" fill="#2F2A26"/>
<path d="M46.2474 13.898C46.1528 14.4163 45.9894 14.8245 46.8981 14.7152C47.7065 14.6686 48.7155 14.4965 49.4036 15.5963C49.6042 15.4708 49.9052 15.2825 50.1059 15.157C49.7303 14.7798 50.295 14.1205 49.65 13.7589C48.9362 13.2872 48.9362 13.2872 49.4321 12.5179C48.423 12.69 47.9987 11.1191 46.9266 11.6367C46.3619 12.296 47.5574 13.5376 46.2474 13.898Z" fill="#BBCCD4"/>
<path d="M44.513 12.6875C44.3496 13.0958 44.0171 13.4568 43.8538 13.8651C43.8538 13.8651 43.7534 13.9278 43.8222 14.0378C44.5991 14.164 44.7052 14.5567 44.5791 15.2477C44.4845 15.7659 44.3957 16.7397 44.5649 16.7869C45.6112 16.8975 45.3532 17.824 45.6285 18.264C46.0671 18.2957 46.4684 18.0446 46.8124 18.5946C47.0446 18.2963 47.4144 18.218 46.97 17.7308C45.2987 16.1748 45.0492 15.1066 45.7657 13.1281C45.3587 12.9236 44.8255 13.4102 44.513 12.6875Z" fill="#BCCDD5"/>
<path d="M49.4036 15.5963C49.547 16.2718 50.0917 16.6962 49.7649 17.5128C49.6015 17.921 50.1777 18.1727 50.5475 18.0944C50.6106 17.7489 50.6421 17.5762 50.7051 17.2307C50.7309 16.6024 50.7567 15.9742 50.7509 15.5187C50.7451 15.0632 50.4069 14.9687 50.1059 15.157C49.8049 15.3453 49.6042 15.4708 49.4036 15.5963Z" fill="#A7BBC3"/>
<path d="M45.6285 18.264C45.6342 18.7195 45.7403 19.1122 46.1159 19.4894C46.3165 19.3639 46.6175 19.1756 46.8182 19.0501C46.8497 18.8773 46.8812 18.7046 46.8812 18.7046C46.5372 18.1546 46.0671 18.2957 45.6285 18.264Z" fill="#D0DDE2"/>
<path d="M36.4022 37.6554C36.1012 37.8437 35.6311 37.9848 35.7687 38.2047C36.0439 38.6447 36.5198 38.9591 36.9957 39.2736C37.2336 39.4308 37.4973 38.9598 37.46 38.677C37.5861 37.986 37.0472 38.0171 36.6401 37.8126C36.5398 37.8754 36.471 37.7654 36.4022 37.6554Z" fill="#C3D3DA"/>
<path d="M51.542 14.1056C51.6796 14.3256 51.8487 14.3728 51.9806 14.1373C52.1124 13.9018 52.2443 13.6663 52.2758 13.4936C52.1382 13.2736 51.7684 13.3519 51.5677 13.4774C51.4359 13.7129 51.4044 13.8856 51.542 14.1056Z" fill="#C9D7DD"/>
<path d="M38.3657 80.9592C38.5291 80.551 38.1908 80.4565 37.7207 80.5976C37.6892 80.7703 37.5889 80.8331 37.6577 80.9431C37.6634 81.3986 37.7695 81.7913 38.1451 82.1685C38.3515 82.4984 38.4891 82.7184 38.8274 82.8129C38.4833 82.2629 38.039 81.7758 38.3657 80.9592Z" fill="#2C2823"/>
<path d="M27.2314 29.4665C27.1311 29.5292 27.0308 29.592 27.0308 29.592C27.0365 30.0475 26.7671 30.063 26.4603 29.7958C26.3915 29.6858 26.1536 29.5286 26.2539 29.4658C26.3858 29.2303 26.6237 29.3875 26.8243 29.262C26.3112 28.6648 27.045 28.0528 26.701 27.5028C26.3312 27.5811 25.9614 27.6594 25.5601 27.9105C25.6347 28.4759 25.778 29.1514 24.9008 29.088C25.5201 30.0779 26.0763 31.4133 27.6185 30.7546C28.1086 29.5299 28.1086 29.5299 27.2314 29.4665Z" fill="#63707B"/>
<path d="M25.5601 27.9105C25.4913 27.8005 25.4225 27.6905 25.4225 27.6905C24.3762 27.5798 24.7575 28.4125 24.5626 28.9935C24.7317 29.0408 24.9008 29.088 24.9697 29.198C25.8784 29.0886 25.6347 28.4759 25.5601 27.9105Z" fill="#728089"/>
<path d="M29.4474 31.4469C30.0236 31.6986 30.3876 31.1648 30.7889 30.9137C30.2127 30.6621 29.8487 31.1959 29.4474 31.4469Z" fill="#5C6674"/>
<path d="M26.4542 23.9844C26.0529 24.2355 25.9899 24.581 26.2336 25.1937C26.5661 24.8326 26.9674 24.5816 26.7925 24.0789C26.7925 24.0789 26.5545 23.9217 26.4542 23.9844Z" fill="#CBD7DD"/>
<path d="M39.3479 20.0505C39.4797 19.8149 39.6116 19.5794 39.5055 19.1867C39.3364 19.1395 39.2676 19.0295 39.1672 19.0923C39.0354 19.3278 39.0039 19.5005 38.8032 19.626C38.0321 19.9554 37.2237 20.002 36.4154 20.0486C36.4211 20.504 35.9568 21.1006 36.8024 21.3367C37.7427 21.0546 38.4392 20.1598 39.3479 20.0505Z" fill="#FAFCFC"/>
<path d="M39.3479 20.0505C39.5916 20.6632 39.9671 21.0404 40.6752 21.0565C40.9446 21.041 41.4893 21.4654 41.5151 20.8372C41.6096 20.3189 41.2026 20.1145 40.8643 20.02C40.3569 19.8783 39.881 19.5639 39.474 19.3595C39.6116 19.5794 39.5801 19.7522 39.3479 20.0505Z" fill="#CFDBE1"/>
<path d="M40.5294 28.1871C40.6928 27.7789 40.925 27.4806 40.4491 27.1662C40.1424 26.899 39.9102 27.1972 39.7783 27.4327C39.2767 27.7465 39.6838 27.951 39.9905 28.2182C39.9905 28.2182 40.26 28.2027 40.5294 28.1871Z" fill="#C3D3DA"/>
<path d="M31.5255 27.8515C32.5545 26.5956 30.8689 26.5788 30.5564 25.8561C29.4786 25.9183 30.5737 27.2226 29.8341 27.3792C30.1094 27.8191 30.3846 28.2591 30.8605 28.5735C31.2618 28.3225 31.3936 28.087 31.5255 27.8515Z" fill="#697A80"/>
<path d="M30.6568 25.7934C30.7828 25.1024 30.1751 25.0235 29.8053 25.1017C29.4355 25.18 29.5416 25.5728 29.5789 25.8555C29.6535 26.421 29.7596 26.8137 29.9345 27.3164C30.674 27.1598 29.6477 25.9655 30.6568 25.7934Z" fill="#5C6674"/>
<path d="M26.7928 29.4348C26.8616 29.5448 26.8616 29.5448 26.9304 29.6547C27.0308 29.592 27.1311 29.5292 27.1311 29.5292C27.2572 28.8382 27.753 28.0689 26.6694 27.6756C27.1138 28.1627 26.38 28.7748 26.7928 29.4348Z" fill="#5C6674"/>
<path d="M38.8032 19.626C38.0091 18.1334 36.8251 17.8028 35.928 18.8231C36.1344 19.1531 36.272 19.3731 36.2089 19.7186C36.2778 19.8286 36.3466 19.9386 36.4154 20.0486C37.2237 20.002 38.0321 19.9554 38.8032 19.626Z" fill="#CEDBE2"/>
<path d="M43.6996 22.9904C43.3986 23.1787 43.4359 23.4614 43.4731 23.7441C43.5792 24.1369 43.8172 24.2941 44.187 24.2158C44.4191 23.9175 44.3819 23.6348 44.2758 23.242C44.0693 22.9121 43.9002 22.8648 43.6996 22.9904Z" fill="#CAD9DD"/>
<path d="M43.5077 26.4771C43.3071 26.6026 43.3444 26.8853 43.4132 26.9953C43.5508 27.2153 43.7514 27.0898 43.9521 26.9643C44.0524 26.9015 44.1154 26.556 44.0466 26.446C44.0782 26.2733 43.7084 26.3515 43.5077 26.4771Z" fill="#C3D3DA"/>
<path d="M26.7928 29.4348C26.5234 29.4503 26.2854 29.2931 26.2224 29.6386C26.2224 29.6386 26.36 29.8586 26.4288 29.9685C26.7355 30.2358 26.9362 30.1102 26.9992 29.7647C26.8616 29.5448 26.8616 29.5448 26.7928 29.4348Z" fill="#87969C"/>
</svg>
