<svg width="101" height="188" viewBox="0 0 101 188" fill="none" xmlns="http://www.w3.org/2000/svg">
<path d="M33.7191 80.0354C36.0885 83.4818 36.5731 87.5745 39.3195 90.2131C37.2732 82.5664 34.2576 75.2966 31.9959 67.7575C30.7035 63.3418 29.088 58.9799 28.2802 54.5104C27.3109 49.1792 25.9646 43.9557 25.0492 38.6245C24.9953 38.5707 24.8876 38.5168 24.8338 38.4091C23.8106 38.8938 24.9415 40.5093 23.7029 40.8324C25.7492 53.4872 29.1957 65.8189 32.7498 78.6892C30.8112 77.5044 30.4881 75.5658 29.0341 74.8119C28.9264 75.4581 29.2495 76.3197 28.2802 76.4813C27.4724 76.6429 26.557 77.1814 25.9108 75.9966C25.6415 75.512 24.9953 75.2427 24.5107 74.9196C23.1644 75.8351 23.3798 74.3273 22.249 74.058C23.9722 73.4118 23.9183 74.7042 24.5107 74.9196C24.4568 74.0042 24.6722 73.2503 25.5338 72.8195C26.1262 73.1964 24.9953 74.2734 25.9108 74.3273C27.0416 74.3811 26.0185 72.981 26.7185 72.6579C24.3491 70.7193 21.7105 70.827 19.0179 71.5809C18.3717 71.7425 17.4563 71.8502 17.4563 72.6579C17.4024 73.4118 18.0486 74.1119 18.6948 74.4888C21.5489 76.1582 24.6722 77.0736 27.5801 78.7969C30.4881 80.4662 33.0729 82.1356 34.8499 85.0973C35.1192 83.428 33.6652 82.2433 33.7191 80.0354Z" fill="#544D47"/>
<path d="M72.8682 162.157C72.4374 162.103 71.9528 162.103 71.522 162.049C72.4374 162.696 71.9528 163.665 72.0066 164.473C72.4374 164.311 73.0298 163.719 73.3529 164.15C73.7837 164.796 73.0298 165.334 72.8682 165.98C76.3147 166.304 78.6302 168.35 80.515 171.258C81.0535 172.119 82.0228 172.658 82.9382 172.873C86.8155 173.95 89.0772 177.289 91.5543 180.089C93.6545 182.566 95.7546 184.882 98.3394 186.767C98.8241 187.09 99.4703 187.413 99.9549 186.767C100.386 186.228 99.9011 185.797 99.6318 185.313C97.9086 182.513 95.3238 180.574 93.3852 178.043C89.5618 173.089 84.4461 169.642 80.0842 165.334C77.2301 162.48 75.0223 159.195 72.4374 156.18C70.4988 153.918 69.5295 150.795 67.4832 148.587C67.0524 149.825 68.3448 151.495 66.6216 152.41C68.7218 155.426 70.8219 158.441 72.9221 161.457C72.9221 161.726 73.299 161.996 72.8682 162.157ZM76.0993 164.15C76.4762 163.611 77.0686 164.365 77.3917 164.903C79.5995 165.927 80.9458 167.865 82.0766 170.396C79.3841 169.75 78.7379 167.057 76.907 165.927C76.3147 165.496 75.5608 164.85 76.0993 164.15Z" fill="#544D47"/>
<path d="M59.7288 47.7791C59.7826 47.8329 60.1596 47.6175 60.2673 47.456C60.8596 46.5405 60.8596 46.5405 61.5597 47.6175C62.3674 47.8868 61.075 45.6789 62.2597 46.8098C64.0906 48.533 65.76 48.3176 67.5371 46.9175C67.8602 46.6482 68.2371 46.6482 68.5064 46.9713C68.291 48.8561 64.5753 48.533 66.0293 51.4409C65.8139 52.141 65.0061 53.0564 66.4601 53.3257C67.3755 53.1103 68.1833 52.7872 68.7756 51.9256C68.1294 50.687 69.2603 49.9869 69.7449 49.3407C70.7681 47.9945 71.6297 46.5944 72.5451 45.1943C72.3297 44.3865 72.1143 43.6326 71.8989 42.8249C71.3066 42.6095 70.7142 42.4479 70.068 42.2325C69.5295 42.6633 69.0987 43.3634 68.291 43.2557C68.0756 43.5788 67.8602 43.9019 67.6448 44.1711C67.1601 44.8173 66.5678 45.5174 65.8139 45.3558C64.8445 45.1404 65.2215 44.0634 65.1138 43.3095C64.5214 42.6633 63.9291 42.0171 63.2829 41.3709C63.0136 41.3709 62.6905 41.3709 62.4213 41.3709C62.3136 41.4786 62.152 41.5324 61.9905 41.5324C61.8289 41.8017 61.6135 42.0709 61.452 42.3402C61.3981 42.8787 61.5597 43.4711 61.075 43.848C60.9673 43.7942 60.8058 43.848 60.6981 43.7403C59.998 42.9326 60.0519 40.9939 58.5979 41.4248C57.3055 41.8017 57.5748 43.3634 57.5748 44.6019C57.5748 45.4635 57.4132 46.3251 57.3055 47.1867C57.5209 47.6175 57.7363 48.1022 57.8979 48.533C58.6518 48.4253 58.4364 46.2713 59.7288 47.7791Z" fill="#594E47"/>
<path d="M21.7105 37.1167C20.3642 36.4167 21.3874 35.6628 21.172 34.9089C22.4105 35.0166 22.4644 36.2013 23.1644 36.5782C23.2721 35.932 22.7875 34.9627 23.7029 34.8012C24.6722 34.6396 24.4568 35.7705 24.7261 36.309C25.0492 36.9552 24.9415 37.7091 24.7799 38.4091C24.8338 38.463 24.9415 38.5168 24.9953 38.6245C26.3416 35.9859 28.1725 33.9396 30.8112 32.7549C31.0804 32.3241 30.9727 31.8932 30.7035 31.4624C30.7035 31.4086 30.6496 31.4086 30.6496 31.4086C30.5958 31.5701 30.4881 31.6778 30.3265 31.7855C29.788 31.247 29.3034 30.6547 28.4956 31.3009C28.2263 31.7855 27.9032 32.2702 27.634 32.701C26.18 33.6165 24.2953 32.0548 22.949 33.7242C22.6798 34.0473 22.3567 33.5088 22.1951 33.1857C22.249 32.7549 22.0336 32.1625 22.5182 32.0009C23.0029 31.8394 23.0029 32.3779 23.1106 32.701C23.2183 31.247 24.5645 29.9546 23.4875 28.393C23.2183 28.6084 22.7875 29.093 22.6798 29.0392C21.7105 28.4468 22.7875 27.6391 22.6259 26.939C22.0336 27.316 21.7105 27.2083 21.4951 26.4544C21.172 25.4851 20.795 24.5158 20.4181 23.6003C20.1488 23.4388 19.8795 23.2234 19.6103 23.0618C17.9948 22.7387 17.6178 24.6773 16.3793 25.0543C16.6485 27.2083 17.564 29.0392 18.641 30.8162C18.264 32.9164 18.264 32.9164 19.5026 34.155C20.095 34.155 20.2027 34.4781 20.1488 35.0704C20.095 35.7705 19.718 35.4474 19.3949 35.3935C18.8564 35.2858 18.264 35.2858 17.6717 35.232C17.8332 35.7166 17.9948 36.1474 18.1563 36.6321C18.5871 37.1167 19.0718 37.6014 19.5026 38.086C20.095 38.1937 20.6335 38.3553 21.2258 38.3553C22.4105 38.4091 22.3028 37.4398 21.7105 37.1167ZM19.718 26.5082C19.4487 26.5082 19.341 26.3467 19.5564 26.0774C19.7719 25.862 19.9873 25.7005 20.2565 25.5389C20.3104 25.7005 20.3104 25.8082 20.3642 25.9697C20.3104 26.2928 20.095 26.5082 19.718 26.5082Z" fill="#554D47"/>
<path d="M24.4568 5.02195C24.0799 6.26051 23.9183 7.55291 23.8106 8.89917C23.7029 7.49906 23.4875 6.20666 22.1951 5.5066C21.9259 6.0451 21.6566 6.58361 21.2797 7.06826C21.1181 7.28366 20.7412 7.33751 20.4719 7.33751C20.095 7.33751 19.9873 6.96056 20.095 6.63746C20.8489 5.1835 19.3949 4.59115 19.0179 3.62184C17.9948 5.12965 16.8639 6.63746 18.5871 8.41452C19.1795 8.19912 20.2565 7.66061 19.718 8.95302C18.8025 11.107 19.0179 13.4226 18.5871 15.6305C19.0718 16.3305 19.7719 16.0613 20.4181 16.1151C21.0104 15.7382 21.0643 14.8766 21.8182 14.715C21.9259 13.5841 22.5182 12.9379 23.5952 12.7764C24.8876 11.9686 26.6108 12.2379 27.634 10.8378C27.634 10.6762 27.6878 10.5685 27.6878 10.407C27.9571 9.22227 26.7724 8.57607 26.7724 7.49906C26.7724 6.96056 25.7492 6.79901 26.3416 6.0451C26.3954 5.5066 26.3416 4.9681 25.9646 4.59115C25.4261 4.5373 24.8338 4.4296 24.4568 5.02195Z" fill="#E49B88"/>
<path d="M70.445 165.173C71.0912 165.388 71.522 164.903 71.9528 164.473C70.9835 163.18 69.5295 163.934 68.3448 163.557C68.1294 163.826 67.8063 163.988 67.6448 163.719C67.2678 163.18 67.3217 162.588 67.8602 162.103C67.8602 161.942 67.8602 161.726 67.8602 161.565C67.4294 161.565 66.8909 161.726 66.5139 161.565C64.0906 160.488 62.0982 161.403 59.8903 162.588C58.221 163.503 58.1671 165.388 57.0363 166.573C56.5516 167.057 55.9054 167.919 56.3901 168.619C56.9286 169.373 57.844 169.75 58.8133 169.265C59.1903 168.727 59.7288 168.511 60.3211 168.404C62.8521 166.357 65.8677 166.573 68.8295 166.519C68.9372 164.634 68.9372 164.634 70.445 165.173Z" fill="#56504B"/>
<path d="M61.6135 117.677C62.4213 116.169 61.8828 113.907 63.1752 112.884C65.2754 111.215 66.2447 108.576 68.3448 106.961C68.0756 106.261 66.9986 106.853 66.7293 105.83C67.8602 105.56 68.8295 105.991 69.7449 106.584C70.3911 106.691 70.8219 105.56 71.5758 106.153C72.3836 106.799 73.1375 106.637 73.3529 105.722C73.6222 104.645 72.7605 103.999 71.8989 103.676C68.6141 102.599 66.0831 103.73 64.2522 106.853C63.6598 107.822 63.229 108.953 62.0982 109.545C61.9366 109.707 61.8828 109.868 61.7751 109.976C61.7212 110.73 61.6135 111.484 61.3443 112.238C61.2904 112.292 61.2366 112.346 61.1827 112.346C61.3443 112.507 61.5058 112.615 61.6135 112.776C61.5058 113.207 61.8289 114.069 61.075 113.907C60.4288 113.746 60.7519 112.884 60.6981 112.346C60.1596 112.938 59.2441 111.969 58.8133 112.938C58.3825 115.846 58.1671 118.7 59.2441 121.554C60.3211 119.723 59.4595 117.354 60.8058 115.254C61.1289 116.169 61.3981 116.923 61.6135 117.677Z" fill="#57514B"/>
<path d="M47.074 112.776C47.5048 112.776 47.8817 112.615 48.0433 112.13C46.32 109.761 45.0815 107.068 44.4353 104.214C43.3583 99.6908 41.4197 95.5443 39.8042 91.2901C39.3734 91.2901 40.0196 93.5518 38.7272 91.8286C38.2964 91.2363 37.6502 90.7516 37.1116 90.267C36.8962 92.4748 38.4041 94.0903 38.8887 96.0289C40.3427 101.899 43.0352 107.284 45.3507 112.776C45.9431 112.238 46.5355 112.346 47.074 112.776Z" fill="#544F48"/>
<path d="M59.7288 73.9503C59.7288 74.1119 59.7288 74.2734 59.7288 74.435C59.7288 75.0812 59.7288 75.7274 59.7288 76.3197C59.7288 78.3661 59.7826 80.4662 59.7826 82.5125C60.2134 82.351 60.7519 83.1049 61.1289 82.4048C60.5904 80.0354 62.3136 78.1507 62.3674 75.9966C62.4751 72.5502 62.4213 69.0499 62.3674 65.6035C62.3136 62.9649 62.0443 60.3262 62.9598 57.7952C62.7982 57.5798 62.6905 57.3644 62.529 57.0952C61.5058 57.7414 61.6674 56.449 61.1827 56.1797L61.1289 56.2336C61.075 56.6105 61.075 56.9336 61.0212 57.3106C60.5904 61.5648 60.1596 65.8189 59.7288 70.0731C59.7288 71.4194 59.7288 72.7118 59.7288 73.9503Z" fill="#554F48"/>
<path d="M19.5026 34.2088C18.264 32.9703 18.264 32.9703 18.641 30.8701C18.3179 31.624 17.7794 31.3547 17.4024 31.0316C16.2716 30.1162 14.9253 29.7931 13.6329 29.3623C13.1483 29.2546 12.7175 29.1469 12.2328 29.0392C11.6405 29.3623 12.5559 31.3009 11.0481 30.4393C10.2942 30.0085 8.84024 29.47 10.0249 27.9622C9.54029 27.6929 9.10949 27.3698 8.62484 27.1006C7.60168 27.5314 6.57853 26.6159 5.55537 27.1544C5.17842 28.9315 5.01687 30.8162 7.22473 31.1932C8.62484 31.4086 9.70185 32.2164 10.8866 32.7549C11.8559 32.3779 12.6098 32.4317 12.8252 33.7242C14.2791 35.3935 16.6485 35.0704 18.1563 36.5782C17.9948 36.0936 17.8332 35.6628 17.6717 35.1781C17.9409 34.1011 18.9641 34.6935 19.5026 34.2088Z" fill="#564F48"/>
<path d="M64.8446 139.971C64.2522 135.555 63.6598 131.085 63.0136 126.67C62.5828 123.762 62.0982 120.854 61.6674 117.946C60.2134 120.315 60.7519 123.223 59.7826 125.7C59.6749 126.562 59.998 127.424 60.0519 128.285C60.4288 131.624 61.7212 134.801 61.5058 138.194C62.2597 139.54 63.0675 140.779 64.8446 139.971ZM61.1289 124.354C60.9673 124.3 60.8596 124.031 60.7519 123.87C60.8058 123.439 60.9135 123.169 61.2904 123.223C61.3981 123.223 61.5058 123.6 61.5058 123.816C61.5058 124.031 61.6135 124.516 61.1289 124.354Z" fill="#59534D"/>
<path d="M53.4283 123.17C53.3206 123.493 53.3744 124.139 52.8898 123.923C52.1897 123.6 52.6205 122.846 52.5128 122.254C51.9205 118.969 49.5511 116.654 48.3664 113.692C47.2355 114.392 47.0201 113.746 47.074 112.723C46.4816 112.346 45.9431 112.238 45.3507 112.723C48.2587 117.623 50.8435 122.739 53.2129 127.962C54.236 130.17 54.9899 132.486 56.5516 134.317C57.1978 134.155 57.7902 133.94 58.4364 133.778C57.6825 129.793 55.5284 126.508 53.4283 123.17ZM54.8822 129.793C54.8284 128.931 54.613 128.393 55.0438 128.016C55.0976 127.962 55.5823 128.231 55.69 128.447C56.0131 129.147 55.313 129.255 54.8822 129.793Z" fill="#554F48"/>
<path d="M57.6825 44.6558C57.6825 43.4172 57.4132 41.8556 58.7056 41.4786C60.1596 41.0478 60.1057 42.9326 60.8058 43.7942C60.8596 43.848 61.0212 43.848 61.1827 43.9019C61.6674 43.5249 61.5058 42.9326 61.5597 42.3941C60.5365 41.5325 59.0826 40.7247 61.3981 39.2707C61.6674 40.1323 61.8828 40.8862 62.0982 41.6402C62.2597 41.6402 62.3674 41.5325 62.529 41.4786C62.529 40.7247 62.529 40.0246 63.4983 40.0785C63.606 39.9169 63.7675 39.7554 63.8752 39.5938C63.7675 39.5938 63.606 39.5938 63.4983 39.5938C62.8521 38.1399 60.9673 38.1399 60.2673 36.7398C59.6211 37.3321 59.0287 37.9245 57.8979 38.9476C58.4902 37.0629 58.221 35.932 57.5209 34.8012C56.9286 35.1243 57.1978 36.309 56.1747 36.2551C56.0131 36.4167 55.8516 36.5782 55.7439 36.7398C55.7439 37.7091 55.7439 38.6784 55.7439 39.5938C55.7977 41.4786 54.3437 40.6708 53.4821 40.9939C53.4821 41.1555 53.4821 41.317 53.4821 41.5324C53.6975 41.8555 53.8591 42.2325 54.1822 42.3941C55.8516 43.4172 55.3669 44.1173 53.9668 44.8173C54.5591 45.302 55.1515 45.8405 55.7439 46.3251C55.8516 46.1097 56.067 45.6251 56.1208 45.6789C56.767 45.9482 57.144 46.4867 57.144 47.2406C57.2517 47.2944 57.3594 47.3483 57.5209 47.2944C57.5209 46.379 57.6825 45.5174 57.6825 44.6558ZM56.3901 37.9245C56.4439 37.8168 56.7132 37.7091 56.9286 37.7091C57.0901 37.7091 57.1978 37.9245 57.4132 38.1399C57.144 38.3014 56.9824 38.463 56.8209 38.5168C56.4978 38.463 56.2824 38.2476 56.3901 37.9245Z" fill="#E7AA99"/>
<path d="M65.1677 144.333C65.1138 143.956 65.1677 143.363 64.9523 143.202C63.3367 142.125 63.9291 141.048 64.8446 139.917C63.0675 140.725 62.2597 139.54 61.5597 138.086C60.5365 136.632 59.4595 135.232 58.4364 133.778C57.7902 133.94 57.1978 134.155 56.5516 134.317C57.844 138.194 60.2134 141.425 61.9366 145.087C62.9059 147.079 63.8752 149.125 65.5446 150.687C65.3292 148.318 64.0368 146.217 64.0368 143.74C64.4137 143.956 64.7907 144.117 65.1677 144.333Z" fill="#544F48"/>
<path d="M61.6135 106.045C62.9059 104.053 62.3674 102.222 61.1827 100.445C60.3211 98.7215 59.8903 96.9983 61.2366 95.3289C61.075 94.8981 61.2904 94.3057 60.7519 94.0365C60.1596 94.5211 59.5134 94.1442 58.921 94.0903C58.4364 99.2061 57.9517 104.268 58.4902 109.384C58.5979 109.276 58.7595 109.222 58.8672 109.115C59.7826 108.091 59.5134 105.884 61.6135 106.045Z" fill="#5A544F"/>
<path d="M27.634 26.5621C27.5801 26.4544 27.5263 26.3467 27.4186 26.239C27.4724 26.3467 27.5263 26.4544 27.634 26.5621Z" fill="#564F48"/>
<path d="M32.1574 18.4307C31.8343 19.9385 30.4342 20.9078 30.3265 22.5233C29.6803 23.1695 30.5419 25.2158 28.5494 24.6235C28.3879 24.3004 28.2263 23.9773 28.1186 23.6542C27.5801 24.5158 27.9032 25.5928 27.6878 26.5082C28.6033 26.1313 29.4111 25.5928 30.2727 26.8852C30.8112 27.7468 31.942 28.2853 33.1806 27.9622C34.6884 24.8389 35.7115 21.7155 33.9345 18.323C33.2883 18.3768 32.7498 18.4307 32.1574 18.4307ZM32.5882 25.9697C32.4805 26.0236 32.2113 25.862 31.9959 25.8082C32.3728 24.8927 32.6959 24.0311 33.0729 23.1156C33.1806 24.1388 33.7729 25.3235 32.5882 25.9697Z" fill="#564F48"/>
<path d="M55.69 36.6321C55.8516 36.4705 56.0131 36.309 56.1208 36.1474C55.4746 35.6628 54.6668 35.2858 54.9361 34.1011C56.3362 34.155 56.1208 35.232 56.1208 36.1474C57.0901 36.2551 56.8747 35.0704 57.4671 34.6935C58.8133 34.155 59.3518 31.8394 61.5058 32.8626C61.9366 33.078 61.9905 31.5163 62.4213 30.8701C64.1983 29.6315 64.6292 31.5163 65.5985 32.324C65.7062 32.7548 65.8139 33.4011 66.3524 33.0241C67.3217 32.3241 66.0293 31.9471 66.0831 31.3547C64.5214 29.3623 63.0136 29.093 60.8058 30.6547C58.8133 32.0009 56.9824 33.9934 54.4514 31.624C54.3437 31.5163 53.8052 31.8394 53.4283 31.9471C53.2129 33.9934 53.8591 35.6089 55.69 36.6321Z" fill="#E29582"/>
<path d="M53.4283 41.4248C53.4283 41.2632 53.4283 41.1016 53.4283 40.8862C53.2667 38.7861 54.236 38.6784 55.69 39.4861C55.69 38.5168 55.69 37.5475 55.69 36.6321C53.8591 35.6628 53.2667 33.9934 53.4283 31.8932C53.1052 32.0548 52.8359 32.1625 52.5128 32.324C52.7282 33.2934 52.8898 34.3165 53.1052 35.2858C52.6205 35.7705 52.2436 34.4781 51.8128 35.1781C51.2743 36.0397 52.3513 36.5244 52.2974 37.4398C51.5974 37.386 50.7896 36.9013 50.2511 37.4398C50.1434 37.6014 50.0357 37.8168 49.928 37.9783C49.8203 38.4091 49.928 38.7861 50.2511 39.0553C50.4665 38.6245 50.6819 38.1399 51.2204 38.3014C51.6512 38.4091 52.4051 37.7629 52.459 38.6784C52.5128 39.54 51.8128 38.9476 51.4897 39.1092C51.1127 39.3246 50.7358 39.6477 50.3588 39.8631C50.2511 41.2632 51.2743 41.9633 52.0282 42.8787C52.2974 42.2864 52.7821 41.7479 53.4283 41.4248Z" fill="#E6A08F"/>
<path d="M5.17842 13.9611C5.93232 15.1997 4.69377 15.4151 3.67061 15.0381C3.56291 16.6536 3.61676 18.2691 5.01687 19.3461C5.33997 19.1846 5.60922 19.023 5.93232 18.8615C5.60922 18.2691 5.33997 17.6768 5.01687 17.0844C5.60922 16.4382 5.93232 17.5691 6.47083 17.1921C6.36313 16.6536 6.14773 16.0074 6.25543 15.4689C6.36313 14.6612 6.47083 13.7995 7.60168 14.8227C8.35559 15.5228 9.37874 15.8997 10.4557 15.5228C10.1326 15.1997 9.8634 14.8766 9.54029 14.5535C10.0788 12.2379 9.80955 10.03 9.05564 7.82217C9.00179 9.38382 7.81709 10.7301 8.19404 12.5071C7.38628 12.9379 7.00933 11.8609 6.36313 11.6455C6.20158 11.8071 6.09388 11.9148 5.93232 12.0763C5.82462 12.7764 4.26297 12.4533 5.17842 13.9611Z" fill="#E5A291"/>
<path d="M8.67869 27.0467C8.67869 26.3467 8.94794 25.862 9.59415 25.5928C9.91725 25.4312 10.1865 25.2697 10.5096 25.1081C11.3174 24.4619 10.1326 23.3849 10.9943 22.7387C11.0481 22.3079 12.3405 22.631 11.5866 21.7155C11.0481 21.0693 10.6173 20.3154 10.5635 19.4C10.0249 19.4 9.54029 19.3461 9.05564 18.9692C8.57099 18.6461 9.37874 16.7613 7.97864 17.7845C6.95548 18.4845 7.00933 19.9385 8.03249 20.6385C9.648 21.7155 8.84024 23.1156 8.73254 24.3004C8.67869 24.785 7.87094 25.162 7.38628 25.6466C6.95548 25.9697 6.68623 26.6698 6.04003 26.1313C5.71692 26.0774 5.39382 25.5928 5.12457 26.1851C5.28612 26.5082 5.50152 26.8313 5.66307 27.1544C6.57853 26.6159 7.60168 27.4775 8.67869 27.0467Z" fill="#E4A08F"/>
<path d="M56.6593 73.6811C57.6825 74.3811 58.7595 73.8426 59.7288 73.9503C59.7288 72.6579 59.7288 71.3655 59.7288 70.127C58.7056 70.827 59.8365 72.2271 58.7056 73.2503C58.8672 71.4194 57.3055 70.9347 56.9286 69.6962C56.2824 70.1808 55.69 70.127 55.1515 69.5346C55.4746 69.2654 55.7977 69.0499 56.1208 68.7807C55.69 68.4576 55.7977 67.3806 54.8822 67.7037C54.7207 67.7575 54.5053 67.8114 54.3437 67.9191C54.0206 68.3499 53.7514 68.7807 53.4283 69.2115C53.2667 69.3731 53.1052 69.5346 52.8898 69.6962C53.6437 71.5271 54.9361 72.981 56.1208 74.4888C56.2285 74.1119 56.3362 73.4657 56.6593 73.6811Z" fill="#5E5852"/>
<path d="M5.93232 26.0774C6.09387 25.1081 5.60922 24.4081 5.07072 23.8157C4.15526 22.8464 4.58607 22.254 5.50152 21.7694C6.74008 21.0155 6.20158 19.9385 5.93232 18.9153C5.60922 19.0769 5.33997 19.2384 5.01687 19.4C5.01687 19.9385 5.07072 20.5308 4.37067 21.0693C4.15526 19.1307 2.75516 18.1614 1.6243 17.0844C1.03195 16.5459 1.6243 16.4382 1.78585 16.2228C1.78585 16.169 1.78585 16.1151 1.78585 16.0613C1.6243 16.0613 1.5166 16.0613 1.35505 16.0613C1.03195 16.0613 0.762696 16.0613 0.439594 16.0613C-0.0989087 16.3844 0.00879189 16.9767 0.00879189 17.5152C1.1935 18.9153 2.48591 20.3154 2.70131 22.3617C3.13211 23.8696 4.04756 25.0004 4.96302 26.1851C5.28612 25.5389 5.60922 26.0236 5.93232 26.0774Z" fill="#E6A695"/>
<path d="M30.2188 26.939C29.3572 25.6466 28.5494 26.1851 27.634 26.5621C27.5263 26.5082 27.4724 26.4005 27.4186 26.239C27.257 25.9697 27.0955 25.7005 26.9339 25.4312C25.8569 28.2853 25.8569 28.2853 28.0648 29.4161C29.4111 29.7392 28.1186 30.7624 28.4956 31.3009C29.3034 30.6547 29.788 31.247 30.3265 31.7855C30.4881 31.6778 30.5419 31.5701 30.6496 31.4086C30.9189 30.9239 30.865 30.2777 31.242 29.8469C31.4574 28.7699 33.4498 29.6315 33.0729 27.9622C31.8882 28.3391 30.7573 27.8006 30.2188 26.939Z" fill="#645953"/>
<path d="M58.921 76.8582C59.2441 76.0505 58.6518 74.9196 59.7826 74.4888C59.7826 74.3273 59.7826 74.1657 59.7826 74.0042C58.7595 73.8965 57.7363 74.435 56.7132 73.7349C56.3901 73.5195 56.2823 74.1657 56.1746 74.4888C57.0901 77.666 58.5441 80.7355 57.844 84.2357C57.5209 86.0666 58.0056 87.6822 58.4364 89.3515C58.0594 85.1512 59.4057 81.0047 58.921 76.8582Z" fill="#58514C"/>
<path d="M7.60168 8.52222C8.14019 8.68377 8.14019 8.14527 8.19404 7.76831C8.24789 7.17596 8.57099 6.96056 9.10949 6.90671C9.10949 6.52976 8.14019 6.42206 8.84024 5.88355C9.32489 5.5066 9.8634 5.45275 10.0249 6.26051C10.4557 8.57607 12.4482 9.11457 14.0099 10.1916H14.0637C13.1483 8.73762 13.0406 6.79901 11.5328 5.722C11.3174 5.56045 11.102 5.1835 11.1558 4.9681C11.2635 4.4296 11.7482 4.5373 12.0713 4.645C12.879 5.02195 13.6868 4.91425 14.4945 4.9681C11.7482 2.65254 8.40944 3.29874 7.70938 6.31436C7.49398 6.74516 7.22473 7.12211 7.11703 7.60676C7.00933 7.98372 7.22473 8.41452 7.60168 8.52222Z" fill="#E5A291"/>
<path d="M32.1574 5.9374C33.5037 5.77585 35.0115 4.8604 36.1423 6.47591C36.1962 6.42206 36.25 6.42206 36.3039 6.36821C36.1962 2.00633 36.0346 1.68323 33.396 1.79093C32.1036 1.84478 30.7573 2.27558 29.8419 3.46029C30.5419 4.37575 32.5882 3.83724 32.1574 5.9374Z" fill="#E0927E"/>
<path d="M11.1558 5.02195C11.102 5.23735 11.3174 5.6143 11.5328 5.77585C13.0406 6.85286 13.1483 8.79147 14.0637 10.2454C14.0637 10.2454 14.0637 10.2993 14.1176 10.2993C14.4945 10.2993 14.8176 10.407 15.033 10.7839C15.3561 11.2147 15.6254 11.9686 15.9485 11.9148C16.6485 11.8609 16.7562 11.107 16.8101 10.5147C16.9178 9.81463 16.8639 9.11457 16.8639 8.41452C16.6485 8.57607 16.2716 8.95302 16.2177 8.89917C15.7331 8.52222 16.11 7.92986 16.0023 7.44521C15.5177 6.63746 15.0869 5.88355 14.6022 5.0758C13.7945 5.02195 12.9329 5.12965 12.179 4.7527C11.7482 4.5373 11.2635 4.4296 11.1558 5.02195Z" fill="#E1917C"/>
<path d="M61.1289 56.2874C61.1289 56.2336 61.1289 56.2336 61.1289 56.1797C61.1289 55.372 61.075 54.6181 61.075 53.8103C60.4827 53.2718 60.7519 52.5718 60.6981 51.9256C60.375 51.9256 60.1057 51.9256 59.7826 51.9256C59.3518 52.3564 59.0287 52.3564 58.921 51.7102C58.8133 50.9563 58.7056 50.1485 59.7826 50.0408C59.298 49.3946 58.8672 49.7715 58.2748 49.9331C56.8209 50.3101 58.2748 49.3407 57.9517 49.1253C57.0901 49.4484 56.8209 48.4253 56.1208 48.3176C55.9054 49.4484 57.7363 50.2562 56.5516 51.5486C56.4978 52.5179 57.6286 53.0564 57.4132 54.0796C58.5979 55.2104 59.7826 56.3413 60.9673 57.4721C61.075 56.9875 61.075 56.6644 61.1289 56.2874Z" fill="#6B655F"/>
<path d="M16.8101 8.36067C17.4024 8.19912 17.9948 9.22227 18.641 8.36067C16.9178 6.58361 18.0486 5.0758 19.0718 3.56799C19.1256 3.51414 19.2333 3.51414 19.2872 3.46029C21.4951 1.09088 21.4951 1.09088 23.5952 3.56799C24.3491 3.51414 25.2646 3.83724 25.4261 2.59869C23.4875 0.444674 21.872 0.175423 19.0718 1.68323C16.7562 3.02949 16.5408 5.34505 16.7562 7.76831C16.7562 7.98372 16.7562 8.14527 16.8101 8.36067Z" fill="#E0927F"/>
<path d="M56.6055 51.4409C54.9361 50.7408 55.1515 49.4484 55.69 48.1022C54.7207 48.4253 54.0745 48.2637 54.3976 46.9175C53.9129 46.4867 53.536 45.6251 52.7821 45.9482C52.0282 46.2713 52.0282 47.1867 52.0282 47.9945C52.082 49.1253 52.3513 50.0946 53.2667 50.8485C54.613 51.9794 55.9054 53.1103 57.4132 53.9719C57.6286 52.9487 56.4978 52.4102 56.6055 51.4409Z" fill="#5C564F"/>
<path d="M38.781 91.8286C40.0734 93.5518 39.4272 91.2363 39.858 91.2901C39.6965 90.967 39.5349 90.5901 39.3734 90.267C36.627 87.6283 36.1423 83.5357 33.7729 80.0893C33.7191 82.2433 35.173 83.428 34.9038 85.0973C35.9269 86.7129 35.9808 88.813 37.2193 90.267C37.704 90.7516 38.2964 91.2363 38.781 91.8286Z" fill="#2B2622"/>
<path d="M60.6442 112.292C60.7519 112.292 60.9135 112.292 61.0212 112.292L61.075 112.346C61.1289 112.292 61.1827 112.292 61.2366 112.238C61.5058 111.484 61.6135 110.73 61.6674 109.976C61.7212 109.115 61.7212 108.307 61.8828 107.445C61.7212 107.014 61.3981 106.637 61.5597 106.099C59.4595 105.937 59.7288 108.145 58.7595 109.168C58.6518 109.276 58.5441 109.33 58.3825 109.438C58.4364 110.622 58.1671 111.807 58.7056 112.938C59.1903 111.915 60.1596 112.83 60.6442 112.292Z" fill="#605B55"/>
<path d="M67.4832 148.641C67.1601 147.833 66.8909 147.079 66.5678 146.271C65.5985 146.002 65.76 144.871 65.2215 144.333C64.8446 144.117 64.4676 143.902 64.0907 143.74C64.1445 146.217 65.3831 148.318 65.5985 150.687C65.9216 151.279 66.2985 151.872 66.6216 152.518C68.3448 151.549 67.0524 149.879 67.4832 148.641Z" fill="#211D1A"/>
<path d="M61.9366 90.6978C61.8289 90.5901 61.7751 90.5362 61.6674 90.4285C60.9673 90.1593 59.3518 91.0747 59.8903 88.8669C60.2134 87.4668 60.7519 87.5745 61.6674 87.7899C61.6135 87.6283 61.6135 87.4668 61.6674 87.3591C61.9905 86.7129 62.0443 86.0666 61.5597 85.4204C60.2673 84.6127 62.0443 83.3203 61.1827 82.4048C60.8058 83.1049 60.2673 82.351 59.8365 82.5125C60.2673 84.8819 59.0826 87.1436 59.298 89.5669C59.3518 89.9439 58.8672 89.7285 58.5979 89.6746C58.5441 90.0516 58.4364 90.4285 58.8672 90.6439C59.7288 91.1824 60.4288 91.9363 61.5058 92.044C61.6674 91.6671 62.0982 91.344 61.9366 90.6978Z" fill="#58524D"/>
<path d="M59.2441 89.6208C59.0287 87.2514 60.2673 84.9896 59.7826 82.5664C59.7826 80.5201 59.7288 78.4199 59.7288 76.3736C59.4595 76.5351 59.1903 76.6967 58.8672 76.8582C59.3518 81.0586 58.0594 85.1512 58.3825 89.2977C58.3825 89.4592 58.4364 89.6208 58.4902 89.7285C58.7595 89.7823 59.298 89.9977 59.2441 89.6208Z" fill="#25211C"/>
<path d="M33.0729 16.4921C33.0729 16.3305 33.0729 16.169 33.0729 16.0613C32.4805 15.1458 31.7266 14.8766 30.865 15.5766C29.7342 16.3305 29.8957 15.3612 30.1111 14.8766C30.4881 13.9072 30.4342 13.2072 29.5188 12.7225C29.5726 14.3919 27.8494 14.0688 27.257 14.9843C28.4417 15.4151 29.1957 16.2228 29.5726 17.5152C30.0573 17.7306 30.3804 17.946 30.9727 17.4614C32.2113 16.4921 32.2113 17.5691 32.2651 18.4845C32.8575 18.4307 33.396 18.4307 33.9883 18.3768C34.0422 18.2691 34.0422 18.1076 34.0422 17.9999C33.1806 17.7845 32.319 17.6229 33.0729 16.4921Z" fill="#D2725E"/>
<path d="M52.2436 37.4398C52.2974 36.5244 51.2204 36.0397 51.7589 35.1781C52.2436 34.4781 52.5667 35.7705 53.0513 35.2858C52.8359 34.3165 52.6744 33.3472 52.459 32.324C51.2204 32.0009 50.5204 32.8087 49.9819 33.778C49.228 35.1243 49.3895 36.5782 49.8203 38.0322C49.928 37.7629 50.0357 37.6014 50.1434 37.4937C50.7358 36.9013 51.5974 37.386 52.2436 37.4398Z" fill="#E29785"/>
<path d="M66.4062 33.0241C65.8677 33.4011 65.7062 32.8087 65.6523 32.3241C63.8214 32.9703 65.76 33.6165 65.6523 34.2088C65.9754 34.3704 66.2447 34.5319 66.5678 34.6935C66.837 34.6935 67.1063 34.6935 67.4294 34.6396C67.7525 34.0473 68.1833 33.5088 68.8295 33.2395C69.3141 32.9164 69.7449 32.5933 70.2296 32.3241C70.068 31.8394 69.9065 31.3547 69.7988 30.8701C68.9372 30.8701 68.7756 30.1162 68.4525 29.5238C67.3755 29.6854 67.5371 31.5701 66.1908 31.3009C66.0831 31.8932 67.3217 32.3241 66.4062 33.0241Z" fill="#E7AA99"/>
<path d="M25.9108 74.3273C24.9953 74.2734 26.1262 73.2503 25.5338 72.8195C24.6722 73.2503 24.4568 74.0042 24.5107 74.9196C24.9953 75.2966 25.6415 75.512 25.9108 75.9966C26.6108 77.1814 27.4724 76.589 28.2802 76.4813C29.2495 76.3197 28.9264 75.4581 29.0341 74.8119C28.2263 74.1119 28.1186 72.6041 26.7185 72.6041C26.0185 72.981 26.9878 74.3811 25.9108 74.3273Z" fill="#655E59"/>
<path d="M8.19404 12.561C7.87094 10.8378 9.05564 9.49152 9.05564 7.87602C9.05564 7.55291 9.05564 7.22981 9.05564 6.90671C8.57099 6.96056 8.19404 7.17596 8.14019 7.76831C8.08634 8.14527 8.08634 8.68377 7.54783 8.52222C7.17088 8.41452 6.95548 7.92987 7.06318 7.55291C7.17088 7.12211 7.44013 6.69131 7.65553 6.26051C5.60922 7.49906 5.33997 8.41452 6.25543 11.6455C7.00933 11.8609 7.38628 12.9379 8.19404 12.561Z" fill="#E29582"/>
<path d="M26.7185 7.39136C26.7185 8.46837 27.9032 9.11457 27.634 10.2993C27.7955 10.2993 27.9032 10.2993 28.0648 10.2993C28.2263 9.65308 28.3879 9.06072 28.5494 8.41452C27.9571 7.01441 28.8726 5.99125 29.6265 5.34505C30.3265 4.7527 30.6496 5.77585 30.7573 6.47591C31.1881 6.31436 31.6189 6.09896 32.1036 5.9374C32.5344 3.83724 30.4881 4.37575 29.788 3.46029C28.8187 3.83724 28.1186 4.5373 27.5801 5.45275C27.5801 6.20666 28.0109 7.22981 26.7185 7.39136Z" fill="#E6A08F"/>
<path d="M36.3039 6.36821L36.1423 6.47591C35.4961 8.36067 35.9808 10.6224 34.4191 12.184C34.4191 12.561 34.3114 12.9379 33.9345 13.1533C34.5268 14.4458 33.1806 15.0381 33.019 16.0074C33.019 16.169 33.019 16.3305 33.019 16.4382C33.4498 16.4382 33.8806 16.4382 34.3653 16.4382C34.5268 14.6612 35.6038 13.261 36.0885 11.6455C36.6808 9.97618 37.6502 8.19912 36.3039 6.36821Z" fill="#DF9280"/>
<path d="M61.6135 117.677C61.3443 116.923 61.1289 116.169 60.8058 115.2C59.4057 117.3 60.3211 119.669 59.2441 121.5C59.4595 122.9 59.2441 124.354 59.7826 125.7C60.7519 123.169 60.1596 120.262 61.6674 117.946L61.6135 117.677Z" fill="#2C2723"/>
<path d="M58.2748 49.8792C58.8672 49.7177 59.298 49.3407 59.7826 49.9869C60.0519 50.4177 60.3211 50.7947 60.6442 51.2794C61.5058 50.0946 61.9366 48.9638 61.5597 47.5637C60.8596 46.4867 60.9135 46.4867 60.2673 47.4021C60.1596 47.5637 59.7826 47.7791 59.7288 47.7252C58.3825 46.2174 58.6518 48.3714 58.0056 48.533C58.0056 48.6945 57.9517 48.8561 57.9517 49.0176C58.221 49.2869 56.767 50.31 58.2748 49.8792Z" fill="#5F544C"/>
<path d="M69.6911 30.8701C70.445 30.547 69.7449 29.093 70.7681 29.2007C71.5758 29.2546 71.522 30.17 71.522 30.8701C72.1143 30.547 72.7067 30.2239 73.299 29.9008C72.9759 29.4161 73.0298 28.9315 73.299 28.393C73.0836 27.2083 72.2759 27.5314 71.5758 27.6929C70.3373 27.9622 69.368 28.8238 68.3448 29.47C68.7218 30.0623 68.8295 30.8701 69.6911 30.8701Z" fill="#E7A594"/>
<path d="M72.599 45.1943C71.7374 46.6482 70.8219 48.0483 69.7988 49.3407C69.3141 49.9869 68.1833 50.687 68.8295 51.9256C72.0066 50.9024 72.2759 47.9406 72.8144 45.1943H72.599Z" fill="#E2A797"/>
<path d="M74.6992 34.6935C73.4606 34.6935 72.9759 32.701 71.522 33.2395C71.8451 33.5626 72.1143 33.8857 72.4374 34.155C73.7298 35.8243 72.1682 38.2476 73.676 39.8631C73.5683 37.9245 75.13 36.5244 75.1838 34.6396C75.0223 34.6935 74.8607 34.6935 74.6992 34.6935Z" fill="#E39E8D"/>
<path d="M23.1644 36.5782C22.4644 36.2013 22.4105 35.0166 21.172 34.9089C21.3874 35.6628 20.3642 36.4167 21.7105 37.1167C22.3028 37.4398 22.4105 38.3553 21.2258 38.3014C20.6335 38.2476 20.095 38.1399 19.5026 38.0322C20.6335 39.2169 22.4644 39.163 23.4875 40.5631C24.026 39.163 22.4644 37.9783 23.1644 36.5782Z" fill="#5A554F"/>
<path d="M72.4374 34.2088C72.3836 35.3397 72.6528 36.5244 71.9528 37.5475C71.8451 38.3553 72.2759 39.2707 71.522 39.9708C72.599 40.7785 72.599 41.7478 71.9528 42.8249C72.222 42.8249 72.5452 42.8249 72.8144 42.8249C73.0298 41.8555 74.1607 41.1555 73.6222 39.9169C72.1682 38.3014 73.7298 35.8782 72.4374 34.2088Z" fill="#DE8F7D"/>
<path d="M24.8338 38.4091C24.9415 37.7091 25.103 36.9552 24.7799 36.309C24.5107 35.7705 24.6722 34.6396 23.7568 34.8012C22.7875 34.9627 23.326 35.932 23.2183 36.5782C22.5182 37.9783 24.0799 39.163 23.5414 40.5631C23.5414 40.7247 23.5952 40.8324 23.7568 40.8862C24.9415 40.5093 23.7568 38.8938 24.8338 38.4091Z" fill="#211D19"/>
<path d="M68.3448 163.557C69.5295 163.934 70.9835 163.234 71.9528 164.473C71.8989 163.665 72.3836 162.696 71.4681 162.049C70.2834 161.834 69.1526 161.026 67.8602 161.565C67.8602 161.726 67.8602 161.942 67.8602 162.103C68.0756 162.588 68.1833 163.073 68.3448 163.557Z" fill="#645D57"/>
<path d="M51.6512 67.8652C50.6281 67.5421 50.8435 67.0036 51.1666 66.3574C50.4127 65.8728 49.4434 65.2804 49.0126 66.4113C48.6895 67.2729 49.2818 68.0807 50.2511 68.673C51.1127 69.2115 52.3513 68.5653 52.9436 69.6962C53.1052 69.5346 53.2667 69.3731 53.4821 69.2115C53.3206 67.973 52.2974 68.0807 51.6512 67.8652Z" fill="#5A554F"/>
<path d="M73.299 29.9008C74.2684 31.3009 73.7837 33.2395 74.6992 34.6935C74.8607 34.6935 75.0222 34.6935 75.13 34.6935C75.4531 33.0241 75.4531 31.4086 74.5915 29.9008C74.3222 29.47 74.0529 29.0392 73.7837 28.6084C73.6221 28.5545 73.4606 28.5007 73.3529 28.4468C73.0836 28.9315 73.0298 29.4161 73.299 29.9008Z" fill="#E49A87"/>
<path d="M54.0745 42.2864C53.8052 42.1248 53.6437 41.694 53.3744 41.4248C52.7282 41.7479 52.2974 42.2864 51.9743 42.9326C52.1897 44.0096 52.7282 44.7096 53.8591 44.7096C55.2592 44.0634 55.7439 43.3095 54.0745 42.2864Z" fill="#E49987"/>
<path d="M73.299 164.15C72.9759 163.665 72.3836 164.311 71.9528 164.473C71.522 164.903 71.145 165.388 70.445 165.173C68.8833 164.634 68.9372 164.634 68.8295 166.519C70.1219 166.196 71.4143 165.496 72.8144 165.98C72.976 165.388 73.7837 164.796 73.299 164.15Z" fill="#645D57"/>
<path d="M64.9522 143.256C65.1676 143.417 65.1138 143.956 65.1677 144.387C65.76 144.925 65.5984 146.056 66.5139 146.325C65.5446 144.333 66.2447 141.856 64.8446 140.025C63.9291 141.102 63.3367 142.179 64.9522 143.256Z" fill="#59534D"/>
<path d="M60.7519 94.0365C60.9673 93.3903 61.2366 92.7441 61.452 92.0979C60.375 92.044 59.6749 91.2363 58.8133 90.6978C58.8672 91.8286 58.8672 92.9056 58.921 94.0365C59.5134 94.1442 60.1596 94.5211 60.7519 94.0365Z" fill="#655F5A"/>
<path d="M3.67061 15.0381C4.69377 15.4151 5.93232 15.1997 5.17842 13.9611C4.26297 12.4533 5.82462 12.7764 5.93232 12.1302C4.90917 12.4533 3.67061 11.6994 2.75516 12.6148C2.91671 12.7764 3.07826 12.9379 3.23981 13.0995C3.40136 13.7995 3.50906 14.4458 3.67061 15.0381Z" fill="#E8AC9D"/>
<path d="M59.8365 88.8669C59.298 91.0747 60.9135 90.1593 61.6135 90.4285C61.7212 90.4824 61.8289 90.5362 61.8828 90.6978C61.9366 89.7285 62.3674 88.7053 61.6135 87.7899C60.7519 87.5745 60.2134 87.4668 59.8365 88.8669Z" fill="#665F59"/>
<path d="M25.4261 2.59869C25.4261 2.54484 25.4261 2.54484 25.4261 2.59869C25.4261 1.36013 24.8338 0.336973 23.6491 0.336973C22.0336 0.283123 19.9873 -0.955434 19.0718 1.68323C21.872 0.175423 23.4875 0.390824 25.4261 2.59869Z" fill="#E59D8A"/>
<path d="M62.9059 53.3795C62.5828 53.3795 62.2597 53.3795 61.9366 53.4334C62.2597 54.2411 62.529 54.995 62.8521 55.8028C63.3367 55.6951 63.0136 54.5642 63.8214 54.9412C64.4676 55.2104 64.0368 55.6951 63.9291 56.072C63.7675 56.5567 63.3367 57.0952 64.2522 57.2029C65.3292 56.6644 64.2522 55.2643 65.1677 54.7258C65.0061 54.4565 64.8984 54.1873 64.7368 53.8642C64.0906 53.8642 63.2829 54.5104 62.9059 53.3795Z" fill="#5E5752"/>
<path d="M51.6512 67.8652C52.2974 68.0807 53.3206 68.0268 53.4283 69.2115C53.7514 68.7807 54.0206 68.3499 54.3437 67.9191C54.1822 67.7037 54.0206 67.5421 53.8591 67.3267C52.9975 66.8421 52.1359 66.4113 51.1127 66.4113C50.7896 67.0036 50.6281 67.5421 51.6512 67.8652Z" fill="#655F5A"/>
<path d="M61.1827 100.445C61.5597 98.7215 62.2059 97.0521 61.2366 95.3289C59.8903 97.0521 60.3211 98.7215 61.1827 100.445Z" fill="#67615B"/>
<path d="M66.0831 51.4409C64.5753 51.6025 63.7137 52.0871 64.7368 53.8103C64.8984 54.0796 65.0061 54.3488 65.1677 54.6719C66.0293 54.6719 66.0831 53.8103 66.5139 53.3257C65.06 53.0564 65.8677 52.1948 66.0831 51.4409Z" fill="#665952"/>
<path d="M55.69 48.1022C55.1515 49.4484 54.8822 50.7408 56.6055 51.4409C57.7902 50.1485 55.9592 49.3407 56.1746 48.2099C55.9592 48.2099 55.8516 48.156 55.69 48.1022Z" fill="#655E59"/>
<path d="M63.8752 56.072C63.9829 55.6951 64.4137 55.2104 63.7675 54.9412C62.9598 54.5642 63.2829 55.7489 62.7982 55.8028C62.6905 56.2874 62.5828 56.7182 62.529 57.2029C62.6905 57.4183 62.7982 57.6337 62.9598 57.9029C63.3906 57.6875 63.9829 57.8491 64.1983 57.2029C63.2829 57.0952 63.7675 56.5567 63.8752 56.072Z" fill="#665952"/>
<path d="M25.4261 2.54484C25.2646 3.78339 24.3491 3.46029 23.5952 3.56799C23.5952 3.72954 23.5952 3.89109 23.5952 4.05264C23.9183 4.37575 24.1876 4.69885 24.5107 5.02195C24.8876 4.4296 25.48 4.59115 25.9646 4.48345C25.8569 3.83724 26.0185 3.08334 25.4261 2.54484Z" fill="#E59D8A"/>
<path d="M66.7293 105.83C66.9986 106.853 68.0756 106.261 68.3448 106.961C68.8295 106.799 69.2603 106.691 69.7449 106.53C68.8295 105.991 67.8602 105.56 66.7293 105.83Z" fill="#625B55"/>
<path d="M52.459 38.6784C52.4051 37.7091 51.6512 38.3553 51.2204 38.3014C50.6819 38.1937 50.4665 38.6245 50.2511 39.0553C50.305 39.3246 50.3588 39.6477 50.3588 39.9169C50.7358 39.6477 51.1127 39.3784 51.4897 39.163C51.7589 38.9476 52.5128 39.54 52.459 38.6784Z" fill="#E0927F"/>
<path d="M26.7185 7.39136C27.9571 7.22981 27.5263 6.20666 27.5801 5.45275C27.1493 5.6143 26.7185 5.77585 26.2877 5.99125C25.6954 6.69131 26.7185 6.85286 26.7185 7.39136Z" fill="#E8AB9A"/>
<path d="M33.0729 16.4921C32.319 17.6768 33.1806 17.7845 33.9345 17.9999C34.1499 17.5152 34.5268 17.0844 34.4191 16.4921C33.9345 16.4921 33.5037 16.4921 33.0729 16.4921Z" fill="#EBB5A7"/>
<path d="M47.074 112.776C47.0201 113.8 47.2355 114.446 48.3664 113.746C48.4741 113.153 48.5279 112.615 48.0971 112.13C47.8817 112.561 47.5586 112.723 47.074 112.776Z" fill="#615C55"/>
<path d="M10.8866 32.7549C11.2635 33.7242 11.9636 33.8319 12.8252 33.7242C12.6098 32.4317 11.8559 32.3779 10.8866 32.7549Z" fill="#DEA494"/>
<path d="M71.9528 42.8249C72.1682 43.6326 72.3836 44.3865 72.599 45.1943H72.8144C72.8144 44.3865 72.8144 43.6326 72.8144 42.8249C72.5452 42.8249 72.2759 42.8249 71.9528 42.8249Z" fill="#D1715B"/>
<path d="M56.9286 69.6962C56.8747 69.1577 56.7132 68.7807 56.1208 68.7807C55.7977 69.0499 55.4746 69.2654 55.1515 69.5346C55.69 70.127 56.2824 70.127 56.9286 69.6962Z" fill="#655F5A"/>
<path d="M56.0131 45.5712C55.9593 45.5712 55.7977 46.002 55.6361 46.2174C55.9054 46.8098 56.3362 47.2406 57.0363 47.1329C57.0363 46.379 56.6593 45.8405 56.0131 45.5712Z" fill="#E1907D"/>
<path d="M74.9146 28.6084C74.5915 28.016 74.1607 28.393 73.7837 28.5545C74.0529 28.9853 74.3222 29.4161 74.5915 29.8469C74.753 29.47 75.2377 29.1469 74.9146 28.6084Z" fill="#E7A594"/>
<path d="M52.8898 123.923C53.3744 124.139 53.3206 123.493 53.4283 123.17C53.1052 122.846 52.8359 122.577 52.5128 122.254C52.6205 122.846 52.1897 123.654 52.8898 123.923Z" fill="#635D57"/>
<path d="M54.3437 67.8652C54.5053 67.8114 54.7207 67.7575 54.8822 67.6498C54.7745 67.219 54.8822 66.6267 54.3976 66.4651C53.8052 66.3036 54.0206 66.9498 53.9129 67.219C54.0206 67.4344 54.1822 67.6498 54.3437 67.8652Z" fill="#918E8A"/>
<path d="M55.69 48.1022C55.2592 47.7252 54.8284 47.3483 54.3976 46.9175C54.0745 48.2637 54.7207 48.4253 55.69 48.1022Z" fill="#655E59"/>
<path d="M58.8672 169.265C59.9442 170.073 60.1057 169.104 60.375 168.404C59.7826 168.511 59.2441 168.727 58.8672 169.265Z" fill="#77736D"/>
<path d="M16.11 8.84532C16.1639 8.89917 16.5408 8.52222 16.7562 8.36067C16.7562 8.14527 16.7562 7.98372 16.7024 7.76831C16.4331 7.66061 16.11 7.49906 15.8408 7.39136C16.0023 7.87602 15.6254 8.46837 16.11 8.84532Z" fill="#E49B88"/>
<path d="M22.249 74.058C23.3798 74.3273 23.1644 75.8889 24.5107 74.9196C23.8645 74.7042 23.9183 73.4118 22.249 74.058Z" fill="#655F5A"/>
<path d="M82.1305 170.396C80.9458 167.865 79.6534 165.98 77.4455 164.903C77.0686 165.119 76.9609 165.496 76.9609 165.873C78.7918 167.057 79.438 169.75 82.1305 170.396Z" fill="#1F1B17"/>
<path d="M76.9609 165.927C76.9609 165.496 77.0686 165.173 77.4455 164.957C77.1224 164.419 76.5301 163.665 76.1531 164.203C75.5608 164.85 76.3147 165.496 76.9609 165.927Z" fill="#37312C"/>
<path d="M70.1219 41.8556C71.4143 40.8862 70.4988 39.9169 70.1219 39.0015C69.6372 40.24 68.6679 40.5631 67.8063 39.7554C66.9986 39.0553 68.0217 37.8706 67.6448 36.9013C67.8602 36.8475 68.0756 36.6859 68.2371 36.6859C68.7218 36.7398 69.2064 37.1167 69.0449 37.6014C68.7218 38.7322 69.1526 39.0553 70.1219 38.9476C71.4143 37.9245 71.4681 38.9476 71.4681 39.9169C72.222 39.2169 71.7912 38.3014 71.8989 37.4937C71.0912 36.4167 69.5295 36.2013 69.1526 34.6935C68.5064 35.0166 67.914 35.5012 67.3217 34.5858C67.0524 34.5858 66.7832 34.5858 66.4601 34.6396C66.1908 35.232 65.76 35.5551 65.1138 35.6089C64.5214 36.8475 63.9291 38.1399 63.3367 39.3784C63.4444 39.3784 63.606 39.3784 63.7137 39.3784C63.9291 39.2707 64.0906 39.163 64.306 39.0553C65.06 38.7861 65.8139 37.4937 66.6216 38.7322C67.214 39.6477 66.7293 40.617 65.9754 41.2094C65.2754 41.7479 65.0061 42.3941 65.0599 43.2557C65.1676 44.0096 64.7907 45.0866 65.76 45.302C66.5139 45.4635 67.1063 44.7635 67.5909 44.1173C67.8063 43.7942 68.0217 43.4711 68.2371 43.2018C68.5602 42.2864 68.3987 40.6708 70.1219 41.8556Z" fill="#D77D67"/>
<path d="M62.6905 52.4641C63.2829 52.6256 63.3367 52.9487 62.9059 53.3795C63.2829 54.5104 64.0906 53.8642 64.7368 53.8642C63.7137 52.141 64.6292 51.6025 66.0831 51.4948C64.6292 48.5868 68.3448 48.9099 68.5602 47.0252C68.291 46.7021 67.914 46.7021 67.5909 46.9713C65.8139 48.3714 64.1445 48.5868 62.3136 46.8636C61.1289 45.7328 62.4213 47.9406 61.6135 47.6714C61.9905 49.0715 61.5597 50.2023 60.6981 51.3871C60.375 50.9024 60.1057 50.4716 59.8365 50.0946C59.8365 50.7408 59.8365 51.3871 59.8365 52.0333C60.1596 52.0333 60.4288 52.0333 60.7519 52.0333C61.3443 52.0871 62.0443 52.2487 62.6905 52.4641Z" fill="#675249"/>
<path d="M66.0831 41.3171C66.837 40.7247 67.3755 39.7554 66.7293 38.8399C65.9216 37.6014 65.1676 38.8938 64.4137 39.163C64.1983 39.2169 63.9829 39.3784 63.8214 39.4861C63.7137 39.6477 63.5521 39.8092 63.4444 39.9708C63.3906 40.4554 63.3906 40.9401 63.3367 41.4247C63.9291 42.0709 64.5214 42.7172 65.1676 43.3634C65.1138 42.5018 65.3831 41.8556 66.0831 41.3171Z" fill="#D16F5B"/>
<path d="M71.9528 42.8249C72.599 41.7478 72.599 40.7247 71.522 39.9708C71.4681 39.0015 71.4681 37.9783 70.1757 39.0015C70.5527 39.9708 71.4681 40.8862 70.1757 41.8556C70.1757 41.9633 70.1757 42.1248 70.1757 42.2325C70.7681 42.4479 71.3604 42.6633 71.9528 42.8249Z" fill="#D1715B"/>
<path d="M61.3443 39.2169C59.0287 40.6708 60.4827 41.4786 61.5058 42.3402C61.6674 42.0709 61.8828 41.8017 62.0443 41.5324C61.8289 40.8324 61.6135 40.0246 61.3443 39.2169Z" fill="#E4A18F"/>
<path d="M70.1219 41.8556C68.3448 40.6708 68.5602 42.2325 68.291 43.2557C69.0987 43.3634 69.5295 42.6633 70.068 42.2325C70.1219 42.1248 70.1219 42.0171 70.1219 41.8556Z" fill="#D57B67"/>
<path d="M63.4444 39.9708C62.4751 39.9708 62.4751 40.6708 62.4751 41.3709C62.7444 41.3709 63.0675 41.3709 63.3367 41.3709C63.3906 40.9401 63.3906 40.4554 63.4444 39.9708Z" fill="#E9B7AA"/>
<path d="M23.0567 26.5082C22.8413 23.0618 24.2953 19.8846 24.6184 16.4921C23.8645 15.5228 23.0567 14.715 21.8182 14.5535C21.0643 14.715 21.0104 15.6305 20.4181 15.9536C20.4181 16.4382 20.4181 16.9229 20.4181 17.3537C21.2258 18.1614 21.8182 19.023 21.3335 20.2616C22.0336 20.7462 22.7336 21.2309 21.3335 21.7155C21.0643 22.3617 20.795 22.9541 20.4719 23.6003C20.8489 24.5696 21.2258 25.4851 21.5489 26.4544C21.7643 27.1544 22.0874 27.2621 22.6798 26.939C22.7875 26.8313 22.8952 26.6698 23.0567 26.5082Z" fill="#D7806C"/>
<path d="M28.1186 29.4161C25.9108 28.2314 25.9108 28.2314 26.9878 25.4312C27.1493 25.7005 27.3109 25.9697 27.4724 26.239C27.5263 26.3467 27.5801 26.4544 27.6878 26.5621C27.9032 25.5928 27.5801 24.5696 28.1186 23.708C27.7955 23.0618 27.3647 22.5771 26.8801 23.5465C26.6647 24.0311 26.6647 24.785 25.9108 24.5158C25.1569 24.2465 25.8569 23.4926 25.5877 23.0618C25.2646 22.5233 26.3954 21.4463 25.1569 21.4463C24.3491 21.4463 24.6184 22.4156 24.5645 22.9541C24.2953 24.6235 24.9415 26.5621 23.5952 28.016C23.5952 28.1776 23.5952 28.3391 23.5952 28.4468C24.6184 30.0085 23.326 31.3009 23.2183 32.7549C22.8952 32.9164 22.6259 33.078 22.3028 33.2395C22.4644 33.5626 22.7875 34.1011 23.0567 33.778C24.403 32.1087 26.2877 33.6703 27.7417 32.7549C26.7724 31.5163 26.7724 30.3854 28.1186 29.4161ZM24.7261 28.8776C25.1569 28.393 25.3184 28.9853 25.3184 29.3623C25.3723 29.5777 25.2646 29.7931 25.2107 30.0623C24.7799 29.7392 24.403 29.2007 24.7261 28.8776Z" fill="#5C5049"/>
<path d="M16.2177 25.1081C15.6254 24.5696 15.033 23.1695 14.5484 25.1081C14.1714 26.5621 13.0944 24.5696 12.7175 25.5928C13.1483 26.2928 13.5252 27.0467 14.0637 27.6929C14.8176 28.5545 14.1176 28.8776 13.6868 29.3084C14.9792 29.7392 16.3254 30.0623 17.4563 30.9778C17.8871 31.3009 18.3717 31.5701 18.6948 30.8162C17.564 29.0392 16.7024 27.2083 16.4331 25.0543C16.3793 25.1081 16.2177 25.1081 16.2177 25.1081Z" fill="#D98471"/>
<path d="M19.0179 21.8232C18.0486 21.2309 17.1332 20.3693 15.9485 21.3386C15.9485 21.7694 15.9485 22.254 15.8946 22.6848C16.3254 23.4387 16.3793 24.2465 16.2177 25.0543H16.3793C17.6178 24.6773 17.9948 22.7387 19.6103 23.0618C19.4487 22.6848 19.2333 22.254 19.0179 21.8232Z" fill="#66544C"/>
<path d="M28.1186 29.4161C26.7724 30.3316 26.7724 31.4624 27.6878 32.7549C27.9571 32.2702 28.2802 31.7855 28.5494 31.3547C28.1725 30.7624 29.4111 29.7392 28.1186 29.4161Z" fill="#78736E"/>
<path d="M21.3335 21.7694C20.5796 22.0925 19.7719 20.8539 19.0179 21.8232C19.2333 22.254 19.4488 22.6848 19.6642 23.1156C19.9334 23.2772 20.2027 23.4926 20.4719 23.6542C20.7412 23.0079 21.0104 22.4156 21.3335 21.7694Z" fill="#D88A79"/>
<path d="M17.6717 35.232C18.264 35.2858 18.8025 35.3397 19.3949 35.3935C19.718 35.4474 20.095 35.8243 20.1488 35.0704C20.2027 34.5319 20.095 34.155 19.5026 34.155C18.9641 34.6935 17.9409 34.1011 17.6717 35.232Z" fill="#6A635E"/>
<path d="M23.5414 28.016C23.1106 27.5852 23.8645 26.7775 23.0567 26.5082C22.949 26.6698 22.7875 26.8313 22.6798 27.0467C22.8413 27.7468 21.7643 28.5007 22.7336 29.1469C22.8413 29.2007 23.2721 28.7699 23.5414 28.5007C23.5414 28.2853 23.5414 28.1776 23.5414 28.016Z" fill="#211D19"/>
<path d="M19.5564 26.0774C19.341 26.2928 19.5026 26.5082 19.718 26.5082C20.0411 26.5082 20.2565 26.3467 20.3104 25.9697C20.2565 25.862 20.2565 25.7005 20.2027 25.5389C20.0411 25.7005 19.7719 25.862 19.5564 26.0774Z" fill="#6C564E"/>
<path d="M22.5721 32.0548C22.0874 32.2164 22.249 32.8087 22.249 33.2395C22.5721 33.0779 22.8413 32.9164 23.1644 32.7549C23.0567 32.4318 23.0567 31.8932 22.5721 32.0548Z" fill="#69645E"/>
<path d="M24.6184 16.4921C25.103 15.1997 25.6954 14.2842 27.2032 14.9304C27.7955 13.9611 29.5188 14.3381 29.4649 12.6687C29.4649 12.3456 29.4649 12.0225 29.4649 11.6994C28.8726 11.3763 28.2263 11.0532 27.634 10.7301C26.6108 12.1302 24.8338 11.8071 23.5952 12.6687C23.1644 13.4764 22.5721 14.1227 21.8182 14.6073C23.0029 14.7689 23.8645 15.5228 24.6184 16.4921Z" fill="#D06B54"/>
<path d="M14.0637 11.6994C14.6022 12.6687 13.956 14.4996 15.8408 14.5535C16.0023 14.3919 16.1639 14.2304 16.3254 14.0688C15.8408 12.7225 16.7562 12.2379 17.6717 11.8071C17.0255 12.4533 18.1563 14.1765 16.3254 14.0688C16.7562 14.715 17.187 15.3612 17.6717 16.0074C17.8871 15.6305 18.2102 15.5228 18.5871 15.5228C19.0179 13.3149 18.8025 11.0532 19.718 8.84532C20.2565 7.55291 19.1795 8.09142 18.5871 8.30682C17.9948 9.16842 17.4024 8.14527 16.7562 8.30682C16.7562 9.00687 16.8101 9.70692 16.7024 10.407C16.6485 10.9993 16.5408 11.8071 15.8408 11.8071C15.5715 11.8071 15.2484 11.0532 14.9253 10.6762C14.9792 11.3763 14.6561 11.6994 14.0637 11.6994Z" fill="#E5A392"/>
<path d="M16.3254 14.1226C16.3793 14.1226 16.3793 14.1226 16.3254 14.1226V14.1226Z" fill="#E5A392"/>
<path d="M20.1488 6.58361C19.9873 6.90671 20.1488 7.22981 20.5258 7.28366C20.795 7.28366 21.172 7.22981 21.3335 7.01441C21.7105 6.52976 21.9259 5.99125 22.249 5.45275C22.3028 4.5373 22.7336 4.05264 23.5952 3.99879C23.5952 3.83724 23.5952 3.67569 23.5952 3.51414C21.4951 1.03703 21.4951 1.03703 19.2872 3.40644C19.2333 3.46029 19.1795 3.46029 19.0718 3.51414C19.4487 4.5373 20.9027 5.12965 20.1488 6.58361Z" fill="#E6A08F"/>
<path d="M22.1951 5.5066C23.4337 6.20666 23.7029 7.49906 23.8106 8.89917C23.9183 7.55291 24.1337 6.26051 24.4568 5.02195C24.1337 4.69885 23.8645 4.37575 23.5414 4.05264C22.7336 4.10649 22.249 4.59115 22.1951 5.5066Z" fill="#E7A999"/>
<path d="M17.6717 16.0613C18.1563 16.9229 18.4794 17.9999 19.5026 18.3768C19.8257 18.0537 20.095 17.7306 20.4181 17.4614C20.4181 16.9767 20.4181 16.4921 20.4181 16.0613C19.7718 16.0074 19.0718 16.2767 18.5871 15.5766C18.2102 15.5766 17.8871 15.6305 17.6717 16.0613Z" fill="#E9B1A2"/>
<path d="M29.4649 11.6994C29.6265 11.6994 29.788 11.6994 29.8957 11.6994C29.9496 10.9993 29.7342 10.407 29.4649 9.76078C29.0341 9.92233 28.5494 10.0839 28.1186 10.2454C27.9571 10.2454 27.8494 10.2454 27.6878 10.2454C27.6878 10.407 27.6878 10.5147 27.634 10.6762C28.2263 11.0532 28.8187 11.3763 29.4649 11.6994Z" fill="#D2725E"/>
<path d="M23.5952 12.6687C22.5182 12.8302 21.9259 13.4764 21.8182 14.6073C22.5182 14.1227 23.1644 13.4764 23.5952 12.6687Z" fill="#D7806C"/>
<path d="M67.914 162.103C67.3217 162.534 67.3217 163.126 67.6986 163.719C67.8602 163.988 68.1833 163.826 68.3987 163.557C68.1833 163.073 68.0756 162.588 67.914 162.103Z" fill="#726C67"/>
<path d="M61.0212 112.238C60.9135 112.238 60.7519 112.238 60.6442 112.238C60.6981 112.776 60.375 113.692 61.0212 113.8C61.7751 113.961 61.452 113.099 61.5597 112.669C61.3981 112.561 61.2366 112.453 61.0212 112.238C61.075 112.292 61.075 112.292 61.0212 112.238Z" fill="#726D69"/>
<path d="M62.8521 55.8028C62.529 54.995 62.2597 54.2411 61.9366 53.4334C61.6674 53.5949 61.3443 53.7026 61.075 53.8642C61.075 54.6719 61.1289 55.4258 61.1289 56.2336C61.1827 56.2336 61.1827 56.2874 61.1827 56.2874C61.6674 56.5567 61.5058 57.8491 62.529 57.2029C62.6367 56.7182 62.7444 56.2336 62.8521 55.8028Z" fill="#26211E"/>
<path d="M59.7288 74.435C58.5979 74.8658 59.1903 76.0505 58.8672 76.8044C59.1364 76.6428 59.4057 76.4813 59.7288 76.3197C59.7288 75.7274 59.7288 75.0812 59.7288 74.435Z" fill="#332E29"/>
<path d="M14.0637 27.6929C13.5252 27.1006 13.1483 26.2928 12.7175 25.5928C12.5559 25.4312 12.3944 25.2697 12.2867 25.1081C11.6943 24.6235 11.4789 23.9773 11.3712 23.2234C11.2097 23.0618 11.102 22.9002 10.9404 22.7387C10.1326 23.3849 11.3174 24.4619 10.4557 25.1081C11.2097 25.162 11.7482 25.4851 11.7482 26.3467C11.7482 26.5082 11.5328 26.8313 11.4251 26.8852C10.4019 27.1006 10.0249 26.2928 9.59415 25.5928C8.94794 25.862 8.67869 26.3467 8.67869 27.0467C9.16334 27.316 9.59415 27.6391 10.0788 27.9083C10.8866 28.0699 11.6405 28.4468 12.2867 28.9853C12.7713 29.093 13.2021 29.2007 13.6868 29.3084C14.1176 28.8776 14.8176 28.5545 14.0637 27.6929Z" fill="#E4A493"/>
<path d="M10.0249 27.9083C8.84024 29.4161 10.2942 29.9546 11.0481 30.3854C12.6098 31.247 11.6943 29.3084 12.2328 28.9853C11.5866 28.5007 10.8866 28.0699 10.0249 27.9083Z" fill="#61554D"/>
<path d="M61.2904 123.17C60.9135 123.116 60.8058 123.439 60.7519 123.816C60.8596 123.977 60.9673 124.247 61.1289 124.3C61.6135 124.462 61.5597 123.977 61.5597 123.708C61.5597 123.546 61.3981 123.223 61.2904 123.17Z" fill="#615C55"/>
<path d="M55.0438 128.016C54.5591 128.393 54.8284 128.985 54.8822 129.793C55.313 129.255 56.067 129.147 55.69 128.447C55.5823 128.231 55.0976 127.908 55.0438 128.016Z" fill="#69635D"/>
<path d="M65.2215 35.6628C64.306 35.6628 63.3906 36.7398 62.4751 35.6628C62.0982 35.4474 62.0443 35.1243 62.0443 34.6935C61.452 34.855 60.8596 35.0166 60.2134 35.1781C59.5134 35.6628 60.1057 36.1474 60.2134 36.6321C60.9135 38.0322 62.7982 38.0322 63.4444 39.4861C64.0368 38.1937 64.6291 36.9552 65.2215 35.6628Z" fill="#E5A492"/>
<path d="M60.2134 35.1781C60.1057 34.6396 60.4288 33.7242 59.3518 34.2088C58.7595 34.4781 58.1671 34.7473 57.4671 34.6935C58.1133 35.7705 58.4364 36.9552 57.844 38.8399C58.921 37.8168 59.5672 37.2244 60.2134 36.6321C60.1057 36.1474 59.5134 35.6628 60.2134 35.1781Z" fill="#EBB5A7"/>
<path d="M53.4283 40.8862C54.236 40.5631 55.7439 41.3709 55.69 39.4861C54.1822 38.6784 53.2667 38.7861 53.4283 40.8862Z" fill="#E0937F"/>
<path d="M56.8747 37.6552C56.7132 37.6552 56.3901 37.7629 56.3362 37.8706C56.2285 38.2476 56.4978 38.4091 56.767 38.4091C56.9286 38.4091 57.0901 38.2476 57.3594 38.0322C57.1978 37.8706 57.0363 37.7091 56.8747 37.6552Z" fill="#E6A08F"/>
<path d="M24.6184 16.4921C24.2953 19.8846 22.8413 23.0618 23.0567 26.5082C23.8645 26.7775 23.1106 27.6391 23.5414 28.016C24.8876 26.5621 24.2414 24.6773 24.5107 22.9541C24.6184 22.3617 24.2953 21.3924 25.103 21.4463C26.3416 21.5001 25.2107 22.5771 25.5338 23.0618C25.8031 23.4926 25.1569 24.2465 25.8569 24.5158C26.6108 24.785 26.6108 23.9773 26.8262 23.5465C27.3109 22.5771 27.7417 23.0079 28.0648 23.708C28.2263 24.0311 28.3879 24.3542 28.4956 24.6773C29.088 24.0311 29.2495 23.1695 29.3572 22.3617C29.5188 21.2309 29.5188 20.0462 27.7417 20.7462C28.0109 19.5077 28.9264 19.1307 29.4111 18.4307C29.4111 18.1076 29.4111 17.8383 29.4111 17.5152C29.0341 16.2767 28.2802 15.4151 27.0955 14.9843C25.6954 14.2842 25.0492 15.2535 24.6184 16.4921Z" fill="#554E47"/>
<path d="M29.4649 18.3768C30.5419 19.6154 29.1418 21.3386 30.2727 22.5771C30.4342 20.9616 31.8343 19.9923 32.1036 18.4845C32.0497 17.5691 32.0497 16.4921 30.8112 17.4614C30.2727 17.8922 29.8957 17.7306 29.4111 17.5152C29.5188 17.7845 29.5188 18.0537 29.4649 18.3768Z" fill="#D17965"/>
<path d="M29.4649 18.3768C28.9802 19.1307 28.0648 19.5077 27.7955 20.6924C29.5726 19.9923 29.5726 21.1232 29.4111 22.3079C29.3034 23.1156 29.1418 23.9773 28.5494 24.6235C30.5419 25.2697 29.6803 23.1695 30.3265 22.5233C29.1957 21.3386 30.5419 19.5615 29.4649 18.3768Z" fill="#5C5049"/>
<path d="M32.5882 25.9697C33.7729 25.3235 33.1806 24.1388 33.0729 23.1156C32.6959 24.0311 32.3728 24.8927 31.9959 25.8082C32.2113 25.862 32.4805 26.0774 32.5882 25.9697Z" fill="#655D57"/>
<path d="M59.3518 34.2088C60.4288 33.7242 60.1057 34.6396 60.2134 35.1781C60.8058 35.0166 61.3981 34.855 62.0443 34.6935C64.1445 32.8087 64.1983 32.4318 62.4751 30.8701C61.9905 31.4624 61.9905 33.0241 61.5597 32.8626C59.4595 31.8932 58.8672 34.155 57.5209 34.6935C58.1671 34.7473 58.7595 34.4781 59.3518 34.2088Z" fill="#E8AC9B"/>
<path d="M61.9905 34.6935C61.9905 35.0704 62.0982 35.4474 62.4213 35.6628C62.7444 35.5012 63.0136 35.3397 63.3367 35.1781C63.9291 34.4242 64.9522 34.8012 65.5984 34.2088C65.7062 33.5626 63.7675 32.9702 65.5985 32.324C64.683 31.5163 64.1983 29.6315 62.4213 30.8701C64.1445 32.4318 64.1445 32.8087 61.9905 34.6935Z" fill="#E49E8B"/>
<path d="M56.1208 36.1474C55.4746 35.6628 54.6668 35.2858 54.9361 34.1011C56.3362 34.155 56.1208 35.232 56.1208 36.1474Z" fill="#DF8872"/>
<path d="M10.9404 17.0306C10.8866 16.4921 10.9943 15.8997 10.4557 15.5228C9.37874 15.8997 8.35559 15.5228 7.60168 14.8227C6.52468 13.7995 6.36313 14.6612 6.25543 15.4689C6.20158 16.0613 6.41698 16.6536 6.47083 17.1921C5.93232 17.5691 5.60922 16.4382 5.01687 17.0844C5.33997 17.6768 5.60922 18.2691 5.93232 18.8615C6.20158 19.8846 6.68623 20.9616 5.50152 21.7155C5.82462 22.2002 6.09388 22.6848 6.41698 23.1695C6.52468 22.6848 6.30928 21.7694 6.95548 21.9309C8.14019 22.3079 7.00933 23.3849 7.33243 24.085C7.33243 24.5696 7.33243 25.0543 7.33243 25.4851C7.81708 25.0543 8.62484 24.6235 8.67869 24.1388C8.78639 22.9002 9.59414 21.5001 7.97864 20.477C6.95548 19.8308 6.90163 18.3768 7.92479 17.6229C9.32489 16.6536 8.51714 18.4845 9.00179 18.8076C9.48644 19.1307 9.9711 19.1846 10.5096 19.2384C10.4557 18.5384 10.4557 17.7306 10.9404 17.0306Z" fill="#E8AC9B"/>
<path d="M11.802 13.638C11.802 13.4764 11.802 13.3149 11.802 13.1533C11.6405 12.6687 10.725 12.561 11.1558 11.8609C11.8559 10.7301 12.7713 12.0225 13.6329 11.7532C13.7945 11.7532 13.956 11.7532 14.0637 11.7532C14.6561 11.7532 14.9792 11.4301 14.9792 10.7839C14.7638 10.407 14.4407 10.2993 14.0637 10.2993C14.0099 10.2993 14.0099 10.2454 13.956 10.2454C12.3944 9.22227 10.4019 8.62992 9.9711 6.31436C9.80955 5.45275 9.27104 5.56045 8.78639 5.9374C8.03249 6.47591 9.05564 6.58361 9.05564 6.96056C9.05564 7.28366 9.05564 7.60676 9.05564 7.92987C9.80955 10.1377 10.0788 12.3456 9.54029 14.6612C10.5096 14.7689 11.102 14.0688 11.802 13.638Z" fill="#E8AE9E"/>
<path d="M10.9404 17.0306C11.3712 16.869 11.802 16.6536 12.2867 16.4921C11.9097 15.5766 11.5866 14.6612 11.8559 13.638C11.1558 14.0688 10.5634 14.8227 9.59414 14.6073C9.91725 14.9304 10.1865 15.2535 10.5096 15.5766C10.9943 15.8997 10.8866 16.4921 10.9404 17.0306Z" fill="#E5A392"/>
<path d="M12.2867 25.1081C12.4482 25.2697 12.6098 25.4312 12.7175 25.5928C13.1483 24.5696 14.1714 26.6159 14.5484 25.1081C15.033 23.1156 15.6792 24.5696 16.2177 25.1081C16.3793 24.2465 16.3254 23.4388 15.8946 22.7387C15.2484 23.0618 14.6022 23.4388 13.7945 23.2772C13.5252 22.4156 14.0637 21.7155 14.2791 21.0155C14.4407 20.477 14.333 19.5077 15.1407 19.6154C15.9485 19.7231 15.8408 20.6924 15.9485 21.3924C17.1332 20.4231 18.0486 21.2847 19.0179 21.8771C19.7719 20.9078 20.5796 22.1463 21.3335 21.8232C22.7336 21.3386 22.0874 20.8539 21.3335 20.3693C20.095 20.3693 18.4256 20.8539 19.5026 18.4307C18.4794 17.9999 18.1563 16.9767 17.6717 16.1151C17.2409 15.4689 16.8101 14.8227 16.3254 14.1765C16.1639 14.338 16.0023 14.4996 15.8408 14.6612C14.8176 15.6305 12.7713 14.4996 12.2328 16.5998C11.802 16.7613 11.3712 16.9767 10.8866 17.1383C10.4019 17.8383 10.4019 18.6461 10.4019 19.5077C10.4557 20.4231 10.8866 21.1232 11.4251 21.8232C12.179 22.7925 10.8866 22.4156 10.8327 22.8464C10.9943 23.0079 11.102 23.1695 11.2635 23.3311C11.9097 23.708 13.6329 23.6003 12.2867 25.1081Z" fill="#D67863"/>
<path d="M7.27858 24.1388C6.95548 23.8157 6.68623 23.4926 6.36313 23.1695C6.04002 22.6848 5.77077 22.2002 5.44767 21.7155C4.53222 22.2002 4.10141 22.7387 5.01687 23.7619C5.55537 24.3542 6.04003 25.1081 5.87847 26.0236C6.52468 26.5621 6.79393 25.862 7.22473 25.5389C7.27858 25.1081 7.27858 24.6235 7.27858 24.1388Z" fill="#EAB3A5"/>
<path d="M11.3712 26.8852C11.5328 26.8313 11.6943 26.5621 11.6943 26.3467C11.6943 25.4312 11.1558 25.162 10.4019 25.1081C10.0788 25.2697 9.80955 25.4312 9.48644 25.5928C9.9711 26.2928 10.4019 27.1006 11.3712 26.8852Z" fill="#E9B2A4"/>
<path d="M30.3804 7.39136C31.6728 7.28366 32.5344 8.19912 33.5575 8.84532C34.6884 9.65308 34.2576 10.6762 33.9883 11.6994C34.1499 11.8609 34.3114 12.0225 34.473 12.184C36.0346 10.6224 35.55 8.36067 36.1962 6.47591C35.0653 4.80655 33.5575 5.77585 32.2113 5.9374C31.7805 6.09896 31.3497 6.31436 30.865 6.47591C30.6496 6.79901 30.5419 7.06826 30.3804 7.39136Z" fill="#D4735F"/>
<path d="M61.9366 53.4334C62.2597 53.4334 62.5828 53.4334 62.9059 53.3795C63.3367 52.9487 63.2829 52.6256 62.6905 52.4641C61.9905 52.3025 61.3443 52.141 60.6442 51.9256C60.6981 52.5718 60.4288 53.3257 61.0212 53.8103C61.3443 53.7026 61.6674 53.5411 61.9366 53.4334Z" fill="#665952"/>
<path d="M59.7288 50.0408C58.6518 50.1485 58.7595 51.0101 58.8672 51.7102C58.9749 52.3564 59.298 52.4102 59.7288 51.9256C59.7288 51.2794 59.7288 50.6332 59.7288 50.0408Z" fill="#5F544C"/>
<path d="M33.9883 11.6994C32.6421 11.6455 31.2958 12.0763 29.8957 11.6994C29.7342 11.6994 29.5726 11.6994 29.4649 11.6994C29.4649 12.0225 29.4649 12.3456 29.4649 12.6687C30.3804 13.1533 30.4342 13.8534 30.0573 14.8227C29.8419 15.3612 29.6803 16.2767 30.8112 15.5228C30.6496 12.9379 33.1267 14.2304 33.9883 13.1533C34.3653 12.9379 34.4191 12.6148 34.473 12.184C34.2576 12.0225 34.1499 11.8609 33.9883 11.6994Z" fill="#DC8674"/>
<path d="M30.8112 15.5228C31.7266 14.8227 32.4267 15.092 33.019 16.0074C33.1806 14.9843 34.5807 14.4458 33.9345 13.1533C33.1267 14.2842 30.6496 12.9379 30.8112 15.5228Z" fill="#D67966"/>
<path d="M69.2064 34.7473C69.6372 36.2551 71.1989 36.4705 71.9528 37.5475C72.599 36.5244 72.3836 35.3397 72.4374 34.2088C72.1143 33.8857 71.8451 33.5626 71.522 33.2934C71.0912 33.2934 70.6604 33.2395 70.2296 33.2395C69.7449 33.2395 69.2603 33.2395 68.7756 33.2934C68.1833 33.6165 67.6986 34.1011 67.3755 34.6935C67.914 35.5551 68.5602 35.0704 69.2064 34.7473Z" fill="#D4735F"/>
<path d="M70.6065 32.3241C70.8758 31.7855 71.5758 31.624 71.522 30.8701C71.4681 30.17 71.5758 29.2546 70.7681 29.2007C69.7988 29.093 70.445 30.6008 69.6911 30.8701C69.8526 31.3547 70.0142 31.8394 70.1219 32.3241C70.2834 32.3241 70.445 32.3241 70.6065 32.3241Z" fill="#EBB6A8"/>
<path d="M63.3906 35.1781C63.9829 35.232 64.7369 34.9627 65.1677 35.6628L65.2215 35.7166C65.8677 35.6628 66.2985 35.3397 66.5678 34.7473C66.2447 34.5858 65.9754 34.4242 65.6523 34.2627C65.0061 34.8012 63.9829 34.4242 63.3906 35.1781Z" fill="#E5A492"/>
<path d="M70.2296 33.2395C70.3373 32.9703 70.445 32.6472 70.6065 32.3779C70.445 32.3779 70.3373 32.3779 70.1757 32.3241C69.6911 32.6472 69.2603 32.9703 68.7756 33.2395C69.2603 33.2395 69.7449 33.2395 70.2296 33.2395Z" fill="#D77D67"/>
<path d="M28.9803 8.30682C29.4111 7.98372 29.8957 7.71446 30.3265 7.39136C30.4881 7.06826 30.6496 6.79901 30.8112 6.47591C30.7035 5.77585 30.3804 4.69885 29.6803 5.34505C28.9264 5.99125 28.0109 7.01441 28.6033 8.41452C28.711 8.36067 28.8726 8.36067 28.9803 8.30682Z" fill="#E8AB9A"/>
<path d="M29.4649 9.81462C29.3034 9.32997 29.1418 8.84532 29.0341 8.36067C28.8726 8.36067 28.7648 8.41452 28.6033 8.41452C28.4417 9.06072 28.2802 9.65307 28.1186 10.2993C28.5494 10.0839 28.9802 9.92233 29.4649 9.81462Z" fill="#D16B57"/>
<path d="M70.6065 32.3241C70.4988 32.5933 70.3911 32.9164 70.2296 33.1857C70.6604 33.1857 71.0912 33.2395 71.522 33.2395C73.0298 32.6472 73.4606 34.6396 74.6992 34.6935C73.7837 33.2395 74.3222 31.3547 73.299 29.9008C72.7067 30.2239 72.1143 30.547 71.522 30.8701C71.5758 31.624 70.8758 31.8394 70.6065 32.3241Z" fill="#E7A999"/>
<path d="M69.0987 37.6552C69.2603 37.1706 68.7756 36.7936 68.291 36.7398C68.1294 36.7398 67.914 36.8475 67.6986 36.9552C68.0756 37.9245 67.0524 39.1092 67.8602 39.8092C68.7218 40.617 69.6911 40.2939 70.1757 39.0553C69.2064 39.1092 68.7756 38.7861 69.0987 37.6552Z" fill="#DC8D7C"/>
<path d="M19.5026 18.3768C18.4256 20.8001 20.095 20.3154 21.3335 20.3154C21.8182 19.0769 21.2258 18.2153 20.4181 17.4075C20.095 17.7306 19.7718 18.0537 19.5026 18.3768Z" fill="#D26E57"/>
<path d="M25.2107 30.0085C25.2646 29.7392 25.3723 29.5238 25.3184 29.3084C25.2646 28.9315 25.1569 28.3391 24.7261 28.8238C24.403 29.2007 24.7799 29.7392 25.2107 30.0085Z" fill="#736058"/>
<path d="M15.1407 19.6154C14.333 19.5077 14.4407 20.5308 14.2791 21.0155C14.0637 21.7155 13.5252 22.4156 13.7945 23.2772C14.6022 23.4388 15.2484 23.0079 15.8946 22.7387C15.8946 22.3079 15.8946 21.8232 15.9485 21.3924C15.8408 20.6924 16.0023 19.7231 15.1407 19.6154Z" fill="#DB8775"/>
<path d="M14.0637 11.6994C13.9022 11.6994 13.7406 11.6994 13.6329 11.6994C13.0406 12.184 12.4482 12.6687 11.802 13.1533C11.802 13.3149 11.802 13.4764 11.802 13.638C11.5328 14.6612 11.8559 15.5766 12.2328 16.4921C12.7713 14.4458 14.8176 15.5228 15.8408 14.5535C13.956 14.5535 14.6022 12.7225 14.0637 11.6994Z" fill="#E49987"/>
<path d="M16.3793 14.0688C18.1563 14.1765 17.0793 12.3994 17.7255 11.8071C16.7562 12.2917 15.8408 12.7225 16.3793 14.0688C16.3793 14.1226 16.3254 14.1226 16.3793 14.0688Z" fill="#E9AE9F"/>
<path d="M33.9883 11.6994C34.2037 10.6762 34.6345 9.59923 33.5575 8.84532C33.4498 9.97618 32.8575 10.4608 31.8882 10.1916C30.4881 9.86848 30.3265 8.68377 30.4342 7.39136C30.0034 7.71446 29.5188 7.98372 29.088 8.30682C29.2495 8.79147 29.4111 9.27612 29.5188 9.76078C29.8419 10.3531 30.0573 10.9993 29.9496 11.6994C31.242 12.0763 32.6421 11.6455 33.9883 11.6994Z" fill="#D67B66"/>
<path d="M11.3712 23.2234C11.4251 23.9773 11.6943 24.6235 12.2867 25.1081C13.6329 23.6003 11.9097 23.708 11.3712 23.2234Z" fill="#E4A08F"/>
<path d="M63.3906 35.1781C63.0675 35.3397 62.7982 35.5012 62.4751 35.6628C63.3906 36.7398 64.2522 35.6628 65.1677 35.6628C64.683 34.9627 63.9829 35.232 63.3906 35.1781Z" fill="#E9B1A2"/>
<path d="M7.27858 24.1388C6.95548 23.4388 8.14019 22.3079 6.90163 21.9848C6.25543 21.7694 6.41698 22.7387 6.36313 23.2233C6.68623 23.5464 7.00933 23.8157 7.27858 24.1388Z" fill="#E6A695"/>
<path d="M13.6329 11.6994C12.8252 12.0225 11.9097 10.7301 11.1558 11.8071C10.725 12.5071 11.6405 12.6148 11.802 13.0995C12.4482 12.6687 13.0406 12.184 13.6329 11.6994Z" fill="#E5A392"/>
<path d="M31.8343 10.1916C32.8036 10.4608 33.4498 9.92233 33.5037 8.84532C32.5344 8.19912 31.6728 7.28366 30.3265 7.39136C30.2727 8.68377 30.4881 9.86848 31.8343 10.1916Z" fill="#D98270"/>
</svg>
