<svg width="26" height="22" viewBox="0 0 26 22" fill="none" xmlns="http://www.w3.org/2000/svg">
<path d="M22.85 5.20304C22.95 5.30304 23.15 5.50304 23.25 5.60304C23.95 6.10304 24.05 6.80304 24.05 7.50304C24.05 7.80304 23.95 8.10304 23.95 8.40304C24.35 8.80304 24.85 9.00304 24.85 9.70304C24.75 10.303 24.75 10.903 24.35 11.503C24.45 11.903 24.65 12.103 24.85 12.403C25.35 13.103 25.55 13.803 25.35 14.603C25.25 14.803 25.25 15.103 25.15 15.303C24.85 15.703 24.55 16.003 24.25 16.203C23.45 16.503 22.75 16.203 22.15 16.203C21.95 16.503 21.95 16.803 21.85 17.003C21.75 17.203 21.75 17.503 21.55 17.703C21.15 18.503 20.45 19.203 19.85 19.803C19.75 19.903 19.55 20.003 19.35 20.103C18.95 20.203 18.55 20.403 18.25 20.603C17.85 20.903 17.35 21.003 16.85 21.103C16.05 21.203 15.25 21.303 14.45 21.303C13.85 21.303 13.35 21.303 12.75 21.403C12.55 21.403 12.25 21.403 11.95 21.403C11.05 21.303 10.25 21.103 9.45 21.003C8.95 20.903 8.45 20.903 7.95 21.003C6.85 21.203 5.85 21.003 4.85 20.703C3.95 20.303 3.15 20.003 2.45 19.403C1.65 18.803 1.15 18.003 1.05 17.003C1.05 16.903 1.05 16.903 1.05 16.803C1.05 16.503 1.05 16.103 0.95 15.803C0.85 15.503 0.55 15.303 0.45 15.003C0.35 14.803 0.25 14.603 0.15 14.503C-0.05 14.103 -0.05 13.703 0.15 13.303C0.25 13.003 0.35 12.703 0.45 12.403C0.55 12.103 0.65 11.703 0.65 11.403C0.65 11.103 0.75 10.703 0.85 10.403C0.85 10.203 0.95 10.103 0.95 9.90304C0.95 9.80304 0.95 9.70304 0.85 9.60304C0.55 9.20304 0.75 8.70304 0.55 8.30304C-0.05 7.20304 -0.05 6.10304 0.45 5.00304C0.55 4.90304 0.55 4.80304 0.55 4.60304C0.75 4.50304 0.95 4.30304 1.05 4.20304C1.45 3.70304 1.95 3.60304 2.45 3.50304C2.95 3.40304 3.55 3.30304 4.15 3.20304C4.25 3.20304 4.45 3.20304 4.55 3.20304C4.95 3.50304 5.55 3.40304 5.95 3.50304C6.45 3.60304 7.05 3.50304 7.45 3.20304C7.65 3.20304 7.75 3.10304 7.85 3.00304C8.75 2.40304 9.75 2.20304 10.75 2.30304C11.05 2.30304 11.35 2.40304 11.65 2.40304C11.85 2.40304 12.05 2.30304 12.05 2.10304C12.05 1.50304 12.45 1.10304 12.85 0.803038C13.35 0.403038 13.85 0.103038 14.45 0.103038C14.55 0.103038 14.65 0.00303819 14.75 0.103038C15.35 0.303038 15.85 0.203038 16.45 0.303038C17.05 0.403038 17.55 0.503038 18.15 0.703038C19.55 1.10304 20.65 1.90304 21.65 2.90304C21.95 3.20304 22.15 3.50304 22.35 3.90304C22.45 4.30304 22.65 4.70304 22.85 5.20304Z" fill="#FCDB71"/>
</svg>
