<svg width="80" height="102" viewBox="0 0 80 102" fill="none" xmlns="http://www.w3.org/2000/svg">
<path d="M67.4495 90.2064C71.6111 93.1339 73.8966 97.5964 78.1461 99.443C72.5747 91.5882 66.0573 84.5738 60.2858 76.933C56.9422 72.444 53.2529 68.1533 50.4393 63.3977C47.0766 57.7278 43.3295 52.3404 40.0283 46.6477C39.944 46.6091 39.7984 46.5933 39.6914 46.4933C38.7297 47.4792 40.7034 48.8429 39.4276 49.7358C47.1195 63.3024 56.2713 75.9076 65.774 89.0814C63.0614 88.551 61.8721 86.4768 59.8947 86.2326C60.0455 87.0152 60.7788 87.8611 59.7417 88.4557C58.8888 88.982 58.0727 89.9837 56.8341 88.9062C56.3218 88.4674 55.4708 88.4339 54.7813 88.2706C53.6335 89.8847 53.2407 88.0738 51.837 88.2456C53.5287 86.779 54.0145 88.2758 54.7813 88.2706C54.3323 87.2493 54.2587 86.2983 55.059 85.4422C55.8942 85.6213 55.0604 87.3284 56.1273 87.0022C57.4399 86.5849 55.6802 85.4212 56.3418 84.7563C52.8186 83.5485 49.8548 84.7886 47.1032 86.7884C46.4346 87.2462 45.4361 87.7567 45.7781 88.6779C46.0359 89.5606 47.0693 90.0854 47.9659 90.2417C51.9278 90.9372 55.8775 90.6589 59.9236 91.393C63.9469 92.0657 67.6017 92.8753 70.8825 95.5008C70.5442 93.4601 68.3229 92.7473 67.4495 90.2064Z" fill="#544D47"/>
<path d="M35.582 46.3417C33.7502 46.1132 34.5979 44.8202 34.0331 44.0516C35.4912 43.65 36.0543 44.9784 37.0123 45.1119C36.8615 44.3293 35.8984 43.429 36.874 42.8571C37.9111 42.2625 38.1443 43.6434 38.6794 44.1436C39.3215 44.7438 39.5178 45.6492 39.63 46.5161C39.7142 46.5547 39.8598 46.5705 39.9668 46.6705C40.3851 43.0911 41.6068 39.9821 44.1147 37.5137C44.2393 36.9084 43.9341 36.4626 43.4446 36.0853C43.4218 36.0239 43.3604 36.0467 43.3604 36.0467C43.3674 36.2537 43.2902 36.4222 43.1515 36.6134C42.3093 36.2272 41.5058 35.7569 40.8581 36.8359C40.7562 37.5026 40.5929 38.1922 40.4683 38.7975C39.1976 40.4572 36.3868 39.4741 35.5582 41.948C35.3879 42.4305 34.7914 41.9531 34.4704 41.653C34.3494 41.1389 33.8529 40.5545 34.3373 40.1651C34.8216 39.7756 35.0496 40.3898 35.3093 40.7127C34.8165 39.0088 35.8047 36.9648 33.9152 35.6397C33.6993 35.9994 33.4132 36.7346 33.2675 36.7187C31.9112 36.4536 32.7976 35.0763 32.3169 34.3463C31.8009 35.027 31.3868 35.041 30.822 34.2723C30.0431 33.3036 29.2027 32.3577 28.3852 31.4733C28.0097 31.403 27.6115 31.2713 27.236 31.2011C25.2567 31.5166 25.6475 33.8872 24.3946 34.8415C25.6136 37.1842 27.4329 38.8847 29.4137 40.4555C29.8729 43.0104 29.8729 43.0104 31.8099 43.8985C32.4855 43.6477 32.7452 43.9706 32.9345 44.669C33.1695 45.4902 32.6028 45.2813 32.2115 45.3567C31.5517 45.4619 30.8761 45.7127 30.1778 45.9021C30.5672 46.3864 30.9339 46.8094 31.3233 47.2937C32.0198 47.6641 32.7778 48.0116 33.4743 48.382C34.1955 48.254 34.8781 48.2102 35.5537 47.9594C36.9276 47.5193 36.3944 46.4594 35.582 46.3417ZM28.8794 35.0634C28.5723 35.1774 28.3811 35.0387 28.5128 34.6404C28.6672 34.3036 28.8445 34.0281 29.0832 33.7299C29.213 33.8913 29.2586 34.0141 29.3884 34.1756C29.4024 34.5897 29.2479 34.9266 28.8794 35.0634Z" fill="#554D47"/>
<path d="M25.1869 8.55167C25.2814 10.1239 25.6443 11.6663 26.0915 13.2473C25.3759 11.696 24.583 10.3132 22.8126 10.062C22.7335 10.7902 22.6544 11.5184 22.4297 12.2307C22.3367 12.5448 21.9295 12.7658 21.6225 12.8798C21.1925 13.0394 20.9101 12.6551 20.8961 12.241C21.1404 10.2635 19.2313 10.2035 18.391 9.25763C17.8625 11.4105 17.2111 13.609 19.9289 14.9061C20.5133 14.4097 21.5136 13.3395 21.4466 15.0415C21.3145 17.8858 22.5406 20.4355 22.9841 23.136C23.8332 23.7292 24.5176 23.1257 25.2774 22.9135C25.7934 22.2328 25.49 21.2273 26.2815 20.7239C25.9255 19.3885 26.3275 18.4007 27.4874 17.7605C28.6194 16.292 30.6988 15.8695 31.2729 13.8395C31.2045 13.6552 31.2203 13.5096 31.1519 13.3253C30.9574 11.8602 29.3326 11.6248 28.8766 10.3964C28.6486 9.78228 27.4133 10.0312 27.7697 8.92059C27.6031 8.28362 27.3137 7.69225 26.7242 7.42194C26.0258 7.61132 25.3046 7.73929 25.1869 8.55167Z" fill="#E49B88"/>
<path d="M31.8327 43.96C29.8957 43.0718 29.8957 43.0718 29.4365 40.5169C29.3872 41.5135 28.659 41.4345 28.0923 41.2256C26.4149 40.6603 24.7427 40.8618 23.0863 40.9176C22.488 41 21.951 41.0596 21.3527 41.1419C20.8139 41.7612 22.6788 43.5846 20.5943 43.2404C19.5521 43.0682 17.6658 43.0697 18.3786 40.8484C17.7118 40.7465 17.0837 40.5604 16.4169 40.4585C15.4324 41.3831 13.8779 40.7722 12.939 41.8196C13.2615 44.0059 13.8752 46.2239 16.5529 45.719C18.2409 45.3719 19.8113 45.8371 21.3905 45.9497C22.3364 45.1094 23.219 44.8516 24.0119 46.2344C26.3769 47.5227 28.9424 46.151 31.3005 47.2323C30.9111 46.7479 30.5444 46.325 30.155 45.8407C30.006 44.4983 31.4238 44.7407 31.8327 43.96Z" fill="#564F48"/>
<path d="M37.8691 31.796C37.762 31.6959 37.655 31.5959 37.4866 31.5187C37.5936 31.6187 37.7006 31.7187 37.8691 31.796Z" fill="#564F48"/>
<path d="M39.6467 20.584C39.9166 22.4405 38.7302 24.1388 39.2913 26.0269C38.8279 27.0375 40.677 29.0066 38.1538 29.1746C37.8327 28.8745 37.5117 28.5744 37.252 28.2515C37.0027 29.4621 37.8272 30.5537 37.9691 31.689C38.8536 30.8714 39.5468 29.9153 41.0767 31.0245C42.0557 31.7791 43.5734 31.9145 44.8492 31.0216C45.2465 26.821 45.091 22.8257 41.6278 19.7088C40.9136 20.0438 40.2609 20.356 39.6467 20.584ZM43.33 29C43.23 29.107 42.8545 29.0368 42.586 29.0665C42.6284 27.8629 42.6321 26.7434 42.6744 25.5397C43.2304 26.661 44.3462 27.7842 43.33 29Z" fill="#564F48"/>
<path d="M6.92308 26.932C8.30731 28.0254 6.98593 28.7955 5.65941 28.7988C6.22058 30.6869 6.96599 32.5066 9.01883 33.1421C9.31893 32.8211 9.55761 32.5228 9.85771 32.2018C9.23841 31.663 8.68053 31.1014 8.06123 30.5626C8.46321 29.5748 9.31052 30.7278 9.76508 30.0699C9.41425 29.5013 8.89498 28.8555 8.78982 28.1957C8.57065 27.2289 8.32868 26.2006 10.0516 26.8887C11.2079 27.3679 12.5344 27.3647 13.6031 26.4787C13.0978 26.247 12.6539 25.9925 12.1486 25.7608C11.7824 22.8919 10.5405 20.4878 8.74589 18.2889C9.34567 20.0928 8.5645 22.1298 9.74682 23.997C9.00797 24.8303 8.12205 23.7616 7.29385 23.7895C7.178 24.0422 7.10077 24.2106 6.98492 24.4633C7.2199 25.2845 5.2406 25.6 6.92308 26.932Z" fill="#E5A291"/>
<path d="M16.4556 40.3743C16.1592 39.5759 16.2611 38.9092 16.8841 38.3285C17.1842 38.0074 17.4228 37.7092 17.7229 37.3881C18.3706 36.3091 16.5634 35.5824 17.2725 34.4806C17.1515 33.9665 18.7623 33.7878 17.5149 33.0629C16.6271 32.5539 15.8166 31.8764 15.3676 30.8551C14.7534 31.0831 14.1778 31.2269 13.4655 31.0022C12.7759 30.8389 12.8992 28.3473 11.7356 30.107C10.865 31.3387 11.542 32.9741 13.0054 33.3393C15.3039 33.8837 14.9754 35.8225 15.3542 37.2193C15.498 37.7948 14.7363 38.5667 14.3888 39.3247C14.0342 39.8756 14.0235 40.788 13.0585 40.4474C12.6672 40.5228 12.0935 40.1069 12.0373 40.8965C12.3583 41.1966 12.7408 41.4739 13.0618 41.774C13.8779 40.7722 15.471 41.2989 16.4556 40.3743Z" fill="#E4A08F"/>
<path d="M12.9129 40.4316C12.6868 39.2577 11.8376 38.6645 10.9726 38.2169C9.49536 37.4376 9.75869 36.641 10.5976 35.7007C11.691 34.3164 10.6208 33.3161 9.88051 32.2632C9.58041 32.5842 9.34173 32.8825 9.04163 33.2035C9.26963 33.8177 9.58185 34.4705 9.01143 35.3811C7.94496 33.2613 5.93773 32.7486 4.19197 31.999C3.28839 31.6357 3.91837 31.262 4.01142 30.948C3.98862 30.8865 3.96582 30.8251 3.94302 30.7637C3.75877 30.8321 3.63594 30.8777 3.45169 30.9461C3.08319 31.0829 2.77611 31.1969 2.40761 31.3337C1.93024 31.9302 2.30387 32.5602 2.53187 33.1744C4.47584 34.2696 6.54264 35.3192 7.65471 37.5619C8.78444 39.0991 10.3073 40.0013 11.853 40.9649C11.9479 40.0911 12.583 40.4842 12.9129 40.4316Z" fill="#E6A695"/>
<path d="M40.9767 31.1315C39.4468 30.0223 38.7536 30.9785 37.8691 31.796C37.7234 31.7802 37.6164 31.6801 37.4866 31.5187C37.1884 31.28 36.8901 31.0413 36.5918 30.8026C36.5719 34.5137 36.5719 34.5137 39.5688 34.8687C41.241 34.6672 40.2002 36.3813 40.8581 36.8359C41.5058 35.7569 42.3093 36.2272 43.1515 36.6134C43.2902 36.4222 43.306 36.2765 43.3604 36.0467C43.4623 35.3799 43.1273 34.6657 43.3748 34.0148C43.1645 32.6953 45.8017 32.8343 44.665 31.09C43.5348 31.9987 42.0171 31.8634 40.9767 31.1315Z" fill="#645953"/>
<path d="M7.38404 19.703C8.0666 19.6592 7.8386 19.045 7.74042 18.5923C7.55104 17.8939 7.82834 17.5115 8.41971 17.2221C8.26011 16.7921 7.109 17.0797 7.67942 16.1691C8.07257 15.534 8.66394 15.2446 9.19019 16.0975C10.6619 18.556 13.1623 18.3265 15.3994 18.8937L15.4608 18.8709C13.8012 17.6002 12.8575 15.4348 10.6819 14.8449C10.452 14.7905 10.0467 14.4517 9.95554 14.2061C9.85038 13.5463 10.4487 13.4639 10.8628 13.45C11.9437 13.5379 12.8193 13.0731 13.7634 12.7925C9.62793 11.2529 6.09369 13.4035 6.57207 17.1393C6.5088 17.7218 6.36132 18.2657 6.44369 18.8641C6.54187 19.3168 6.90852 19.7397 7.38404 19.703Z" fill="#E5A291"/>
<path d="M34.2957 6.35816C35.7627 5.60391 37.0948 3.92142 39.0685 5.28513C39.1071 5.20091 39.1685 5.17811 39.2072 5.09389C37.2375 0.164735 36.9165 -0.135366 33.9527 1.10467C32.5015 1.71328 31.1484 2.77462 30.606 4.51339C31.792 5.26107 33.8978 3.7805 34.2957 6.35816Z" fill="#E0927E"/>
<path d="M9.95554 14.2061C9.98533 14.4745 10.3906 14.8133 10.7047 14.9063C12.8803 15.4962 13.824 17.6616 15.4836 18.9323C15.4836 18.9323 15.5064 18.9937 15.5679 18.9709C15.9978 18.8113 16.4119 18.7973 16.8171 19.1361C17.3681 19.4906 17.9943 20.2364 18.34 20.0382C19.1157 19.6804 18.9193 18.775 18.7299 18.0766C18.5563 17.2326 18.1985 16.4569 17.9021 15.6585C17.7249 15.934 17.4545 16.5235 17.3703 16.4849C16.658 16.2602 16.8371 15.425 16.5091 14.9178C15.6143 14.2018 14.8038 13.5243 13.909 12.8083C12.965 13.0889 12.0279 13.5765 11.0085 13.4658C10.4259 13.4025 9.82758 13.4849 9.95554 14.2061Z" fill="#E1917C"/>
<path d="M17.8179 15.6199C18.4251 15.1849 19.5339 16.101 19.9061 14.8447C17.1883 13.5476 17.8397 11.3491 18.3682 9.19622C18.4068 9.112 18.5297 9.0664 18.5683 8.98218C20.0832 5.34505 20.0832 5.34505 23.5272 7.28102C24.3642 6.9004 25.5451 6.8813 25.205 5.40032C22.082 3.76445 20.1255 4.14136 17.5702 7.04663C15.5221 9.62387 16.234 12.2946 17.5285 15.0285C17.5969 15.2128 17.7267 15.3742 17.8179 15.6199Z" fill="#E0927F"/>
<path d="M78.2159 101.513C80.4195 102.932 78.7021 100.564 79.2163 100.443C78.8952 100.143 78.5514 99.7817 78.2303 99.4816C73.9809 97.635 71.6953 93.1725 67.5338 90.245C68.3843 92.7245 70.5442 93.4601 70.9439 95.478C72.7948 96.8873 73.7454 99.2598 75.7736 100.394C76.5316 100.741 77.4124 101.043 78.2159 101.513Z" fill="#2B2622"/>
<path d="M39.8086 18.0082C39.7402 17.824 39.6718 17.6397 39.6262 17.5169C38.563 16.7236 37.5891 16.7357 36.9029 17.899C35.9323 19.2376 35.7062 18.0637 35.7466 17.4197C35.7662 16.1546 35.4083 15.379 34.1591 15.2139C34.9273 17.095 32.8251 17.4561 32.5372 18.751C34.0707 18.7407 35.2726 19.3428 36.2497 20.6572C36.8936 20.6976 37.3533 20.8065 37.8237 20.0029C38.8259 18.373 39.2819 19.6014 39.7309 20.6227C40.3837 20.3104 40.9979 20.0824 41.6506 19.7702C41.6665 19.6246 41.5981 19.4403 41.5525 19.3175C40.4786 19.4366 39.4275 19.6172 39.8086 18.0082Z" fill="#D2725E"/>
<path d="M56.1273 87.0022C55.0604 87.3284 55.917 85.6827 55.059 85.4422C54.2587 86.2983 54.3323 87.2493 54.7813 88.2706C55.4936 88.4953 56.3218 88.4674 56.8341 88.9062C58.1341 89.9609 58.866 88.9205 59.7417 88.4557C60.7788 87.8611 60.0455 87.0152 59.8947 86.2326C58.677 85.7762 57.9158 84.1021 56.319 84.6949C55.6802 85.4212 57.4399 86.5849 56.1273 87.0022Z" fill="#655E59"/>
<path d="M9.76962 24.0584C8.67152 22.2299 9.45269 20.1929 8.76869 18.3504C8.63189 17.9819 8.49509 17.6134 8.35829 17.2449C7.82834 17.5115 7.48962 17.9167 7.679 18.6151C7.77719 19.0678 8.00519 19.682 7.32262 19.7258C6.8471 19.7625 6.39623 19.301 6.35947 18.8255C6.2999 18.2885 6.42459 17.6832 6.48785 17.1007C4.67842 19.3796 4.75893 20.5377 7.17102 23.8351C8.18347 23.7388 9.00797 24.8303 9.76962 24.0584Z" fill="#E29582"/>
<path d="M28.7696 10.2964C29.2256 11.5247 30.8504 11.7601 31.0449 13.2253C31.2291 13.1569 31.352 13.1113 31.5362 13.0429C31.4469 12.2375 31.3803 11.4935 31.291 10.6881C30.0226 9.34209 30.6335 7.78757 31.2197 6.73137C31.7673 5.75939 32.569 6.78951 32.9883 7.54233C33.4112 7.17568 33.8113 6.74761 34.2957 6.35816C33.8978 3.7805 31.792 5.26107 30.606 4.51339C29.6601 5.3537 29.158 6.44852 28.9315 7.72061C29.1893 8.60324 30.1138 9.58776 28.7696 10.2964Z" fill="#E6A08F"/>
<path d="M39.23 5.15531L39.0913 5.34654C39.1523 7.76973 40.6627 10.144 39.5428 12.5863C39.7024 13.0162 39.7391 13.4918 39.4004 13.897C40.6232 15.1202 39.3386 16.3658 39.5647 17.5397C39.6331 17.724 39.7015 17.9082 39.7471 18.031C40.2385 17.8486 40.7298 17.6662 41.2826 17.461C40.7144 15.3659 41.3499 13.3131 41.2187 11.2654C41.1647 9.04922 41.5178 6.61206 39.23 5.15531Z" fill="#DF9280"/>
<path d="M37.0123 45.1119C36.0543 44.9784 35.4912 43.65 34.0331 44.0516C34.5979 44.8202 33.7502 46.1132 35.582 46.3417C36.3944 46.4594 36.9048 47.4578 35.5309 47.898C34.8325 48.0874 34.1727 48.1926 33.4515 48.3205C35.2429 49.1929 37.3083 48.3563 39.068 49.5199C39.0893 47.6951 36.8067 47.0051 37.0123 45.1119Z" fill="#5A554F"/>
<path d="M39.7142 46.5547C39.5406 45.7107 39.4057 44.7824 38.7636 44.1822C38.2285 43.6821 37.9339 42.3239 36.9583 42.8958C35.9212 43.4904 36.9457 44.3679 37.0965 45.1505C36.8909 47.0437 39.1736 47.7337 39.1522 49.5586C39.2206 49.7428 39.3276 49.8428 39.5347 49.8358C40.7034 48.8429 38.7297 47.4792 39.7142 46.5547Z" fill="#211D19"/>
<path d="M2.57049 33.0901C2.07915 33.2725 1.58782 33.4549 1.09649 33.6373C2.90694 35.6906 5.31944 36.542 7.69333 37.4776C6.58126 35.235 4.57587 34.1626 2.57049 33.0901Z" fill="#E29783"/>
<path d="M5.65941 28.7988C6.98593 28.7955 8.30731 28.0254 6.92308 26.932C5.2406 25.6 7.15848 25.3073 7.00772 24.5247C5.9776 25.3264 4.24581 24.9909 3.58933 26.4226C3.84198 26.5385 4.09463 26.6543 4.34728 26.7702C4.82793 27.5002 5.28578 28.1688 5.65941 28.7988Z" fill="#E8AC9D"/>
<path d="M2.50764 31.2267C2.87614 31.0899 3.18322 30.9759 3.55172 30.8391C3.75549 29.5056 2.84862 27.8157 4.43149 26.8088C4.17884 26.6929 3.92619 26.5771 3.67354 26.4612C2.48383 26.833 1.95901 27.8664 1.77106 29.0543C2.45177 29.5703 2.23404 30.4897 2.50764 31.2267Z" fill="#E59D8A"/>
<path d="M2.57049 33.0901C2.34249 32.476 2.05307 31.8846 2.44622 31.2495C2.17262 30.5125 2.39036 29.5931 1.62542 29.0385C0.593454 30.3999 0.335253 31.9633 1.09649 33.6373C1.58782 33.4549 2.07915 33.2725 2.57049 33.0901Z" fill="#E5A291"/>
<path d="M25.1822 5.3389C25.5223 6.81989 24.3414 6.83899 23.5272 7.28102C23.5956 7.46527 23.664 7.64952 23.7324 7.83377C24.2377 8.06547 24.6816 8.31997 25.1869 8.55167C25.366 7.71649 26.11 7.64994 26.6172 7.3219C26.2207 6.6305 26.0858 5.70227 25.1822 5.3389Z" fill="#E59D8A"/>
<path d="M28.7696 10.2964C30.1138 9.58776 29.1893 8.60324 28.9315 7.72061C28.5085 8.08726 28.0856 8.45391 27.6855 8.88197C27.2449 9.95399 28.5416 9.68224 28.7696 10.2964Z" fill="#E8AB9A"/>
<path d="M39.8086 18.0082C39.4503 19.6786 40.4786 19.4366 41.4296 19.3631C41.4701 18.7192 41.7176 18.0682 41.344 17.4382C40.7912 17.6434 40.2999 17.8258 39.8086 18.0082Z" fill="#EBB5A7"/>
<path d="M21.3905 45.9497C22.2308 46.8956 23.0748 46.722 24.0119 46.2344C23.219 44.8516 22.3364 45.1094 21.3905 45.9497Z" fill="#DEA494"/>
<path d="M17.2861 16.4463C17.3703 16.4849 17.6406 15.8954 17.8179 15.6199C17.7267 15.3742 17.6583 15.19 17.5057 14.9671C17.153 14.9583 16.7161 14.9108 16.3634 14.902C16.6915 15.4092 16.5123 16.2443 17.2861 16.4463Z" fill="#E49B88"/>
<path d="M51.837 88.2456C53.2407 88.0738 53.6563 89.9461 54.7813 88.2706C53.9531 88.2986 53.4673 86.8018 51.837 88.2456Z" fill="#655F5A"/>
<path d="M32.6258 33.6726C30.9824 29.8103 31.2954 25.5711 30.1889 21.6493C28.9187 20.863 27.6554 20.2837 26.1745 20.6239C25.383 21.1273 25.7092 22.1942 25.1704 22.8135C25.3756 23.3662 25.5808 23.919 25.7632 24.4103C27.0265 24.9896 28.0669 25.7214 28.0385 27.3392C29.0421 27.5956 30.0457 27.8519 28.6541 28.9975C28.6206 29.8485 28.5643 30.6381 28.4694 31.5119C29.3098 32.4578 30.1273 33.3423 30.9062 34.311C31.4482 35.0182 31.8623 35.0042 32.4011 34.3849C32.4556 34.1551 32.5714 33.9024 32.6258 33.6726Z" fill="#D7806C"/>
<path d="M39.6302 34.8459C36.6105 34.4295 36.6105 34.4295 36.6533 30.7798C36.9515 31.0185 37.2498 31.2572 37.548 31.4959C37.655 31.5959 37.762 31.6959 37.9305 31.7732C37.7657 30.5765 36.964 29.5464 37.2134 28.3357C36.5713 27.7355 35.8748 27.3651 35.7324 28.6758C35.692 29.3198 36.0112 30.1796 35.0373 30.1917C34.0635 30.2039 34.5427 29.0476 34.0532 28.6703C33.4567 28.1929 34.2905 26.4858 32.8779 27.0102C31.9566 27.3522 32.6741 28.3437 32.8407 28.9807C33.2404 30.9986 34.7982 32.936 33.8784 35.1642C33.9468 35.3485 34.0152 35.5327 34.0608 35.6556C35.8889 37.0034 34.9621 39.0247 35.4549 40.7285C35.1548 41.0496 34.9161 41.3478 34.616 41.6689C34.9371 41.969 35.5336 42.4463 35.7038 41.9638C36.5325 39.4899 39.3432 40.473 40.6139 38.8133C38.984 37.8111 38.5052 36.5214 39.6302 34.8459ZM35.533 35.6681C35.8191 34.9329 36.2541 35.5401 36.4137 35.97C36.5664 36.1929 36.5347 36.4842 36.5873 36.8141C35.9592 36.628 35.3627 36.1506 35.533 35.6681Z" fill="#5C5049"/>
<path d="M24.2331 34.9713C23.3295 34.608 22.0611 33.2619 22.3292 35.6781C22.5149 37.496 20.4429 35.6796 20.4462 37.0061C21.234 37.6221 21.9831 38.3223 22.8708 38.8313C24.0955 39.4948 23.4339 40.1597 23.1249 40.8334C24.7813 40.7776 26.4535 40.5761 28.1309 41.1414C28.759 41.3275 29.4258 41.4293 29.4751 40.4327C27.4329 38.8847 25.6751 37.1614 24.456 34.8187C24.4174 34.9029 24.2331 34.9713 24.2331 34.9713Z" fill="#D98471"/>
<path d="M26.036 30.0393C24.6797 29.7741 23.2708 29.179 22.33 30.7861C22.5124 31.2775 22.7176 31.8302 22.8386 32.3444C23.6491 33.0218 24.0526 33.9203 24.2103 34.9099L24.3946 34.8415C25.6475 33.8872 25.2567 31.5166 27.236 31.2011C26.8921 30.8396 26.4641 30.4394 26.036 30.0393Z" fill="#66544C"/>
<path d="M39.6302 34.8459C38.4824 36.46 38.9612 37.7497 40.5525 38.8361C40.6544 38.1694 40.8177 37.4798 40.9423 36.8745C40.2616 36.3585 41.2638 34.7286 39.6302 34.8459Z" fill="#78736E"/>
<path d="M28.6541 28.9975C27.9311 29.6852 26.4854 28.6146 26.036 30.0393C26.4641 30.4394 26.8921 30.8396 27.3202 31.2397C27.6957 31.31 28.094 31.4416 28.4694 31.5119C28.5029 30.6609 28.5592 29.8713 28.6541 28.9975Z" fill="#D88A79"/>
<path d="M30.2392 45.8793C30.9376 45.6899 31.5745 45.5233 32.2729 45.3339C32.6642 45.2585 33.2537 45.5289 32.996 44.6462C32.8294 44.0093 32.5469 43.6249 31.8713 43.8757C31.4238 44.7407 30.006 44.4983 30.2392 45.8793Z" fill="#6A635E"/>
<path d="M33.817 35.187C33.1433 34.8781 33.6611 33.6376 32.6258 33.6726C32.5714 33.9024 32.4556 34.1551 32.4239 34.4463C32.9046 35.1763 31.9954 36.4922 33.3745 36.8188C33.5202 36.8346 33.8291 36.1609 34.0222 35.7398C33.931 35.4941 33.8854 35.3713 33.817 35.187Z" fill="#211D19"/>
<path d="M28.4514 34.6632C28.2969 35.0001 28.5723 35.1774 28.818 35.0862C29.1865 34.9494 29.3638 34.6739 29.2656 34.2212C29.1586 34.1212 29.0902 33.9369 28.9604 33.7755C28.8445 34.0281 28.6058 34.3264 28.4514 34.6632Z" fill="#6C564E"/>
<path d="M34.4443 40.2651C33.9599 40.6546 34.395 41.2617 34.5774 41.7531C34.8775 41.432 35.1162 41.1338 35.4163 40.8127C35.1338 40.4284 34.9058 39.8142 34.4443 40.2651Z" fill="#69645E"/>
<path d="M30.1661 21.5878C30.1717 19.9086 30.4597 18.6138 32.4529 18.7124C32.7181 17.3561 34.8431 17.0564 34.0748 15.1753C33.938 14.8068 33.8012 14.4383 33.6644 14.0698C32.8521 13.9521 31.9783 13.8572 31.1659 13.7394C30.5917 15.7695 28.4282 16.1534 27.3804 17.6605C27.2311 18.7641 26.8291 19.7519 26.1745 20.6239C27.594 20.3065 28.8959 20.8015 30.1661 21.5878Z" fill="#D06B54"/>
<path d="M16.0992 20.5905C17.1238 21.468 17.162 23.8298 19.3344 23.0932C19.4502 22.8406 19.5661 22.5879 19.6819 22.3353C18.5592 21.0051 19.3981 20.0647 20.2598 19.1858C19.8578 20.1736 21.8157 21.6829 19.7662 22.3739C20.5311 22.9285 21.296 23.4831 22.1224 24.0149C22.2085 23.4938 22.5314 23.2342 22.9613 23.0746C22.5178 20.3741 21.3145 17.8858 21.4238 14.9801C21.4908 13.2781 20.4905 14.3482 19.9061 14.8447C19.5953 16.0782 18.4865 15.1621 17.8179 15.6199C18.1143 16.4183 18.4721 17.1939 18.6457 18.038C18.8351 18.7363 19.0542 19.7032 18.2558 19.9996C17.9487 20.1136 17.261 19.3906 16.7329 19.0974C17.0065 19.8344 16.7748 20.3397 16.0992 20.5905Z" fill="#E5A392"/>
<path d="M20.8733 12.1796C20.8259 12.6165 21.1469 12.9166 21.5997 12.8184C21.9067 12.7044 22.3139 12.4834 22.4069 12.1693C22.6316 11.4569 22.6493 10.7516 22.7898 10.0006C22.4636 8.93372 22.7497 8.19857 23.7096 7.77235C23.6412 7.5881 23.5728 7.40385 23.5044 7.2196C20.0604 5.28363 20.0604 5.28363 18.5455 8.92077C18.5069 9.00498 18.4454 9.02778 18.3454 9.1348C19.2313 10.2035 21.1176 10.2021 20.8733 12.1796Z" fill="#E6A08F"/>
<path d="M22.8126 10.062C24.5216 10.336 25.3759 11.696 26.0915 13.2473C25.6443 11.6663 25.3428 10.1011 25.1869 8.55167C24.6816 8.31997 24.2377 8.06547 23.7324 7.83377C22.7725 8.25999 22.425 9.01794 22.8126 10.062Z" fill="#E7A999"/>
<path d="M22.061 24.0377C22.9785 24.8152 23.803 25.9067 25.1295 25.9034C25.3612 25.3981 25.5315 24.9156 25.786 24.4717C25.5808 23.919 25.3756 23.3662 25.1932 22.8749C24.4334 23.0871 23.749 23.6906 22.8999 23.0974C22.4699 23.257 22.1242 23.4552 22.061 24.0377Z" fill="#E9B1A2"/>
<path d="M33.6644 14.0698C33.8487 14.0014 34.0329 13.933 34.1558 13.8874C33.9208 13.0661 33.4243 12.4817 32.8436 11.8587C32.4207 12.2254 31.9364 12.6148 31.5134 12.9815C31.3292 13.0499 31.2063 13.0955 31.0221 13.1639C31.0905 13.3481 31.1361 13.471 31.1431 13.678C31.9783 13.8572 32.8521 13.9521 33.6644 14.0698Z" fill="#D2725E"/>
<path d="M27.3804 17.6605C26.2205 18.3007 25.8185 19.2885 26.1745 20.6239C26.8291 19.7519 27.2311 18.7641 27.3804 17.6605Z" fill="#D7806C"/>
<path d="M22.8708 38.8313C22.0059 38.3837 21.234 37.6221 20.4462 37.0061C20.1936 36.8902 19.9409 36.7744 19.7497 36.6357C18.8689 36.3338 18.3496 35.688 17.9076 34.8737C17.655 34.7579 17.4637 34.6192 17.2111 34.5034C16.5634 35.5824 18.3706 36.3091 17.6615 37.4109C18.5442 37.1531 19.2951 37.2936 19.6599 38.2763C19.7283 38.4606 19.6195 38.9203 19.5194 39.0273C18.4437 39.7061 17.6718 38.9445 16.8841 38.3285C16.3225 38.8864 16.1592 39.5759 16.4556 40.3743C17.1223 40.4762 17.7505 40.6623 18.4172 40.7642C19.4069 40.6064 20.4263 40.7172 21.3913 41.0577C21.9896 40.9754 22.5266 40.9158 23.1249 40.8334C23.4339 40.1597 24.0955 39.4948 22.8708 38.8313Z" fill="#E4A493"/>
<path d="M18.4172 40.7642C17.7044 42.9855 19.5907 42.984 20.6329 43.1562C22.7788 43.4776 20.9139 41.6542 21.3913 41.0577C20.3877 40.8014 19.4069 40.6064 18.4172 40.7642Z" fill="#61554D"/>
<path d="M30.1661 21.5878C31.2954 25.5711 30.9596 29.7489 32.603 33.6111C33.6383 33.5762 33.1433 34.8781 33.7942 35.1256C34.714 32.8974 33.179 31.0214 32.7565 28.942C32.6285 28.2209 31.8496 27.2522 32.7937 26.9716C34.2291 26.5086 33.3953 28.2157 33.969 28.6317C34.4585 29.009 34.0407 30.1424 34.9531 30.1531C35.9269 30.141 35.5849 29.2198 35.6482 28.6372C35.7906 27.3265 36.4643 27.6355 37.1292 28.2971C37.4502 28.5972 37.7713 28.8973 38.0309 29.2202C38.4329 28.2324 38.2524 27.1813 38.0332 26.2145C37.7387 24.8563 37.2371 23.5051 35.5067 25.056C35.2894 23.5294 36.1739 22.7118 36.4302 21.7082C36.2934 21.3397 36.1794 21.0326 36.0426 20.6641C35.0883 19.4112 33.8637 18.7477 32.3301 18.758C30.4597 18.6138 30.1331 19.9929 30.1661 21.5878Z" fill="#554E47"/>
<path d="M36.5531 21.6626C38.3058 22.6192 37.4385 25.1774 39.2527 26.1111C38.753 24.2002 39.9394 22.5019 39.6081 20.6683C39.1591 19.647 38.7031 18.4186 37.7009 20.0485C37.2691 20.7679 36.7708 20.7432 36.1268 20.7028C36.3023 20.987 36.4163 21.2941 36.5531 21.6626Z" fill="#D17965"/>
<path d="M36.5531 21.6626C36.3195 22.7277 35.435 23.5452 35.6295 25.0103C37.3599 23.4595 37.8387 24.7493 38.156 26.1689C38.3752 27.1357 38.5558 28.1868 38.1538 29.1746C40.6998 29.068 38.8279 27.0375 39.2913 26.0269C37.4386 25.1774 38.2216 22.5806 36.5531 21.6626Z" fill="#5C5049"/>
<path d="M43.33 29C44.4076 27.7614 43.2304 26.661 42.6744 25.5397C42.6321 26.7434 42.6284 27.8629 42.586 29.0665C42.7931 29.0596 43.1914 29.1912 43.33 29Z" fill="#655D57"/>
<path d="M14.7943 27.9932C14.5049 27.4018 14.3769 26.6807 13.6031 26.4787C12.5344 27.3647 11.2079 27.3679 10.0516 26.8887C8.3901 26.1778 8.57065 27.2289 8.78982 28.1957C8.9792 28.8941 9.47567 29.4785 9.76508 30.0699C9.31052 30.7278 8.46321 29.5748 8.06123 30.5626C8.68053 31.1014 9.23841 31.663 9.85771 32.2018C10.598 33.2547 11.6067 34.2778 10.5748 35.6393C11.1485 36.0552 11.6608 36.494 12.2345 36.9099C12.1521 36.3116 11.5188 35.3587 12.3242 35.2693C13.835 35.1976 13.0012 36.9048 13.6661 37.5664C13.8713 38.1192 14.0765 38.6719 14.2589 39.1632C14.6293 38.4667 15.3682 37.6334 15.2244 37.0578C14.8228 35.5996 15.1513 33.6608 12.8756 33.1779C11.435 32.8741 10.758 31.2386 11.6057 29.9456C12.7922 28.2473 12.6461 30.6775 13.3357 30.8408C14.0252 31.0041 14.6008 30.8603 15.2377 30.6937C14.8799 29.9181 14.5379 28.9968 14.7943 27.9932Z" fill="#E8AC9B"/>
<path d="M14.3405 23.7591C14.2721 23.5749 14.2037 23.3906 14.1353 23.2064C13.7459 22.722 12.6562 22.9868 12.8511 22.006C13.1708 20.4198 14.762 21.5062 15.6307 20.8344C15.815 20.766 15.9992 20.6976 16.122 20.652C16.7976 20.4012 17.0293 19.8959 16.7557 19.1589C16.3505 18.8201 15.9364 18.8341 15.5064 18.9937C15.445 19.0165 15.4222 18.9551 15.3608 18.9779C13.1465 18.4722 10.6233 18.6402 9.15157 16.1817C8.60252 15.2674 8.03396 15.6182 7.64081 16.2534C7.00897 17.1867 8.22149 16.8764 8.38109 17.3063C8.51789 17.6748 8.65469 18.0433 8.79149 18.4118C10.5861 20.6107 11.828 23.0147 12.1942 25.8837C13.3453 25.5961 13.7245 24.5469 14.3405 23.7591Z" fill="#E8AE9E"/>
<path d="M5.68221 28.8602C4.73816 29.1408 4.62744 30.1602 4.00444 30.7409C4.02724 30.8023 4.05004 30.8637 4.01142 30.948C3.91837 31.262 3.28839 31.6357 4.19197 31.999C5.96053 32.81 7.94496 33.2613 9.01143 35.3811C9.58185 34.4705 9.26963 33.8177 9.04163 33.2035C6.96599 32.5066 6.24338 30.7483 5.68221 28.8602Z" fill="#E9AFA0"/>
<path d="M14.7943 27.9932C15.2172 27.6266 15.6173 27.1985 16.1017 26.809C15.2842 25.9246 14.5281 25.0173 14.402 23.7364C13.7859 24.5241 13.4296 25.6347 12.2329 25.7995C12.7382 26.0312 13.182 26.2857 13.6873 26.5174C14.3769 26.6807 14.5049 27.4018 14.7943 27.9932Z" fill="#E5A392"/>
<path d="M19.7497 36.6357C20.0023 36.7516 20.255 36.8674 20.4462 37.0061C20.5044 35.6568 22.5377 37.5574 22.3292 35.6781C22.0383 33.2005 23.3909 34.5852 24.2331 34.9713C24.0526 33.9203 23.6491 33.0218 22.8614 32.4058C22.2612 33.0479 21.6838 33.7514 20.6942 33.9092C20.0223 33.0405 20.34 32.0141 20.2893 31.1244C20.2456 30.4419 19.7123 29.382 20.6792 29.1628C21.646 28.9436 21.9336 30.0947 22.3528 30.8476C23.2936 29.2405 24.7025 29.8355 26.0588 30.1007C26.5082 28.676 27.9539 29.7466 28.6769 29.0589C30.0685 27.9134 29.1263 27.6342 28.0613 27.4006C26.6487 27.925 24.95 29.1846 25.1523 25.9648C23.803 25.9067 23.0013 24.8766 22.0838 24.0991C21.3188 23.5445 20.5539 22.9899 19.7275 22.4581C19.6117 22.7108 19.4958 22.9634 19.38 23.2161C18.6235 24.7548 15.8108 24.3314 16.0859 26.9547C15.6629 27.3213 15.2628 27.7494 14.7785 28.1388C14.5221 29.1425 14.8641 30.0637 15.2289 31.0464C15.6779 32.0677 16.4657 32.6837 17.3762 33.2541C18.6465 34.0404 17.0129 34.1577 17.1338 34.6718C17.3865 34.7877 17.5777 34.9263 17.8304 35.0422C18.727 35.1985 20.6467 34.3461 19.7497 36.6357Z" fill="#D67863"/>
<path d="M13.6889 37.6278C13.1836 37.3961 12.7398 37.1416 12.2345 36.9099C11.6608 36.494 11.1485 36.0552 10.5748 35.6393C9.75869 36.641 9.49536 37.4376 10.9726 38.2169C11.8376 38.6645 12.7096 39.3191 12.9129 40.4316C13.8779 40.7722 13.8886 39.8598 14.2431 39.3089C14.0379 38.7561 13.8941 38.1806 13.6889 37.6278Z" fill="#EAB3A5"/>
<path d="M19.5194 39.0273C19.6809 38.8975 19.7511 38.522 19.6599 38.2763C19.2723 37.2322 18.5442 37.1531 17.6615 37.4109C17.3614 37.732 17.1227 38.0302 16.8226 38.3513C17.6718 38.9445 18.4437 39.7061 19.5194 39.0273Z" fill="#E9B2A4"/>
<path d="M5.65941 28.7988C5.20156 28.1302 4.74371 27.4616 4.34728 26.7702C2.76441 27.7771 3.73269 29.4442 3.46751 30.8005C3.65176 30.7321 3.77459 30.6865 3.95884 30.6181C4.60464 30.0988 4.77678 29.0566 5.65941 28.7988Z" fill="#E5A291"/>
<path d="M32.8845 8.76881C34.3129 8.09878 35.6832 8.77806 37.1237 9.08186C38.7555 9.52432 38.6973 10.8736 38.8234 12.1546C39.0761 12.2704 39.3287 12.3863 39.5814 12.5021C40.7013 10.0598 39.1909 7.68551 39.1299 5.26233C37.1334 3.83721 35.8241 5.58111 34.3571 6.33536C33.9342 6.70201 33.534 7.13008 33.0497 7.51953C33.0022 7.95643 32.932 8.33191 32.8845 8.76881Z" fill="#D4735F"/>
<path d="M38.8234 12.1546C37.2652 12.6631 35.9122 13.7245 34.1558 13.8874C33.9715 13.9558 33.7873 14.0242 33.6644 14.0698C33.8012 14.4383 33.938 14.8068 34.0748 15.1753C35.3241 15.3404 35.6819 16.116 35.6624 17.3811C35.6448 18.0865 35.8481 19.199 36.8187 17.8603C35.54 14.9807 38.9124 15.4059 39.439 13.8128C39.7778 13.4075 39.7024 13.0162 39.5814 12.5021C39.3287 12.3863 39.0761 12.2704 38.8234 12.1546Z" fill="#DC8674"/>
<path d="M36.8187 17.8603C37.5663 16.6743 38.4788 16.685 39.5419 17.4783C39.293 16.243 40.6618 15.036 39.3776 13.8356C38.9352 15.4674 35.54 14.9807 36.8187 17.8603Z" fill="#D67966"/>
<path d="M31.7367 10.3829C32.0912 9.832 32.53 9.31971 32.8845 8.76881C32.932 8.33191 33.0022 7.95643 33.0497 7.51953C32.6304 6.76671 31.8059 5.67517 31.2811 6.70857C30.6949 7.76477 30.084 9.31929 31.3524 10.6653C31.391 10.5811 31.5753 10.5127 31.7367 10.3829Z" fill="#E8AB9A"/>
<path d="M32.8664 11.9202C32.477 11.4358 32.0875 10.9515 31.7595 10.4443C31.5753 10.5127 31.4752 10.6197 31.291 10.6881C31.3803 11.4935 31.4469 12.2375 31.5362 13.0429C31.9592 12.6763 32.4435 12.2868 32.8664 11.9202Z" fill="#D16B57"/>
<path d="M25.1295 25.9034C24.9272 29.1232 26.6259 27.8636 28.0385 27.3392C28.0669 25.7214 27.0265 24.9896 25.7632 24.4103C25.5315 24.9156 25.3612 25.3981 25.1295 25.9034Z" fill="#D26E57"/>
<path d="M36.6487 36.7913C36.5961 36.4614 36.6278 36.1701 36.4752 35.9472C36.2541 35.5401 35.8805 34.9101 35.5944 35.6453C35.3627 36.1506 35.9592 36.628 36.6487 36.7913Z" fill="#736058"/>
<path d="M20.6792 29.1628C19.7123 29.382 20.2684 30.5033 20.2893 31.1244C20.34 32.0141 20.0223 33.0405 20.6942 33.9092C21.6838 33.7514 22.2384 32.9865 22.8614 32.4058C22.679 31.9145 22.4738 31.3617 22.3528 30.8476C21.9336 30.0947 21.7074 28.9208 20.6792 29.1628Z" fill="#DB8775"/>
<path d="M16.0992 20.5905C15.915 20.6589 15.7307 20.7273 15.6079 20.7729C15.1375 21.5765 14.6671 22.38 14.1353 23.2064C14.2037 23.3906 14.2721 23.5749 14.3405 23.7591C14.4667 25.0401 15.2228 25.9474 16.0403 26.8318C15.788 24.27 18.5779 24.6319 19.3344 23.0932C17.1848 23.8912 17.208 21.5067 16.0992 20.5905Z" fill="#E49987"/>
<path d="M19.7662 22.3739C21.8385 21.7443 19.8578 20.1736 20.344 19.2244C19.4209 20.1261 18.6206 20.9823 19.7662 22.3739Z" fill="#E9AE9F"/>
<path d="M38.8234 12.1546C38.6359 10.8964 38.6712 9.4857 37.1237 9.08186C37.4797 10.4172 37.0093 11.2208 35.7898 11.3241C34.0562 11.5484 33.3703 10.2656 32.9459 8.74601C32.5914 9.29691 32.1527 9.80919 31.7981 10.3601C32.1876 10.8444 32.577 11.3288 32.9051 11.8359C33.5244 12.3747 34.0436 13.0205 34.2172 13.8646C35.9122 13.7245 37.288 12.7246 38.8234 12.1546Z" fill="#D67B66"/>
<path d="M17.9076 34.8737C18.2882 35.7108 18.8689 36.3338 19.7497 36.6357C20.6467 34.3461 18.727 35.1985 17.9076 34.8737Z" fill="#E4A08F"/>
<path d="M13.6889 37.6278C13.024 36.9662 13.8964 35.1748 12.347 35.3307C11.5188 35.3587 12.1135 36.3958 12.2573 36.9713C12.7011 37.2258 13.2064 37.4575 13.6889 37.6278Z" fill="#E6A695"/>
<path d="M15.6079 20.7729C14.8235 21.4834 13.2322 20.397 12.8283 21.9446C12.6334 22.9254 13.7231 22.6606 14.1125 23.145C14.6671 22.38 15.1375 21.5765 15.6079 20.7729Z" fill="#E5A392"/>
<path d="M35.7284 11.3469C36.9479 11.2436 37.4569 10.3558 37.0623 9.10466C35.6832 8.77806 34.3129 8.09878 32.8231 8.79161C33.3089 10.2884 34.0562 11.5484 35.7284 11.3469Z" fill="#D98270"/>
</svg>
