<svg width="41" height="30" viewBox="0 0 41 30" fill="none" xmlns="http://www.w3.org/2000/svg">
<path d="M32.5758 22.8421C31.3797 22.1629 30.2462 21.4834 29.1144 20.9412C28.9623 21.2512 28.842 21.5954 28.909 21.9384C29.0675 22.1091 29.2259 22.2798 29.4142 22.3472C31.2414 23.5031 33.0984 24.5558 34.8639 25.7808C35.5892 26.2912 36.4376 26.6635 37.3719 26.4515C37.9015 26.3451 38.0545 26.1037 37.9222 25.5551C37.8235 25.178 37.6632 24.8699 37.5337 24.5273C37.3399 24.0478 36.87 23.9478 36.5839 23.5719C36.0107 22.7513 35.1931 22.3445 34.4054 21.8344C33.3026 21.1203 32.169 20.4408 30.9748 19.899C30.5412 20.1765 30.0758 20.4199 29.6114 20.7319C30.9306 21.2729 32.2235 22.1918 32.5758 22.8421ZM33.8054 23.6927C33.4586 23.4546 33.0204 23.3887 32.8574 22.8746C33.1734 23.1473 33.6722 23.0754 33.8054 23.6927Z" fill="#F7EADA"/>
<path d="M32.0457 18.2094C32.2331 18.2082 32.3897 18.2415 32.6088 18.2744C33.6354 17.9588 34.7282 17.9174 35.7902 17.9106C36.222 17.4957 36.787 17.6982 37.2849 17.5576C37.4397 17.4536 37.5665 17.5901 37.6914 17.5893C37.5393 17.8994 37.38 17.66 37.1935 17.7299C36.7897 17.9042 36.4185 18.1813 35.9486 18.0813C35.2316 18.1889 34.5463 18.3307 33.7975 18.4042C33.3612 18.4757 32.9239 18.4785 32.5183 18.5154C32.0828 18.6556 31.612 18.4869 31.1784 18.7644C31.1513 19.0736 30.8996 18.9379 30.7457 19.1106C30.9069 19.4873 31.5279 19.2086 31.5352 19.758C32.3165 19.7873 33.0969 19.748 33.8438 19.5371C34.9339 19.2898 36.0248 19.111 37.113 18.7263C38.2012 18.3416 39.3211 17.991 40.3115 17.2978C40.5595 17.1588 40.7759 16.9857 40.8981 16.7789C41.0818 16.503 40.984 16.1945 40.8554 15.9206C40.7278 15.7154 40.63 15.4069 40.3185 15.4776C39.6015 15.5853 38.8845 15.6929 38.1665 15.7318C36.2952 15.9499 34.4863 16.1675 32.6149 16.3856C32.2718 16.4222 31.8327 16.2876 31.5249 16.633C31.8744 17.0772 32.0999 17.5909 32.0457 18.2094Z" fill="#F7EADA"/>
<path d="M9.1452 6.19941C9.02208 6.33756 8.9008 6.61307 9.11898 6.57733C9.6803 6.50505 9.62422 6.98619 9.78358 7.22556C10.0642 7.18941 10.3449 7.15327 10.6274 7.25448C10.7831 7.21914 10.9379 7.11513 11.128 7.31995C10.9751 7.56133 10.7867 7.49385 10.5993 7.49505C10.2254 7.56614 9.88231 7.60268 9.5084 7.67376C9.29022 7.7095 9.07112 7.67657 8.91266 7.50588C8.88188 7.54042 8.88188 7.54042 8.8511 7.57496C8.78955 7.64404 8.63383 7.67938 8.60397 7.78259C8.39034 8.16172 8.29344 7.92195 8.16576 7.71672C7.84794 7.30666 7.47769 7.65245 7.10104 7.5175C6.94715 7.6902 6.88742 7.89663 6.89107 8.17134C6.89107 8.17134 6.89107 8.17134 6.92276 8.20548C7.44873 7.82435 7.48864 8.47658 7.77203 8.64647C8.42933 8.74528 9.05312 8.67259 9.67781 8.66858C10.6158 8.73125 11.4903 8.72563 12.3613 8.44531C12.89 8.27021 13.4513 8.19792 14.0126 8.12564C14.8863 8.05135 15.7255 7.73689 16.5339 7.45697C16.2487 7.14973 16.3057 6.73726 16.3636 6.39347C16.3935 6.29026 16.7348 6.11636 16.9521 6.01194C17.0453 5.977 17.106 5.83924 17.0118 5.80551C16.4161 5.63762 16.8497 5.36011 16.9402 5.11914C16.7836 5.0858 16.626 4.98379 16.4703 5.01913C15.4726 5.16289 14.474 5.23799 13.4754 5.31308C12.1645 5.39017 10.8544 5.53595 9.51271 5.64758C9.54714 5.88775 9.36156 6.02631 9.1452 6.19941ZM15.0563 6.74528C15.0862 6.64206 15.0536 6.53925 15.1785 6.53844C15.3342 6.5031 15.337 6.70914 15.3379 6.77781C15.3397 6.91517 15.1822 6.81315 15.1206 6.88223C14.9658 6.98625 14.8717 6.95251 14.7449 6.81596L14.744 6.74728C14.8671 6.60913 14.9929 6.677 15.0563 6.74528ZM12.0605 6.97055C12.3412 6.93441 12.6228 6.96694 12.9043 6.99948C13.0582 6.82678 13.2139 6.79144 13.4339 6.89306C13.5589 6.89225 13.7762 6.78784 13.8106 7.02801C13.8432 7.13082 13.7183 7.13162 13.6241 7.09789C13.376 7.23684 13.1271 7.30713 12.8446 7.20591C12.6581 7.27579 12.5033 7.37981 12.3476 7.41515C12.038 7.62319 11.8905 8.27662 11.292 7.90271C11.32 7.66214 11.7274 7.76255 11.6604 7.41956C11.5925 7.0079 11.8423 7.0063 12.0605 6.97055Z" fill="#F5E5D0"/>
<path d="M29.5238 14.1389C29.9638 14.3421 29.905 14.6172 29.8163 14.9956L29.8172 15.0642C30.4718 14.957 30.9018 14.4048 31.4604 14.1265C31.5844 14.057 31.7075 13.9188 31.8641 13.9522C32.0479 13.6763 32.2326 13.469 32.5757 13.4325C32.6028 13.1232 32.9459 13.0867 33.0365 12.8457C33.0365 12.8457 33.0365 12.8457 33.0048 12.8116C32.6635 12.9855 32.257 12.9537 31.883 13.0248C32.0007 12.4746 32.5891 12.0931 32.9975 12.2622C33.3116 12.3975 33.002 12.6055 33.0355 12.777C33.0672 12.8112 33.0672 12.8112 33.0989 12.8453C33.2229 12.7758 33.3153 12.6722 33.5027 12.671C33.443 12.8775 33.5399 13.1172 33.2275 13.1192C33.1035 13.1887 33.0754 13.4293 32.8563 13.3963C32.5486 13.7417 32.1774 14.0188 31.8053 14.2273C31.5908 14.5377 31.3119 14.7112 31.0331 14.8847C30.8204 15.3325 30.7009 15.7454 31.2053 16.0856C31.389 15.8097 31.6724 15.9796 31.8571 15.7723C32.6881 14.8398 33.8695 14.4201 34.763 13.4871C35.317 12.8654 35.8086 12.2441 36.2367 11.5545C36.4205 11.2786 36.6034 10.934 36.7237 10.5899C36.8432 10.177 36.7436 9.73119 36.3977 9.5617C36.1143 9.39181 35.7358 9.1195 35.304 9.53437C34.9655 9.9143 34.4051 10.0553 33.9723 10.4015C33.4464 10.7826 32.857 11.0954 32.331 11.4766C31.3099 12.2043 30.4164 13.1373 29.3635 13.8309C29.3961 13.9337 29.4296 14.1052 29.5238 14.1389Z" fill="#F7EBDD"/>
<path d="M25.2625 24.9152C24.9755 24.4706 24.5038 24.2332 24.1244 23.8922C23.8084 23.6195 23.7505 23.9633 23.5966 24.136C23.7868 24.3408 23.9452 24.5115 24.0738 24.7854C24.7375 25.365 25.0916 26.1525 25.6014 26.9048C25.3207 26.9409 25.2247 26.7698 25.098 26.6333C24.6851 26.1208 24.2722 25.6083 23.8285 25.1304C23.4835 25.0296 23.1739 25.2376 22.8616 25.2396C22.5492 25.2416 22.7421 25.6525 22.5873 25.7565C23.223 26.5766 23.9817 27.2586 24.6165 28.01C25.3472 28.9326 26.1937 29.1675 27.224 29.1266C27.7545 29.0888 27.9672 28.641 27.835 28.0924C27.7354 27.6466 27.604 27.1667 27.3804 26.7903C27.1232 26.2425 26.8651 25.626 26.2983 25.2863C25.8629 25.4264 25.5804 25.3252 25.2625 24.9152Z" fill="#F6E9D9"/>
<path d="M16.8115 11.8853C16.9074 12.0563 16.9727 12.262 16.9138 12.5371C16.7237 12.3323 16.5326 12.0587 16.3516 12.5407C16.291 12.6784 16.1054 12.817 15.8211 12.5784C15.6001 12.4081 15.2823 11.9981 14.9148 12.5499C14.9148 12.5499 14.9148 12.5499 14.9465 12.5841C15.2878 12.4102 15.4463 12.5808 15.4191 12.8901C15.4219 13.0961 15.5477 13.164 15.612 13.301C16.2032 13.1255 16.7935 12.8813 17.352 12.603C18.4095 12.2528 19.37 11.6628 20.3305 11.0728C20.5478 10.9684 20.7026 10.8644 20.9198 10.76C21.0122 10.6563 21.0737 10.5873 21.1344 10.4495C21.5074 10.3097 21.8496 10.2045 22.2543 10.0989C22.3158 10.0298 22.3466 9.99528 22.4082 9.92621C22.3746 9.75471 22.4978 9.61656 22.5901 9.51294C22.4018 9.44546 22.3375 9.30851 22.5864 9.23823C22.7105 9.16875 22.8979 9.16755 22.8327 8.96192C22.7675 8.75629 22.4877 8.86111 22.361 8.72455C21.9608 9.17356 21.7344 8.59121 21.3904 8.55908C20.677 8.94141 20.0913 9.52898 19.3453 9.8085C18.6926 10.0531 18.1675 10.5029 17.4831 10.7133C17.1409 10.8185 16.7996 10.9924 16.5543 11.3374C16.4647 11.6471 16.7155 11.7142 16.8115 11.8853Z" fill="#F3E4CE"/>
<path d="M22.5459 10.8869C22.64 10.9206 22.765 10.9198 22.8582 10.8849C22.5739 10.6463 22.5694 10.3029 22.4091 9.99488C22.3774 9.96075 22.3774 9.96075 22.3774 9.96075C22.3158 10.0298 22.285 10.0644 22.2235 10.1334C22.2244 10.2021 22.2887 10.3391 22.2887 10.3391C21.6993 10.6519 21.1426 11.0676 20.5858 11.4833C20.5551 11.5178 20.4917 11.4495 20.46 11.4154C19.991 11.3841 19.7475 11.8664 19.3754 12.0748C18.9726 12.3178 18.5679 12.4234 18.1641 12.5977C17.9776 12.6676 17.8554 12.8745 17.6373 12.9102C16.8315 13.3962 15.995 13.9166 15.0263 13.8885C14.5918 14.0974 14.1255 14.2721 13.6584 14.3781C13.6901 14.4122 13.7218 14.4464 13.7534 14.4805C14.0378 14.7191 14.2596 14.958 14.5439 15.1966C14.5747 15.1621 14.5747 15.1621 14.6055 15.1275C14.5719 14.956 14.5393 14.8532 14.7575 14.8175C15.069 14.7468 15.3822 14.8135 15.6937 14.7428C17.0336 14.4938 18.3092 14.1078 19.5494 13.4131C20.5099 12.8231 21.4705 12.2331 22.3685 11.6435C22.3051 11.5753 22.2734 11.5411 22.2408 11.4383C22.0153 10.9246 22.0144 10.856 22.5459 10.8869Z" fill="#F3E2CC"/>
<path d="M23.4681 7.41247C23.9081 7.6157 23.7597 8.20046 24.0766 8.54184C24.4234 8.78 24.7394 9.05271 25.1776 9.11858C26.0412 8.28884 26.6522 7.25467 27.0115 6.08475C27.1011 5.7751 27.1282 5.46585 26.8439 5.22729C26.5913 5.02286 26.3396 4.88711 25.9675 5.09555C25.7502 5.19997 25.5339 5.37306 25.3474 5.44294C25.2243 5.5811 25.1337 5.82207 24.9128 5.65178C24.3869 6.03291 23.8301 6.44858 23.526 7.06868C23.4336 7.1723 23.3739 7.37873 23.4681 7.41247Z" fill="#F6E9D8"/>
<path d="M5.20282 10.4144C5.07332 10.0718 4.4721 9.49184 4.25391 9.52758C4.07746 10.3529 4.27582 11.1758 4.25508 11.9658C4.35016 12.0682 4.47509 12.0674 4.60003 12.0666C5.13148 12.0976 5.45296 12.7823 5.147 13.2651C5.08635 13.4028 4.93246 13.5755 4.77583 13.5422C4.49426 13.5097 4.42814 13.2354 4.30046 13.0301C3.94116 14.2 4.23825 15.4001 4.22299 16.6021C4.81599 16.564 5.21611 16.115 5.74391 15.8712C5.73843 15.4591 5.92036 15.0459 5.91489 14.6338C5.90211 13.6723 5.82777 12.7799 5.75253 11.8189C5.74796 11.4755 5.77418 11.0975 5.58312 10.824C5.2409 10.9293 5.23634 10.5859 5.20282 10.4144Z" fill="#F3E4CE"/>
<path d="M21.9977 23.6998C22.2802 23.801 22.4993 23.834 22.5255 23.456C21.8908 22.7046 21.2868 21.9186 20.653 21.2358C20.1776 20.7238 19.4859 20.3848 19.1029 19.7691C18.9435 19.5297 18.8158 19.3245 18.565 19.2574C18.5062 19.5325 17.8824 19.6052 18.2953 20.1177C18.327 20.1518 18.05 20.4627 17.9586 20.635C17.9912 20.7378 18.0238 20.8406 18.0555 20.8748C18.8822 21.9684 19.9542 22.717 20.8117 23.7761C21.1829 23.499 21.5894 23.5307 21.9977 23.6998Z" fill="#F3E2CC"/>
<path d="M8.95881 15.6789C9.02037 15.6098 9.1127 15.5062 9.17426 15.4371C9.39062 15.264 9.26294 15.0588 9.16695 14.8877C8.94238 14.4427 8.71689 13.929 8.67881 13.4141C8.61178 13.0711 8.35916 12.8667 8.23057 12.5928C7.91001 11.9767 7.58945 11.3606 7.26888 10.7445C7.2055 10.6763 7.17381 10.6421 7.11043 10.5738C6.66949 10.3019 6.44309 9.71958 6.03293 9.41314C6.03384 9.48182 6.00398 9.58504 6.03567 9.61918C6.49577 11.3333 6.95588 13.0474 7.41598 14.7616C7.48119 14.9672 7.48484 15.2419 7.67408 15.378C7.895 15.5483 8.08423 15.6845 8.33594 15.8202C8.52243 15.7504 8.7071 15.5431 8.95881 15.6789Z" fill="#F3E4CF"/>
<path d="M8.23853 10.8413C7.80124 10.8441 7.82563 10.3289 7.54224 10.159C7.38561 10.1256 7.22715 9.95495 7.10038 9.81839C7.32587 10.3321 7.86097 10.6377 8.02582 11.2891C7.74151 11.0506 7.48889 10.8461 7.2055 10.6763C7.52606 11.2923 7.8774 11.8739 8.16718 12.5245C8.29577 12.7984 8.61086 13.0025 8.61542 13.3459C8.6852 13.8949 8.87899 14.3744 9.10357 14.8194C9.19956 14.9905 9.32723 15.1957 9.11087 15.3688C9.78277 16.5665 9.95766 17.9734 10.3498 19.2758C10.6768 20.3726 10.7548 21.5398 11.1442 22.6362C11.2066 22.6358 11.2691 22.6354 11.3316 22.635C11.2917 21.9828 11.2201 21.2964 11.0245 20.6795C10.7057 20.2008 10.8849 19.5815 10.6594 19.0678C10.5625 18.828 10.4647 18.5196 10.4602 18.1762C10.2682 17.834 10.1378 17.4227 10.1006 16.9765C9.99184 15.844 9.54086 14.8166 9.18313 13.7543C8.9875 13.1374 8.7285 12.4522 8.37624 11.802C8.84705 11.9707 9.1024 12.3812 9.44918 12.6193C9.92637 13.2688 10.8625 13.1941 11.279 13.9813C11.3406 13.9122 11.4022 13.8431 11.4655 13.9114C11.6231 14.0134 11.7172 14.0471 11.9662 13.9768C12.3075 13.8029 12.0884 13.77 11.9933 13.6676C11.8675 13.5997 11.7416 13.5318 11.6158 13.464C10.9856 13.0559 10.293 12.6483 9.75514 12.1366C9.31237 11.7273 8.65416 11.5598 8.39607 10.9433C8.42594 10.8401 8.39424 10.806 8.30008 10.7723C8.33177 10.8064 8.36438 10.9092 8.39607 10.9433C8.36438 10.9092 8.30191 10.9096 8.23853 10.8413Z" fill="#554F48"/>
<path d="M10.6139 25.0435C10.6764 25.0431 10.6764 25.0431 10.6139 25.0435C10.7315 24.4933 10.3503 24.0149 10.8781 23.7712C11.1886 23.6318 11.1624 24.0097 11.3824 24.1114C11.3824 24.1114 11.4132 24.0768 11.3815 24.0427C11.3136 23.631 11.2447 23.1507 11.1768 22.739C10.7874 21.6426 10.7094 20.4755 10.3824 19.3786C9.99026 18.0762 9.81538 16.6693 9.14348 15.4716C9.08192 15.5407 8.98958 15.6443 8.92803 15.7134C9.24311 15.9174 9.03131 16.4339 9.40887 16.6376C9.40887 16.6376 9.41343 16.9809 9.19342 16.8793C9.09926 16.8456 9.00419 16.7432 8.97524 16.9151C8.9155 17.1215 9.13278 17.0171 9.19616 17.0854C9.41982 17.4617 9.64349 17.838 9.83637 18.2489C9.86898 18.3517 9.64896 18.2501 9.68248 18.4216C9.74586 18.4898 9.84185 18.6609 9.78029 18.73C9.47251 19.0754 9.66539 19.4863 9.54502 19.8304C9.79763 20.0349 9.957 20.2742 9.96157 20.6176C9.96339 20.755 9.99691 20.9265 10.0603 20.9947C10.5384 21.7129 10.5094 21.8848 9.7345 22.3362C9.64126 22.3711 9.58061 22.5089 9.51906 22.5779C9.46663 23.3338 9.75641 23.9844 9.98464 24.7041C10.173 24.7716 10.4835 24.6322 10.6139 25.0435Z" fill="#F2E1CB"/>
<path d="M13.0929 25.8861C12.8674 25.3725 13.0456 24.6845 12.4789 24.3447C12.2634 24.5865 12.2978 24.8266 12.364 25.101C12.4618 25.4094 12.3722 25.7191 12.3795 26.2685C12.0906 25.6865 11.6551 25.8267 11.341 25.6913C11.1526 25.6239 10.9978 25.7279 10.939 26.003C10.8811 26.3468 11.0115 26.758 10.797 27.0685C11.0216 27.5135 11.3702 27.889 11.7188 28.2645C12.0357 28.6059 12.4123 28.7409 12.8161 28.5666C13.2823 28.3919 13.6118 27.3252 13.4171 26.7769C13.1943 26.4693 13.1898 26.1259 13.0929 25.8861Z" fill="#F7EADA"/>
<path d="M2.49407 11.0843C2.33561 10.9136 2.36457 10.7417 2.4569 10.638C2.61079 10.4654 2.7013 10.2244 2.95118 10.2228C3.01365 10.2224 3.07703 10.2907 3.07794 10.3593C3.14315 10.565 2.86158 10.5324 2.86432 10.7385C3.08433 10.8401 3.23914 10.7361 3.36134 10.5292C3.4229 10.4601 3.45094 10.2196 3.60939 10.3903C3.63287 9.8063 3.62465 9.18821 3.55397 8.57051C3.4516 7.91868 3.47416 7.26605 3.43425 6.61381C3.40165 6.511 3.40074 6.44232 3.36813 6.3395C3.24411 6.40898 3.05031 5.92944 2.90007 6.37685C2.8702 6.48006 2.68097 6.34391 2.71083 6.2407C2.76965 5.96559 2.7334 5.58806 3.17068 5.58526C3.19964 5.41336 3.01132 5.34589 2.94702 5.20893C2.78948 5.10692 2.67366 5.7945 2.50973 5.21174C2.16935 5.45432 2.06971 5.00852 1.81892 4.94144C1.76101 5.28523 1.89051 5.62781 1.89417 5.90252C2.58042 5.82944 2.08979 6.51942 2.3741 6.75798C2.43748 6.82626 2.2845 7.06763 2.44113 7.10097C3.19441 7.37087 2.57337 7.64958 2.45208 7.92509C2.39144 8.06285 1.98767 8.23715 2.45847 8.40584C2.55263 8.43957 2.52277 8.54279 2.42952 8.57773C2.18238 8.78536 2.18694 9.12875 2.03487 9.4388C2.13725 10.0906 1.86481 10.7449 2.18628 11.4296C2.7159 11.3232 2.74668 11.2887 2.49407 11.0843Z" fill="#F2E1C7"/>
<path d="M9.21482 13.7884C9.54086 14.8166 10.0543 15.8436 10.1323 17.0107C10.1695 17.4569 10.2999 17.8681 10.4918 18.2103C11.0876 18.3782 11.2071 17.9653 11.3256 17.4838C11.034 16.6958 10.8673 15.907 10.4825 15.154C10.0967 14.3323 9.80417 13.4756 9.48087 12.6535C9.16487 12.3808 8.90952 11.9703 8.40794 11.8362C8.79188 12.5205 9.0192 13.1716 9.21482 13.7884Z" fill="#F1DDC1"/>
<path d="M28.9798 15.5161C28.9771 15.31 29.1636 15.2401 29.2559 15.1365C29.379 14.9984 29.3763 14.7923 29.312 14.6554C29.216 14.4843 29.092 14.5538 28.9372 14.6578C28.6584 14.8313 28.5578 14.3168 28.2781 14.4216C27.504 14.9417 26.6992 15.4963 25.9243 15.9478C25.3042 16.2952 24.8117 16.8478 24.4777 17.5711C25.2255 17.4289 25.8746 16.9096 26.6215 16.6988C27.4607 16.3843 28.204 15.8988 28.9798 15.5161Z" fill="#F4E3D0"/>
<path d="M17.2821 19.094C17.4659 18.818 17.4622 18.5433 17.3644 18.2349C17.0755 17.6529 16.5097 17.3818 16.0669 16.9726C15.8768 16.7678 15.626 16.7007 15.5589 16.3577C15.3679 16.0842 14.9641 16.2585 14.7721 15.9163C13.9935 16.093 13.9646 16.2649 14.4427 16.983C14.6654 17.2906 14.8873 17.5296 15.1408 17.8027C15.2322 17.6304 14.8239 17.4613 15.0719 17.3224C15.2575 17.1838 15.5418 17.4224 15.6061 17.5593C15.7021 17.7304 15.6442 18.0742 15.3636 18.1104C15.9946 18.5871 16.442 19.3397 17.1355 19.8161C17.0069 19.5422 17.1599 19.3008 17.2821 19.094Z" fill="#F0DABD"/>
<path d="M17.0734 5.73643C17.1358 5.73603 17.0752 5.87378 17.0136 5.94286C16.828 6.08142 16.455 6.22118 16.4252 6.32439C16.3673 6.66818 16.2478 7.08105 16.5955 7.38789C17.0636 7.35054 17.4981 7.14171 17.9327 6.93287C18.3364 6.75857 18.7076 6.48146 18.9837 6.10193C19.3213 5.65332 19.1275 5.17378 18.6567 5.00509C18.1235 4.83681 17.5612 4.84042 17.0325 5.01552C16.8796 5.25689 16.4776 5.56854 17.0734 5.73643Z" fill="#F1E0C7"/>
<path d="M14.6814 13.7877C14.9005 13.8206 14.9276 13.5114 15.1467 13.5443C15.3332 13.4744 15.488 13.3704 15.6745 13.3006C15.5794 13.1981 15.4843 13.0957 15.4816 12.8897C15.477 12.5463 15.3195 12.4443 15.009 12.5836C14.9782 12.6182 14.9466 12.5839 14.9158 12.6185C14.9466 12.5839 14.9465 12.5841 14.9465 12.5841C15.3448 11.9977 15.6626 12.4077 15.8528 12.6126C16.1054 12.817 16.3227 12.7126 16.3833 12.5748C16.5643 12.0929 16.7554 12.3664 16.9455 12.5712C17.0043 12.2961 16.9074 12.0563 16.8431 11.9194C16.7472 11.7483 16.4964 11.6812 16.586 11.3716C16.0228 11.3065 15.5593 11.6872 15.0623 11.8965C14.7518 12.0358 14.5373 12.3463 14.1615 12.28C13.9778 12.5559 13.9217 13.0371 13.45 12.7997C13.0471 13.0427 12.8969 13.4901 12.7149 13.9033C13.3387 13.8307 13.9924 13.6548 14.6814 13.7877Z" fill="#F1DFC8"/>
<path d="M22.1605 21.8443C22.1352 22.2909 22.5743 22.4255 22.6413 22.7685C22.9284 23.2131 23.2779 23.6573 23.5649 24.1019C23.7505 23.9633 23.8084 23.6195 24.0927 23.8581C24.4721 24.1991 24.9755 24.4706 25.2309 24.881C25.5179 25.3256 25.8312 25.3923 26.2358 25.2867C26.2023 25.1152 26.1688 24.9437 26.0104 24.773C25.0578 23.6115 23.9523 22.6914 22.9083 21.7022C22.6584 21.7038 22.443 21.9455 22.1605 21.8443Z" fill="#F6E6D4"/>
<path d="M10.4918 18.2103C10.4647 18.5196 10.5942 18.8621 10.6911 19.1019C10.9166 19.6156 10.7374 20.2349 11.0562 20.7136C11.5532 20.5044 11.7117 20.675 11.6593 21.4308C11.6593 21.4308 11.6592 21.4309 11.6909 21.4651C11.8737 21.1205 12.1254 21.2562 12.3138 21.3237C12.5338 21.4253 12.4125 21.7008 12.3518 21.8386C12.1084 22.3209 12.7041 22.4888 12.6779 22.8667C12.7711 22.8318 12.8327 22.7627 12.9259 22.7278C12.954 22.4872 12.9195 22.247 12.8217 21.9386C12.5301 21.1506 12.1136 20.3634 12.0392 19.471C11.9469 19.5746 11.8238 19.7128 11.6662 19.6108C11.6346 19.5766 11.6327 19.4393 11.6318 19.3706C11.6608 19.1987 11.7866 19.2666 11.8817 19.369C11.8726 18.6822 11.4597 18.1698 11.2957 17.587C11.2378 17.9308 11.0876 18.3782 10.4918 18.2103Z" fill="#EFD7B8"/>
<path d="M11.3093 25.6572C11.6234 25.7925 12.0589 25.6524 12.3478 26.2343C12.3097 25.7195 12.3993 25.4098 12.3323 25.0668C12.2661 24.7925 12.2317 24.5523 12.4472 24.3106C12.3195 24.1053 12.2226 23.8656 12.0632 23.6262C11.9727 23.8672 11.8505 24.074 11.7591 24.2463C11.7926 24.4178 11.7329 24.6242 11.5762 24.5909C11.4196 24.5575 11.4793 24.3511 11.5083 24.1792C11.4766 24.1451 11.4132 24.0768 11.3815 24.0427L11.3498 24.0085C11.1923 23.9065 11.156 23.529 10.8455 23.6684C10.3177 23.9121 10.7306 24.4246 10.613 24.9748C10.5822 25.0094 10.6139 25.0435 10.5831 25.078C10.5514 25.0439 10.5822 25.0094 10.5505 24.9752C10.4201 24.564 10.1096 24.7033 9.92034 24.5672C9.96299 25.4254 10.2238 26.248 10.7019 26.9661C10.9165 26.6556 10.8485 26.244 10.844 25.9006C10.9969 25.6592 11.121 25.5897 11.3093 25.6572Z" fill="#F6E6D4"/>
<path d="M23.7354 18.1253C23.8603 18.1245 23.9862 18.1924 24.1111 18.1916C24.2044 18.1567 24.3293 18.1559 24.4226 18.1209C24.2007 17.882 24.4814 17.8458 24.5438 17.8454C25.0427 17.7735 25.4763 17.496 25.9127 17.4245C26.282 17.0101 26.875 16.9719 27.3404 16.7285C27.9297 16.4157 28.5825 16.1711 29.2044 15.9611C29.4217 15.8566 29.639 15.7522 29.8562 15.6478C29.9178 15.5787 29.9794 15.5096 30.0735 15.5434C30.3505 15.2325 30.7552 15.1269 31.0956 14.8843C31.3744 14.7108 31.6533 14.5373 31.8678 14.2269C31.9293 14.1578 31.9592 14.0546 31.9266 13.9518C31.77 13.9184 31.6469 14.0566 31.5228 14.1261C30.9643 14.4044 30.5035 14.9912 29.8797 15.0638C29.6969 15.4084 29.3854 15.4791 29.074 15.5498C28.2981 15.9325 27.5549 16.4181 26.7148 16.6639C25.9679 16.8747 25.3188 17.394 24.571 17.5362C24.3528 17.5719 24.1038 17.6422 23.9173 17.7121C23.7616 17.7474 23.5742 17.7486 23.4511 17.8868C23.5145 17.955 23.6095 18.0575 23.7354 18.1253Z" fill="#554E47"/>
<path d="M22.3302 8.75909C22.4262 8.93018 22.7367 8.79083 22.8019 8.99646C22.8671 9.20209 22.6797 9.20329 22.5557 9.27277C22.3384 9.37719 22.4018 9.44546 22.5593 9.54748C22.6218 9.54708 22.7159 9.58081 22.7476 9.61495C23.0228 9.16675 23.0908 9.57841 23.2184 9.78364C23.0329 9.9222 22.9369 9.75111 22.811 9.68323C22.7513 9.88966 22.5331 9.9254 22.4091 9.99488C22.5694 10.3029 22.5739 10.6463 22.8582 10.8849C22.7333 10.8857 22.6084 10.8865 22.5459 10.8869C22.0144 10.856 21.9837 10.8905 22.2408 11.4383C22.2417 11.507 22.3051 11.5753 22.3685 11.6435C22.9262 11.2965 23.2937 10.7447 23.8523 10.4664C23.7554 10.2266 24.1881 9.88044 23.6548 9.71216C23.5923 9.71256 23.7453 9.47118 23.8395 9.50492C24.2777 9.57079 24.2451 9.46798 23.9599 9.16073C23.8965 9.09246 23.8947 8.9551 23.862 8.85229C23.7697 8.9559 23.6774 9.05952 23.5543 9.19768C23.4927 9.26676 23.4004 9.37037 23.3361 9.23342C23.2401 9.06233 23.4266 8.99245 23.5189 8.88883C23.4872 8.85469 23.4555 8.82055 23.4555 8.82055C23.3605 8.71814 23.2962 8.58118 23.2011 8.47877C22.8507 7.9659 22.5075 8.00244 22.265 8.55346C22.0459 8.52053 22.1979 8.21048 22.0721 8.1426C21.7923 8.24742 21.6403 8.55747 21.3605 8.66229C21.7037 8.62575 21.9301 9.2081 22.3302 8.75909Z" fill="#F1DDC3"/>
<path d="M12.677 22.7981C12.7032 22.4201 12.1391 22.2864 12.3509 21.7699C12.3808 21.6667 12.5329 21.3566 12.3128 21.255C12.1245 21.1876 11.8728 21.0518 11.69 21.3964L11.6593 21.4308L11.6583 21.3623C11.7424 20.6405 11.584 20.4698 11.0552 20.6449C11.2509 21.2618 11.3225 21.9482 11.3624 22.6004C11.395 22.7033 11.4593 22.8402 11.4919 22.943C11.8042 22.941 11.9654 23.3177 12.3085 23.2812C12.4018 23.2463 12.4082 23.727 12.5359 23.9322C12.697 24.309 12.9497 24.5134 13.2331 24.6833C13.3796 23.9612 13.1206 23.276 12.9549 22.5559C12.8318 22.694 12.7385 22.729 12.677 22.7981Z" fill="#F0DCC3"/>
<path d="M2.8338 13.1426C2.89901 13.3482 2.83745 13.4173 2.7768 13.555C2.96148 13.3478 3.37072 13.5856 3.36433 13.1048C3.45849 13.1386 3.58343 13.1378 3.67759 13.1715C3.70472 12.8622 3.51184 12.4514 3.9473 12.3112C4.04055 12.2763 4.07315 12.3791 4.13562 12.3787C4.13471 12.31 4.13471 12.31 4.13379 12.2413C3.50271 11.7646 3.83671 11.0413 3.70356 10.424C3.51432 10.2878 3.51706 10.4939 3.4555 10.563C3.3333 10.7698 3.1468 10.8397 2.95848 10.7722C2.98744 10.6003 3.26901 10.6328 3.17211 10.3931C3.17119 10.3244 3.07612 10.222 3.04534 10.2565C2.79547 10.2581 2.64249 10.4995 2.55106 10.6718C2.45873 10.7754 2.39808 10.9132 2.58823 11.118C2.84085 11.3224 2.77929 11.3915 2.40538 11.4626C2.37461 11.4971 2.34383 11.5317 2.34383 11.5317C2.50228 11.7023 2.44255 11.9088 2.44529 12.1148C2.51232 12.4578 2.73507 12.7654 2.8338 13.1426Z" fill="#F2E3D0"/>
<path d="M4.8811 16.7695C4.85042 16.804 4.85042 16.804 4.8811 16.7695C4.94813 17.1125 5.01344 17.3182 5.07865 17.5239C5.11125 17.6267 5.0497 17.6958 4.95645 17.7307C4.8632 17.7657 4.76813 17.6632 4.79799 17.56C4.88759 17.2504 4.63589 17.1146 4.53899 16.8749C4.50821 16.9094 4.47652 16.8753 4.44574 16.9098C4.41679 17.0817 4.54355 17.2182 4.54538 17.3556C4.3281 17.46 4.26198 17.1857 4.13613 17.1178C4.10535 17.1524 4.07457 17.1869 4.04288 17.1528C4.10809 17.3584 4.23485 17.495 4.39331 17.6656C4.33175 17.7347 4.30097 17.7693 4.30097 17.7693C3.64185 17.5331 3.5486 17.568 3.37123 18.3247C3.3115 18.5311 3.28072 18.5657 3.09332 18.5669C3.25268 18.8062 3.34958 19.046 3.50895 19.2854C3.56686 18.9416 3.65645 18.6319 3.84021 18.356C3.99319 18.1147 4.08735 18.1484 4.21594 18.4223C4.24763 18.4564 4.28024 18.5592 4.28024 18.5592C4.90219 18.3492 4.5039 18.9356 4.63158 19.1408C4.63158 19.1408 4.63158 19.1408 4.66327 19.1749C4.75743 19.2087 4.75743 19.2087 4.66509 19.3123C5.16667 19.4464 5.00001 18.6577 5.49885 18.5858C5.15937 18.897 5.38395 19.342 5.13772 19.6183C5.16941 19.6525 5.20111 19.6866 5.20111 19.6866C5.38578 19.4794 5.50798 19.2725 5.5668 18.9974C5.65457 18.5504 5.77312 18.0689 5.89167 17.5873C5.54398 17.2805 5.25957 17.0418 4.8811 16.7695Z" fill="#EED6B9"/>
<path d="M30.7764 19.076C30.8996 18.9379 31.182 19.0391 31.2092 18.7298C30.8624 18.4917 30.4586 18.666 30.178 18.7021C29.585 18.7403 28.9892 18.5724 28.398 18.7479C28.398 18.7479 28.398 18.7479 28.3673 18.7824C28.5882 18.9527 28.8082 19.0543 29.0581 19.0527C29.6212 19.1178 30.064 19.5271 30.7222 19.6945C29.7282 20.113 28.8445 19.4319 28.0052 19.7463C27.9763 19.9182 28.1637 19.917 28.228 20.054C28.7296 20.1881 29.2013 20.4255 29.6739 20.7315C30.1075 20.454 30.5729 20.2106 31.0373 19.8986C31.1586 19.6231 31.4737 19.8271 31.5968 19.6889C31.5587 19.174 30.9376 19.4528 30.7764 19.076Z" fill="#F6E9D7"/>
<path d="M22.1976 22.2905C22.3253 22.4958 22.5453 22.5974 22.6721 22.7339C22.6051 22.3909 22.1659 22.2564 22.1912 21.8098C22.4737 21.911 22.7209 21.7034 22.9698 21.6331C21.7674 20.4732 20.5034 19.3824 19.2095 18.3948C19.2123 18.6008 19.2467 18.841 19.2495 19.047C20.2011 20.1398 21.3066 21.0599 22.1976 22.2905Z" fill="#F1E1C9"/>
<path d="M22.8299 25.2055C23.1422 25.2035 23.4826 24.9609 23.7968 25.0963C23.8258 24.9244 23.575 24.8573 23.6664 24.685C23.1014 24.4826 22.9674 23.7966 22.5255 23.456C22.4685 23.8685 22.2802 23.801 21.9977 23.6998C21.5894 23.5307 21.1829 23.499 20.7483 23.7078C21.3197 24.391 21.891 25.0742 22.5556 25.7224C22.7104 25.6184 22.5175 25.2075 22.8299 25.2055Z" fill="#F5E6D4"/>
<path d="M15.146 15.8452C14.9604 15.9838 14.8328 15.7785 14.7087 15.848C14.7404 15.8822 14.7721 15.9163 14.7721 15.9163C14.9324 16.2243 15.3362 16.05 15.5589 16.3577C16.0261 16.2517 16.3719 16.4212 16.5965 16.8662C16.8735 16.5553 17.0664 16.9662 17.3163 16.9646C17.5046 17.032 17.7237 17.065 17.9428 17.0979C18.4136 17.2666 18.8564 17.6759 19.4168 17.5349C19.5091 17.4313 19.5073 17.2939 19.4122 17.1915C18.9097 16.9887 18.4081 16.8545 17.9364 16.6172C16.8671 16.0746 15.7354 15.5324 14.6055 15.1275C14.5747 15.1621 14.5747 15.1621 14.5439 15.1966C14.7033 15.436 14.9242 15.6063 15.146 15.8452Z" fill="#565049"/>
<path d="M4.75706 7.42931L4.75615 7.36084C4.72547 7.39527 4.72547 7.39527 4.75706 7.42931Z" fill="#F1E1C9"/>
<path d="M4.75706 7.42931C4.72537 7.39517 4.66199 7.32711 4.6303 7.29297C4.31795 7.29497 4.22014 6.98652 3.99922 6.81623C3.96844 6.85077 3.93766 6.88531 3.90688 6.91985C4.07447 7.77732 4.17958 8.63518 4.22314 9.56213C4.47301 9.56052 5.07423 10.1405 5.17204 10.4489C5.23725 10.6545 5.21012 10.9638 5.55325 10.9273C5.54686 10.4465 5.38475 10.0011 5.3159 9.52077C5.24795 9.10911 5.05506 8.69825 5.20622 8.31952C5.01607 8.11469 4.91917 7.87492 4.91552 7.60021C4.85214 7.53193 4.78876 7.46345 4.75706 7.42931Z" fill="#F1E1C9"/>
<path d="M6.21917 6.9737C6.21643 6.76767 6.2146 6.63031 6.43462 6.73192C6.74879 6.86728 7.03036 6.89981 6.9289 6.31665C7.53103 6.96528 8.27975 6.89179 8.89532 6.20101C9.01843 6.06285 9.14063 5.85602 9.26375 5.71786C7.67032 5.69375 6.1747 5.97808 4.74885 6.81143C4.78054 6.84556 4.81223 6.8797 4.84392 6.91384C5.31016 6.73914 5.78371 7.11386 6.21917 6.9737Z" fill="#F1DFC1"/>
<path d="M29.1144 20.9412C28.1402 20.501 27.1959 19.9576 26.1927 19.6893C26.2262 19.8608 26.2597 20.0323 26.0741 20.1708C26.8972 20.9897 27.9945 21.2918 28.909 21.9384C28.842 21.5954 28.8999 21.2516 29.1144 20.9412Z" fill="#F5E6D4"/>
<path d="M3.69528 16.8458C3.69528 16.8458 3.72587 16.8113 3.75756 16.8454C3.7856 16.6049 3.87621 16.364 3.77931 16.1242C3.5919 16.1254 3.40358 16.0579 3.21617 16.0591C3.09123 16.0599 2.93643 16.164 2.93369 15.9579C2.93187 15.8206 3.0242 15.717 3.14823 15.6475C3.27225 15.578 3.49227 15.6796 3.45784 15.4394C3.42341 15.1993 3.20705 15.3724 3.0495 15.2704C2.86027 15.1342 2.7082 15.4443 2.45559 15.2398C2.92091 14.9964 2.78685 14.3105 3.31556 14.1354C3.18879 13.9988 3.03125 13.8968 2.90448 13.7603C2.84384 13.898 2.62565 13.9338 2.65826 14.0366C2.94713 14.6185 2.44463 14.4157 2.25905 14.5543C2.25996 14.6229 2.29165 14.6571 2.29257 14.7257C2.51167 14.7587 2.51167 14.7587 2.32791 15.0346C2.27457 15.7218 2.40772 16.3391 2.47932 17.0254C2.85048 16.7483 3.28969 16.8828 3.69528 16.8458Z" fill="#F2DFC6"/>
<path d="M7.08578 8.71956C7.30306 8.61514 7.55476 8.75089 7.74034 8.61233C7.42617 8.47698 7.41704 7.79021 6.89107 8.17134L6.86029 8.20588C6.86029 8.20588 6.86029 8.20588 6.89107 8.17134C6.9182 7.86209 6.94715 7.6902 7.10104 7.5175C7.00688 7.48377 6.91272 7.45003 6.75609 7.41669C6.29077 7.66007 5.78827 7.45724 5.32112 7.56327C5.29308 7.80384 5.51218 7.83677 5.60816 8.00786C5.67246 8.14482 5.79922 8.28137 5.58195 8.38579C5.64625 8.52274 5.74132 8.62516 5.80561 8.76211C6.0564 8.82918 6.24472 8.89666 6.49552 8.96373C6.61589 8.61955 6.83408 8.5838 7.08578 8.71956Z" fill="#EFDDC1"/>
<path d="M11.9979 14.011C11.7806 14.1154 11.6548 14.0475 11.4972 13.9455C11.4674 14.0487 11.5 14.1515 11.5941 14.1853C12.4434 14.6263 13.261 15.0331 14.1103 15.4741C13.826 15.2355 13.6349 14.962 13.289 14.7925C13.1007 14.7251 12.973 14.5198 13.2836 14.3805C13.3759 14.2769 13.4374 14.2078 13.5642 14.3443C14.0314 14.2383 14.4976 14.0636 14.9322 13.8548C14.8679 13.7178 14.9602 13.6142 15.0525 13.5106C14.8642 13.4431 14.8063 13.7869 14.5872 13.754C13.8982 13.621 13.2446 13.7969 12.5909 13.9728C12.3419 14.0431 12.2115 13.6319 11.9626 13.7021C12.1201 13.8041 12.3709 13.8712 11.9979 14.011Z" fill="#57504A"/>
<path d="M6.9289 6.31665C7.03036 6.89981 6.74879 6.86728 6.43462 6.73192C6.15213 6.63071 6.15396 6.76807 6.21917 6.9737C6.37762 7.14439 6.62568 7.00543 6.75335 7.21066C7.47038 7.10303 8.15937 7.23598 8.84837 7.36892C9.12628 7.12675 9.44137 7.33078 9.7528 7.26009C9.56174 6.98659 9.6486 6.47091 9.0882 6.61187C8.87002 6.64761 8.99131 6.3721 9.11442 6.23394C9.33078 6.06085 9.54714 5.88775 9.57427 5.5785C9.41764 5.54517 9.35699 5.68292 9.29544 5.752C9.17232 5.89016 9.05012 6.09699 8.92701 6.23515C8.34222 6.89139 7.53103 6.96528 6.9289 6.31665Z" fill="#F0E1C7"/>
<path d="M26.1302 19.6897C25.3434 19.2483 24.5258 18.8414 23.6793 18.6065C23.6168 18.6069 23.6159 18.5382 23.5525 18.4699C23.3027 18.4715 23.1153 18.4727 22.8654 18.4743C22.7404 18.4751 22.678 18.4755 22.553 18.4763C22.7432 18.6812 22.9333 18.886 23.1533 18.9876C24.0959 19.3937 25.0384 19.7997 25.9492 20.1716C26.1973 20.0327 26.1637 19.8612 26.1302 19.6897Z" fill="#F0DFC8"/>
<path d="M9.76437 22.2329C10.5393 21.7815 10.5683 21.6096 10.0902 20.8915C9.99509 20.7891 9.99326 20.6518 9.99143 20.5144C9.98687 20.171 9.8275 19.9317 9.57489 19.7272C9.32866 20.0035 9.58584 20.5514 9.21376 20.7598C9.25275 21.3433 9.35421 21.9265 9.5797 22.4402C9.61048 22.4056 9.67113 22.2679 9.76437 22.2329Z" fill="#EFDABF"/>
<path d="M9.43078 18.2858C9.17633 17.944 9.01514 17.5673 8.63759 17.3637C8.38588 17.2279 8.193 16.8171 8.50078 16.4717C8.7461 16.1267 8.40114 16.0259 8.27347 15.8206C8.05254 15.6503 7.86331 15.5142 7.6116 15.3784C7.71672 16.2363 7.85261 17.0596 8.23747 17.8127C8.39045 17.5713 8.54708 17.6046 8.70553 17.7753C8.76891 17.8436 8.92554 17.8769 8.89659 18.0488C8.83777 18.3239 8.64945 18.2565 8.49465 18.3605C8.52725 18.4633 8.52816 18.532 8.59155 18.6003C9.09678 19.0091 9.31314 18.836 9.43078 18.2858Z" fill="#F1DCC1"/>
<path d="M18.5333 19.2233C18.2454 18.71 17.7438 18.5759 17.3644 18.2349C17.4622 18.5433 17.4659 18.818 17.2821 19.094C17.1599 19.3008 17.0069 19.5422 17.1047 19.8506C17.2967 20.1928 17.6734 20.3277 17.9269 20.6009C18.0808 20.4282 18.2953 20.1177 18.2636 20.0836C17.8507 19.5711 18.4745 19.4984 18.5333 19.2233Z" fill="#F2DEC6"/>
<path d="M3.27798 18.3596C3.42366 17.5688 3.51691 17.5339 4.20772 17.8042C4.20772 17.8042 4.2385 17.7697 4.30006 17.7006C4.1733 17.564 4.01484 17.3933 3.94963 17.1877C3.82378 17.1198 3.79026 16.9483 3.72597 16.8114L3.6635 16.8118C3.2579 16.8487 2.81879 16.7142 2.41593 16.9572C2.54817 17.5058 2.77366 18.0195 2.99915 18.5331C3.18747 18.6006 3.24994 18.6002 3.27798 18.3596Z" fill="#EFDABE"/>
<path d="M4.16143 16.6712C4.13248 16.8431 4.10352 17.015 4.07457 17.1869C4.20042 17.2548 4.29732 17.4946 4.48382 17.4247C4.48199 17.2873 4.35523 17.1508 4.38418 16.9789C4.38327 16.9102 4.41405 16.8757 4.44391 16.7724C4.44483 16.8411 4.47652 16.8753 4.44574 16.9098C4.54264 17.1496 4.79434 17.2853 4.70474 17.595C4.67488 17.6982 4.76995 17.8006 4.8632 17.7657C4.95645 17.7307 5.01801 17.6616 4.9854 17.5588C4.92019 17.3532 4.85499 17.1476 4.75718 16.8391C4.75718 16.8391 4.72548 16.805 4.75626 16.7704L4.78795 16.8046C5.1972 17.0423 5.45073 17.3154 5.73595 17.6227C5.79112 17.0729 5.53394 16.5251 5.6208 16.0094C5.15456 16.1841 4.75444 16.6331 4.16143 16.6712Z" fill="#F0DCC1"/>
<path d="M9.54411 19.7618C9.63279 19.3834 9.4399 18.9726 9.77938 18.6613C9.84094 18.5922 9.74495 18.4212 9.68157 18.3529C9.58832 18.3878 9.49416 18.3541 9.43078 18.2858C9.31314 18.836 9.066 19.0437 8.62233 18.5657C8.75731 19.3204 8.76734 20.0758 9.15129 20.7602C9.61753 20.5855 9.29788 20.0381 9.54411 19.7618Z" fill="#EED6B8"/>
<path d="M2.55446 8.57693C2.58524 8.54239 2.67757 8.43877 2.58341 8.40503C2.11261 8.23635 2.51638 8.06205 2.57702 7.92429C2.66662 7.61465 3.28766 7.33593 2.56607 7.10017C2.40944 7.06683 2.56242 6.82546 2.49904 6.75718C2.24642 6.55275 2.70536 5.82863 2.0191 5.90172C2.06631 7.10337 2.1443 8.27049 2.19151 9.47214C2.34357 9.16209 2.30732 8.78456 2.55446 8.57693Z" fill="#F2DCBD"/>
<path d="M12.5368 24.0009C12.4399 23.7611 12.4027 23.3149 12.3095 23.3499C11.9663 23.3864 11.8051 23.0097 11.4928 23.0117C11.7789 23.3876 11.6595 23.8005 11.6966 24.2467C11.7283 24.2808 11.76 24.315 11.7908 24.2804C11.8822 24.1081 11.9727 23.8672 12.0949 23.6603C12.2543 23.8997 12.3512 24.1395 12.4789 24.3447C13.0764 24.6499 12.8991 25.4066 13.0929 25.8861C13.1898 26.1259 13.226 26.5034 13.3854 26.7428C13.4704 26.0898 13.5238 25.4026 13.234 24.752C12.9506 24.5821 12.698 24.3776 12.5368 24.0009Z" fill="#F5E4CF"/>
<path d="M3.07014 5.07078C3.10183 5.10491 3.13352 5.13905 3.19599 5.13865C3.19507 5.06997 3.22494 4.96676 3.22403 4.89808C3.22038 4.62337 2.84282 4.41975 3.02567 4.07516C3.02202 3.80045 2.73953 3.69923 2.67341 3.42493C2.3565 3.08354 2.37998 2.49959 2.0006 2.15861C1.90552 2.05619 1.77876 1.91964 1.71446 1.78268C1.59135 1.92084 1.71903 2.12607 1.65838 2.26383C1.6666 2.88192 2.32572 3.11808 2.36472 3.70164C2.40371 4.2852 2.81387 4.59164 3.07014 5.07078Z" fill="#57504A"/>
<path d="M16.5657 16.9007C17.4187 17.6164 18.3648 18.2972 19.1562 19.0819C19.1535 18.8759 19.119 18.6357 19.1163 18.4297C19.0529 18.3614 18.9895 18.2931 18.9261 18.2249C18.4508 17.7128 17.76 17.4425 17.223 16.9995C17.0673 17.0348 16.8427 16.5898 16.5657 16.9007Z" fill="#F0DDC2"/>
<path d="M3.41052 4.8282C3.69939 5.41016 4.14398 5.95677 4.27805 6.64274C4.49715 6.67568 4.34508 6.98572 4.47093 7.0536C4.5334 7.0532 4.59587 7.0528 4.65834 7.0524C4.75159 7.01746 4.78237 6.98292 4.87562 6.94798C4.84392 6.91384 4.81223 6.8797 4.78054 6.84556C4.14307 5.88809 3.94014 4.72178 3.27189 3.79885C3.11252 3.55948 2.98485 3.35425 2.67432 3.49361C2.70875 3.73378 3.0537 3.83459 3.02658 4.14383C3.24659 4.24545 3.28193 4.5543 3.41052 4.8282Z" fill="#EDD9BC"/>
<path d="M24.0766 8.54184C24.0458 8.57638 24.015 8.61091 24.015 8.61091C23.9535 8.67999 23.9227 8.71453 23.8928 8.81775C23.9254 8.92056 23.9273 9.05792 23.9906 9.12619C24.2759 9.43344 24.3085 9.53625 23.8703 9.47038C23.7761 9.43664 23.6539 9.64348 23.6856 9.67762C24.1872 9.81176 23.7237 10.1925 23.883 10.4319C24.3782 10.0853 24.8408 9.63586 25.2083 9.08404C24.7394 9.05271 24.3917 8.74587 24.0766 8.54184Z" fill="#ECD3B3"/>
<path d="M6.52629 8.9292C6.71918 9.34006 7.06687 9.6469 7.38287 9.9196C7.69887 10.1923 7.95331 10.5341 8.23853 10.8413C8.301 10.8409 8.36438 10.9092 8.42685 10.9088C8.42594 10.8401 8.36255 10.7719 8.33086 10.7377C8.00848 9.98427 7.62453 9.2999 7.08578 8.71956C6.83408 8.5838 6.61589 8.61955 6.52629 8.9292Z" fill="#F2E3CD"/>
<path d="M30.0735 15.5434C29.9794 15.5096 29.9178 15.5787 29.8562 15.6478C29.8907 15.888 29.8934 16.094 30.0836 16.2988C30.3054 16.5378 30.3407 16.8466 29.9677 16.9864C30.4404 17.2924 30.4711 17.2579 31.0008 17.1515C31.3122 17.0808 31.4661 16.9081 31.5249 16.633C31.2098 16.429 30.9636 16.7053 30.7146 16.7756C30.6522 16.776 30.6522 16.776 30.5897 16.7764C30.6141 16.2611 30.4212 15.8502 30.0735 15.5434Z" fill="#EFDDC7"/>
<path d="M28.968 14.6232C29.092 14.5538 29.2468 14.4498 29.3428 14.6208C29.4388 14.7919 29.4098 14.9638 29.2867 15.102C29.1944 15.2056 29.0396 15.3096 29.0106 15.4815C29.3221 15.4108 29.6335 15.3401 29.8163 14.9956C29.8163 14.9956 29.8471 14.961 29.8154 14.9269C29.9358 14.5827 29.9629 14.2734 29.5229 14.0702C29.4287 14.0365 29.3952 13.865 29.3309 13.728C28.9579 13.8678 28.6483 14.0758 28.3387 14.2839C28.5886 14.2823 28.6891 14.7967 28.968 14.6232Z" fill="#F0DCC6"/>
<path d="M6.00124 9.379C6.44218 9.65091 6.6378 10.2678 7.07874 10.5397C7.04339 10.2309 6.82155 9.99189 6.72374 9.68344C6.88037 9.71678 6.97453 9.75052 7.10038 9.81839C7.10038 9.81839 7.10039 9.81839 7.13208 9.85253C7.25884 9.98908 7.38561 10.1256 7.54315 10.2277C7.85732 10.363 7.83293 10.8783 8.23944 10.91C7.95422 10.6028 7.69978 10.261 7.38378 9.98828C7.06778 9.71558 6.72009 9.40873 6.52721 8.99787C6.27642 8.9308 6.0881 8.86332 5.8373 8.79625C5.68433 9.03762 5.9985 9.17297 6.00124 9.379Z" fill="#5C544D"/>
<path d="M4.00962 19.3508C4.13091 19.0753 4.35092 19.1769 4.56911 19.1412C4.41065 18.9705 4.84064 18.4183 4.21777 18.5597C4.21777 18.5597 4.18516 18.4568 4.15347 18.4227C4.02488 18.1488 3.93072 18.1151 3.77774 18.3564C3.59398 18.6323 3.53608 18.9761 3.44648 19.2858C3.66923 19.5934 3.83043 19.9701 4.23785 20.0706C4.07939 19.8999 3.88924 19.695 4.00962 19.3508Z" fill="#F0DCC4"/>
<path d="M22.457 18.3052C22.6426 18.1667 22.8002 18.2687 22.8962 18.4398C23.146 18.4382 23.3334 18.437 23.5833 18.4354C23.6766 18.4004 23.8649 18.4679 23.9572 18.3643C23.8622 18.2619 23.7988 18.1936 23.7037 18.0912C23.6086 17.9888 23.4828 17.9209 23.3877 17.8185C23.0763 17.8892 22.763 17.8225 22.4805 17.7213C22.2968 17.9972 22.0106 17.6213 21.826 17.8285C21.8278 17.9659 21.8604 18.0687 21.8305 18.1719C22.0505 18.2735 22.2398 18.4097 22.457 18.3052Z" fill="#1D1917"/>
<path d="M2.60298 5.1768C2.73614 5.79409 2.88273 5.07198 3.04027 5.17399C3.07105 5.13946 3.03936 5.10531 3.07014 5.07078C2.84556 4.62578 2.40371 4.2852 2.27147 3.73658C2.02615 4.08157 1.81253 4.4607 1.91217 4.9065C2.16296 4.97357 2.29337 5.38484 2.60298 5.1768Z" fill="#F0DBBB"/>
<path d="M22.2948 8.45025C22.5374 7.89922 22.8805 7.86268 23.231 8.37556C23.326 8.47797 23.3903 8.61492 23.4854 8.71734C23.5768 8.54504 23.7344 8.64706 23.8276 8.61212C23.604 8.2358 23.6265 7.58316 22.971 7.62171C22.9086 7.62211 22.8751 7.45062 22.8434 7.41648C22.5962 7.62411 22.3491 7.83175 22.0712 8.07393C22.2278 8.10726 22.0757 8.41731 22.2948 8.45025Z" fill="#ECD4B3"/>
<path d="M31.0639 14.8502C30.7552 15.1269 30.3188 15.1984 30.0418 15.5092C30.3587 15.8506 30.5824 16.2269 30.558 16.7422C30.6205 16.7418 30.6205 16.7418 30.6829 16.7414C30.7092 16.3635 31.1464 16.3607 31.236 16.051C30.7942 15.7105 30.882 15.2635 31.0639 14.8502Z" fill="#F5E6D4"/>
<path d="M15.146 15.8452C14.9242 15.6063 14.7033 15.436 14.4814 15.197C14.1971 14.9584 13.9753 14.7195 13.691 14.4809C13.5353 14.5162 13.4411 14.4825 13.2836 14.3805C12.9413 14.4857 13.1007 14.7251 13.289 14.7925C13.6032 14.9279 13.826 15.2355 14.1103 15.4741C14.3909 15.438 14.4281 15.8842 14.7087 15.848C14.8328 15.7785 14.9604 15.9838 15.146 15.8452Z" fill="#2D2824"/>
<path d="M1.68368 1.81723C1.81045 1.95378 1.90552 2.05619 1.96982 2.19315C1.77511 1.64493 1.33143 1.167 1.29153 0.514762C1.2571 0.274592 1.00813 0.344872 0.853327 0.44889C0.760078 0.483831 0.636964 0.621988 0.763728 0.758541C1.17571 1.20234 1.33965 1.78509 1.59683 2.33291C1.65656 2.12647 1.56057 1.95538 1.68368 1.81723Z" fill="#5F5A54"/>
<path d="M19.386 17.5694C19.9193 17.7377 20.4833 17.8715 21.0166 18.0398C20.9822 17.7996 21.2339 17.9353 21.2954 17.8663C20.6671 17.5956 20.0686 17.2216 19.3507 17.2606C19.4765 17.3285 19.4783 17.4658 19.386 17.5694Z" fill="#5C564F"/>
<path d="M2.71525 13.6241C2.74603 13.5896 2.7768 13.555 2.7768 13.555C2.83745 13.4173 2.89901 13.3482 2.8338 13.1426C2.67261 12.7658 2.44985 12.4582 2.35113 12.0811C2.28775 12.0128 2.19359 11.9791 2.10034 12.014C2.13842 12.5289 2.23897 13.0434 2.27705 13.5582C2.49341 13.3851 2.62018 13.5217 2.71525 13.6241Z" fill="#F2DDBF"/>
<path d="M4.7946 19.6549C4.70226 19.7585 4.54654 19.7938 4.41978 19.6573C4.32471 19.5549 4.47951 19.4509 4.54016 19.3131C4.63249 19.2095 4.6008 19.1753 4.53833 19.1757C4.32014 19.2115 4.10013 19.1099 3.97884 19.3854C3.85847 19.7296 4.04861 19.9344 4.23876 20.1392C4.6154 20.2742 4.89332 20.032 5.10786 19.7216C5.07617 19.6874 5.04448 19.6533 5.04448 19.6533C4.98109 19.585 4.85616 19.5858 4.7946 19.6549Z" fill="#ECD2B0"/>
<path d="M23.0018 7.58717C23.6573 7.54862 23.6347 8.20126 23.8584 8.57758C23.9209 8.57718 23.9833 8.57678 24.0458 8.57638C24.0766 8.54184 24.1074 8.5073 24.1074 8.5073C23.8221 8.20005 23.9706 7.6153 23.4988 7.37793C23.4047 7.34419 23.4644 7.13776 23.5567 7.03414C23.2417 6.83012 23.1548 7.3458 22.9049 7.3474C22.9068 7.48476 22.971 7.62171 23.0018 7.58717Z" fill="#F5E4D0"/>
<path d="M5.60725 7.93919C5.51126 7.7681 5.29216 7.73516 5.3202 7.49459C5.16175 7.3239 5.04046 7.59941 4.88383 7.56607C4.88748 7.84078 4.9536 8.11509 5.17453 8.28538C5.30038 8.35326 5.39728 8.59303 5.58103 8.31711C5.76753 8.24723 5.70324 8.11028 5.60725 7.93919Z" fill="#5E5851"/>
<path d="M2.65826 14.0366C2.59396 13.8996 2.81215 13.8639 2.90448 13.7603C2.8411 13.692 2.71708 13.7615 2.74603 13.5896C2.61926 13.453 2.52419 13.3506 2.3703 13.5233C2.2807 13.8329 2.28527 14.1763 2.28983 14.5197C2.44463 14.4157 2.94713 14.6185 2.65826 14.0366Z" fill="#F2E3D0"/>
<path d="M23.4194 17.8526C23.5425 17.7145 23.6991 17.7478 23.8856 17.6779C23.4139 17.4406 22.944 17.3405 22.5122 17.7554C22.7947 17.8566 23.108 17.9233 23.4194 17.8526Z" fill="#F0E1CF"/>
<path d="M15.5754 17.5939C15.5111 17.4569 15.2268 17.2184 15.0412 17.3569C14.8248 17.53 15.2322 17.6304 15.11 17.8373C15.1426 17.9401 15.2377 18.0425 15.2703 18.1453C15.6442 18.0742 15.6713 17.765 15.5754 17.5939Z" fill="#EDD4B0"/>
<path d="M8.95906 18.0484C8.98801 17.8765 8.83138 17.8432 8.768 17.7749C8.60955 17.6042 8.45292 17.5709 8.29994 17.8123C8.30268 18.0183 8.55438 18.1541 8.55712 18.3601C8.71192 18.2561 8.93193 18.3577 8.95906 18.0484Z" fill="#ECD1AD"/>
<path d="M21.0166 18.0398C21.2982 18.0723 21.5806 18.1735 21.8622 18.206C21.8604 18.0687 21.8278 17.9659 21.8577 17.8626C21.6702 17.8638 21.4828 17.865 21.3262 17.8317C21.2339 17.9353 20.9822 17.7996 21.0166 18.0398Z" fill="#35302B"/>
<path d="M14.1307 12.3146C13.7559 12.317 13.6039 12.627 13.4192 12.8342C13.89 13.0029 13.9153 12.5563 14.1307 12.3146Z" fill="#F7EDE1"/>
<path d="M11.6934 19.3015C11.6635 19.4048 11.6653 19.5421 11.7278 19.5417C11.8853 19.6437 11.9768 19.4714 12.1008 19.4019C12.0691 19.3678 12.0057 19.2995 11.974 19.2654C11.8482 19.1975 11.7531 19.0951 11.6934 19.3015Z" fill="#E9CDA3"/>
<path d="M2.38191 12.0465C2.34839 11.875 2.40813 11.6686 2.28045 11.4634C2.15734 11.6015 2.06591 11.7738 2.1619 11.9449C2.25606 11.9787 2.31853 11.9783 2.38191 12.0465Z" fill="#F2E1C7"/>
<path d="M25.3474 5.44294C25.1264 5.27265 25.0359 5.51362 24.9128 5.65178C25.1337 5.82207 25.2243 5.5811 25.3474 5.44294Z" fill="#FAF4EB"/>
<path d="M2.29257 14.7257C2.32517 14.8286 2.29531 14.9318 2.32791 15.0346C2.48089 14.7932 2.48089 14.7932 2.29257 14.7257Z" fill="#F2E3D0"/>
<path d="M22.457 18.3052C22.5204 18.3735 22.5521 18.4077 22.6155 18.4759C22.7404 18.4751 22.8029 18.4747 22.9279 18.4739C22.7694 18.3032 22.6435 18.2354 22.457 18.3052Z" fill="#27221E"/>
<path d="M23.7101 18.5719C24.5566 18.8069 25.3742 19.2137 26.161 19.6551C27.1949 19.8889 28.1085 20.4668 29.0827 20.907C30.2462 21.4834 31.3481 22.1288 32.5441 22.8079C32.1918 22.1577 30.8989 21.2388 29.6114 20.7319C29.1696 20.3913 28.6671 20.1885 28.1655 20.0544C27.4421 19.6813 26.7187 19.3081 25.9952 18.935C25.7445 18.8679 25.4937 18.8009 25.2112 18.6997C25.4909 18.5948 25.7707 18.49 26.0233 18.6945C26.8019 18.5177 27.5253 18.8909 28.274 18.8174C28.274 18.8174 28.3048 18.7828 28.3365 18.817C28.9277 18.6415 29.5234 18.8094 30.1164 18.7712C30.3971 18.7351 30.8325 18.5949 31.1476 18.7989C31.5505 18.556 32.0521 18.6901 32.4875 18.5499C32.5174 18.4467 32.5165 18.378 32.5463 18.2748C32.3589 18.276 32.2023 18.2427 31.9832 18.2098C31.2662 18.3174 30.5482 18.3563 29.7977 18.2925C29.1114 18.3656 28.3926 18.3358 27.6737 18.3061C26.5511 18.4507 25.4212 18.0458 24.2976 18.1217C24.2044 18.1567 24.0794 18.1575 23.9862 18.1924C24.0496 18.2607 24.0813 18.2948 24.2071 18.3627C24.2379 18.3282 24.2388 18.3968 24.2388 18.3968C24.2705 18.431 24.3022 18.4651 24.3339 18.4992C24.0831 18.4322 23.9889 18.3984 23.864 18.3992C23.7409 18.5374 23.615 18.4695 23.4901 18.4703C23.6467 18.5037 23.6476 18.5723 23.7101 18.5719Z" fill="#544D47"/>
<path d="M33.8054 23.6927C33.7347 23.075 33.1734 23.1473 32.8574 22.8746C32.9887 23.3545 33.4586 23.4546 33.8054 23.6927Z" fill="#68625A"/>
<path d="M31.0008 17.1515C30.4711 17.2579 30.4711 17.2579 29.9677 16.9864C29.6264 17.1603 29.2535 17.3001 28.8814 17.5085C28.9438 17.5081 29.0389 17.6105 29.0697 17.576C29.784 17.2623 29.8836 17.7081 29.9235 18.3604C30.6424 18.3901 31.392 18.3853 32.109 18.2776C32.1633 17.6591 31.8753 17.1459 31.5566 16.6671C31.4036 16.9085 31.3122 17.0808 31.0008 17.1515Z" fill="#F4E5D2"/>
<path d="M32.5183 18.5154C32.9239 18.4785 33.3612 18.4757 33.7975 18.4042C34.5146 18.2965 35.2316 18.1889 35.9486 18.0813C35.8853 18.013 35.8219 17.9447 35.7585 17.8765C34.6974 17.952 33.6354 17.9588 32.5771 18.2403C32.5789 18.3776 32.5799 18.4463 32.5183 18.5154Z" fill="#5D5750"/>
<path d="M35.9486 18.0813C36.4185 18.1813 36.7897 17.9042 37.1935 17.7299C37.2233 17.6267 37.2224 17.558 37.284 17.4889C36.786 17.6295 36.222 17.4957 35.7893 17.8419C35.8219 17.9447 35.8853 18.013 35.9486 18.0813Z" fill="#59534D"/>
<path d="M37.2252 17.764C37.3492 17.6945 37.571 17.9335 37.7231 17.6235C37.5665 17.5901 37.4714 17.4877 37.3157 17.5231C37.2541 17.5921 37.255 17.6608 37.2252 17.764Z" fill="#837B71"/>
<path d="M8.13407 7.68258C8.35226 7.64684 8.57045 7.6111 8.8511 7.57496C8.88188 7.54042 8.88188 7.54042 8.91266 7.50588C8.91175 7.4372 8.94253 7.40266 8.87914 7.33438C8.19015 7.20144 7.46947 7.03436 6.78413 7.17612C6.78505 7.2448 6.78596 7.31348 6.78687 7.38215C6.88103 7.41589 6.97519 7.44963 7.13182 7.48296C7.446 7.61831 7.84794 7.30666 8.13407 7.68258Z" fill="#575049"/>
<path d="M8.91266 7.50588C9.07112 7.67657 9.29022 7.7095 9.5084 7.67376C9.85153 7.63722 10.2254 7.56614 10.5993 7.49505C10.6609 7.42597 10.6908 7.32276 10.6274 7.25448C10.3449 7.15327 10.0959 7.22355 9.78358 7.22556C9.50384 7.33038 9.18875 7.12635 8.87914 7.33438C8.88006 7.40306 8.91175 7.4372 8.91266 7.50588Z" fill="#575049"/>
<path d="M11.6287 7.38542C11.6958 7.72841 11.2883 7.628 11.2603 7.86857C11.828 8.27702 11.9755 7.62359 12.3159 7.38101C12.0959 7.2794 11.8777 7.31514 11.6287 7.38542Z" fill="#F6E8D8"/>
<path d="M11.6287 7.38542C11.8777 7.31514 12.0959 7.2794 12.3159 7.38101C12.5024 7.31113 12.6572 7.20711 12.8129 7.17177C12.8437 7.13723 12.8745 7.1027 12.9043 6.99948C12.6228 6.96694 12.3729 6.96855 12.0605 6.97055C11.8423 7.0063 11.5925 7.0079 11.6287 7.38542Z" fill="#5B554E"/>
<path d="M13.5924 7.06375C13.529 6.99547 13.4656 6.92719 13.4339 6.89306C13.2456 6.82558 13.0582 6.82678 12.9043 6.99948C12.8735 7.03402 12.8428 7.06856 12.8129 7.17177C13.0954 7.27298 13.376 7.23684 13.5924 7.06375Z" fill="#58514C"/>
<path d="M8.13407 7.68258C8.26175 7.88781 8.35865 8.12758 8.57227 7.74845C8.63383 7.67938 8.72708 7.64444 8.81941 7.54082C8.57045 7.6111 8.35226 7.64684 8.13407 7.68258Z" fill="#F0E1C7"/>
<path d="M10.5369 7.49545C10.7243 7.49425 10.9434 7.52718 11.0656 7.32035C10.9071 7.14966 10.7206 7.21954 10.5649 7.25488C10.66 7.3573 10.5984 7.42637 10.5369 7.49545Z" fill="#80776D"/>
<path d="M15.1514 6.84769C15.2446 6.81275 15.3705 6.88063 15.3687 6.74327C15.3678 6.6746 15.365 6.46856 15.2093 6.5039C15.0844 6.50471 15.0862 6.64206 15.0871 6.71074C15.088 6.77942 15.1197 6.81355 15.1514 6.84769Z" fill="#A3978A"/>
<path d="M14.7757 6.78142C14.9024 6.91797 14.9966 6.95171 15.1514 6.84769C15.1197 6.81355 15.088 6.77942 15.0871 6.71074C14.9929 6.677 14.8979 6.57459 14.8055 6.6782C14.7748 6.71274 14.744 6.74728 14.7757 6.78142Z" fill="#726961"/>
<path d="M13.8106 7.02801C13.7762 6.78784 13.5589 6.89225 13.4339 6.89306C13.4973 6.96133 13.5607 7.02961 13.5924 7.06375C13.7183 7.13162 13.8115 7.09668 13.8106 7.02801Z" fill="#898076"/>
<path d="M33.098 12.7766C33.0645 12.6051 33.4049 12.3626 33.0599 12.2618C32.6516 12.0927 32.0324 12.5087 31.9455 13.0244C32.3194 12.9533 32.6942 12.9509 33.098 12.7766Z" fill="#F7EDE2"/>
<path d="M32.6065 13.3979C32.295 13.4686 32.1104 13.6759 31.8949 13.9176C31.9275 14.0204 31.8976 14.1237 31.8361 14.1927C32.2082 13.9843 32.611 13.7413 32.8871 13.3618C32.792 13.2594 32.6988 13.2943 32.6065 13.3979Z" fill="#625A54"/>
<path d="M32.8871 13.3618C33.1062 13.3947 33.1343 13.1542 33.2583 13.0847C33.2257 12.9819 33.1931 12.8791 33.1297 12.8108C33.098 12.7766 33.098 12.7766 33.0663 12.7425C33.0663 12.7425 33.0663 12.7425 33.0355 12.777C32.9133 12.9839 32.5702 13.0204 32.5748 13.3638C32.6988 13.2943 32.792 13.2594 32.8871 13.3618Z" fill="#898078"/>
<path d="M33.2583 13.0847C33.5706 13.0827 33.5045 12.8084 33.5335 12.6365C33.3461 12.6377 33.2537 12.7413 33.1297 12.8108C33.1931 12.8791 33.2257 12.9819 33.2583 13.0847Z" fill="#797168"/>
<path d="M16.0361 17.0071C16.4789 17.4164 17.0448 17.6875 17.3336 18.2694C17.713 18.6104 18.2771 18.7442 18.5026 19.2578C18.7841 19.2904 18.9127 19.5643 19.0404 19.7695C19.4234 20.3852 20.1152 20.7242 20.5905 21.2362C21.256 21.9532 21.86 22.7391 22.463 23.4564C22.9049 23.797 23.039 24.483 23.6039 24.6854C23.7289 24.6846 23.7977 25.1649 23.9796 24.7517C23.8511 24.4778 23.6926 24.3071 23.5025 24.1023C23.2154 23.6577 22.8659 23.2135 22.5788 22.7689C22.4204 22.5982 22.2312 22.462 22.1044 22.3255C21.2451 21.129 20.1386 20.1402 19.1254 19.1165C18.3024 18.2976 17.3879 17.6509 16.535 16.9352C16.2796 16.5248 15.9645 16.3207 15.4974 16.4268C15.5952 16.7352 15.846 16.8023 16.0361 17.0071Z" fill="#554E47"/>
<path d="M23.6664 24.685C23.6374 24.8569 23.8258 24.9244 23.7968 25.0963C24.2097 25.6087 24.6226 26.1212 25.0663 26.5992C25.193 26.7357 25.289 26.9068 25.5697 26.8707C25.0599 26.1184 24.7058 25.3308 24.0421 24.7513C23.8602 25.1645 23.7913 24.6842 23.6664 24.685Z" fill="#655E56"/>
<path d="M17.3837 12.6371C16.7935 12.8813 16.2349 13.1596 15.6437 13.3351C15.4572 13.405 15.3024 13.509 15.1159 13.5789C15.0236 13.6825 14.9312 13.7861 14.9955 13.9231C15.9643 13.9512 16.7691 13.3966 17.6065 12.9447C17.6653 12.6696 17.4471 12.7054 17.3837 12.6371Z" fill="#565049"/>
<path d="M17.6056 12.8761C17.793 12.8749 17.9469 12.7022 18.1324 12.5636C18.5362 12.3893 18.9717 12.2491 19.3438 12.0407C19.7158 11.8323 19.991 11.3841 20.4283 11.3813C20.3332 11.2788 20.3006 11.176 20.3305 11.0728C19.37 11.6628 18.4095 12.2528 17.352 12.603C17.4471 12.7054 17.6653 12.6696 17.6056 12.8761Z" fill="#625A53"/>
<path d="M20.46 11.4154C20.4917 11.4495 20.5551 11.5178 20.5858 11.4833C21.1426 11.0676 21.6993 10.6519 22.2887 10.3391C22.2887 10.3391 22.2244 10.2021 22.2235 10.1334C21.8505 10.2732 21.5083 10.3784 21.1036 10.484C21.167 10.5523 21.1996 10.6551 21.1073 10.7588C21.0457 10.8278 20.9515 10.7941 20.8574 10.7604C20.6401 10.8648 20.4853 10.9688 20.268 11.0732C20.3323 11.2102 20.3649 11.313 20.46 11.4154Z" fill="#5F5952"/>
<path d="M22.4408 10.029C22.5956 9.925 22.783 9.9238 22.8427 9.71737C22.811 9.68323 22.811 9.68323 22.7793 9.64909C22.7169 9.64949 22.6227 9.61575 22.591 9.58162C22.4987 9.68523 22.3439 9.78925 22.4091 9.99488C22.4091 9.99488 22.4091 9.99488 22.4408 10.029Z" fill="#6B635A"/>
<path d="M21.1389 10.7929C21.2313 10.6893 21.1987 10.5865 21.1353 10.5182C21.043 10.6218 20.9814 10.6909 20.9208 10.8286C21.0149 10.8624 21.0774 10.862 21.1389 10.7929Z" fill="#8B8278"/>
<path d="M13.7227 14.515C13.691 14.4809 13.6593 14.4468 13.6276 14.4126C13.6276 14.4126 13.6276 14.4126 13.5959 14.3785C13.4691 14.2419 13.4076 14.311 13.3152 14.4146C13.4103 14.517 13.5669 14.5504 13.7227 14.515Z" fill="#D9C9B2"/>
<path d="M3.80998 6.68008C3.7466 6.61181 3.65244 6.57807 3.55919 6.61301C3.5991 7.26524 3.57653 7.91788 3.67891 8.56971C3.74959 9.18741 3.72612 9.77136 3.73433 10.3895C3.86748 11.0068 3.53349 11.7301 4.16457 12.2068C4.19444 12.1036 4.22522 12.069 4.25508 11.9658C4.24413 11.1417 4.07746 10.3529 4.25391 9.52758C4.21127 8.66932 4.13694 7.77692 3.93766 6.88531C3.87428 6.81704 3.8109 6.74876 3.80998 6.68008Z" fill="#58524B"/>
<path d="M4.1347 12.31C4.10301 12.2759 4.03963 12.2076 3.94638 12.2425C3.51092 12.3827 3.70381 12.7936 3.67668 13.1028C3.77449 13.4113 3.84153 13.7542 3.68946 14.0643C3.66689 14.7169 3.86343 15.4025 3.74762 16.0901C3.84452 16.3298 3.75401 16.5708 3.72597 16.8114C3.79026 16.9483 3.79209 17.0857 3.94963 17.1877C3.98041 17.1532 4.01119 17.1186 4.04288 17.1528C4.07183 16.9809 4.10079 16.809 4.12974 16.6371C4.145 15.435 3.84791 14.235 4.20721 13.0651C4.23525 12.8245 4.20083 12.5843 4.1347 12.31Z" fill="#5A524C"/>
<path d="M4.16457 12.2068C4.16548 12.2755 4.16548 12.2755 4.1664 12.3442C4.20082 12.5843 4.23526 12.8245 4.23891 13.0992C4.36658 13.3044 4.4644 13.6129 4.71427 13.6113C4.8709 13.6446 5.02479 13.4719 5.08544 13.3342C5.3914 12.8514 5.06992 12.1667 4.53848 12.1357C4.41354 12.1365 4.31937 12.1028 4.19352 12.0349C4.19352 12.0349 4.16366 12.1381 4.16457 12.2068Z" fill="#F5E8D6"/>
<path d="M8.30425 15.7861C8.43192 15.9913 8.80765 16.0576 8.53156 16.4371C8.25547 16.8167 8.41666 17.1934 8.66837 17.3291C9.04592 17.5328 9.20711 17.9095 9.46156 18.2513C9.52494 18.3195 9.6191 18.3533 9.71235 18.3183C9.67883 18.1468 9.89884 18.2485 9.86624 18.1456C9.67335 17.7348 9.44969 17.3585 9.22603 16.9821C9.16264 16.9139 9.00784 17.0179 9.0051 16.8119C9.06483 16.6054 9.12913 16.7424 9.22329 16.7761C9.41161 16.8436 9.43874 16.5343 9.43874 16.5343C9.09287 16.3648 9.27298 15.8142 8.9579 15.6102C8.7071 15.5431 8.52243 15.7504 8.30425 15.7861Z" fill="#F4E6D3"/>
<path d="M8.02582 11.2891C7.86097 10.6377 7.32587 10.3321 7.10038 9.81839C7.10038 9.81839 7.10039 9.81839 7.0687 9.78425C6.97454 9.75052 6.84868 9.68264 6.69205 9.64931C6.78987 9.95775 7.0117 10.1967 7.04705 10.5056C7.11043 10.5738 7.14212 10.608 7.2055 10.6763C7.45811 10.8807 7.71073 11.0851 8.02582 11.2891Z" fill="#201C18"/>
<path d="M11.4123 24.0081L11.4132 24.0766C11.4449 24.1107 11.5083 24.1792 11.54 24.2134C11.6025 24.213 11.6649 24.2126 11.6649 24.2126C11.6595 23.8005 11.7472 23.3535 11.4611 22.9776C11.4285 22.8748 11.3642 22.7378 11.3316 22.635C11.2691 22.6354 11.2066 22.6358 11.1442 22.6362C11.2755 23.1161 11.3444 23.5965 11.4123 24.0081Z" fill="#605A52"/>
<path d="M3.3907 5.68687C3.67318 5.78808 3.73839 5.99371 3.67957 6.26882C3.71126 6.30296 3.74295 6.3371 3.77464 6.37123C3.96114 6.30136 4.05621 6.40377 4.05895 6.6098C4.12233 6.67808 4.21649 6.71182 4.27805 6.64274C4.17476 5.92223 3.73108 5.4443 3.41052 4.8282C3.37974 4.86274 3.37975 4.86274 3.34897 4.89728C3.38157 5.0001 3.47756 5.17119 3.38522 5.27481C3.29289 5.37842 3.22859 5.24147 3.13352 5.13905C3.10183 5.10492 3.07013 5.07078 3.00767 5.07118C3.00858 5.13985 3.00858 5.13986 2.9778 5.17439C3.04209 5.31135 3.19872 5.34469 3.20146 5.55072C3.29562 5.58445 3.35901 5.65273 3.3907 5.68687Z" fill="#5C544D"/>
<path d="M3.39435 5.96158C3.39343 5.8929 3.39161 5.75554 3.3907 5.68687C3.35901 5.65273 3.29562 5.58445 3.26393 5.55032C2.82665 5.55312 2.8629 5.93065 2.80408 6.20576C2.77422 6.30897 2.96345 6.44513 2.99332 6.34191C3.17525 5.92864 3.30658 6.40858 3.46138 6.30456C3.55372 6.20095 3.27123 6.09973 3.39435 5.96158Z" fill="#EFD9B7"/>
<path d="M3.80998 6.68008C3.77738 6.57727 3.80725 6.47405 3.77464 6.37123C3.74295 6.3371 3.71126 6.30296 3.67957 6.26882C3.5845 6.16641 3.48942 6.06399 3.39435 5.96158C3.30293 6.13387 3.55372 6.20095 3.46229 6.37324C3.4949 6.47606 3.49581 6.54473 3.52842 6.64755C3.62075 6.54393 3.71491 6.57767 3.80998 6.68008Z" fill="#746A60"/>
<path d="M11.54 24.2134C11.511 24.3853 11.4513 24.5917 11.6079 24.625C11.7646 24.6584 11.8243 24.4519 11.7908 24.2804C11.7591 24.2463 11.7274 24.2122 11.6966 24.2467C11.6649 24.2126 11.6025 24.213 11.54 24.2134Z" fill="#988E82"/>
<path d="M27.7986 18.3053C27.9806 17.892 28.4179 17.8892 28.6324 17.5788C28.3191 17.5121 27.9154 17.6864 27.8456 17.1374C27.2852 17.2783 26.7248 17.4193 26.1327 17.5261C26.0395 17.5611 25.9471 17.6647 25.8819 17.4591C25.4148 17.5651 24.9811 17.8426 24.5131 17.8799C24.4506 17.8803 24.1699 17.9165 24.3918 18.1555C25.5461 18.045 26.6452 18.4844 27.7986 18.3053Z" fill="#EFD9BE"/>
<path d="M28.7482 16.8912C28.9981 16.8896 29.248 16.888 29.4671 16.9209C29.1882 17.0944 28.9393 17.1647 28.6559 16.9948C28.3426 16.9281 28.0937 16.9984 27.8456 17.1374C27.9154 17.6864 28.3191 17.5121 28.6324 17.5788C28.7257 17.5438 28.7564 17.5093 28.8497 17.4744C29.191 17.3005 29.564 17.1607 29.9361 16.9523C30.309 16.8125 30.2737 16.5037 30.0519 16.2647C29.8617 16.0599 29.859 15.8538 29.8245 15.6137C29.6073 15.7181 29.39 15.8225 29.1727 15.9269C29.2099 16.3731 29.0578 16.6832 28.7482 16.8912Z" fill="#EED5B8"/>
<path d="M26.1644 17.5603C26.7248 17.4193 27.2852 17.2783 27.8773 17.1715C28.1253 17.0326 28.4051 16.9277 28.6876 17.029C28.7183 16.9944 28.7491 16.9599 28.7491 16.9599C29.0587 16.7518 29.1791 16.4077 29.2053 16.0297C28.5843 16.3084 27.9306 16.4843 27.3413 16.7972C26.876 17.0406 26.3454 17.0783 25.9136 17.4932C25.9471 17.6647 26.1019 17.5607 26.1644 17.5603Z" fill="#F2E3CD"/>
<path d="M23.9889 18.3984C24.0831 18.4322 24.2397 18.4655 24.4588 18.4984C24.4271 18.4643 24.3954 18.4302 24.3637 18.396L24.332 18.3619C24.237 18.2595 24.1428 18.2257 24.1111 18.1916C23.9862 18.1924 23.8603 18.1245 23.7354 18.1253C23.7988 18.1936 23.8938 18.296 23.9889 18.3984Z" fill="#27221E"/>
<path d="M22.8735 9.68283C22.9993 9.75071 23.0953 9.9218 23.2809 9.78324C23.1532 9.57801 23.117 9.20049 22.8101 9.61455C22.811 9.68323 22.811 9.68323 22.8735 9.68283Z" fill="#EDD4B3"/>
<path d="M24.015 8.61091C23.9526 8.61131 23.8901 8.61172 23.8276 8.61212C23.7036 8.6816 23.546 8.57958 23.4854 8.71734C23.5171 8.75148 23.5488 8.78561 23.5488 8.78561C23.5506 8.92297 23.5515 8.99165 23.5534 9.129C23.6457 9.02538 23.738 8.92177 23.8611 8.78361C23.8919 8.74907 23.9535 8.67999 24.015 8.61091Z" fill="#BBAB9B"/>
<path d="M23.3669 9.19888C23.4312 9.33584 23.4918 9.19808 23.585 9.16314C23.5832 9.02579 23.5823 8.95711 23.5805 8.81975C23.4881 8.92337 23.3016 8.99325 23.3669 9.19888Z" fill="#80766B"/>
<path d="M3.72115 14.0984C3.87322 13.7884 3.80619 13.4454 3.70837 13.137C3.61421 13.1032 3.48927 13.104 3.39511 13.0703C3.4015 13.551 2.96148 13.3478 2.80759 13.5205C2.77681 13.555 2.74603 13.5896 2.74603 13.5896C2.71708 13.7615 2.8411 13.692 2.90448 13.7603C3.03125 13.8968 3.18879 13.9988 3.31556 14.1354C3.4405 14.1346 3.56543 14.1338 3.72115 14.0984Z" fill="#F4E8D6"/>
<path d="M4.45147 19.6914C4.54654 19.7938 4.70226 19.7585 4.82628 19.689C4.88784 19.6199 5.01278 19.6191 5.04448 19.6533C5.2907 19.377 5.06612 18.932 5.4056 18.6207C4.90675 18.6926 5.1359 19.481 4.57185 19.3472C4.51029 19.4163 4.38717 19.5545 4.45147 19.6914Z" fill="#EFDAC2"/>
<path d="M26.0858 18.694C26.0242 18.7631 25.9943 18.8663 26.0269 18.9692C26.7504 19.3423 27.4738 19.7154 28.1972 20.0885C28.1646 19.9857 27.9772 19.9869 27.9744 19.7809C28.8137 19.4664 29.6974 20.1476 30.6914 19.7291C30.0323 19.4929 29.5588 19.1182 29.0273 19.0873C28.7457 19.0547 28.5574 18.9873 28.3365 18.817C28.3365 18.817 28.3365 18.817 28.3048 18.7828C27.5878 18.8905 26.8643 18.5173 26.0858 18.694Z" fill="#F0DCC3"/>
<path d="M6.78413 7.17612C6.65646 6.97089 6.4084 7.10985 6.24995 6.93916C5.81448 7.07932 5.34094 6.7046 4.8747 6.8793C4.78145 6.91424 4.75068 6.94878 4.65743 6.98372C4.69003 7.08654 4.69186 7.22389 4.72446 7.32671C4.72446 7.32671 4.75615 7.36084 4.72537 7.39538C4.75707 7.42952 4.82045 7.4978 4.85214 7.53194C5.04046 7.59941 5.13006 7.28976 5.28851 7.46045C5.75566 7.35443 6.25816 7.55726 6.72349 7.31388C6.78596 7.31348 6.78505 7.2448 6.78413 7.17612Z" fill="#58504A"/>
<path d="M4.50171 7.01906C4.34417 6.91705 4.49715 6.67567 4.30883 6.6082C4.21558 6.64314 4.15311 6.64354 4.08973 6.57526C4.09064 6.64394 4.02908 6.71302 4.03 6.7817C4.25092 6.95199 4.34874 7.26043 4.66108 7.25843C4.53523 7.19055 4.44107 7.15681 4.50171 7.01906Z" fill="#746B61"/>
<path d="M3.96753 6.7821C3.96662 6.71342 4.02817 6.64434 4.02726 6.57566C4.02452 6.36963 3.92945 6.26722 3.74295 6.3371C3.77556 6.43991 3.74569 6.54313 3.7783 6.64594C3.8109 6.74876 3.84259 6.7829 3.87519 6.88571C3.93766 6.88531 3.93675 6.81663 3.96753 6.7821Z" fill="#E5D3B8"/>
<path d="M4.65834 7.0524C4.59587 7.0528 4.5334 7.0532 4.47093 7.0536C4.41029 7.19136 4.50445 7.22509 4.56783 7.29337C4.59952 7.32751 4.66291 7.39578 4.6946 7.42992C4.6946 7.42992 4.66291 7.39578 4.69368 7.36125C4.72355 7.25803 4.69094 7.15521 4.65834 7.0524Z" fill="#D8C2A1"/>
<path d="M3.72115 14.0984C3.59621 14.0992 3.44049 14.1346 3.28386 14.1012C2.75515 14.2763 2.88922 14.9623 2.42389 15.2057C2.64482 15.376 2.82858 15.1001 3.01781 15.2362C3.14366 15.3041 3.39172 15.1651 3.42615 15.4053C3.46057 15.6455 3.24056 15.5439 3.11653 15.6133C2.99251 15.6828 2.90017 15.7864 2.902 15.9238C2.90474 16.1298 3.05954 16.0258 3.18448 16.025C3.37189 16.0238 3.59099 16.0567 3.74762 16.0901C3.89512 15.4366 3.66781 14.7856 3.72115 14.0984Z" fill="#F2E3D0"/>
<path d="M3.37974 4.86274C3.41052 4.8282 3.41052 4.8282 3.4413 4.79366C3.31271 4.51976 3.27737 4.21091 3.02567 4.07516C2.84282 4.41975 3.18869 4.58923 3.22403 4.89808C3.25481 4.86354 3.31727 4.86314 3.37974 4.86274Z" fill="#3A342F"/>
<path d="M3.16521 5.17319C3.22859 5.24147 3.32458 5.41256 3.41691 5.30894C3.50925 5.20533 3.38248 5.06877 3.38066 4.93142C3.31819 4.93182 3.25572 4.93222 3.19325 4.93262C3.19416 5.0013 3.19507 5.06998 3.16521 5.17319Z" fill="#302A26"/>
<path d="M28.6324 17.5788C28.4179 17.8892 27.9498 17.9266 27.7986 18.3053C28.5175 18.335 29.2047 18.3306 29.9226 18.2917C29.9144 17.6736 29.7831 17.1936 29.0688 17.5073C29.038 17.5418 28.9429 17.4394 28.8805 17.4398C28.7881 17.5434 28.7257 17.5438 28.6324 17.5788Z" fill="#F5E8D6"/>
<path d="M26.0858 18.694C25.8331 18.4896 25.5534 18.5944 25.2737 18.6993C25.5244 18.7663 25.7752 18.8334 26.0577 18.9346C25.9943 18.8663 26.0242 18.7631 26.0858 18.694Z" fill="#DABF9C"/>
<path d="M3.3907 5.68687C3.39161 5.75554 3.39343 5.8929 3.39435 5.96158C3.48942 6.06399 3.5845 6.16641 3.67957 6.26882C3.73839 5.99371 3.67318 5.78808 3.3907 5.68687Z" fill="#2E2824"/>
<path d="M29.4671 16.9209C29.2172 16.9225 28.9673 16.9241 28.7482 16.8912C28.7174 16.9257 28.6867 16.9603 28.6867 16.9603C28.9393 17.1647 29.1882 17.0944 29.4671 16.9209Z" fill="#E8CDA6"/>
</svg>
