<svg width="215" height="201" viewBox="0 0 215 201" fill="none" xmlns="http://www.w3.org/2000/svg">
<path d="M161.05 5.40307C161.811 5.40307 162.573 5.91206 163.335 6.42106C164.096 6.93006 164.858 7.18456 165.366 7.18456C166.381 7.94805 167.143 8.71155 167.904 9.22055C168.158 9.47505 168.412 9.72954 168.92 9.72954C169.428 9.98404 169.936 10.2385 170.443 10.493C170.951 10.7475 171.459 11.002 171.713 11.2565C172.221 11.511 172.728 11.7655 172.982 12.02C174.759 13.038 176.283 14.3105 178.06 15.3285C180.599 17.11 183.138 18.8915 185.423 21.182C187.961 23.4725 190.246 25.763 192.277 28.308C193.547 29.8349 194.816 31.3619 195.832 32.8889C197.863 35.6884 199.894 38.4879 201.417 41.5419C202.433 43.3234 203.702 45.1049 204.464 47.1409C205.226 48.6679 206.241 50.1948 207.003 51.9763C207.765 53.7578 208.272 55.5393 209.034 57.0663C210.303 60.3748 210.811 63.6833 211.827 66.9918C212.588 69.2822 213.096 71.5727 213.35 73.8632C213.35 74.1177 213.604 74.6267 213.604 74.8812C213.604 77.6807 214.366 80.7347 214.619 83.5342C214.873 86.8427 214.873 90.1511 214.873 93.4596C214.873 95.7501 214.366 97.7861 214.112 99.8221C214.112 100.331 213.858 100.84 213.604 101.349C212.842 102.876 212.335 104.149 212.081 105.676C212.081 105.93 211.827 106.185 211.827 106.185C211.319 107.457 210.557 108.73 210.05 110.002C209.542 111.275 208.78 112.547 208.018 113.82C207.765 114.583 207.511 115.092 207.257 115.856C207.003 116.365 207.003 117.128 206.749 117.637C206.749 117.892 206.495 118.4 206.241 118.655C205.48 119.418 204.972 120.436 204.464 121.454C203.956 122.727 203.448 123.999 202.433 125.017C202.433 125.017 202.433 125.272 202.433 125.526C202.941 125.526 203.195 125.526 203.702 125.526C203.702 125.526 203.956 125.781 203.702 126.035C203.702 126.29 203.448 126.544 203.448 126.544C202.433 127.308 201.925 128.071 201.671 129.344C201.671 129.598 201.417 129.853 201.417 129.853C201.164 129.853 201.164 130.107 201.164 130.107C200.148 130.362 199.132 130.871 198.625 131.889C197.355 133.67 195.832 134.943 194.055 136.47C193.801 136.724 193.547 136.979 193.293 137.233C192.277 139.015 191.008 140.033 189.739 141.56C189.739 141.814 189.231 142.578 188.469 142.578C188.215 142.578 187.961 142.832 187.708 143.087C187.454 143.341 187.2 143.85 186.946 143.85C185.676 144.359 185.423 145.632 184.915 146.65C183.899 149.195 182.63 151.74 181.107 154.03C178.822 157.593 176.79 161.411 173.998 164.719C170.951 168.537 167.651 172.1 164.096 175.408C163.842 175.663 163.588 175.917 163.335 176.172C161.557 177.19 160.034 178.462 158.511 179.735C152.164 184.57 145.055 188.388 137.692 191.187C134.899 192.205 132.107 192.969 129.06 193.732C127.029 194.241 124.998 194.75 122.713 195.514C121.951 195.768 121.443 195.768 120.682 196.023C119.158 196.277 117.635 196.786 116.112 197.041C114.335 197.295 112.557 197.295 110.78 197.55C109.003 197.804 107.48 197.804 105.702 198.059C104.687 198.059 103.671 198.313 102.656 198.313C100.371 198.313 98.0858 198.313 96.0547 198.313C95.0392 198.313 93.7697 198.313 92.7542 198.059C92.5003 198.059 92.2464 198.059 91.9925 198.059C89.1998 198.059 86.6609 197.804 84.1221 197.295C82.8526 197.041 81.8371 197.041 80.5677 196.532C80.3138 196.532 80.0599 196.532 79.806 196.277C77.2671 196.023 74.7283 195.005 72.1894 194.496C71.6816 194.496 71.4278 194.241 70.92 194.241C68.635 193.223 66.35 192.714 64.0651 191.951C61.7801 191.187 59.749 190.169 57.7179 189.151C55.6868 188.133 53.9096 186.861 51.8785 185.588C50.863 184.825 49.5936 184.061 48.578 183.298C46.5469 181.771 44.7697 179.989 42.7386 178.462C38.6765 174.899 35.6298 170.573 33.3449 165.737C31.8215 162.429 30.5521 159.12 29.0288 155.557C26.7438 149.958 24.9666 144.105 23.1894 138.251C21.6661 132.652 20.3967 127.053 19.635 121.454C19.3811 119.418 19.1272 117.128 18.8734 115.092C19.1272 109.748 19.1272 104.403 19.1272 99.3131C19.1272 97.2771 19.3811 94.9866 19.3811 92.9506C19.635 88.8786 20.1428 85.0612 20.9044 80.9892C21.92 75.1357 23.6972 69.2822 25.9822 63.9378C28.0132 59.1023 30.2982 54.5213 33.091 50.4493C34.8682 47.6499 36.8993 44.8504 39.1842 42.3054C41.977 38.9969 44.7697 36.1974 48.0702 33.3979C50.3552 31.3619 52.8941 29.5804 55.4329 27.799C58.7335 25.5085 62.2879 23.727 65.8423 21.9455C68.635 20.673 71.1739 19.655 73.9666 18.3825C77.2671 16.8555 80.5677 15.3285 83.8682 13.2925C85.3915 12.529 86.6609 11.7655 88.1842 11.002C89.9614 9.98404 91.9925 8.96605 94.0236 8.20255C95.5469 7.69356 97.0703 7.43906 98.5936 7.18456C100.371 6.93006 102.148 6.67556 103.671 5.91206C105.195 5.40307 106.972 4.89407 108.495 3.87607C109.003 3.62158 109.511 3.62158 110.018 3.36708C114.081 2.34908 118.143 1.33109 122.205 0.567591C124.998 0.567591 127.79 0.0585938 130.583 0.0585938C134.899 0.0585938 139.215 0.567591 143.278 1.58559C143.785 1.84008 144.547 1.84008 145.055 2.09458C145.562 2.34908 146.324 2.34908 146.832 2.09458C148.355 1.84008 149.625 2.09458 151.148 2.34908C151.402 2.34908 151.91 2.60358 152.164 2.85808C153.179 3.62158 154.195 4.13057 155.21 4.89407C155.718 5.14857 155.972 5.40307 156.733 5.14857C156.987 4.89407 157.495 5.14857 158.003 5.40307C158.257 5.14857 158.511 5.14857 158.765 4.63957C159.526 5.14857 160.542 5.91206 161.303 6.42106C161.557 5.91206 161.05 5.65757 161.05 5.40307ZM149.879 113.82C150.132 113.565 150.132 113.311 150.386 112.802C151.148 111.529 151.91 110.511 152.671 109.239C154.702 105.676 156.48 101.858 158.511 98.0406C159.018 97.2771 159.018 96.5136 159.018 95.7501C159.018 95.2411 158.765 94.4776 159.272 93.9686C160.796 93.2051 161.05 92.6961 160.542 91.4236C160.288 90.9146 160.288 90.1511 160.034 89.6421C159.272 87.0972 158.511 84.5522 157.495 82.0072C157.241 80.9892 156.733 80.2257 156.226 79.4622C156.226 79.2077 155.972 78.9532 155.464 78.9532C155.21 79.2077 154.956 79.4622 154.956 79.7167C154.449 80.9892 153.687 82.0072 152.925 83.2797C152.671 83.5342 152.671 84.0432 152.671 84.2977C152.417 84.5522 152.417 84.8067 152.164 85.3157C152.164 85.3157 152.164 85.3157 151.91 85.3157C151.91 85.3157 151.91 85.3157 151.91 85.0612C152.164 84.8067 152.164 84.5522 152.417 84.0432C152.671 83.7887 152.671 83.7887 152.925 83.5342C153.179 83.2797 153.179 83.0252 153.687 83.2797C153.433 84.8067 152.164 86.0792 151.91 87.8606C152.417 89.1331 152.417 90.4056 152.417 91.9326C152.417 92.1871 152.417 92.6961 152.417 92.9506C152.925 94.9866 152.671 97.0226 152.925 99.0586C152.925 99.3131 152.925 99.8221 152.925 100.077C152.925 100.586 152.671 101.095 152.671 101.604C152.671 103.385 152.164 104.912 151.656 106.439C151.148 108.221 150.64 110.002 150.132 111.784C150.132 112.038 150.132 112.293 150.132 112.547C150.132 113.056 150.132 113.565 149.879 113.82ZM45.7853 63.1743C45.5314 63.4288 45.2775 63.6833 45.2775 63.9378C43.5003 66.9918 41.7231 69.7912 40.4537 73.0997C39.4381 75.3902 38.6765 77.9352 38.1687 80.2257C37.6609 83.0252 37.1531 85.8247 36.8993 88.8787C36.3915 93.4596 36.1376 98.0406 35.8837 102.367C35.6298 105.421 35.8837 108.221 36.1376 111.275C36.3915 113.82 36.6454 116.11 37.1531 118.655C37.9148 121.963 38.6765 125.017 39.692 128.071C40.7076 131.634 42.4848 134.943 45.0236 137.488C45.7853 138.251 46.5469 139.015 47.5625 139.524C49.3397 140.287 51.1169 140.287 52.8941 140.542C53.4019 140.542 54.1635 140.542 54.6713 140.287C54.6713 140.033 54.6713 140.033 54.6713 140.033C54.4174 139.524 54.1635 138.76 53.9096 138.251C53.4019 137.233 52.6402 136.215 52.1324 135.197C50.6091 132.143 49.0858 129.344 47.8164 126.29C47.3086 125.017 46.5469 123.999 46.293 122.727C45.2775 119.419 44.0081 116.365 43.5003 113.056C43.5003 112.547 43.2464 112.038 42.9925 111.529C42.4848 110.257 42.2309 108.73 42.2309 107.457C42.2309 106.948 42.2309 106.439 41.977 106.185C41.2153 102.113 41.2153 98.0406 41.2153 93.9686C41.2153 91.6781 41.4692 89.3876 41.7231 87.3517C41.977 84.8067 42.2309 82.5162 42.7386 79.9712C42.9925 78.1897 43.2464 76.4082 43.5003 74.6267C43.7542 72.8452 44.0081 71.0637 44.5158 69.2822C44.5158 69.0277 44.5158 68.7732 44.5158 68.5187C44.5158 67.7552 44.7697 66.9918 45.0236 66.2283C45.2775 65.2103 45.5314 64.1923 45.7853 63.1743ZM147.847 33.6524C147.594 33.6524 147.594 33.9069 147.34 34.1614C146.832 34.4159 146.578 34.4159 146.07 34.4159C145.816 34.4159 145.562 34.6704 145.562 35.1794C146.324 35.6884 147.086 36.1974 148.101 36.4519C149.371 36.7064 150.64 37.2154 151.91 37.4699C152.671 37.7244 153.433 37.9789 154.448 38.4879C155.972 39.2514 157.241 40.2694 158.765 41.0329C160.034 41.5419 161.05 42.5599 162.319 43.3234C162.827 43.8324 163.335 44.3414 164.096 44.5959C164.604 44.8504 165.112 45.3594 165.366 45.8684C165.619 46.3774 165.873 46.8864 166.127 47.3954C167.651 47.6499 168.158 49.4313 169.682 50.1948C170.189 49.9403 170.697 49.6858 171.205 49.4313C171.713 49.1768 172.221 48.9224 172.982 48.9224C172.982 49.1768 172.982 49.1768 172.982 49.4313C172.982 49.6858 172.982 49.6858 172.982 49.9403C172.982 50.1948 172.982 50.4493 172.728 50.7038C172.474 51.2128 171.967 51.2128 171.713 51.9763C172.474 52.7398 173.49 53.7578 174.505 54.2668C175.267 54.5213 175.521 55.0303 176.029 55.5393C176.283 56.0483 176.537 56.5573 176.79 56.8118C176.283 58.5933 176.537 58.8478 177.806 59.6113C178.06 59.8658 178.314 60.1203 178.822 60.1203C179.075 60.3748 179.075 60.3748 179.075 60.6293C179.075 61.1383 179.075 61.6473 179.075 61.9018C179.583 62.9198 179.837 63.6833 180.091 64.4468C180.599 65.4648 180.853 66.4828 181.36 67.5008C181.614 68.2643 181.868 68.7732 182.122 69.5367C182.884 72.3362 183.138 72.8452 184.915 75.3902C184.915 75.1357 184.915 75.1357 184.915 74.8812C184.661 72.8452 184.407 71.0637 183.899 69.0277C183.645 66.4828 183.391 64.1923 182.884 61.6473C182.122 57.8298 181.614 53.7578 180.853 49.9403C180.345 46.8864 179.583 43.8324 178.822 40.7784C178.568 40.0149 178.314 39.2514 177.552 38.4879C177.044 37.9789 176.79 37.4699 176.283 36.9609C175.267 35.6884 174.252 34.4159 173.236 33.1434C171.967 31.3619 170.443 29.8349 168.92 28.308C168.158 27.5445 167.397 26.781 166.635 26.272C165.366 25.763 164.096 24.745 162.827 23.9815C160.796 22.2 158.257 20.673 155.972 19.4005C153.941 18.128 151.91 17.11 150.132 15.583C149.625 15.8375 149.117 15.583 148.609 15.3285C147.847 14.8195 146.832 14.3105 146.07 14.3105C144.293 14.056 142.77 14.056 141.754 15.583C141.5 16.092 140.993 16.3465 140.485 16.601C138.708 17.8735 136.93 19.146 135.153 20.673C132.868 22.4545 131.091 24.4905 129.314 26.5265C129.314 26.5265 129.314 26.781 129.314 27.0355C129.568 26.781 129.822 26.5265 130.329 26.272C132.107 24.745 134.138 22.9635 135.915 21.4365C136.423 20.9275 136.93 20.4185 137.692 20.4185C136.676 21.691 135.407 22.9635 134.138 23.9815C132.868 25.254 131.599 26.5265 130.075 27.799C129.568 28.308 129.06 29.0714 128.806 29.8349C129.06 30.0894 129.06 30.0894 129.06 30.0894C130.075 30.8529 131.345 30.8529 132.36 30.8529C133.376 30.8529 134.391 30.8529 135.407 31.3619C135.661 31.6164 136.169 31.6164 136.676 31.6164C137.692 31.6164 138.708 31.6164 139.469 31.8709C139.977 31.8709 140.485 32.1254 140.739 32.3799C141.246 33.1434 142.008 33.3979 142.77 33.3979C143.785 33.3979 144.801 33.3979 145.562 33.3979C146.578 33.3979 147.086 33.3979 147.847 33.6524ZM156.987 164.974C154.956 166.246 152.925 167.773 150.894 168.791C149.625 169.555 148.101 170.318 146.832 171.082C143.024 172.863 138.961 174.136 134.645 174.899C130.329 175.663 126.267 176.426 121.697 176.426C117.889 176.426 114.334 176.172 110.526 175.663C107.48 175.408 104.687 174.645 101.894 174.136C98.0858 173.118 94.2775 171.845 90.4692 170.064C85.6454 167.773 80.8215 165.483 76.5055 162.429C75.9977 161.92 75.236 161.665 74.4744 161.411C73.9666 161.156 73.205 161.156 72.6972 160.902C72.1894 160.647 71.6816 160.138 71.4278 159.884C71.1739 159.884 70.92 159.629 70.92 159.629C70.1583 159.375 69.3967 159.375 68.635 159.375C67.3656 159.375 66.35 158.866 65.8423 157.593C65.8423 157.339 65.5884 157.339 65.5884 157.084C64.5728 156.83 63.8112 156.575 62.7956 156.066C62.034 155.812 61.2723 155.557 60.7645 155.048C60.0029 154.539 58.9873 153.776 58.2257 153.521C56.7024 153.012 55.1791 151.994 53.6557 151.231C51.8785 150.213 49.8475 149.449 48.578 147.922C47.5625 147.668 46.8008 147.413 46.0392 147.159C44.7697 146.65 43.7542 146.141 42.4848 145.632C41.2153 145.123 40.1998 144.359 39.4381 143.087C39.1842 142.578 38.6765 141.814 38.4226 141.305C36.6454 137.742 35.1221 134.179 33.8526 130.362C32.8371 127.053 31.5677 123.745 31.0599 120.182C30.2982 116.874 29.7905 113.565 29.5366 110.002C29.2827 106.948 29.2827 104.149 29.2827 101.095C29.2827 100.331 29.2827 99.5676 29.0288 98.2951C28.7749 99.8221 28.2671 101.095 28.2671 102.367C28.2671 103.131 28.0132 103.894 28.0132 104.658C28.0132 105.167 27.7594 105.676 27.7594 106.185C27.7594 108.984 27.7594 112.038 27.7594 114.838C27.7594 117.891 28.2671 120.945 28.2671 123.999C28.2671 125.526 28.521 126.799 28.7749 128.326C29.0288 129.598 29.2827 130.871 29.2827 132.398C29.2827 133.161 29.5366 133.925 29.5366 134.688C29.7905 135.452 30.0443 136.215 30.0443 136.979C30.2982 137.997 30.5521 139.015 30.2982 140.033C30.2982 140.287 30.2982 140.796 30.2982 141.051C30.5521 142.323 31.0599 143.85 31.3138 145.123C31.8215 146.904 32.3293 148.686 32.8371 150.213C33.8526 153.012 34.8682 155.812 35.8837 158.611C36.3915 159.375 36.8993 160.393 36.8993 161.665C36.3915 161.92 36.1376 162.174 35.8837 162.429C36.3915 164.21 37.407 165.992 37.6609 167.773C37.6609 168.028 37.9148 168.537 38.1687 168.791C39.4381 171.082 41.2153 173.118 42.9925 174.899C43.7542 175.408 44.262 176.172 45.0236 176.681C46.293 177.444 47.5625 178.462 48.578 179.226C51.1169 181.262 53.9096 183.043 56.7024 184.316C58.9873 185.588 61.5262 186.606 64.0651 187.37C67.1117 188.133 70.1583 188.897 73.4588 189.406C74.2205 189.406 74.9822 189.66 75.7438 189.66C77.0133 189.915 78.2827 190.169 79.806 189.66C80.0599 189.66 80.3138 189.66 80.5677 189.66C83.6143 190.169 86.6609 189.66 89.7076 189.915C90.4692 189.915 90.977 189.915 91.7386 189.915C95.0392 189.66 98.0858 189.66 101.386 189.406C105.448 189.151 109.511 188.388 113.573 187.624C116.366 187.115 119.158 186.352 121.951 185.588C126.267 184.316 130.583 183.043 134.645 181.262C138.2 179.989 141.5 177.953 144.547 175.917C148.101 173.627 151.402 170.827 154.702 168.028C155.718 167.264 156.48 166.246 157.241 165.228C156.987 165.483 156.987 165.228 156.987 164.974ZM127.537 70.3002C127.79 70.5547 128.298 70.8092 128.806 71.0637C129.314 71.3182 129.568 71.8272 129.822 72.0817C130.075 73.0997 130.837 73.8632 131.345 74.6267C131.853 75.1357 132.107 75.6447 132.36 76.4082C132.868 77.4262 133.376 78.1897 133.63 79.2077C134.645 79.2077 134.899 78.9532 135.407 78.4442C136.423 77.4262 137.692 76.1537 138.961 74.8812C139.723 74.8812 140.485 74.3722 140.993 73.6087C141.246 73.3542 141.754 73.0997 142.008 72.8452C142.516 72.5907 143.278 72.3362 143.531 71.5727C144.547 70.0457 145.562 68.5188 146.324 66.7373C145.562 65.7193 144.547 65.2103 143.785 64.7013C142.77 64.1923 142.008 63.6833 140.993 63.1743C140.231 62.6653 139.215 62.1563 138.2 61.9018C136.169 61.3928 134.391 60.8838 132.36 60.1203H132.107C131.091 60.1203 130.329 59.6113 129.314 59.6113C128.044 59.3568 126.521 58.8478 125.505 58.8478C123.982 59.1023 122.967 59.3568 121.951 59.6113C121.697 59.8658 121.189 60.1203 121.189 60.6293V60.8838C122.713 62.4108 123.982 64.1923 124.744 66.2283C124.744 66.4828 124.744 66.4828 124.998 66.7373C126.013 67.5008 126.267 68.7732 126.521 70.0457C127.283 69.7912 127.283 70.0457 127.537 70.3002ZM145.309 138.506C144.039 139.015 143.024 139.269 142.008 138.76C141.754 138.76 141.246 138.76 140.993 139.015C140.485 139.269 139.977 139.269 139.469 139.015C138.454 138.506 137.438 138.251 136.169 138.251C135.407 138.251 134.645 137.997 134.138 137.742C133.63 137.488 133.122 137.233 132.868 136.979C132.36 136.724 131.599 136.47 130.837 136.724C129.314 137.233 128.044 137.997 126.775 138.76C125.759 139.269 124.998 140.287 124.49 141.051C123.982 141.56 123.728 142.069 123.221 142.069C122.967 142.069 122.967 142.323 122.713 142.323C122.459 142.578 122.205 143.341 122.459 143.85C122.967 144.359 123.474 145.123 124.236 145.632C126.267 145.123 128.044 144.868 130.075 144.359C131.345 144.105 132.868 143.85 134.138 143.341C135.661 143.087 136.93 142.323 138.454 142.323C138.708 142.323 139.215 142.069 139.469 142.069C140.739 141.56 141.754 141.051 143.024 140.796C144.293 140.287 145.562 139.778 146.832 139.524C147.086 139.524 147.34 139.269 147.34 139.269C147.594 139.015 148.101 138.76 147.847 138.251C147.847 137.997 147.594 137.742 147.594 137.488C146.324 136.724 145.816 137.488 145.309 138.506ZM115.096 21.9455C117.635 19.4005 119.92 17.11 122.205 14.8195C122.459 14.565 122.713 14.3105 122.967 14.056C122.967 14.056 122.967 14.056 122.967 13.8015V13.547L122.713 13.2925C120.174 13.547 117.381 14.056 114.842 14.3105C113.065 15.074 111.034 15.3285 109.257 15.8375C109.003 15.8375 108.495 15.8375 108.241 16.092L107.987 16.3465C107.987 16.3465 107.987 16.601 108.241 16.601C108.495 16.8555 108.749 16.8555 108.749 16.8555C110.526 17.619 112.05 18.637 113.573 20.164C114.081 20.673 114.588 21.4365 115.096 21.9455ZM29.2827 94.9866C29.2827 95.4956 29.0288 95.7501 29.0288 95.7501C29.0288 96.0046 29.0288 96.2591 29.0288 96.7681C29.2827 96.2591 29.2827 96.2591 29.2827 96.0046C29.2827 95.7501 29.2827 95.4956 29.2827 94.9866Z" fill="#FCDB71"/>
<path d="M174.505 49.1768L174.759 48.9223H175.013V49.1768C175.013 49.1768 174.759 49.1768 174.505 49.1768Z" fill="#FCDB71"/>
<path d="M147.847 33.6524L148.101 33.3979C148.101 33.9069 147.847 33.6524 147.847 33.6524Z" fill="#FCDB71"/>
<path d="M172.728 48.9223L172.982 48.6678C172.982 48.9223 172.728 48.6679 172.728 48.9223Z" fill="#FCDB71"/>
<path d="M172.728 49.9403C172.728 49.6858 172.728 49.6858 172.728 49.4313C172.982 49.4313 172.982 49.6858 173.49 49.6858C172.982 49.6858 172.982 49.6858 172.728 49.9403Z" fill="#FCDB71"/>
<path d="M118.777 146.289C120.187 162.512 117.72 165.712 109.409 176.937L106.861 180.327C103.724 184.583 100.238 189.139 96.2341 192.807C92.3099 196.284 87.8679 198.874 82.2806 199.417C77.5017 199.632 72.8744 197.901 68.167 196.36C63.2702 194.739 58.264 192.849 52.3482 192.584L51.6998 192.533C46.4325 192.318 39.0305 191.872 34.2432 190.52C21.338 186.188 17.557 176.108 13.557 165.489C11.7759 160.719 9.99486 155.948 7.21593 151.426C2.82436 143.321 0.685412 137.283 1.14012 131.448C1.59483 125.612 4.64319 119.978 10.2768 112.98C15.3209 106.85 17.7503 101.625 19.7503 96.8879C23.6197 88.2522 26.6091 81.7006 45.3499 76.4417C53.493 74.0754 65.4381 70.6353 72.6465 75.2416L74.0823 76.071C76.1159 77.5994 77.6612 78.6984 78.937 79.9068C81.758 82.2141 83.7117 83.932 89.2358 86.7109C91.24 87.7803 93.7032 88.8203 96.3558 89.9403C99.9557 91.4602 104.911 93.9991 109.518 96.837L109.707 96.917C107.77 98.3317 105.754 99.9359 105.135 100.344C103.897 101.161 102.848 102.058 101.53 103.064C100.832 103.662 100.053 104.45 99.7326 105.207C99.4926 105.776 99.2526 106.344 99.2021 106.993C99.7705 107.233 100.339 107.473 100.718 107.633C100.339 107.473 99.96 107.313 99.5011 107.342C99.5011 107.342 99.5011 107.342 99.3116 107.262C95.96 106.74 90.8106 108.361 84.6507 112.904C81.6655 115.216 79.1687 117.957 77.5393 121.287C76.4698 123.292 75.6993 125.645 75.1983 127.889C79.2908 125.599 82.8318 126.201 86.2634 126.534C89.0465 126.816 91.7497 127.287 94.1159 125.384C100.086 120.761 103.114 116.235 103.636 112.883M118.777 146.289C118.116 138.866 119.109 132.811 120.482 126.917C121.295 122.348 122.027 117.969 121.812 113.19C121.804 111.624 121.526 110.167 121.059 108.631C120.81 107.633 119.526 104.858 119.008 103.97C116.802 105.494 113.038 108.593 112.069 109.3C110.831 110.117 109.703 111.203 108.465 112.02C107.577 112.538 106.688 113.056 105.77 113.115C105.312 113.144 104.663 113.094 104.015 113.043C103.985 112.584 103.766 112.045 103.737 111.586C103.766 112.045 103.876 112.315 103.716 112.694C103.636 112.883 103.636 112.883 103.636 112.883M118.777 146.289L118.697 146.479C120.107 162.702 117.72 165.712 109.329 177.127L106.781 180.516C103.644 184.773 100.158 189.329 96.154 192.996C92.0404 196.394 87.5983 198.984 82.2005 199.607C77.4216 199.822 72.9037 198.36 68.0869 196.55C63.2701 194.74 58.1839 193.039 52.2681 192.773L51.6197 192.723C46.4324 192.319 38.9504 192.062 34.1631 190.71C21.4474 186.458 17.6663 176.378 13.4769 165.679C11.6158 161.098 9.64529 156.248 7.13582 151.616C2.74426 143.511 0.605311 137.473 1.06002 131.637C1.51473 125.802 4.56309 120.168 10.1967 113.17C15.2408 107.04 17.4808 101.734 19.6702 97.0776C23.7291 88.5219 26.6385 82.1598 45.2698 76.6314C53.4129 74.2651 65.358 70.8251 72.5664 75.4313L74.0022 76.2608C76.0358 77.7892 77.5011 79.0776 78.8569 80.0965C81.4884 82.3238 83.6316 84.1217 89.1557 86.9006C91.4294 87.8606 93.8125 89.09 96.2757 90.13C99.8756 91.65 104.911 93.9995 109.438 97.0268M118.777 146.289C118.305 138.946 119.219 133.081 120.052 127.405C120.865 122.837 121.598 118.458 121.383 113.679C121.374 112.113 121.097 110.656 120.629 109.119C120.301 108.311 118.907 105.266 118.579 104.458M103.636 112.883C103.556 113.073 103.556 113.073 103.556 113.073C103.033 116.425 100.006 120.951 94.0357 125.574C91.6695 127.477 88.9663 127.006 86.1832 126.723C82.7516 126.391 79.2106 125.789 75.118 128.079C75.6191 125.835 76.3896 123.481 77.4591 121.477C79.0885 118.147 81.5853 115.406 84.5705 113.094C90.7304 108.551 95.8798 106.93 99.2314 107.452C99.4209 107.532 99.4209 107.532 99.4209 107.532C99.8798 107.503 100.259 107.663 100.638 107.823M103.636 112.883C103.796 112.504 103.686 112.235 103.657 111.776M91.2362 172.39C94.7687 171.426 98.0529 169.464 99.0929 167M91.2362 172.39C87.3541 173.653 83.0341 173.838 80.5415 172.339C76.5626 170.659 77.0847 167.308 78.6847 163.519L80.5246 159.161C81.7246 156.319 83.6909 155.363 85.9856 155.215C88.0109 155.177 90.3645 155.948 92.6382 156.908M91.2362 172.39C87.4341 173.464 83.114 173.649 80.4614 172.529C76.4024 171.039 77.0049 167.497 78.6048 163.708M99.0929 167C100.293 164.158 99.796 162.163 98.3013 160.415M99.0929 167C100.213 164.348 99.796 162.163 98.3013 160.415M98.3013 160.415C96.916 158.937 94.9118 157.868 92.6382 156.908M98.3013 160.415C97.1055 159.017 94.9118 157.868 92.6382 156.908M92.6382 156.908C90.3645 155.948 88.011 155.177 85.9058 155.405M58.0868 109.725C61.6194 108.761 64.9035 106.799 65.9435 104.336M58.0868 109.725C54.2847 110.799 49.7753 110.904 47.3922 109.675C43.4133 107.995 43.9353 104.643 45.5353 100.854L47.3753 96.4962C48.5752 93.6541 50.5415 92.6983 52.8362 92.551C54.8615 92.513 57.2151 93.2836 59.4888 94.2435C61.7625 95.2035 63.7667 96.273 65.1519 97.7508M58.0868 109.725C54.2847 110.799 49.9648 110.984 47.3121 109.864C43.3332 108.184 43.9353 104.643 45.4553 101.044L47.2952 96.6857C48.4952 93.8436 50.272 92.8078 52.7562 92.7404C54.7815 92.7025 56.9457 93.393 59.4088 94.433M65.9435 104.336C67.1435 101.494 66.6467 99.4982 65.1519 97.7508M65.9435 104.336C67.0635 101.683 66.6466 99.4982 65.0719 97.9403C63.8761 96.5424 61.6825 95.393 59.4088 94.433M65.9435 104.336C67.0635 101.683 66.6467 99.4982 65.1519 97.7508M65.1519 97.7508C63.9561 96.353 61.7625 95.2035 59.4088 94.433M36.8283 159.018C40.3609 158.053 43.645 156.091 44.685 153.628C45.885 150.786 45.3881 148.79 43.8934 147.043M36.8283 159.018C32.9462 160.281 28.6263 160.466 26.1336 158.967C22.1547 157.287 22.6768 153.936 24.2768 150.146L26.1168 145.788C27.3167 142.946 29.283 141.991 31.5777 141.843C33.603 141.805 35.9566 142.576 38.2303 143.536M36.8283 159.018C32.9462 160.281 28.6261 160.466 25.9735 159.347M43.8934 147.043C42.5082 145.565 40.504 144.496 38.2303 143.536M43.8934 147.043C42.6976 145.645 40.504 144.496 38.2303 143.536M38.2303 143.536C35.9566 142.576 33.6028 141.806 31.4176 142.222M37.6955 129.469C41.2281 128.504 44.5123 126.542 45.5522 124.079M37.6955 129.469C33.8934 130.542 29.5735 130.727 27.0009 129.418C23.022 127.738 23.5441 124.387 25.144 120.597L26.984 116.239C28.184 113.397 30.1503 112.441 32.445 112.294C34.4702 112.256 36.8239 113.027 39.0975 113.987M37.6955 129.469C33.8934 130.542 29.5733 130.728 26.9207 129.608C22.9418 127.928 23.5439 124.387 25.0639 120.787L26.9038 116.429C28.1038 113.587 29.8806 112.551 32.3648 112.484M45.5522 124.079C46.7522 121.237 46.2554 119.241 44.7606 117.494M45.5522 124.079C46.6722 121.426 46.2552 119.242 44.6805 117.684C43.4847 116.286 41.291 115.136 39.0174 114.176C36.5542 113.136 34.39 112.446 32.3648 112.484M44.7606 117.494C43.3754 116.016 41.3712 114.947 39.0975 113.987M44.7606 117.494C43.5649 116.096 41.3712 114.947 39.0975 113.987M39.0975 113.987C36.8239 113.027 34.47 112.256 32.3648 112.484M78.6048 163.708C77.0049 167.497 76.4028 171.038 80.3817 172.718C83.0343 173.838 87.3543 173.653 91.1563 172.579C94.6889 171.615 97.9731 169.653 99.013 167.19C100.213 164.348 99.7962 162.162 98.2215 160.604C97.0257 159.207 94.832 158.057 92.5583 157.097C90.0952 156.057 87.931 155.367 85.9058 155.405M78.6048 163.708L80.4448 159.35C81.6448 156.508 83.4216 155.472 85.9058 155.405M112.882 94.6854L119.627 103.561M112.882 94.6854C112.343 94.9044 110.945 96.1001 109.547 97.2959L118.579 104.458M112.882 94.6854C112.452 95.1738 110.945 96.1002 109.627 97.1065C107.69 98.5212 105.674 100.125 105.055 100.534L111.909 109.679C112.878 108.972 116.642 105.873 118.848 104.349C119.278 103.86 119.817 103.641 119.897 103.452M112.882 94.6854C131.901 80.8371 145.117 72.7992 152.502 70.1129C155.008 68.9381 156.544 68.4708 156.654 68.7402C156.763 69.0097 156.014 70.256 154.216 72.3992C149.441 78.4202 138.048 89.0138 119.627 103.561M119.627 103.561C119.358 103.671 119.008 103.97 118.579 104.458M109.438 97.0268L118.469 104.189C116.372 105.982 112.499 108.812 111.72 109.599L104.865 100.454C105.484 100.046 107.69 98.5216 109.438 97.0268ZM103.307 112.075C103.526 112.614 103.556 113.073 103.585 113.532C104.153 113.772 104.612 113.742 105.341 113.604C106.339 113.355 107.337 113.107 108.036 112.509C109.353 111.502 110.402 110.606 111.64 109.789L104.785 100.644C103.547 101.46 102.499 102.357 101.181 103.364M103.307 112.075C103.328 110.968 103 110.159 102.402 109.46M103.307 112.075C103.248 111.157 102.92 110.348 102.322 109.649C101.914 109.03 101.236 108.521 100.558 108.011C100.179 107.851 99.8001 107.691 99.3412 107.721C99.1517 107.641 99.1517 107.641 99.1517 107.641C95.6107 107.039 90.4613 108.66 84.4909 113.283C81.5056 115.594 79.1183 118.605 77.3794 121.666C76.3099 123.67 75.5394 126.024 75.0384 128.268C79.131 125.977 82.752 126.39 86.1035 126.912C88.8867 127.194 91.5898 127.666 93.9561 125.763C100.116 121.22 102.954 116.613 103.476 113.262M103.307 112.075C103.497 112.155 103.526 112.613 103.476 113.262M102.402 109.46C101.993 108.841 101.316 108.332 100.368 107.932M102.402 109.46C102.73 110.269 103.139 110.888 103.387 111.886C103.408 110.778 103.08 109.97 102.671 109.351C102.263 108.732 101.396 108.143 100.638 107.823M102.402 109.46C101.993 108.841 101.316 108.332 100.638 107.823M100.368 107.932C99.7998 107.692 99.4209 107.532 98.8525 107.292M100.368 107.932C99.9893 107.772 99.4209 107.532 98.8525 107.292M100.368 107.932C101.046 108.441 101.724 108.951 102.132 109.57C102.73 110.269 103.059 111.077 103.118 111.995C103.147 112.454 103.366 112.993 103.396 113.452C104.044 113.503 104.692 113.553 105.151 113.524C106.069 113.465 106.958 112.947 107.846 112.429C109.084 111.612 110.212 110.526 111.45 109.709M98.8525 107.292C98.903 106.644 99.143 106.075 99.383 105.507M99.383 105.507C99.703 104.749 100.292 103.882 101.181 103.364M99.383 105.507C99.703 104.749 100.482 103.962 101.181 103.364M103.476 113.262C103.366 112.992 103.366 112.992 103.476 113.262ZM69.8385 170.723C68.7985 173.186 65.5144 175.148 61.9818 176.112C58.1797 177.186 53.8597 177.371 51.2071 176.251C47.2282 174.571 47.8303 171.03 49.3503 167.43L51.1902 163.072C52.3902 160.23 54.167 159.194 56.6512 159.127M69.8385 170.723C70.9585 168.07 70.5416 165.885 68.9669 164.327C67.7711 162.929 65.5775 161.78 63.3038 160.82C60.8407 159.78 58.6765 159.089 56.6512 159.127M69.8385 170.723C71.0385 167.881 70.5417 165.885 69.047 164.137C67.8512 162.739 65.6575 161.59 63.3838 160.63C61.1102 159.67 58.9459 158.98 56.6512 159.127M25.9735 159.347C28.6261 160.466 32.9461 160.281 36.7481 159.208C40.2807 158.243 43.5649 156.281 44.6049 153.818C45.8048 150.976 45.388 148.791 43.7333 147.422C42.5375 146.024 40.3438 144.875 38.0702 143.915C35.607 142.875 33.4428 142.185 31.4176 142.222M25.9735 159.347C21.9946 157.667 22.5967 154.126 24.1166 150.526L25.9566 146.168C27.1566 143.326 28.9334 142.29 31.4176 142.222M156.465 68.6603C156.574 68.9298 155.825 70.1761 154.027 72.3192C149.252 78.3402 137.858 88.9339 119.438 103.481L112.692 94.6055C131.711 80.7571 145.117 72.7993 152.204 69.7635C154.818 68.8582 156.355 68.3909 156.465 68.6603ZM62.1712 176.192C65.7038 175.228 68.988 173.266 70.028 170.803C71.2279 167.961 70.7311 165.965 69.2364 164.217C68.0406 162.82 65.8469 161.67 63.5732 160.71C61.2996 159.75 58.9459 158.98 56.9207 159.018C54.626 159.165 52.6597 160.121 51.4597 162.963L49.6197 167.321C48.0198 171.11 47.4977 174.462 51.4766 176.142C53.8597 177.371 58.1797 177.186 62.1712 176.192Z" stroke="#2F4C73" stroke-miterlimit="2.6131" stroke-linecap="round" stroke-linejoin="round"/>
</svg>
