<svg width="63" height="51" viewBox="0 0 63 51" fill="none" xmlns="http://www.w3.org/2000/svg">
<path d="M47.6 0.599988C50.5333 0.599988 52.9333 1.19999 54.8 2.39999C56.6667 3.59999 58.2 5.13332 59.4 6.99999C60.8667 9.13333 61.8 11.4667 62.2 14C62.6 16.5333 62.8 18.6 62.8 20.2C62.8 26.7333 61.1333 32.6667 57.8 38C54.4667 43.3333 49.2667 47.6667 42.2 51L40.4 47.4C44.5333 45.6667 48.0667 42.9333 51 39.2C54.0667 35.4667 55.6 31.6667 55.6 27.8C55.6 26.2 55.4 24.8 55 23.6C52.8667 25.3333 50.4 26.2 47.6 26.2C44.1333 26.2 41.1333 25.0667 38.6 22.8C36.0667 20.5333 34.8 17.4 34.8 13.4C34.8 9.66666 36.0667 6.59999 38.6 4.19999C41.1333 1.79999 44.1333 0.599988 47.6 0.599988ZM13.6 0.599988C16.5333 0.599988 18.9333 1.19999 20.8 2.39999C22.6667 3.59999 24.2 5.13332 25.4 6.99999C26.8667 9.13333 27.8 11.4667 28.2 14C28.6 16.5333 28.8 18.6 28.8 20.2C28.8 26.7333 27.1333 32.6667 23.8 38C20.4667 43.3333 15.2667 47.6667 8.2 51L6.4 47.4C10.5333 45.6667 14.0667 42.9333 17 39.2C20.0667 35.4667 21.6 31.6667 21.6 27.8C21.6 26.2 21.4 24.8 21 23.6C18.8667 25.3333 16.4 26.2 13.6 26.2C10.1333 26.2 7.13333 25.0667 4.6 22.8C2.06667 20.5333 0.8 17.4 0.8 13.4C0.8 9.66666 2.06667 6.59999 4.6 4.19999C7.13333 1.79999 10.1333 0.599988 13.6 0.599988Z" fill="#2F4C73"/>
</svg>
