<svg width="196" height="201" viewBox="0 0 196 201" fill="none" xmlns="http://www.w3.org/2000/svg">
<path d="M142.176 5.40307C142.938 5.40307 143.699 5.91206 144.461 6.42106C145.223 6.93006 145.984 7.18456 146.492 7.18456C147.508 7.94805 148.269 8.71155 149.031 9.22055C149.285 9.47505 149.539 9.72954 150.047 9.72954C150.554 9.98404 151.062 10.2385 151.57 10.493C152.078 10.7475 152.585 11.002 152.839 11.2565C153.347 11.511 153.855 11.7655 154.109 12.02C155.886 13.038 157.409 14.3105 159.187 15.3285C161.725 17.11 164.264 18.8915 166.549 21.182C169.088 23.4725 171.373 25.763 173.404 28.308C174.674 29.8349 175.943 31.3619 176.959 32.8889C178.99 35.6884 181.021 38.4879 182.544 41.5419C183.56 43.3234 184.829 45.1049 185.591 47.1409C186.352 48.6679 187.368 50.1948 188.13 51.9763C188.891 53.7578 189.399 55.5393 190.161 57.0663C191.43 60.3748 191.938 63.6833 192.953 66.9918C193.715 69.2822 194.223 71.5727 194.477 73.8632C194.477 74.1177 194.731 74.6267 194.731 74.8812C194.731 77.6807 195.492 80.7347 195.746 83.5342C196 86.8427 196 90.1511 196 93.4596C196 95.7501 195.492 97.7861 195.238 99.8221C195.238 100.331 194.984 100.84 194.731 101.349C193.969 102.876 193.461 104.149 193.207 105.676C193.207 105.93 192.953 106.185 192.953 106.185C192.446 107.457 191.684 108.73 191.176 110.002C190.668 111.275 189.907 112.547 189.145 113.82C188.891 114.583 188.637 115.092 188.383 115.856C188.13 116.365 188.13 117.128 187.876 117.637C187.876 117.892 187.622 118.4 187.368 118.655C186.606 119.418 186.098 120.436 185.591 121.454C185.083 122.727 184.575 123.999 183.56 125.017C183.56 125.017 183.56 125.272 183.56 125.526C184.067 125.526 184.321 125.526 184.829 125.526C184.829 125.526 185.083 125.781 184.829 126.035C184.829 126.29 184.575 126.544 184.575 126.544C183.56 127.308 183.052 128.071 182.798 129.344C182.798 129.598 182.544 129.853 182.544 129.853C182.29 129.853 182.29 130.107 182.29 130.107C181.275 130.362 180.259 130.871 179.751 131.889C178.482 133.67 176.959 134.943 175.181 136.47C174.927 136.724 174.674 136.979 174.42 137.233C173.404 139.015 172.135 140.033 170.865 141.56C170.865 141.814 170.358 142.578 169.596 142.578C169.342 142.578 169.088 142.832 168.834 143.087C168.58 143.341 168.326 143.85 168.073 143.85C166.803 144.359 166.549 145.632 166.041 146.65C165.026 149.195 163.756 151.74 162.233 154.03C159.948 157.593 157.917 161.411 155.124 164.719C152.078 168.537 148.777 172.1 145.223 175.408C144.969 175.663 144.715 175.917 144.461 176.172C142.684 177.19 141.161 178.462 139.637 179.735C133.29 184.57 126.181 188.388 118.819 191.187C116.026 192.205 113.233 192.969 110.187 193.732C108.155 194.241 106.124 194.75 103.839 195.514C103.078 195.768 102.57 195.768 101.808 196.023C100.285 196.277 98.7617 196.786 97.2383 197.041C95.4612 197.295 93.6839 197.295 91.9067 197.55C90.1295 197.804 88.6062 197.804 86.829 198.059C85.8135 198.059 84.7979 198.313 83.7824 198.313C81.4974 198.313 79.2124 198.313 77.1814 198.313C76.1658 198.313 74.8964 198.313 73.8808 198.059C73.627 198.059 73.3731 198.059 73.1192 198.059C70.3264 198.059 67.7876 197.804 65.2487 197.295C63.9793 197.041 62.9637 197.041 61.6943 196.532C61.4404 196.532 61.1865 196.532 60.9326 196.277C58.3938 196.023 55.8549 195.005 53.3161 194.496C52.8083 194.496 52.5544 194.241 52.0466 194.241C49.7617 193.223 47.4767 192.714 45.1917 191.951C42.9067 191.187 40.8757 190.169 38.8446 189.151C36.8135 188.133 35.0363 186.861 33.0052 185.588C31.9896 184.825 30.7202 184.061 29.7047 183.298C27.6736 181.771 25.8964 179.989 23.8653 178.462C19.8031 174.899 16.7565 170.573 14.4715 165.737C12.9482 162.429 11.6788 159.12 10.1554 155.557C7.87047 149.958 6.09326 144.105 4.31606 138.251C2.79275 132.652 1.52332 127.053 0.761658 121.454C0.507772 119.418 0.253886 117.128 0 115.092C0.253886 109.748 0.253886 104.403 0.253886 99.3131C0.253886 97.2771 0.507772 94.9866 0.507772 92.9506C0.761658 88.8786 1.26943 85.0612 2.03109 80.9892C3.04663 75.1357 4.82383 69.2822 7.10881 63.9378C9.1399 59.1023 11.4249 54.5213 14.2176 50.4493C15.9948 47.6499 18.0259 44.8504 20.3109 42.3054C23.1036 38.9969 25.8964 36.1974 29.1969 33.3979C31.4819 31.3619 34.0207 29.5804 36.5596 27.799C39.8601 25.5085 43.4145 23.727 46.9689 21.9455C49.7617 20.673 52.3005 19.655 55.0933 18.3825C58.3938 16.8555 61.6943 15.3285 64.9948 13.2925C66.5181 12.529 67.7876 11.7655 69.3109 11.002C71.0881 9.98404 73.1192 8.96605 75.1503 8.20255C76.6736 7.69356 78.1969 7.43906 79.7202 7.18456C81.4974 6.93006 83.2746 6.67556 84.7979 5.91206C86.3212 5.40307 88.0984 4.89407 89.6218 3.87607C90.1295 3.62158 90.6373 3.62158 91.1451 3.36708C95.2073 2.34908 99.2694 1.33109 103.332 0.567591C106.124 0.567591 108.917 0.0585938 111.71 0.0585938C116.026 0.0585938 120.342 0.567591 124.404 1.58559C124.912 1.84008 125.674 1.84008 126.181 2.09458C126.689 2.34908 127.451 2.34908 127.959 2.09458C129.482 1.84008 130.751 2.09458 132.275 2.34908C132.529 2.34908 133.036 2.60358 133.29 2.85808C134.306 3.62158 135.321 4.13057 136.337 4.89407C136.845 5.14857 137.098 5.40307 137.86 5.14857C138.114 4.89407 138.622 5.14857 139.13 5.40307C139.383 5.14857 139.637 5.14857 139.891 4.63957C140.653 5.14857 141.668 5.91206 142.43 6.42106C142.684 5.91206 142.176 5.65757 142.176 5.40307ZM131.005 113.82C131.259 113.565 131.259 113.311 131.513 112.802C132.275 111.529 133.036 110.511 133.798 109.239C135.829 105.676 137.606 101.858 139.637 98.0406C140.145 97.2771 140.145 96.5136 140.145 95.7501C140.145 95.2411 139.891 94.4776 140.399 93.9686C141.922 93.2051 142.176 92.6961 141.668 91.4236C141.415 90.9146 141.415 90.1511 141.161 89.6421C140.399 87.0972 139.637 84.5522 138.622 82.0072C138.368 80.9892 137.86 80.2257 137.352 79.4622C137.352 79.2077 137.098 78.9532 136.591 78.9532C136.337 79.2077 136.083 79.4622 136.083 79.7167C135.575 80.9892 134.813 82.0072 134.052 83.2797C133.798 83.5342 133.798 84.0432 133.798 84.2977C133.544 84.5522 133.544 84.8067 133.29 85.3157C133.29 85.3157 133.29 85.3157 133.036 85.3157C133.036 85.3157 133.036 85.3157 133.036 85.0612C133.29 84.8067 133.29 84.5522 133.544 84.0432C133.798 83.7887 133.798 83.7887 134.052 83.5342C134.306 83.2797 134.306 83.0252 134.813 83.2797C134.56 84.8067 133.29 86.0792 133.036 87.8606C133.544 89.1331 133.544 90.4056 133.544 91.9326C133.544 92.1871 133.544 92.6961 133.544 92.9506C134.052 94.9866 133.798 97.0226 134.052 99.0586C134.052 99.3131 134.052 99.8221 134.052 100.077C134.052 100.586 133.798 101.095 133.798 101.604C133.798 103.385 133.29 104.912 132.782 106.439C132.275 108.221 131.767 110.002 131.259 111.784C131.259 112.038 131.259 112.293 131.259 112.547C131.259 113.056 131.259 113.565 131.005 113.82ZM26.9119 63.1743C26.658 63.4288 26.4041 63.6833 26.4041 63.9378C24.6269 66.9918 22.8497 69.7912 21.5803 73.0997C20.5648 75.3902 19.8031 77.9352 19.2953 80.2257C18.7876 83.0252 18.2798 85.8247 18.0259 88.8787C17.5181 93.4596 17.2642 98.0406 17.0104 102.367C16.7565 105.421 17.0104 108.221 17.2642 111.275C17.5181 113.82 17.772 116.11 18.2798 118.655C19.0415 121.963 19.8031 125.017 20.8187 128.071C21.8342 131.634 23.6114 134.943 26.1503 137.488C26.9119 138.251 27.6736 139.015 28.6891 139.524C30.4663 140.287 32.2435 140.287 34.0207 140.542C34.5285 140.542 35.2902 140.542 35.7979 140.287C35.7979 140.033 35.7979 140.033 35.7979 140.033C35.544 139.524 35.2902 138.76 35.0363 138.251C34.5285 137.233 33.7668 136.215 33.2591 135.197C31.7358 132.143 30.2124 129.344 28.943 126.29C28.4352 125.017 27.6736 123.999 27.4197 122.727C26.4041 119.419 25.1347 116.365 24.6269 113.056C24.6269 112.547 24.3731 112.038 24.1192 111.529C23.6114 110.257 23.3575 108.73 23.3575 107.457C23.3575 106.948 23.3575 106.439 23.1036 106.185C22.342 102.113 22.342 98.0406 22.342 93.9686C22.342 91.6781 22.5959 89.3876 22.8497 87.3517C23.1036 84.8067 23.3575 82.5162 23.8653 79.9712C24.1192 78.1897 24.3731 76.4082 24.6269 74.6267C24.8808 72.8452 25.1347 71.0637 25.6425 69.2822C25.6425 69.0277 25.6425 68.7732 25.6425 68.5187C25.6425 67.7552 25.8964 66.9918 26.1503 66.2283C26.4041 65.2103 26.658 64.1923 26.9119 63.1743ZM128.974 33.6524C128.72 33.6524 128.72 33.9069 128.466 34.1614C127.959 34.4159 127.705 34.4159 127.197 34.4159C126.943 34.4159 126.689 34.6704 126.689 35.1794C127.451 35.6884 128.212 36.1974 129.228 36.4519C130.497 36.7064 131.767 37.2154 133.036 37.4699C133.798 37.7244 134.56 37.9789 135.575 38.4879C137.098 39.2514 138.368 40.2694 139.891 41.0329C141.161 41.5419 142.176 42.5599 143.446 43.3234C143.953 43.8324 144.461 44.3414 145.223 44.5959C145.731 44.8504 146.238 45.3594 146.492 45.8684C146.746 46.3774 147 46.8864 147.254 47.3954C148.777 47.6499 149.285 49.4313 150.808 50.1948C151.316 49.9403 151.824 49.6858 152.332 49.4313C152.839 49.1768 153.347 48.9224 154.109 48.9224C154.109 49.1768 154.109 49.1768 154.109 49.4313C154.109 49.6858 154.109 49.6858 154.109 49.9403C154.109 50.1948 154.109 50.4493 153.855 50.7038C153.601 51.2128 153.093 51.2128 152.839 51.9763C153.601 52.7398 154.617 53.7578 155.632 54.2668C156.394 54.5213 156.648 55.0303 157.155 55.5393C157.409 56.0483 157.663 56.5573 157.917 56.8118C157.409 58.5933 157.663 58.8478 158.933 59.6113C159.187 59.8658 159.44 60.1203 159.948 60.1203C160.202 60.3748 160.202 60.3748 160.202 60.6293C160.202 61.1383 160.202 61.6473 160.202 61.9018C160.71 62.9198 160.964 63.6833 161.218 64.4468C161.725 65.4648 161.979 66.4828 162.487 67.5008C162.741 68.2643 162.995 68.7732 163.249 69.5367C164.01 72.3362 164.264 72.8452 166.041 75.3902C166.041 75.1357 166.041 75.1357 166.041 74.8812C165.788 72.8452 165.534 71.0637 165.026 69.0277C164.772 66.4828 164.518 64.1923 164.01 61.6473C163.249 57.8298 162.741 53.7578 161.979 49.9403C161.472 46.8864 160.71 43.8324 159.948 40.7784C159.694 40.0149 159.44 39.2514 158.679 38.4879C158.171 37.9789 157.917 37.4699 157.409 36.9609C156.394 35.6884 155.378 34.4159 154.363 33.1434C153.093 31.3619 151.57 29.8349 150.047 28.308C149.285 27.5445 148.523 26.781 147.762 26.272C146.492 25.763 145.223 24.745 143.953 23.9815C141.922 22.2 139.383 20.673 137.098 19.4005C135.067 18.128 133.036 17.11 131.259 15.583C130.751 15.8375 130.244 15.583 129.736 15.3285C128.974 14.8195 127.959 14.3105 127.197 14.3105C125.42 14.056 123.896 14.056 122.881 15.583C122.627 16.092 122.119 16.3465 121.611 16.601C119.834 17.8735 118.057 19.146 116.28 20.673C113.995 22.4545 112.218 24.4905 110.44 26.5265C110.44 26.5265 110.44 26.781 110.44 27.0355C110.694 26.781 110.948 26.5265 111.456 26.272C113.233 24.745 115.264 22.9635 117.041 21.4365C117.549 20.9275 118.057 20.4185 118.819 20.4185C117.803 21.691 116.534 22.9635 115.264 23.9815C113.995 25.254 112.725 26.5265 111.202 27.799C110.694 28.308 110.187 29.0714 109.933 29.8349C110.187 30.0894 110.187 30.0894 110.187 30.0894C111.202 30.8529 112.472 30.8529 113.487 30.8529C114.503 30.8529 115.518 30.8529 116.534 31.3619C116.788 31.6164 117.295 31.6164 117.803 31.6164C118.819 31.6164 119.834 31.6164 120.596 31.8709C121.104 31.8709 121.611 32.1254 121.865 32.3799C122.373 33.1434 123.135 33.3979 123.896 33.3979C124.912 33.3979 125.927 33.3979 126.689 33.3979C127.705 33.3979 128.212 33.3979 128.974 33.6524ZM138.114 164.974C136.083 166.246 134.052 167.773 132.021 168.791C130.751 169.555 129.228 170.318 127.959 171.082C124.15 172.863 120.088 174.136 115.772 174.899C111.456 175.663 107.394 176.426 102.824 176.426C99.0156 176.426 95.4611 176.172 91.6529 175.663C88.6062 175.408 85.8135 174.645 83.0207 174.136C79.2124 173.118 75.4042 171.845 71.5959 170.064C66.772 167.773 61.9482 165.483 57.6321 162.429C57.1244 161.92 56.3627 161.665 55.601 161.411C55.0933 161.156 54.3316 161.156 53.8238 160.902C53.3161 160.647 52.8083 160.138 52.5544 159.884C52.3005 159.884 52.0466 159.629 52.0466 159.629C51.285 159.375 50.5233 159.375 49.7617 159.375C48.4922 159.375 47.4767 158.866 46.9689 157.593C46.9689 157.339 46.715 157.339 46.715 157.084C45.6995 156.83 44.9378 156.575 43.9223 156.066C43.1606 155.812 42.399 155.557 41.8912 155.048C41.1295 154.539 40.114 153.776 39.3523 153.521C37.829 153.012 36.3057 151.994 34.7824 151.231C33.0052 150.213 30.9741 149.449 29.7047 147.922C28.6891 147.668 27.9275 147.413 27.1658 147.159C25.8964 146.65 24.8808 146.141 23.6114 145.632C22.342 145.123 21.3264 144.359 20.5648 143.087C20.3109 142.578 19.8031 141.814 19.5492 141.305C17.772 137.742 16.2487 134.179 14.9793 130.362C13.9637 127.053 12.6943 123.745 12.1865 120.182C11.4249 116.874 10.9171 113.565 10.6632 110.002C10.4093 106.948 10.4093 104.149 10.4093 101.095C10.4093 100.331 10.4093 99.5676 10.1554 98.2951C9.90156 99.8221 9.39378 101.095 9.39378 102.367C9.39378 103.131 9.1399 103.894 9.1399 104.658C9.1399 105.167 8.88601 105.676 8.88601 106.185C8.88601 108.984 8.88601 112.038 8.88601 114.838C8.88601 117.891 9.39378 120.945 9.39378 123.999C9.39378 125.526 9.64767 126.799 9.90156 128.326C10.1554 129.598 10.4093 130.871 10.4093 132.398C10.4093 133.161 10.6632 133.925 10.6632 134.688C10.9171 135.452 11.171 136.215 11.171 136.979C11.4249 137.997 11.6788 139.015 11.4249 140.033C11.4249 140.287 11.4249 140.796 11.4249 141.051C11.6788 142.323 12.1865 143.85 12.4404 145.123C12.9482 146.904 13.456 148.686 13.9637 150.213C14.9793 153.012 15.9948 155.812 17.0104 158.611C17.5181 159.375 18.0259 160.393 18.0259 161.665C17.5181 161.92 17.2642 162.174 17.0104 162.429C17.5181 164.21 18.5337 165.992 18.7876 167.773C18.7876 168.028 19.0415 168.537 19.2953 168.791C20.5648 171.082 22.342 173.118 24.1192 174.899C24.8808 175.408 25.3886 176.172 26.1503 176.681C27.4197 177.444 28.6891 178.462 29.7047 179.226C32.2435 181.262 35.0363 183.043 37.829 184.316C40.114 185.588 42.6529 186.606 45.1917 187.37C48.2383 188.133 51.285 188.897 54.5855 189.406C55.3472 189.406 56.1088 189.66 56.8705 189.66C58.1399 189.915 59.4093 190.169 60.9326 189.66C61.1865 189.66 61.4404 189.66 61.6943 189.66C64.7409 190.169 67.7876 189.66 70.8342 189.915C71.5959 189.915 72.1036 189.915 72.8653 189.915C76.1658 189.66 79.2124 189.66 82.513 189.406C86.5751 189.151 90.6373 188.388 94.6995 187.624C97.4922 187.115 100.285 186.352 103.078 185.588C107.394 184.316 111.71 183.043 115.772 181.262C119.326 179.989 122.627 177.953 125.674 175.917C129.228 173.627 132.529 170.827 135.829 168.028C136.845 167.264 137.606 166.246 138.368 165.228C138.114 165.483 138.114 165.228 138.114 164.974ZM108.663 70.3002C108.917 70.5547 109.425 70.8092 109.933 71.0637C110.44 71.3182 110.694 71.8272 110.948 72.0817C111.202 73.0997 111.964 73.8632 112.472 74.6267C112.979 75.1357 113.233 75.6447 113.487 76.4082C113.995 77.4262 114.503 78.1897 114.756 79.2077C115.772 79.2077 116.026 78.9532 116.534 78.4442C117.549 77.4262 118.819 76.1537 120.088 74.8812C120.85 74.8812 121.611 74.3722 122.119 73.6087C122.373 73.3542 122.881 73.0997 123.135 72.8452C123.643 72.5907 124.404 72.3362 124.658 71.5727C125.674 70.0457 126.689 68.5188 127.451 66.7373C126.689 65.7193 125.674 65.2103 124.912 64.7013C123.896 64.1923 123.135 63.6833 122.119 63.1743C121.358 62.6653 120.342 62.1563 119.326 61.9018C117.295 61.3928 115.518 60.8838 113.487 60.1203H113.233C112.218 60.1203 111.456 59.6113 110.44 59.6113C109.171 59.3568 107.648 58.8478 106.632 58.8478C105.109 59.1023 104.093 59.3568 103.078 59.6113C102.824 59.8658 102.316 60.1203 102.316 60.6293V60.8838C103.839 62.4108 105.109 64.1923 105.87 66.2283C105.87 66.4828 105.87 66.4828 106.124 66.7373C107.14 67.5008 107.394 68.7732 107.648 70.0457C108.409 69.7912 108.409 70.0457 108.663 70.3002ZM126.435 138.506C125.166 139.015 124.15 139.269 123.135 138.76C122.881 138.76 122.373 138.76 122.119 139.015C121.611 139.269 121.104 139.269 120.596 139.015C119.58 138.506 118.565 138.251 117.295 138.251C116.534 138.251 115.772 137.997 115.264 137.742C114.756 137.488 114.249 137.233 113.995 136.979C113.487 136.724 112.725 136.47 111.964 136.724C110.44 137.233 109.171 137.997 107.902 138.76C106.886 139.269 106.124 140.287 105.617 141.051C105.109 141.56 104.855 142.069 104.347 142.069C104.093 142.069 104.093 142.323 103.839 142.323C103.585 142.578 103.332 143.341 103.586 143.85C104.093 144.359 104.601 145.123 105.363 145.632C107.394 145.123 109.171 144.868 111.202 144.359C112.472 144.105 113.995 143.85 115.264 143.341C116.788 143.087 118.057 142.323 119.58 142.323C119.834 142.323 120.342 142.069 120.596 142.069C121.865 141.56 122.881 141.051 124.15 140.796C125.42 140.287 126.689 139.778 127.959 139.524C128.212 139.524 128.466 139.269 128.466 139.269C128.72 139.015 129.228 138.76 128.974 138.251C128.974 137.997 128.72 137.742 128.72 137.488C127.451 136.724 126.943 137.488 126.435 138.506ZM96.2228 21.9455C98.7617 19.4005 101.047 17.11 103.332 14.8195C103.585 14.565 103.839 14.3105 104.093 14.056C104.093 14.056 104.093 14.056 104.093 13.8015V13.547L103.839 13.2925C101.301 13.547 98.5078 14.056 95.9689 14.3105C94.1917 15.074 92.1606 15.3285 90.3834 15.8375C90.1295 15.8375 89.6218 15.8375 89.3679 16.092L89.114 16.3465C89.114 16.3465 89.114 16.601 89.3679 16.601C89.6218 16.8555 89.8756 16.8555 89.8756 16.8555C91.6528 17.619 93.1762 18.637 94.6995 20.164C95.2073 20.673 95.715 21.4365 96.2228 21.9455ZM10.4093 94.9866C10.4093 95.4956 10.1554 95.7501 10.1554 95.7501C10.1554 96.0046 10.1554 96.2591 10.1554 96.7681C10.4093 96.2591 10.4093 96.2591 10.4093 96.0046C10.4093 95.7501 10.4093 95.4956 10.4093 94.9866Z" fill="#FCDB71"/>
<path d="M155.632 49.1768L155.886 48.9223H156.14V49.1768C156.14 49.1768 155.886 49.1768 155.632 49.1768Z" fill="#FCDB71"/>
<path d="M128.974 33.6524L129.228 33.3979C129.228 33.9069 128.974 33.6524 128.974 33.6524Z" fill="#FCDB71"/>
<path d="M153.855 48.9223L154.109 48.6678C154.109 48.9223 153.855 48.6679 153.855 48.9223Z" fill="#FCDB71"/>
<path d="M153.855 49.9403C153.855 49.6858 153.855 49.6858 153.855 49.4313C154.109 49.4313 154.109 49.6858 154.617 49.6858C154.109 49.6858 154.109 49.6858 153.855 49.9403Z" fill="#FCDB71"/>
<path d="M136.382 90.9397C136.282 89.5397 136.282 88.0397 136.182 86.6397C136.182 86.0397 136.082 85.5397 135.982 84.9397C135.882 84.0397 135.682 83.1397 135.582 82.2397C135.382 80.5397 135.082 78.8397 134.282 77.2397C133.582 75.8397 132.882 74.3397 132.182 72.9397C131.282 71.2397 130.082 69.8397 128.682 68.5397C128.382 68.2397 127.982 68.0397 127.882 67.8397C127.782 66.1397 127.682 64.7397 127.482 63.3397C126.882 58.2397 123.882 55.1397 119.182 53.5397C117.482 52.9397 115.682 52.6397 113.882 52.8397C113.382 52.8397 112.982 52.7397 112.482 52.5397C111.282 51.9397 110.082 51.3397 108.782 50.8397C106.882 50.1397 105.082 49.2397 103.382 48.1397C101.782 47.1397 100.182 46.2397 98.3818 45.5397C94.9818 44.0397 91.3818 42.6397 87.7818 41.1397C83.8818 39.5397 79.6818 38.8397 75.5818 38.3397C73.4818 38.0397 71.2818 37.9397 69.0818 38.2397C67.1818 38.4397 65.2818 38.6397 63.3818 39.0397C58.5818 39.8397 53.9818 41.5397 49.6818 43.8397C48.2818 44.5397 46.8818 45.3397 45.6818 46.3397C40.4818 50.4397 36.5818 55.5397 33.8818 61.6397C33.0818 63.5397 32.2818 65.3397 31.5818 67.2397C31.1818 68.3397 30.5818 69.4397 29.8818 70.4397C27.4818 73.8397 26.4818 77.6397 26.2818 81.7397C26.2818 82.3397 26.1818 82.8397 25.9818 83.4397C25.3818 85.0397 24.9818 86.6397 24.7818 88.3397C24.6818 89.3397 24.4818 90.3397 24.3818 91.3397C23.8818 95.5397 24.1818 99.7397 25.7818 103.74C27.2818 107.24 28.5818 110.74 30.0818 114.14C31.1818 116.54 31.5818 119.04 32.1818 121.54C30.8818 122.64 29.3818 122.84 27.8818 122.04C27.2818 121.74 26.6818 121.54 26.1818 121.24C24.8818 120.34 23.5818 119.44 22.2818 118.54C22.0818 118.44 21.8818 118.14 21.4818 118.14C21.5818 118.34 21.6818 118.44 21.7818 118.64C22.2818 119.14 22.7818 119.64 23.3818 120.14C24.7818 121.24 26.2818 122.04 27.8818 122.64C27.9818 122.74 28.0818 122.84 28.2818 123.04C26.8818 123.44 25.5818 123.74 24.2818 123.74C21.2818 123.84 18.5818 123.24 15.9818 121.64C15.2818 121.24 14.5818 120.74 13.8818 120.34C10.9818 118.44 8.5818 116.04 6.8818 112.94C6.3818 112.14 5.9818 111.34 5.2818 110.64C4.6818 109.94 4.2818 109.14 4.0818 108.24C3.1818 104.64 2.0818 100.94 1.6818 97.1397C1.4818 95.6397 1.3818 94.0397 1.6818 92.5397C1.9818 90.6397 2.3818 88.7397 2.7818 86.8397C3.2818 84.2397 3.6818 81.5397 3.3818 78.8397C3.0818 75.7397 3.3818 72.7397 3.9818 69.7397C4.6818 66.5397 5.4818 63.3397 6.3818 60.2397C6.4818 59.9397 6.5818 59.5397 6.6818 59.1397C6.3818 59.3397 6.1818 59.5397 6.0818 59.7397C5.4818 61.2397 4.7818 62.7397 4.1818 64.3397C2.5818 68.8397 1.7818 73.4397 2.1818 78.2397C2.3818 80.3397 2.3818 82.3397 1.9818 84.4397C1.6818 85.8397 1.4818 87.2397 1.1818 88.7397C0.881799 90.5397 0.481799 92.2397 0.481799 94.0397C0.481799 96.0397 0.781799 97.9397 1.1818 99.9397C1.6818 102.64 2.5818 105.24 3.3818 107.84C3.4818 108.14 3.6818 108.54 3.5818 108.84C3.4818 110.04 3.9818 110.94 4.4818 111.94C4.8818 112.54 5.2818 113.14 5.5818 113.74C6.3818 115.14 7.3818 116.54 8.5818 117.64C9.8818 118.94 11.2818 120.14 12.6818 121.34C14.1818 122.64 15.7818 123.64 17.5818 124.44C20.8818 125.84 24.2818 126.04 27.6818 124.64C28.4818 124.34 29.2818 123.94 30.0818 123.64C30.8818 123.34 31.6818 123.14 32.4818 123.24C33.5818 124.24 34.5818 125.14 35.7818 126.14C35.8818 127.24 35.6818 128.24 35.2818 129.14C34.9818 129.84 34.6818 130.54 34.4818 131.34C34.2818 131.84 34.0818 132.34 33.7818 132.74C33.1818 133.64 32.4818 134.54 31.9818 135.54C31.3818 136.74 30.6818 137.84 29.7818 138.94C28.4818 140.44 27.1818 141.94 25.7818 143.34C24.4818 144.64 23.1818 145.94 21.8818 147.24C18.8818 150.24 15.8818 153.24 13.5818 156.84C12.8818 157.94 11.9818 158.74 10.8818 159.34C10.3818 159.64 9.9818 159.84 9.5818 160.14C8.1818 161.04 6.8818 161.94 5.4818 162.94C3.9818 164.04 2.6818 165.24 1.4818 166.74C0.0817986 168.54 -0.418201 170.64 0.381799 172.84C0.581799 173.44 0.781799 174.04 0.981799 174.64C1.3818 175.74 2.1818 176.64 3.2818 177.14C4.1818 177.54 4.9818 177.94 5.8818 178.34C7.8818 179.24 9.6818 180.34 11.3818 181.74C12.1818 182.34 12.8818 182.94 13.6818 183.54C15.5818 185.14 17.6818 186.44 19.7818 187.74C22.8818 189.54 26.2818 190.54 29.7818 190.94C32.0818 191.24 34.3818 191.24 36.6818 191.24C39.7818 191.24 42.8818 191.54 45.8818 192.24C48.0818 192.74 50.1818 193.44 52.2818 193.94C55.9818 194.84 59.7818 195.74 63.4818 196.54C66.5818 197.24 69.6818 197.64 72.7818 197.44C73.0818 197.44 73.4818 197.44 73.7818 197.44C74.6818 197.44 75.5818 197.54 76.4818 197.54C77.8818 197.54 79.3818 197.44 80.7818 197.34C81.1818 197.34 81.5818 197.34 81.9818 197.24C82.5818 197.14 82.9818 196.84 83.2818 196.34C83.5818 195.74 83.7818 195.14 83.6818 194.44C83.5818 193.64 83.2818 192.94 82.7818 192.34C82.2818 191.64 81.6818 190.94 81.0818 190.34C79.9818 189.14 78.7818 187.94 77.3818 187.14C74.7818 185.64 72.4818 183.74 70.5818 181.34C70.5818 181.04 70.5818 180.84 70.5818 180.54C70.6818 179.34 70.7818 178.14 70.8818 176.94C71.2818 171.74 73.0818 167.04 76.2818 162.84C76.7818 162.24 77.1818 161.64 77.8818 161.24C79.5818 161.74 81.1818 162.24 82.7818 162.74C84.8818 163.44 87.0818 164.04 89.3818 164.24C92.2818 164.54 95.1818 164.14 97.7818 162.84C97.9818 162.74 98.1818 162.54 98.3818 162.34C98.8818 161.74 99.3818 161.04 99.8818 160.34C100.682 159.24 100.982 158.04 100.782 156.64C100.682 156.14 100.682 155.64 100.782 155.24C100.882 154.04 101.482 153.44 102.682 153.34C103.782 153.24 104.682 152.74 105.482 152.04C105.982 151.54 106.282 150.94 106.082 150.24C105.882 149.54 105.582 148.94 105.282 148.24C105.682 148.04 106.082 148.34 106.482 148.54C107.382 148.94 108.382 148.94 109.282 148.74C110.382 148.44 110.982 147.74 111.182 146.64C111.182 146.24 111.182 145.74 111.282 145.34C111.282 145.04 111.382 144.74 111.382 144.34C112.882 144.44 114.282 144.64 115.582 145.04C116.782 145.44 117.982 145.24 119.082 144.74C120.582 143.94 121.682 142.84 122.082 141.04C122.382 139.54 122.282 138.04 122.382 136.54C122.382 135.54 122.382 134.54 122.482 133.54C122.582 131.64 122.782 129.74 122.882 127.94C122.982 126.94 122.882 125.94 122.682 124.94C122.582 125.14 122.582 125.44 122.582 125.64C122.382 127.14 122.282 128.64 122.082 130.14C121.682 132.84 121.282 135.54 121.382 138.34C121.382 139.24 121.182 140.14 121.282 140.94C121.482 142.04 120.882 142.74 120.082 143.34C118.782 144.14 117.482 144.54 115.982 143.94C115.782 143.84 115.582 143.84 115.382 143.74C113.882 143.34 112.482 143.44 110.982 143.94C110.782 144.84 110.582 145.74 110.382 146.54C110.182 147.14 109.782 147.54 109.182 147.64C107.882 147.74 106.682 147.84 105.482 147.84C103.882 147.84 102.282 147.94 100.882 148.74C100.782 148.84 100.682 148.94 100.382 149.34C101.282 149.24 101.982 149.04 102.582 148.84C103.082 148.64 103.582 148.54 104.182 148.54C104.382 148.54 104.682 148.64 104.782 148.84C105.682 150.04 105.382 151.34 104.082 151.94C103.682 152.14 103.282 152.24 102.882 152.44C101.082 153.44 99.7818 154.84 99.9818 157.14C100.082 157.94 99.7818 158.74 99.3818 159.54C99.0818 160.14 98.7818 160.64 98.5818 161.24C98.2818 162.04 97.7818 162.44 97.0818 162.74C96.6818 162.94 96.1818 163.04 95.6818 163.14C93.0818 163.64 90.5818 163.54 88.0818 162.94C86.3818 162.54 84.6818 162.04 82.9818 161.54C81.2818 161.04 79.4818 160.74 77.8818 160.84C75.8818 162.14 74.5818 164.04 73.2818 165.84C72.7818 166.54 72.3818 167.34 71.9818 168.14C70.4818 171.44 69.7818 174.94 69.6818 178.54C69.6818 180.34 69.8818 182.24 70.0818 184.04C70.0818 184.64 70.2818 185.24 70.3818 185.84C70.7818 184.74 70.4818 183.54 70.8818 182.54C70.9818 182.54 71.0818 182.54 71.0818 182.64C71.2818 182.94 71.4818 183.14 71.6818 183.44C73.0818 185.14 74.5818 186.84 76.4818 188.04C78.7818 189.54 80.3818 191.54 81.9818 193.74C82.3818 194.34 82.6818 194.94 82.5818 195.84C82.2818 195.94 81.9818 196.04 81.5818 196.04C79.7818 196.14 77.9818 196.24 76.2818 196.34C75.5818 196.34 74.8818 196.34 74.0818 196.34C73.5818 196.34 73.0818 196.24 72.6818 196.34C70.0818 196.54 67.5818 196.24 65.0818 195.64C59.3818 194.34 53.5818 193.14 47.9818 191.64C45.1818 190.84 42.3818 190.44 39.3818 190.34C37.2818 190.24 35.1818 190.14 32.9818 190.14C31.5818 190.14 30.1818 190.04 28.7818 189.84C26.3818 189.44 23.9818 188.74 21.7818 187.64C19.0818 186.24 16.4818 184.54 14.1818 182.64C12.2818 181.04 10.3818 179.54 8.1818 178.34C7.0818 177.74 6.0818 177.24 4.8818 176.74C3.1818 176.04 2.1818 174.84 1.6818 173.14C1.5818 172.84 1.4818 172.64 1.4818 172.34C1.1818 171.14 1.2818 170.04 1.7818 168.94C2.1818 168.24 2.5818 167.54 3.1818 166.94C3.9818 166.04 4.8818 165.14 5.8818 164.34C7.4818 163.04 9.0818 161.94 10.7818 160.74C11.5818 160.14 12.3818 159.64 13.0818 158.94C14.4818 157.64 15.8818 156.14 17.2818 154.74C20.2818 151.64 23.2818 148.54 26.2818 145.54C29.6818 142.14 32.4818 138.44 34.7818 134.24C35.0818 133.64 35.4818 133.04 35.7818 132.54C36.3818 131.54 36.9818 130.54 37.3818 129.44C37.5818 128.94 37.8818 128.54 38.1818 128.14C38.3818 128.24 38.5818 128.34 38.6818 128.44C39.5818 128.94 40.5818 129.24 41.6818 129.34C43.8818 129.54 45.9818 129.34 48.1818 128.94C52.0818 128.24 55.6818 127.04 58.7818 124.24C61.9818 121.44 65.6818 119.84 69.9818 119.34C72.3818 119.04 74.8818 118.64 77.2818 118.24C79.6818 117.84 81.9818 117.14 83.7818 115.34C89.8818 114.84 95.1818 113.14 98.8818 108.14C100.082 107.94 101.182 107.74 102.182 107.44C104.882 106.74 107.382 105.64 109.282 103.44C110.182 102.44 111.082 101.94 112.382 101.54C116.282 100.44 119.282 98.2397 121.282 94.6397C121.482 94.2397 121.782 94.0397 122.082 93.8397C122.882 93.3397 123.782 92.9397 124.582 92.3397C126.282 91.0397 127.582 89.4397 128.182 87.4397C128.282 87.1397 128.382 86.8397 128.482 86.6397C128.582 86.4397 128.682 86.1397 129.082 86.2397C129.182 86.8397 129.382 87.5397 129.482 88.1397C129.782 89.1397 129.782 90.1397 129.782 91.1397C129.482 94.6397 129.082 98.0397 128.182 101.44C127.082 105.54 126.082 109.64 124.582 113.64C123.482 116.64 122.882 119.74 122.882 122.94C122.882 123.14 122.782 123.44 123.182 123.54C123.282 123.24 123.382 123.04 123.482 122.74C123.782 121.34 124.182 119.94 124.482 118.54C124.882 116.54 125.482 114.64 126.182 112.74C126.782 111.14 127.482 109.54 127.882 107.84C128.682 105.04 129.382 102.14 130.082 99.3397C130.182 99.0397 130.282 98.7397 130.382 98.4397C131.882 98.3397 133.182 97.8397 134.282 96.9397C135.782 95.1397 136.582 93.2397 136.382 90.9397ZM134.882 93.5397C134.182 95.5397 132.782 97.0397 130.682 97.6397C130.582 97.6397 130.382 97.6397 130.182 97.5397C130.182 97.1397 130.282 96.6397 130.282 96.2397C130.282 95.8397 130.382 95.3397 130.382 94.9397C130.382 93.6397 130.382 92.3397 130.382 91.0397C130.382 90.5397 130.382 90.0397 130.382 89.6397C130.582 88.0397 130.182 86.6397 129.382 85.2397C129.382 85.1397 129.182 85.1397 129.082 85.0397C128.982 85.1397 128.682 85.2397 128.582 85.4397C128.182 86.0397 127.782 86.6397 127.582 87.3397C126.682 89.3397 125.282 90.9397 123.482 92.0397C123.082 92.2397 122.782 92.5397 122.282 92.4397C122.182 92.4397 121.882 92.5397 121.782 92.6397C121.382 93.2397 120.782 93.3397 120.182 93.5397C118.382 94.1397 116.482 94.5397 114.582 94.7397C112.682 94.9397 110.882 95.1397 108.782 95.3397C109.082 95.5397 109.282 95.6397 109.482 95.7397C111.282 96.3397 113.182 96.3397 115.082 96.1397C116.782 95.8397 118.382 95.5397 119.982 94.9397C120.082 94.8397 120.282 94.9397 120.582 94.8397C120.382 95.1397 120.382 95.3397 120.182 95.5397C118.182 98.2397 115.382 99.8397 112.182 100.64C109.582 101.24 106.982 101.44 104.282 101.04C102.682 100.84 101.182 100.64 99.5818 100.44C99.1818 100.44 98.7818 100.34 98.4818 100.34C98.3818 100.74 98.6818 100.74 98.7818 100.84C101.982 102.44 105.282 103.04 108.882 102.44C108.982 102.44 109.182 102.44 109.282 102.44C109.382 102.44 109.482 102.44 109.682 102.54C109.582 102.74 109.482 102.94 109.282 103.14C107.382 105.04 104.982 106.24 102.382 106.74C101.682 106.94 100.882 107.24 100.082 107.04C99.9818 106.54 99.7818 106.44 99.6818 106.64C99.3818 107.04 98.8818 107.14 98.3818 107.14C96.4818 107.14 94.4818 107.04 92.6818 106.54C90.8818 106.04 89.1818 105.64 87.3818 105.14C87.2818 105.44 87.4818 105.54 87.6818 105.64C89.2818 106.84 91.0818 107.54 93.0818 107.84C94.3818 108.04 95.6818 108.14 96.9818 108.14C97.3818 108.14 97.7818 108.14 98.0818 108.14C98.2818 108.44 98.0818 108.64 97.8818 108.84C95.8818 110.94 93.3818 112.34 90.5818 113.04C88.8818 113.44 87.0818 113.54 85.2818 113.44C82.0818 113.34 78.9818 112.64 75.7818 112.34C74.4818 112.24 73.1818 112.24 71.8818 112.24C71.7818 112.24 71.7818 112.34 71.6818 112.34C72.0818 112.64 72.2818 112.74 72.8818 112.94C73.3818 113.04 73.8818 113.24 74.3818 113.34C74.8818 113.44 75.2818 113.54 75.7818 113.64C76.2818 113.74 76.7818 113.84 77.3818 113.94C77.8818 114.04 78.2818 114.14 78.7818 114.14C79.2818 114.24 79.7818 114.24 80.1818 114.34C80.6818 114.44 81.1818 114.44 81.7818 114.54C82.2818 114.64 82.6818 114.54 83.1818 114.84C82.3818 115.64 81.4818 116.04 80.5818 116.24C79.0818 116.64 77.5818 116.94 76.0818 117.14C73.9818 117.44 71.8818 117.54 69.7818 117.74C68.0818 117.94 66.3818 118.24 64.6818 118.84C62.4818 119.64 60.6818 120.84 59.0818 122.54C58.8818 122.74 58.7818 122.84 58.5818 123.04C57.6818 124.34 56.3818 124.94 54.9818 125.54C53.3818 126.24 51.6818 126.64 49.9818 126.94C48.5818 127.14 47.0818 127.24 45.6818 127.44C44.2818 127.64 42.8818 127.44 41.4818 127.24C40.7818 127.14 40.2818 126.74 39.7818 126.44C38.5818 125.64 37.4818 124.74 36.5818 123.54C36.5818 123.44 36.5818 123.34 36.4818 123.24C37.9818 123.04 39.4818 123.04 40.7818 122.34C41.1818 122.04 41.5818 121.74 42.0818 121.44C41.8818 121.04 41.5818 121.24 41.4818 121.34C40.9818 121.54 40.4818 121.74 39.9818 121.94C38.5818 122.44 37.1818 122.54 35.6818 122.54C35.4818 122.24 35.2818 122.04 35.0818 121.74C33.8818 119.74 32.6818 117.74 31.9818 115.54C31.8818 115.24 31.7818 114.94 31.7818 114.54C31.4818 113.04 31.0818 111.54 30.4818 110.14C29.4818 107.94 28.5818 105.84 27.5818 103.64C26.6818 101.54 25.7818 99.4397 25.5818 97.1397C25.3818 95.6397 25.3818 94.0397 25.3818 92.5397C25.3818 92.1397 25.5818 91.8397 25.6818 91.4397L25.5818 91.3397C25.3818 91.1397 25.2818 90.8397 25.3818 90.5397C25.5818 87.8397 25.7818 85.2397 26.7818 82.7397C26.9818 82.2397 27.1818 81.6397 27.3818 81.0397C27.1818 81.0397 27.0818 80.9397 26.9818 80.9397C26.9818 80.8397 26.8818 80.8397 26.8818 80.7397C27.2818 78.2397 27.9818 75.7397 29.1818 73.4397C30.2818 71.2397 31.7818 69.4397 33.7818 67.9397C35.4818 66.6397 37.2818 65.5397 39.1818 64.6397C39.5818 64.4397 39.9818 64.2397 40.3818 63.9397C39.2818 63.9397 37.8818 64.3397 35.9818 65.4397C34.6818 66.1397 33.4818 67.0397 32.1818 67.8397C32.1818 67.7397 32.0818 67.5397 32.1818 67.4397C33.8818 64.0397 35.3818 60.4397 37.4818 57.1397C40.0818 53.2397 43.2818 49.8397 47.0818 46.9397C47.9818 46.2397 49.0818 45.6397 50.1818 45.0397C53.6818 43.2397 57.1818 41.6397 60.9818 40.7397C63.1818 40.2397 65.2818 39.9397 67.4818 39.6397C68.8818 39.4397 70.3818 39.4397 71.7818 39.3397C74.0818 39.3397 76.3818 39.7397 78.6818 40.0397C79.7818 40.2397 80.8818 40.4397 81.9818 40.6397C84.9818 41.2397 87.7818 42.4397 90.5818 43.5397C92.9818 44.4397 95.2818 45.5397 97.6818 46.5397C99.5818 47.3397 101.382 48.3397 103.182 49.4397C104.482 50.3397 105.882 51.0397 107.382 51.6397C108.382 52.0397 109.382 52.3397 110.382 52.5397C110.982 52.6397 111.582 52.7397 112.182 53.0397C112.682 53.2397 113.282 53.2397 113.882 53.3397C116.982 53.6397 119.882 54.4397 122.482 56.3397C124.482 57.9397 125.682 59.9397 126.182 62.3397C126.482 63.7397 126.482 65.2397 126.482 66.6397C126.482 68.4397 126.582 70.3397 126.582 72.1397C126.582 72.4397 126.682 72.6397 126.782 72.9397C127.482 71.5397 127.482 69.8397 127.882 68.1397C128.382 68.6397 128.682 68.9397 128.982 69.2397C129.782 70.3397 130.582 71.3397 131.182 72.5397C132.082 74.4397 132.882 76.4397 133.682 78.3397C134.082 79.4397 134.282 80.6397 134.382 81.8397C134.382 82.5397 134.482 83.2397 134.582 83.8397C134.882 85.3397 134.882 87.0397 135.482 88.5397C135.182 90.3397 135.482 92.0397 134.882 93.5397Z" fill="#304C73"/>
<path d="M36.1818 55.2397C35.6818 55.0397 35.5818 54.5397 35.4818 54.1397C34.5818 52.3397 33.6818 50.5397 32.8818 48.6397C31.0818 44.7397 27.3818 43.7397 24.3818 43.9397C23.4818 44.0397 22.4818 44.1397 21.5818 44.4397C18.2818 45.3397 15.1818 46.6397 12.6818 48.9397C11.3818 50.2397 10.2818 51.6397 9.1818 53.1397C8.8818 53.5397 8.7818 54.0397 8.2818 54.1397C8.2818 53.9397 8.3818 53.7397 8.4818 53.5397C9.4818 51.7397 10.7818 50.0397 12.1818 48.5397C13.0818 47.6397 13.9818 46.8397 15.0818 46.2397C17.4818 44.7397 19.9818 43.6397 22.7818 43.0397C25.1818 42.5397 27.4818 42.6397 29.6818 43.7397C31.2818 44.4397 32.4818 45.5397 33.3818 47.0397C34.0818 48.2397 34.6818 49.5397 35.0818 50.8397C35.4818 52.0397 35.7818 53.3397 36.1818 54.5397C36.1818 54.8397 36.1818 55.0397 36.1818 55.2397Z" fill="#304C73"/>
<path d="M120.482 112.64C120.282 112.14 119.982 111.64 119.582 111.34C117.682 110.04 115.682 109.04 113.182 108.94C110.182 108.84 107.282 109.44 104.482 110.44C103.982 110.64 103.382 110.84 102.882 111.54C104.082 111.54 105.082 111.14 105.982 110.84C107.982 110.14 109.982 110.04 112.082 110.34C113.982 110.54 115.682 111.24 117.382 112.14C118.482 112.64 119.482 113.44 120.282 114.44C120.382 114.54 120.582 114.64 120.782 114.94C120.982 113.94 120.682 113.24 120.482 112.64ZM114.382 110.14C114.182 110.04 114.082 109.94 114.082 109.74C115.782 109.94 117.182 110.74 118.582 111.54C119.282 111.94 119.282 112.04 119.782 113.14C118.082 111.64 116.282 110.84 114.382 110.14Z" fill="#304C73"/>
<path d="M76.3818 158.64C76.1818 158.64 76.0818 158.64 76.0818 158.64C73.8818 157.14 71.5818 155.64 69.5818 153.84C66.4818 151.04 64.1818 147.74 62.8818 143.74C62.4818 142.44 62.0818 141.14 61.7818 139.84C61.7818 139.64 61.7818 139.54 61.8818 139.34C62.0818 139.64 62.1818 140.04 62.3818 140.34C63.2818 142.24 64.0818 144.24 64.9818 146.14C66.2818 148.94 68.1818 151.34 70.3818 153.34C72.0818 154.84 73.7818 156.34 75.4818 157.74C75.7818 157.94 76.1818 158.14 76.3818 158.64Z" fill="#304C73"/>
<path d="M112.782 115.34C112.682 115.24 112.682 115.14 112.682 115.04C112.782 115.14 112.782 115.24 112.782 115.34Z" fill="#304C73"/>
<path d="M113.382 117.34C113.082 117.34 112.682 117.24 112.282 117.24C112.182 117.54 112.182 117.84 112.082 118.04C111.882 118.64 111.682 119.14 110.982 119.34C111.082 119.04 111.282 118.74 111.382 118.54C111.582 118.14 111.782 117.74 111.782 117.14C109.482 116.04 106.982 116.34 104.482 116.34C104.182 116.64 104.382 116.84 104.482 117.04C104.982 117.54 105.482 118.14 105.882 118.64C105.982 118.74 105.882 118.94 105.882 119.04C105.782 119.14 105.582 119.14 105.482 119.04C105.082 118.54 104.582 118.04 104.182 117.44C103.982 117.14 103.882 116.84 103.682 116.64C103.482 116.44 103.282 116.44 102.882 116.24C105.282 115.64 107.582 115.74 109.782 115.84C110.482 115.94 111.182 116.24 111.882 116.44C112.182 116.54 112.382 116.64 112.782 116.74C112.782 116.34 112.782 115.94 112.682 115.54C112.882 115.84 113.182 115.94 113.082 116.34C113.182 116.54 113.282 116.94 113.382 117.34Z" fill="#304C73"/>
<path d="M108.282 140.44C108.482 140.84 108.682 141.34 108.882 141.74V141.84C107.782 141.34 107.182 140.54 107.282 139.44C107.382 138.74 107.582 138.24 108.082 137.74C108.582 137.14 108.782 137.04 109.682 136.84C109.282 137.14 108.982 137.44 108.682 137.74C107.782 138.54 107.682 139.34 108.282 140.44Z" fill="#304C73"/>
<path d="M24.1818 116.44C24.0818 116.54 24.1818 116.54 24.1818 116.44V116.44Z" fill="#304C73"/>
<path d="M30.8818 120.34C30.6818 120.64 30.3818 120.54 30.1818 120.44C28.0818 119.34 26.0818 118.14 24.1818 116.64C24.0818 116.64 24.0818 116.54 24.0818 116.44C24.3818 116.54 24.5818 116.54 24.8818 116.74C26.0818 117.44 27.2818 118.24 28.4818 118.94C29.1818 119.34 29.8818 119.64 30.4818 120.04C30.6818 120.04 30.7818 120.24 30.8818 120.34Z" fill="#304C73"/>
<path d="M116.182 142.84C115.682 142.84 115.382 142.94 115.182 142.84C113.882 142.24 112.582 142.14 111.282 142.24C111.182 142.24 111.182 142.14 111.082 142.14C111.782 141.54 112.282 141.34 112.982 141.54C113.482 141.64 113.982 141.84 114.482 142.04C114.882 142.14 115.382 142.44 116.182 142.84Z" fill="#304C73"/>
<path d="M109.382 119.84C109.882 119.84 110.482 119.54 110.982 119.34C110.982 119.64 110.982 119.94 110.882 120.24C108.882 120.64 108.382 120.54 107.082 119.54C107.882 119.74 108.682 119.94 109.382 119.84Z" fill="#304C73"/>
<path d="M120.182 125.34C120.182 126.74 120.182 128.04 120.182 129.34C120.082 129.34 119.982 129.34 119.882 129.34C119.882 126.64 119.782 124.04 120.382 121.14C120.682 122.74 120.182 124.04 120.182 125.34Z" fill="#304C73"/>
<path d="M112.582 114.84C112.582 114.84 112.682 114.94 112.682 115.04C111.582 114.84 110.382 114.64 109.282 114.44C110.382 114.14 111.482 114.44 112.582 114.84Z" fill="#304C73"/>
<path d="M7.4818 55.6397C7.5818 54.8397 7.5818 54.8397 8.1818 54.2397C8.1818 54.8397 7.7818 55.2397 7.4818 55.6397Z" fill="#304C73"/>
<path d="M120.582 117.64V116.54C120.982 116.94 120.782 117.34 120.582 117.64Z" fill="#304C73"/>
<path d="M24.0818 116.44C23.5818 116.34 23.4818 116.34 23.3818 115.84C23.6818 116.04 23.9818 116.14 24.0818 116.44Z" fill="#304C73"/>
<path d="M24.1818 116.44C24.0818 116.44 24.0818 116.44 24.1818 116.44V116.44Z" fill="#304C73"/>
<path d="M22.9818 115.64C23.0818 115.74 23.1818 115.74 23.2818 115.84C23.1818 115.84 23.0818 115.84 22.9818 115.84C22.9818 115.84 22.8818 115.74 22.8818 115.64H22.9818Z" fill="#304C73"/>
<path d="M23.3818 115.84C23.2818 115.84 23.2818 115.84 23.2818 115.84H23.3818Z" fill="#304C73"/>
<path d="M25.5818 91.2397C25.8818 90.8397 26.0818 90.4397 26.4818 90.1397C27.6818 89.0397 28.9818 88.1397 30.3818 87.4397C31.8818 86.7397 33.3818 85.9397 34.8818 85.1397C38.4818 83.2397 41.6818 80.8397 44.2818 77.6397C44.7818 77.0397 45.0818 76.4397 45.2818 75.6397C46.0818 71.4397 47.7818 67.6397 50.4818 64.3397C51.9818 62.4397 53.8818 60.9397 55.9818 59.7397C56.3818 59.5397 56.8818 59.3397 57.2818 59.1397C59.9818 57.9397 62.5818 56.4397 64.9818 54.6397C65.2818 54.3397 65.6818 54.1397 66.0818 53.9397C66.7818 53.6397 67.4818 54.1397 67.3818 54.9397C67.1818 55.7397 66.9818 56.6397 66.6818 57.4397C63.9818 64.1397 59.8818 69.7397 53.8818 73.8397C52.9818 74.4397 51.9818 74.9397 50.9818 75.4397C49.3818 76.1397 47.7818 76.8397 46.2818 77.5397C45.9818 77.7397 45.5818 77.9397 45.3818 78.2397C43.3818 80.6397 41.0818 82.5397 38.5818 84.2397C38.4818 84.3397 38.3818 84.4397 38.2818 84.6397C39.4818 84.5397 40.5818 84.3397 41.6818 84.2397C42.8818 84.1397 43.9818 84.0397 45.1818 84.2397C46.5818 84.4397 47.9818 84.2397 49.2818 83.9397C52.3818 83.1397 55.2818 81.9397 58.0818 80.4397C60.0818 79.3397 61.9818 78.1397 63.9818 77.0397C64.8818 76.5397 65.6818 76.0397 66.5818 75.5397C67.0818 75.2397 67.6818 75.0397 67.7818 74.2397C67.7818 73.9397 68.1818 73.7397 68.4818 73.5397C69.3818 72.9397 70.2818 72.2397 71.2818 71.6397C71.3818 70.0397 71.9818 68.6397 72.6818 67.2397C73.8818 64.8397 75.3818 62.5397 77.2818 60.5397C79.7818 57.9397 82.8818 56.2397 86.3818 55.2397C88.6818 54.5397 91.0818 54.1397 93.4818 54.0397C93.7818 54.0397 94.1818 54.0397 94.4818 54.1397C94.8818 54.2397 95.0818 54.7397 94.7818 55.0397C94.4818 55.3397 94.1818 55.6397 93.8818 55.9397C89.7818 59.6397 85.3818 62.9397 80.9818 66.1397C79.0818 67.5397 77.2818 68.9397 75.3818 70.2397C74.4818 70.9397 73.5818 71.5397 72.5818 72.2397C72.8818 72.5397 73.0818 72.4397 73.3818 72.3397C74.8818 71.9397 76.2818 71.4397 77.8818 71.1397C81.4818 70.4397 84.9818 70.0397 88.6818 70.3397C89.0818 70.3397 89.5818 70.4397 89.9818 70.4397C90.7818 70.4397 91.1818 70.0397 91.3818 69.2397C92.7818 64.4397 95.7818 60.9397 99.7818 58.2397C101.482 57.1397 103.382 56.7397 105.382 56.5397C106.082 56.4397 106.782 56.4397 107.582 56.3397C108.782 56.2397 109.882 56.4397 111.082 56.5397C111.682 56.6397 112.182 56.8397 112.382 57.6397C112.182 57.8397 111.982 58.0397 111.682 58.2397C108.582 59.9397 105.982 62.1397 103.482 64.5397C102.482 65.5397 101.382 66.5397 100.282 67.4397C98.5818 68.7397 96.6818 69.6397 94.5818 70.0397C94.1818 70.1397 93.7818 70.2397 93.2818 70.3397C93.2818 70.3397 93.2818 70.4397 93.1818 70.5397C93.7818 70.5397 94.3818 70.6397 94.9818 70.6397C96.2818 70.6397 97.4818 70.7397 98.7818 70.6397C101.282 70.5397 103.482 69.6397 105.382 68.0397C106.282 67.2397 107.182 66.4397 108.082 65.6397C109.582 64.4397 110.982 63.1397 112.582 61.9397C114.282 60.7397 116.082 59.7397 118.182 59.3397C120.182 59.0397 122.082 59.0397 124.082 59.6397C124.582 59.8397 125.082 59.9397 125.182 60.7397C124.982 60.8397 124.782 61.0397 124.582 61.1397C123.482 61.5397 122.582 62.2397 121.782 63.1397C120.982 63.9397 120.182 64.8397 119.482 65.7397C118.982 66.2397 118.582 66.7397 118.182 67.2397C115.082 70.6397 111.182 72.2397 106.582 72.3397C104.882 72.3397 103.182 72.1397 101.582 71.6397C101.182 71.5397 100.782 71.4397 100.482 71.4397C99.1818 71.4397 97.9818 71.4397 96.6818 71.4397C96.0818 71.4397 95.3818 71.4397 94.7818 71.3397C90.9818 71.0397 87.1818 71.0397 83.3818 71.3397C82.8818 71.3397 82.2818 71.3397 81.7818 71.4397C81.5818 71.4397 81.3818 71.5397 81.0818 71.5397C81.1818 71.7397 81.1818 71.8397 81.1818 71.8397C83.0818 72.5397 84.9818 73.2397 86.8818 73.9397C90.1818 75.2397 93.6818 76.1397 97.0818 77.0397C99.8818 77.7397 102.682 78.5397 105.382 79.3397C106.282 79.5397 107.182 79.8397 108.082 80.0397C109.082 79.0397 109.982 78.1397 110.982 77.2397C113.482 74.9397 116.382 73.3397 119.682 72.5397C120.582 72.3397 120.782 72.3397 122.082 72.5397C121.482 72.6397 121.082 72.7397 120.782 72.7397C118.282 73.3397 115.982 74.4397 113.882 75.9397C112.582 76.8397 111.382 77.8397 110.082 78.8397C109.482 79.3397 108.982 79.8397 108.382 80.3397C108.482 81.1397 107.982 81.7397 107.382 82.2397C105.882 83.5397 104.182 84.2397 102.282 84.5397C97.2818 85.3397 92.4818 84.8397 87.7818 82.9397C85.0818 81.8397 82.6818 80.4397 80.7818 78.2397C79.9818 77.3397 79.1818 76.5397 78.4818 75.6397C77.2818 74.0397 75.5818 73.6397 73.7818 73.3397C73.4818 73.2397 72.9818 73.4397 72.6818 73.6397C70.9818 74.4397 69.2818 75.1397 67.5818 76.0397C65.7818 76.9397 64.0818 78.0397 62.2818 79.0397C58.7818 81.0397 55.1818 82.7397 51.2818 83.8397C50.4818 84.0397 49.6818 84.2397 48.7818 84.4397C48.9818 84.5397 49.0818 84.7397 49.2818 84.7397C51.7818 85.5397 54.3818 86.2397 56.8818 87.0397C57.8818 87.3397 58.8818 87.3397 59.7818 86.9397C61.5818 86.2397 63.3818 85.6397 65.2818 85.0397C67.4818 84.3397 69.7818 83.9397 72.0818 83.9397C75.8818 83.9397 79.6818 84.3397 83.3818 85.1397C84.0818 85.3397 84.7818 85.5397 85.4818 85.7397C85.7818 85.8397 86.0818 86.0397 86.3818 86.2397C87.0818 86.7397 87.0818 87.2397 86.3818 87.7397C83.6818 89.8397 80.7818 91.6397 77.3818 92.6397C74.5818 93.4397 71.6818 93.7397 68.7818 93.5397C67.5818 93.4397 66.3818 93.1397 65.2818 92.7397C62.7818 91.8397 60.2818 90.6397 57.9818 89.2397C57.6818 89.0397 57.6818 89.0397 57.4818 88.5397C54.8818 87.7397 52.3818 86.8397 49.7818 86.0397C46.6818 84.9397 43.4818 84.7397 40.1818 85.0397C37.9818 85.2397 35.8818 85.6397 33.9818 86.6397C33.0818 87.1397 32.0818 87.5397 31.0818 87.9397C29.2818 88.7397 27.5818 89.6397 26.1818 90.9397C25.9818 91.1397 25.7818 91.2397 25.5818 91.2397ZM88.3818 58.3397C88.2818 58.7397 87.8818 58.7397 87.5818 58.8397C85.1818 60.0397 82.7818 61.4397 80.5818 62.9397C77.8818 64.8397 75.4818 67.0397 73.5818 69.7397C73.4818 69.8397 73.2818 70.0397 73.4818 70.3397C79.7818 65.7397 86.3818 61.3397 92.2818 56.1397C92.5818 55.9397 92.7818 55.6397 93.0818 55.3397C92.8818 55.2397 92.7818 55.1397 92.7818 55.1397C90.9818 55.3397 89.1818 55.5397 87.3818 56.0397C84.6818 56.7397 82.0818 57.7397 79.7818 59.5397C76.0818 62.3397 73.6818 66.1397 71.8818 70.2397C71.7818 70.4397 71.8818 70.5397 71.7818 71.0397C72.1818 70.4397 72.3818 70.0397 72.6818 69.7397C76.3818 64.1397 81.4818 60.5397 87.7818 58.3397C87.9818 58.2397 88.1818 58.3397 88.3818 58.3397ZM106.782 81.2397C106.682 81.1397 106.582 81.0397 106.582 80.9397C103.382 80.0397 100.182 79.0397 96.9818 78.2397C92.2818 77.0397 87.7818 75.5397 83.3818 73.5397C82.8818 73.3397 82.2818 73.0397 81.7818 72.9397C80.6818 72.5397 79.4818 72.2397 78.2818 72.2397C78.0818 72.2397 77.7818 72.1397 77.6818 72.4397C77.7818 72.5397 77.7818 72.6397 77.7818 72.6397C80.1818 73.1397 82.0818 74.4397 84.0818 75.8397C85.0818 76.5397 86.0818 77.2397 87.0818 77.8397C88.6818 78.8397 90.3818 79.6397 92.1818 80.1397C93.7818 80.5397 95.4818 80.8397 97.0818 81.1397C97.7818 81.2397 98.4818 81.3397 99.1818 81.4397C99.1818 81.4397 99.2818 81.4397 99.2818 81.5397C99.2818 81.5397 99.2818 81.6397 99.2818 81.7397C99.1818 81.8397 98.9818 81.9397 98.7818 81.9397C97.0818 81.8397 95.3818 81.8397 93.7818 81.6397C90.6818 81.2397 87.9818 79.9397 85.4818 78.1397C84.4818 77.4397 83.4818 76.6397 82.3818 75.9397C81.3818 75.2397 80.2818 74.5397 79.0818 74.1397C78.8818 74.0397 78.6818 74.0397 78.3818 74.0397C79.9818 75.9397 81.4818 77.6397 83.1818 79.0397C83.9818 79.7397 84.8818 80.3397 85.7818 80.8397C90.3818 83.2397 95.3818 84.3397 100.582 83.8397C102.182 83.6397 103.782 83.2397 105.282 82.4397C105.882 82.0397 106.482 81.7397 106.782 81.2397ZM66.0818 55.3397C65.5818 55.6397 65.1818 55.9397 64.7818 56.2397C62.9818 57.5397 61.1818 58.6397 59.1818 59.5397C58.2818 59.9397 57.4818 60.3397 56.5818 60.8397C54.8818 61.6397 53.4818 62.7397 52.1818 64.0397C49.3818 66.9397 47.3818 70.4397 46.1818 74.2397C46.1818 74.5397 46.1818 74.7397 46.1818 74.9397C47.1818 74.0397 47.9818 73.0397 48.7818 72.0397C49.6818 71.0397 50.4818 70.0397 51.3818 69.1397C52.2818 68.2397 53.1818 67.3397 54.0818 66.5397C55.0818 65.6397 56.0818 64.8397 57.0818 64.0397C58.0818 63.2397 59.0818 62.4397 60.2818 61.8397C58.9818 63.2397 57.5818 64.6397 56.1818 66.0397C54.7818 67.5397 53.3818 68.9397 51.9818 70.4397C50.6818 71.8397 49.2818 73.3397 48.1818 74.9397C48.2818 75.0397 48.3818 75.0397 48.3818 75.0397C49.0818 74.7397 49.6818 74.5397 50.3818 74.2397C51.8818 73.6397 53.2818 72.8397 54.5818 71.8397C59.4818 68.1397 62.8818 63.3397 65.4818 57.8397C65.7818 57.2397 65.8818 56.6397 66.0818 56.0397C66.0818 55.9397 66.0818 55.7397 66.0818 55.3397ZM61.1818 89.5397C62.3818 90.0397 63.5818 90.5397 64.7818 91.1397C67.7818 92.4397 70.9818 92.8397 74.2818 92.3397C78.1818 91.7397 81.7818 90.2397 84.8818 87.7397C85.0818 87.6397 85.1818 87.4397 85.2818 87.2397C83.5818 86.4397 81.8818 86.2397 80.1818 85.9397C77.8818 85.5397 75.4818 85.4397 73.1818 85.1397C71.2818 84.9397 69.3818 85.0397 67.5818 85.5397C64.9818 86.1397 62.4818 86.9397 59.9818 87.6397C59.8818 87.6397 59.7818 87.7397 59.5818 87.9397C61.3818 88.2397 63.0818 88.6397 64.6818 88.7397C66.4818 88.9397 68.2818 88.9397 69.9818 88.9397C70.9818 88.9397 71.9818 88.8397 72.9818 88.8397C73.9818 88.7397 74.8818 88.7397 75.8818 88.6397C76.7818 88.5397 77.5818 88.4397 78.4818 88.4397L78.5818 88.5397C78.5818 88.6397 78.4818 88.7397 78.4818 88.7397C76.5818 89.3397 74.6818 89.7397 72.6818 89.9397C68.7818 90.2397 64.9818 90.0397 61.1818 89.5397ZM110.682 57.7397C110.282 57.6397 110.082 57.4397 109.782 57.4397C107.382 57.3397 105.082 57.4397 102.782 57.9397C101.682 58.2397 100.682 58.6397 99.7818 59.2397C97.8818 60.5397 96.1818 62.1397 94.6818 63.9397C93.5818 65.3397 92.5818 66.9397 91.9818 68.7397C91.8818 69.0397 91.7818 69.2397 91.9818 69.5397C92.7818 69.6397 93.3818 69.2397 93.7818 68.6397C93.9818 68.2397 94.2818 67.8397 94.5818 67.4397C96.2818 65.0397 98.3818 62.9397 100.882 61.3397C102.782 60.0397 104.882 59.2397 107.182 59.1397C107.282 59.1397 107.382 59.2397 107.682 59.3397C104.982 60.2397 102.382 61.2397 100.182 62.9397C97.8818 64.6397 95.3818 67.3397 94.4818 69.0397C94.5818 69.0397 94.6818 69.1397 94.6818 69.1397C94.8818 69.1397 95.0818 69.1397 95.2818 69.0397C96.6818 68.6397 97.9818 68.0397 99.1818 67.2397C100.282 66.4397 101.282 65.5397 102.282 64.6397C104.682 62.3397 107.282 60.0397 110.182 58.3397C110.282 58.0397 110.382 57.9397 110.682 57.7397ZM104.382 70.9397C104.882 71.1397 105.182 71.2397 105.482 71.2397C106.682 71.3397 107.782 71.2397 108.982 71.0397C112.282 70.4397 115.082 69.1397 117.382 66.5397C119.082 64.6397 120.682 62.5397 122.982 60.9397C122.682 60.8397 122.482 60.6397 122.182 60.6397C120.882 60.5397 119.482 60.4397 118.182 60.7397C116.882 61.0397 115.582 61.5397 114.482 62.2397C112.882 63.1397 111.382 64.3397 109.882 65.5397C107.982 67.1397 106.082 68.7397 103.882 70.0397V70.1397C103.982 70.1397 104.182 70.1397 104.282 70.1397C106.782 69.4397 109.182 68.3397 111.382 66.9397C112.782 66.0397 114.082 65.1397 115.482 64.1397C115.682 64.0397 115.782 63.7397 116.082 64.0397C112.982 67.6397 108.882 69.4397 104.382 70.9397Z" fill="#304C73"/>
<path d="M65.9818 114.24C65.5818 114.74 64.9818 114.84 64.4818 114.94C62.4818 115.64 60.4818 115.74 58.4818 115.44C56.6818 115.24 54.8818 114.84 53.0818 114.74C51.3818 114.64 49.5818 114.64 47.8818 114.74C45.8818 114.84 43.9818 115.24 42.0818 115.74C41.9818 115.74 41.8818 115.74 41.6818 115.64C41.8818 115.54 41.9818 115.34 42.1818 115.34C45.3818 113.94 48.6818 113.24 52.1818 113.74C54.1818 114.04 56.0818 114.34 57.9818 114.64C60.4818 115.04 62.9818 115.14 65.3818 114.24C65.5818 114.14 65.7818 114.24 65.9818 114.24Z" fill="#304C73"/>
<path d="M56.1818 44.6397C56.0818 45.1397 55.6818 45.1397 55.3818 45.2397C53.2818 46.3397 51.0818 47.4397 49.0818 48.6397C46.1818 50.3397 43.5818 52.5397 41.3818 55.0397C40.5818 55.9397 39.7818 56.9397 39.1818 58.0397C39.0818 58.2397 38.9818 58.6397 38.5818 58.5397C40.3818 54.7397 43.1818 51.8397 46.4818 49.3397C49.2818 47.2397 52.3818 45.7397 55.6818 44.6397C55.7818 44.7397 55.9818 44.7397 56.1818 44.6397Z" fill="#304C73"/>
<path d="M42.0818 117.34C42.0818 117.44 42.0818 117.54 42.0818 117.64C40.1818 119.24 37.9818 120.14 35.5818 120.34C35.4818 120.34 35.2818 120.34 35.1818 120.24C35.1818 120.24 35.0818 120.24 34.9818 120.14C35.2818 120.04 35.4818 119.94 35.6818 119.84C37.4818 119.64 39.0818 118.94 40.6818 118.14C40.9818 117.74 41.4818 117.34 42.0818 117.34Z" fill="#304C73"/>
<path d="M54.1818 48.1397C51.9818 49.3397 49.6818 50.4397 47.2818 51.7397C48.4818 50.4397 51.5818 48.7397 54.1818 48.1397Z" fill="#304C73"/>
<path d="M46.8818 119.24C46.9818 119.14 46.9818 118.94 47.0818 118.94C47.9818 118.74 48.9818 118.54 49.8818 118.34C50.5818 118.24 51.2818 118.14 51.9818 118.14C52.2818 118.14 52.5818 118.14 52.9818 118.24C52.8818 118.44 52.7818 118.54 52.7818 118.54C50.7818 118.64 48.7818 118.94 46.8818 119.24Z" fill="#304C73"/>
<path d="M46.7818 119.14C46.5818 119.14 46.4818 119.24 46.2818 119.24C46.2818 119.14 46.2818 119.14 46.2818 119.04C46.4818 119.14 46.6818 119.14 46.7818 119.14Z" fill="#304C73"/>
<path d="M56.1818 44.6397C56.2818 44.5397 56.2818 44.5397 56.3818 44.4397H56.4818C56.3818 44.5397 56.2818 44.6397 56.1818 44.6397Z" fill="#304C73"/>
<path d="M42.0818 117.34C42.1818 117.24 42.2818 117.24 42.3818 117.14C42.3818 117.14 42.3818 117.24 42.4818 117.24C42.2818 117.24 42.1818 117.34 42.0818 117.34Z" fill="#304C73"/>
<path d="M38.4818 58.6397C38.4818 58.7397 38.4818 58.7397 38.4818 58.8397V58.7397C38.4818 58.7397 38.4818 58.7397 38.4818 58.6397Z" fill="#304C73"/>
<path d="M88.9818 57.9397H89.0818C89.0818 57.8397 88.9818 57.8397 88.9818 57.7397C88.8818 57.8397 88.8818 57.8397 88.9818 57.9397Z" fill="#304C73"/>
<path d="M88.8818 57.9397C88.9818 58.4397 88.6818 58.3397 88.3818 58.3397C88.4818 57.9397 88.7818 58.0397 88.8818 57.9397Z" fill="#304C73"/>
<path d="M90.6818 200.04C90.5818 199.94 90.4818 199.84 90.3818 199.84C88.6818 198.64 87.2818 197.24 85.8818 195.84C85.1818 195.14 84.5818 194.44 83.8818 193.84C83.7818 193.74 83.5818 193.64 83.4818 193.54C83.5818 194.54 83.1818 195.54 82.5818 196.34C82.5818 196.34 82.5818 196.34 82.6818 196.34C83.7818 197.24 84.8818 198.14 86.0818 198.94C86.2818 199.04 86.3818 199.14 86.5818 199.34L86.4818 199.44C86.3818 199.44 86.1818 199.34 86.0818 199.34C85.1818 198.84 84.1818 198.44 83.2818 197.94C82.8818 197.64 82.4818 197.34 81.9818 197.04C81.8818 197.14 81.6818 197.24 81.5818 197.34C81.9818 197.64 82.3818 197.94 82.7818 198.24C84.2818 199.24 85.9818 200.04 87.7818 200.54C88.3818 200.74 89.0818 200.84 89.7818 200.94C90.0818 200.94 90.3818 200.94 90.5818 200.94C90.7818 200.94 90.8818 200.74 90.9818 200.64C90.9818 200.34 90.7818 200.24 90.6818 200.04Z" fill="#304C73"/>
</svg>
